<svg width="38" height="38" viewBox="0 0 38 38" fill="none" xmlns="http://www.w3.org/2000/svg">
<g id="add_circle_outline_24px">
<path id="icon/content/add_circle_outline_24px" fill-rule="evenodd" clip-rule="evenodd" d="M19 3.16666C10.26 3.16666 3.16669 10.26 3.16669 19C3.16669 27.74 10.26 34.8333 19 34.8333C27.74 34.8333 34.8334 27.74 34.8334 19C34.8334 10.26 27.74 3.16666 19 3.16666ZM17.4167 11.0833V17.4167H11.0834V20.5833H17.4167V26.9167H20.5834V20.5833H26.9167V17.4167H20.5834V11.0833H17.4167ZM6.33335 19C6.33335 25.9825 12.0175 31.6667 19 31.6667C25.9825 31.6667 31.6667 25.9825 31.6667 19C31.6667 12.0175 25.9825 6.33332 19 6.33332C12.0175 6.33332 6.33335 12.0175 6.33335 19Z" fill="#BDBDBD"/>
</g>
</svg>
