<svg width="32" height="32" viewBox="0 0 32 32" fill="none" xmlns="http://www.w3.org/2000/svg">
<g id="person_24px">
<path id="icon/social/person_24px" fill-rule="evenodd" clip-rule="evenodd" d="M16 5.33334C13.0533 5.33334 10.6666 7.72001 10.6666 10.6667C10.6666 13.6133 13.0533 16 16 16C18.9466 16 21.3333 13.6133 21.3333 10.6667C21.3333 7.72001 18.9466 5.33334 16 5.33334ZM18.6666 10.6667C18.6666 9.20001 17.4666 8.00001 16 8.00001C14.5333 8.00001 13.3333 9.20001 13.3333 10.6667C13.3333 12.1333 14.5333 13.3333 16 13.3333C17.4666 13.3333 18.6666 12.1333 18.6666 10.6667ZM24 24C23.7333 23.0533 19.6 21.3333 16 21.3333C12.4133 21.3333 8.30665 23.04 7.99998 24H24ZM5.33331 24C5.33331 20.4533 12.44 18.6667 16 18.6667C19.56 18.6667 26.6666 20.4533 26.6666 24V26.6667H5.33331V24Z" fill="#BDBDBD"/>
</g>
</svg>
