<svg width="36" height="36" viewBox="0 0 36 36" fill="none" xmlns="http://www.w3.org/2000/svg">
<g id="whatshot_24px">
<path id="icon/social/whatshot_24px" fill-rule="evenodd" clip-rule="evenodd" d="M20.25 2.0025C20.25 2.0025 21.36 5.9775 21.36 9.2025C21.36 12.2925 19.335 14.7975 16.245 14.7975C13.14 14.7975 10.8 12.2925 10.8 9.2025L10.845 8.6625C7.815 12.2625 6 16.9275 6 21.9975C6 28.6275 11.37 33.9975 18 33.9975C24.63 33.9975 30 28.6275 30 21.9975C30 13.9125 26.115 6.6975 20.25 2.0025ZM17.355 20.7375C15.315 21.1575 14.1 22.4775 14.1 24.3525C14.1 26.3625 15.765 27.9825 17.835 27.9825C20.91 27.9825 23.4 25.4925 23.4 22.4175C23.4 20.8125 23.175 19.2375 22.71 17.7375C21.525 19.3425 19.41 20.3175 17.355 20.7375ZM9 21.9975C9 26.9625 13.035 30.9975 18 30.9975C22.965 30.9975 27 26.9625 27 21.9975C27 18.1575 26.01 14.4525 24.165 11.1525C23.37 15.0525 20.235 17.7975 16.245 17.7975C13.905 17.7975 11.805 16.8675 10.29 15.3525C9.45 17.4375 9 19.7025 9 21.9975Z" fill="#BDBDBD"/>
</g>
</svg>
