<svg xmlns="http://www.w3.org/2000/svg" viewBox="0 0 306.04 265.3"><defs><style>.cls-1{fill:#020404;}.cls-2{fill:#274343;}.cls-3{fill:#23373b;}.cls-4{fill:#8a8667;}.cls-5{fill:#1d2825;}.cls-6{fill:#325051;}.cls-7{fill:#0e2122;}.cls-8{fill:#6f7967;}.cls-9{fill:#3e575c;}.cls-10{fill:#576e63;}.cls-11{fill:#495f5b;}.cls-12{fill:#374b40;}.cls-13{fill:#060f0e;}.cls-14{fill:#263b3b;}.cls-15{fill:#0d221e;}.cls-16{fill:#325150;}.cls-17{fill:#1f3435;}.cls-18{fill:#425041;}.cls-19{fill:#0a0c0b;}.cls-20{fill:#526456;}.cls-21{fill:#96947b;}.cls-22{fill:#49574b;}.cls-23{fill:#bc7057;}.cls-24{fill:#1f3b3e;}.cls-25{fill:#0c1316;}.cls-26{fill:#8d584a;}.cls-27{fill:#415c5c;}.cls-28{fill:#091c1c;}.cls-29{fill:#423d2c;}.cls-30{fill:#314846;}.cls-31{fill:#091415;}.cls-32{fill:#466567;}.cls-33{fill:#4d4c3d;}.cls-34{fill:#82816a;}.cls-35{fill:#989980;}.cls-36{fill:#41423d;}.cls-37{fill:#667264;}.cls-38{fill:#102325;}.cls-39{fill:#4d534d;}.cls-40{fill:#37463e;}.cls-41{fill:#413929;}.cls-42{fill:#162c28;}.cls-43{fill:#29372a;}.cls-44{fill:#504a40;}.cls-45{fill:#55695c;}.cls-46{fill:#2f2d26;}.cls-47{fill:#242b28;}.cls-48{fill:#5c483c;}.cls-49{fill:#8d6c49;}.cls-50{fill:#91967f;}.cls-51{fill:#1e3936;}.cls-52{fill:#041a1a;}.cls-53{fill:#4a625d;}.cls-54{fill:#48605e;}.cls-55{fill:#112124;}.cls-56{fill:#6d6650;}.cls-57{fill:#cededc;}.cls-58{fill:#ca9c8b;}.cls-59{fill:#4c7c7f;}.cls-60{fill:#3d564e;}.cls-61{fill:#374648;}.cls-62{fill:#153d43;}.cls-63{fill:#375954;}.cls-64{fill:#77432a;}.cls-65{fill:#243129;}.cls-66{fill:#253733;}.cls-67{fill:#183232;}.cls-68{fill:#333c39;}.cls-69{fill:#3a5c5d;}.cls-70{fill:#9b997a;}.cls-71{fill:#34311f;}.cls-72{fill:#918c6e;}.cls-73{fill:#b3af95;}.cls-74{fill:#939277;}.cls-75{fill:#39423e;}.cls-76{fill:#030b0b;}.cls-77{fill:#383725;}.cls-78{fill:#56604f;}.cls-79{fill:#545a48;}.cls-80{fill:#355250;}.cls-81{fill:#494632;}.cls-82{fill:#2c372c;}.cls-83{fill:#98997d;}.cls-84{fill:#8d8c75;}.cls-85{fill:#0e292a;}.cls-86{fill:#575742;}.cls-87{fill:#5f5c46;}.cls-88{fill:#80846c;}.cls-89{fill:#6f6d53;}.cls-90{fill:#37331a;}.cls-91{fill:#77775f;}.cls-92{fill:#1f2c29;}.cls-93{fill:#484b39;}.cls-94{fill:#1f231a;}.cls-95{fill:#8e8f75;}.cls-96{fill:#54241c;}.cls-97{fill:#c99b8d;}.cls-98{fill:#191f1a;}.cls-99{fill:#6a684d;}.cls-100{fill:#495e54;}.cls-101{fill:#91927b;}.cls-102{fill:#7e7b5f;}.cls-103{fill:#595641;}.cls-104{fill:#423c25;}.cls-105{fill:#8f8c6f;}.cls-106{fill:#201a0f;}.cls-107{fill:#030404;}.cls-108{fill:#595c47;}.cls-109{fill:#252214;}.cls-110{fill:#3f381e;}.cls-111{fill:#68654c;}.cls-112{fill:#3e3e27;}.cls-113{fill:#56543e;}.cls-114{fill:#2d3b38;}</style></defs><title>Ресурс 22</title><g id="Слой_2" data-name="Слой 2"><g id="Слой_1-2" data-name="Слой 1"><path class="cls-1" d="M270,208.21c-1.71,1-.14,3-1.16,4.21-2.52.92-2.78-.8-2.47-2.44.43-2.26-.86-2.37-2.42-2.41-3.64-.66-6.7-1.71-8.38-5.72-1.51-3.59-6-4.39-8.62-7.06-1.11-1.12-3.05-1.4-3.4-3.31,1.05-2.73,2.87-1.46,4.41-.72,1.78.86,3.44,2,5.19,2.9,2.62,1.41,4.9,1.37,7.25-.72,3-2.63,7.07-3.65,9.72-6.76.62-1.87,1.14-3.62,3.64-4,7-1.05,14-1.7,20.83-3.62a3.26,3.26,0,0,1,3.59,1c-.45,4.27-4.74,5.55-6.24,8.43.43-.14,1-.94,1.75-1.5,1.46-1.08,3.23-2.68,4.78-.75,2,2.48-.8,3.27-2.21,4.44-5.15,3.76-10.87,6.57-16.3,9.87a3,3,0,0,1-2.75-.31c-1.23-2.29.8-3.31,1.91-4.56,2.52-2.83,5.46-5.28,7.7-8.37-4,3.67-10.55,5.35-9.75,12.69-.08,2.62-2.87,2.34-4,3.79S273.6,208.21,270,208.21Z"/><path class="cls-2" d="M295.87,189.31c.41-1.25,3.51-1,2.06-3-1.15-1.63-2.25.17-3.22.89-1.17.87-2.23,1.92-4.22,2,1.82-3.69,4-6.7,7.48-8.68.7-1.34.7-3.47,3.17-2.83-1.77,4.77-.7,9.55,0,14.33,1.16,5.45-.66,10.89-.05,16.34a2.37,2.37,0,0,1-1.87,2.6c-3.45-.84,0-3.19-1-4.57.19-.64-.66.14,0,0-.5,4.2-4.36,4-7,5.37-1.39-.68-1.31-2.7-2.91-3.19-2.27-.29-3.08,1.61-4.27,2.88a16,16,0,0,1-2.83,2.75c-1.9,1.22-3.88,3.09-6.24,2.09s-1.92-3.57-2-5.69a13.67,13.67,0,0,0-.63-2.38c.65-2-.82-3.79-.32-5.73,1.35-1.54,3.83-1.2,5-3l-.06,0,3-.05a6.14,6.14,0,0,1,5.2-.77c1.58,0,.22,3.57,2.95,2.42,1.91-.81,4.24-1.06,3.6-4.07A31.31,31.31,0,0,1,295.87,189.31Z"/><path class="cls-3" d="M269.24,50.28c7.9,4.45,10,10.92,5.84,18.33-.84,0-1.53.59-2.34.64-1.15.08-2.5.18-2.77-1.28s.91-1.91,2-2.39a5.2,5.2,0,0,0-6.29,2.12,5.4,5.4,0,0,1-6.05,2.21c-1.09-.31-2-1.38-3.13-1.18-3.71.68-4.78-1.66-5.57-4.47-.6-1.85-1.66-3.74.6-5.3.37-.26.35-.58-.39-.93-1-.46-1.78-1-1.5-2.17a2.6,2.6,0,0,1,2.51-2c3.24-.27,6.05-.71,7.36-4.6.5-1.49,3.33-.88,5.09-.64S267.66,49.81,269.24,50.28Z"/><path class="cls-4" d="M238.11,176.4c0-.66,0-1.32,0-2,1.11-2.68.67-5.64.7-8.31.07-5.42,1.84-8.94,7.07-10.53a4.81,4.81,0,0,0,2.21-2,5,5,0,0,1,3.76-2.16,3.44,3.44,0,0,1,2.07.62c.8,1.11.23,2.15-.15,3.18,2.51,2.08,5.55.61,8.27,1.24,1.39.32,3-.31,4.12,1.45-1.54,2.4-4.49,2.16-6.62,3.4a2.85,2.85,0,0,0,.91-.17c1.8-.36,3.92-2.71,5.29-.47,1.07,1.73-1.59,2.89-2.59,4.31-2,2.78-3.31,6.12-7.31,6.87-1.41.27-1.16,1.73-.88,2.93.75,3.25-1.05,4.55-3.9,5a2.28,2.28,0,0,1-1.32-.42,23.64,23.64,0,0,1-1.15-2.69c-2.37-4.64-3.1-4.75-6.32-.78C241,177.55,239.64,177.74,238.11,176.4Z"/><path class="cls-5" d="M301.14,177.6,298,180.43c-2.87-2.35-5.22.47-7.82.79-3.09.38-6.2.69-9.25,1.28-3.73.73-8.42-.32-9.93,4.94-3.52-.28-6.61,1-9.6,2.66a10.82,10.82,0,0,1-5.08,1.52c-4.22.06-6.84-3.86-10.85-4.33-1.48-1.91-4.48-.49-5.84-2.65a.6.6,0,0,1-.64-.2c1.35-3.85,4.61-2.39,6.91-2,3.73.68,6.68,0,9.21-2.73a85.88,85.88,0,0,1,16.06-1.8,27.4,27.4,0,0,1,5.77-.89c5.39-.14,10.59-1.54,15.85-2.51,2.63-.35,5.23-1,7.92-.83,2.7,1,.68,2.56.47,3.91Z"/><path class="cls-6" d="M298,210.47c1.63-.19,2.61-1.35,2.3-2.72-1.21-5.37,1.39-10.51.76-15.81,1.76,9.5.76,19-.14,28.5-3.17,4.73-6.6,9.32-7,15.35-.25,3.5-2.38,6.49-3.05,9.9-.54,1.32-1,2.74-2.7,3-1.33-1.38-2.4-3.19-4.77-1.21-2,1.68-3.59-.89-5.47-1a2.81,2.81,0,0,1-2.15-2.93c3.06-3.49,5.7-7.51,11.51-8.51-.09,0-.81-.78-.6-.15.05.16-.1.18-.45.22-2.29.26-5-.31-2.65-2.87C289.63,225.68,293,217.52,298,210.47Z"/><path class="cls-7" d="M298,210.47a58.72,58.72,0,0,1-14.66,23.18c2.75,2.08,3.53-.86,5.45-1.09-3.57,4.58-8.2,7.87-13,10.94-1.54-4.52.33-8.74,1.14-13.06.37-.56-.1.14.21-.45,1-1.84,2.38-4,4.38-2.52,1.78,1.34-.11,3.17-2,5.16a9.73,9.73,0,0,0,3.42-5.56,48.87,48.87,0,0,1,8-15.7c2.3-2.6,7.73-1.76,7.41-7.27A7.63,7.63,0,0,1,298,210.47Z"/><path class="cls-8" d="M297.84,141.41c.93,3.29,2.26,6.49,2.12,10-.3,3.09.23,6.16.33,9.24-.67,2,.95,7.07-4.22,3.21a.87.87,0,0,0-.94,0c-1.45.66-3.3,2.14-4.32.11s1.35-3.13,2.5-4.39c1.4-1.56,3.09-2.86,3.62-4.65-4.16,4.08-7.17,9.27-9.63,14.81-3.85-.74-5.49-2.77-4-6.7.35-.9,1-2,0-2.73-1.11-.85-2.18-.06-3.09.71-1.8,1.54-3.13,4.14-6.23,2.69-1.16-2.51.68-4,2-5.51,2.95-3.27,6.05-6.42,10-8.56,2.4-1.15,4.78-2.34,6.31-4.69C294.08,143.61,295.07,141.13,297.84,141.41Z"/><path class="cls-9" d="M269.24,50.28c-3.13.43-6.06-1.79-9.25-.6.11,1.36,1.87.28,2.32,1.74-4,1.15-6.83,5.39-11.76,3.48-.36,2.84,2.34,1.16,2.48,2.7.06.62,1.89,1.43.51,1.65-4.57.71-1.3,3.46-1.64,5.24a3.85,3.85,0,0,1-2.38,1.73c-1.29.26-2.53.31-3.49-.83,1.52-2.25-.07-2.32-1.68-2.44-2.15-.17-4.33-.31-5.92-2.07A6.39,6.39,0,0,1,237,54.42c.72-2.19,2.83-1.29,4.3-1.23,4.76.21,8.48-2.28,12.37-4.4A13.87,13.87,0,0,1,269.24,50.28Z"/><path class="cls-10" d="M286.88,169.38A37.63,37.63,0,0,1,297.54,153c1.93,6.21-4.81,6.66-6.48,10.54,3,1.38,3.64-1.59,5.14-2.52,1.3,1,.33,2.84,2.13,3.76,1-.89.48-2.27.7-3.39,1.4,0,1.67.55,1,1.68,1-1.82-1.3-4.33,1.07-5.9l4.59,14.33a7.69,7.69,0,0,1-4.81,2.82,23.2,23.2,0,0,1-7.84,1.3c-1.61-.33-3.08-1.14-4.76-1.26-4.89-.34-4.89-.36-2.72-5A1.05,1.05,0,0,1,286.88,169.38Z"/><path class="cls-11" d="M239.6,184.64c1.77,1.84,5.2-2.2,6.37,1.79a8.4,8.4,0,0,0,10,4.08c2.76-.09,5-1.57,7.25-2.86,2.52-1.42,5.08-2.2,7.71-.21-3.61,3.41-8.49,4.93-12.18,8.32-2.1,2-4.24-.41-6.37-1-3-.82-4.65-4.87-8.51-3.36-1.52,1.92,0,3,1.14,4.2,1.35,1.43,3.21,2.45,3.57,4.64a9.88,9.88,0,0,1-.94,3.76c-.75,2,.23,5.2-2.65,5.72-2.71.5-4.15-2-5.6-4-1-2-.49-4.15-.44-6.26,0-.87.47-2-1.06-2C237.57,193,239,188.9,239.6,184.64Z"/><path class="cls-12" d="M243.92,95.32l1-.93c1.15-.77,2.24-.88,3.25.24.54,1,.72,2.32,1.66,3,5.8,3.93,2.93,9.47,2.75,14.5,0,.37-.7.62-1.17.77-3.16-.62-4.09,3.12-6.77,3.47-2.39.29-4-1.35-5.82-2.4a12.84,12.84,0,0,1-3.11-5,5,5,0,0,1-.16-3.57C238.67,102.29,239.62,97.42,243.92,95.32Z"/><path class="cls-13" d="M258,248.43c-.21,1.78-.86,3.65-.55,5.34,1.77,9.42-1.13,9.1-8.44,8.62-3.1-2.94-2.8-6.07-.3-9.19-1.32-1.08-2.75-.37-3.93-.9-1.72-.44-2.84-1.72-4.07-2.85-1-2.23-.09-3.82,2.08-3.9,3.62-.13.64-1.93.93-2.86a3.28,3.28,0,0,1,2.15-1.8c2.09-.59,3.63,1.12,5.54,1.3.73.14,1.45.3,2.17.49a12.11,12.11,0,0,0,2.87.46c1.76.19,3.86.16,4.47,2.2C261.57,247.61,258.09,246.55,258,248.43Z"/><path class="cls-14" d="M263.25,227.6,261,231.43c-3,.39-6,.94-9,1.4-3.49-2.91-7.28-5.58-8.65-10.28a14.47,14.47,0,0,0-.3-3.88c-.21-1.46-.48-3.2,1-4s2.26.79,3.11,1.68c2.69,2.85,4.08-2.05,6.45-1.06,2.22.93,4.59.6,6.89.88,1.61.19,3.76.15,3.71,2.39,0,1.85-2,1.92-3.46,2.16-.65.1-1.32.1-1.93.19.55,1.3,1.9,1.4,2.88,1.8C264.35,223.76,264.23,225.49,263.25,227.6Z"/><path class="cls-15" d="M278,246.43c.38-2.45,1.39-1,2.15-.3,1.35,1.23,2.32,1.16,3.73-.18,3.92-3.68,4.11-.62,4.14,2.48-.51.71-1.39.83-3,2,5.6-1.2,6.22,2.39,7.26,5.5a12.13,12.13,0,0,0,4.93,5.94c1.75,1.89,1,2.9-1.2,3.37h-11.6C282.61,258.63,282,252,278,246.43Z"/><path class="cls-16" d="M253,243.49l-1.89-.16c-2.2-3.05-6.88-3.67-7.73-8.05-.2-.57-.77.4-.14.18.1,0,.12.13.23.43a3.91,3.91,0,0,1,0,2.44c-.62,1.26-1.08,2.89-3,2.27-1.17-.38-1-1.41-.55-2.35.14-.64.62-1.55.36-1.89-6.34-8.19,0-17.43-2.2-25.94a1.49,1.49,0,0,1,1.79,1.29c1.52,8.07,5.53,14.89,10.48,21.26-1.64,3.08.17,4.68,2.5,6.26,1.61,1.09,4.24,1.17,4.31,4C255.83,244.36,254.42,244.06,253,243.49Z"/><path class="cls-17" d="M273,208.4a5.5,5.5,0,0,1,.86,1.71c.19,1.95-.3,5,1.55,5.3s4.38-1,5.93-2.88a36.29,36.29,0,0,1,3.12-3.82c1.2-1.09,2.4-3,4.5-1.26-2.36,5.82-2.07,12.85-7.88,17.08-2.76,2-5.47,3.36-8.15-.1q-.4-3.52-.83-7.05C273.23,214.47,271.6,211.28,273,208.4Z"/><path class="cls-18" d="M299.94,123.44c0,.66,0,1.32,0,2-1.85,2.89-3.91,2.25-5.58.85,3.72,2.07,2.78,5.07.33,8.23a3.92,3.92,0,0,1-2.5,1.41c-2.84-.69-5.43.75-8.18,1a3.14,3.14,0,0,1-2.55-2.31c.66-3.8,4.41-5.52,5.88-8.77,1.57-1.6,1.33-4.61,4.2-5.24,1.45-.32.88-1.51.68-2.45-.34-1.65-.61-3.3.6-4.76,2.49-.42,3,1.56,3.59,3.16A37.18,37.18,0,0,0,299.94,123.44Z"/><path class="cls-19" d="M241,151.43l-4-.11c-4.7-6.75-4.47-14.27-3.46-21.92.07-1.07.08-2.14.19-3.21.28-1.3.36-2.74,2.14-3,2,1.77,1.12,4.34,1.85,6.45s.21,5.1,3.14,6.23c5.21,1.28,5.35,1.44,4.05,6.44a24.77,24.77,0,0,0-.66,3.8C243.79,148.31,243.37,150.48,241,151.43Z"/><path class="cls-20" d="M299.94,123.44c-2.43-.84-3.46-2.7-4.2-5-.55-1.77-.53-4-2.77-5a3.3,3.3,0,0,1-3.37-2.17c1.13-3.14,1.13-3.14,4.23-4.83-.32-2.35-3.75-1.29-4.05-3.66,2.57-2.93,6-1,8.93-1.56,2-1.94-.08-5.27,2.4-7a26.88,26.88,0,0,1,.34,11.12A114.48,114.48,0,0,0,299.94,123.44Z"/><path class="cls-21" d="M235.91,105.4c.29,1,.58,2.07.86,3.11-1.07,1.62,1.25,2.94.42,4.55-.66.86-1.08,2.3-2.6,1.08a16.38,16.38,0,0,0-.25-1.81c1.4,4.47,1.08,8.93.11,13.4-.12.92.42,2.2-.73,2.61s-1.58-.82-2.19-1.56c-1-1.17-.53-3.48-2.88-3.49a9.44,9.44,0,0,0-6.15,3.49c-1.63,1-2.3,2.67-3.1,4.26-.18.14-.37.27-.56.4-2.44-2.74.21-5.37.18-8.06,0-3.74,2.78-4.64,5.59-5.68,1.7-.63,3.53-.48,5.21-1.11,2.6-2.54.65-6,1.79-8.92.71-1.8.6-3.92,2.2-5.38C235,103,236.38,103.58,235.91,105.4Z"/><path class="cls-22" d="M228.7,122.18c.7-1.3,1.44-2.55,2.35-.16.63,1.65.91,3.5,1.8,5s.93-.16,1.26-.62.59-.34.75.15l0,2.83c-3.18,4-2.41,8.6-1.52,13.08.47,2.36,2,4.57.55,7.06L226,140.4c.15-1.79-.54-3.73.5-5.35-1.13.71-.11,2.83-1.62,3.5-2.06-2.34-4.92-4-6.06-7.11a.6.6,0,0,0,.49,0c1.26-.77,1.92-2.65,3.9-2.07,3.08,2.15,4.15,1.54,5-2.84C228.34,125.08,228.68,123.65,228.7,122.18Z"/><path class="cls-23" d="M249.84,65.49l2.06-1c1.31,1.29,1.17,4.71,4.68,2.77,2-1.08,2,1.63,3.12,2.4a1,1,0,0,1,.54,1.13c-.12,1.51-1.85,2.31-1.77,3.91,1.27.9,2.61.12,3.87.33a1.49,1.49,0,0,1,1.09.82c.39,2.23-.77,3.75-2.32,5.1a8.68,8.68,0,0,1-3.41,1.48,4.88,4.88,0,0,1-3.51-.52c-.72-2.76-3.07-2.19-5-2.43-.46-2.62-.91-5.25-1.37-7.87C246.3,68.84,251,68.13,249.84,65.49Z"/><path class="cls-24" d="M296,265.23c.68-.81,2.19-1.32,1-2.8-3.11-3-2.47-6.6-1.79-10.24.2-1.07,1.36-2.61.11-3.17-4.13-1.84-2.24-4.25-1.13-6.85.85-2,.26-4.31.91-6.38.58-1.8.46-4.1,2.92-4.8,1.93-.13,2.57.89,2.47,2.67-.22,3.71.39,7.45-.35,11.14.19,5.29.42,10.57.57,15.86C300.77,263.83,299.46,265.69,296,265.23Z"/><path class="cls-25" d="M259.74,70.33c0-.23,0-.45,0-.67,1.09-1.35,3.35.18,4.22-1.72,2.51-5.43,6.86-4.25,11.23-3.07-.35,2.71-3.87.55-4.49,2.87,1.17,1.77,3.19-.63,4.42.87-1.71,2.34-1.25,5.25-2.08,7.83-3.78,4.29-6.85.54-10.13-.9l0-.06C261.27,74.11,261.31,71.73,259.74,70.33Z"/><path class="cls-26" d="M206.87,114.59c-2.16-.54-1.67-4.28-4.64-3.85a1.16,1.16,0,0,1-.49-1.25c3.14-2.41,6.15,2.18,9,.14-1.66-.13-3.94.62-5-1.95a1.6,1.6,0,0,1,2.13-.64c-2-1.36-5.87-.46-5.82-4.52,7.42,2.24,16.08,1.92,20.65,10-1.2,4.27-4.42,3.95-7.72,3.35C212.29,115.4,209.79,113.69,206.87,114.59Z"/><path class="cls-27" d="M273,224.43c5,1.72,11.62-2,11.86-7.3.18-4,2-6.78,4.17-9.68,2.64.32,1.76,2.38,1.94,3.92a190.7,190.7,0,0,1-11.19,23.51c-1.51-3.37,1.78-4.61,1.55-7.12-2,0-2.71,2.22-4.34,2.68C275.8,228.31,273.38,227,273,224.43Z"/><path class="cls-28" d="M256,220.45c2-2.22,5.12,0,7.68-1.89-2.07-1.85-4.41-.82-6.46-1.15-1.6-.25-3.83.86-4.24-2a2.91,2.91,0,0,1,.9-1.84c3.28-2.45,6.64-4.78,10-7.12,1.43.07,2.91-.44,4.06.21,1.2,1.92-3.32,4.32.86,5.72.53,2.67-2.63,4.3-2,7C263.49,222.57,259.82,222.19,256,220.45Z"/><path class="cls-29" d="M94.22,41.24c13.57,6.82,27,14,39.83,22,.16,1.19-.18,1.82-1.51,1.36L97,45.46c-1-1-2.56-1.3-3.52-2.36S92.28,41.15,94.22,41.24Z"/><path class="cls-30" d="M301.11,94.2c-1,3,1.06,6.32-1.25,9.09-.35-.35-.64-.86-1.06-1-6.85-2.54-8-8.2-8.05-14.51a2.61,2.61,0,0,0-.5-1.37,2.08,2.08,0,0,1-.29-2C297.41,84.9,299.71,86.92,301.11,94.2Z"/><path class="cls-31" d="M253,243.49c1.38-.05,2.93.51,3.92-1,.16-2.84-2.87-3.4-3.89-5.39-.21-1.59-3.85-2.45-1-4.7,2.87-1.59,5.76-2.94,9-.94,4.95,4.14,4.71,5.91-1.24,9.21,4.43,4.48,4.21,5.46-1.79,7.79-.28-1.76,1.73-1.71,2.29-2.84C258.32,243.09,255,245.73,253,243.49Z"/><path class="cls-32" d="M201.81,109.18l.42,1.56c-.35,2-.66,3.93-1.07,5.87-.38,1.77-1.34,2.65-3.22,1.77-1.22-1.09.11-2.56-.7-4-2.27.12-4.09,1.93-6.38,2.19-5.25.29-3.37-4.8-4.77-7.15-1.14-1.9,1.78-4.21,4.77-4.14,2.22.2,3.52,2.35,5.68,2.67,1.09.85,2.19,1.36,3.38.16C200.84,108,201.8,107.72,201.81,109.18Z"/><path class="cls-33" d="M132.54,64.64l1.51-1.36c14.85,8,29.67,16.09,43.83,25.3.13,1-.22,1.44-1.26,1Z"/><path class="cls-34" d="M253.76,81.31l4.28.26c3.16.23,3,4.78,6.25,4.86a3.43,3.43,0,0,1,.42,2c-.24,1.15,0,2.34-.15,3.46-.4,2.45-4.07,3.73-5.22,1.55-2.37-4.52-5.08-1.6-7.74-1.22-2.06.13-3.52-.52-3.71-2.83.05-2.42.57-4,3.69-4s3.13-1.83,1.21-3.86A.69.69,0,0,1,253.76,81.31Z"/><path class="cls-35" d="M241,151.43,243,146.5c.65-1.37,1.59-2,3.11-1.23,1.33,1.66,1,3.76,1.47,5.66.66,1-1.46,3,1.19,3.39a3.62,3.62,0,0,1-2.63,2.59c-5,1.49-5,3.5-6.09,8.37-.66,2.95.13,6.48-2,9.14C237.79,166.6,237.34,158.76,241,151.43Z"/><path class="cls-36" d="M206.87,114.59c1.11-4.28,4.21-1.51,5.31-.79,4.1,2.69,7.33,1.63,10.54-1.26,2.94.34,4.2,3.63,7.1,4-1.71,1.8-4.2,1.76-6.3,2.63a8.27,8.27,0,0,0-4.5,4.16c-1.39-4.3-3.11-8.14-8.83-7.18A3.2,3.2,0,0,1,206.87,114.59Z"/><path class="cls-37" d="M290,84.43l1.07,1a2.38,2.38,0,0,1-.28,3.26,12.2,12.2,0,0,1-8-.68c-2.15-1.36-4.05,0-6,.55-2.86-1.42-3-3.64-.19-4.5,3.39-1.06-.7-1.37.06-1.9a2.94,2.94,0,0,1,1.56-3C282.61,79.72,287.1,80.25,290,84.43Z"/><path class="cls-38" d="M252,232.37c-1.1,2.22,1.92,2.45,2,4.11-2.84,1-4-.27-4-3a51.79,51.79,0,0,1-11.92-23c-.54-4.33-1.06-8.65-.12-13,.63.21,1.76-2.59,1.91.29.13,2.56.12,5.14.18,7.71,2.31,5.39,3.15,11.14,4,16.87C245.63,226.51,250,228.55,252,232.37Z"/><path class="cls-39" d="M61.06,24.18c9.71,4.36,19.66,8.26,28,15.2-3.63.91-5.91-2.51-9.15-2.86l-20.14-11C59.64,24.54,60.05,24.06,61.06,24.18Z"/><path class="cls-40" d="M255,180.62c-1.09,4.41-4.25,4.19-7.66,3.45-2.84-.62-5.69-1.58-8.41.37-2.57-1.66-.8-3.9-.79-5.91a14.22,14.22,0,0,1,11.77.89,3.35,3.35,0,0,0,1,0h.64C252.83,179.56,254.24,179.18,255,180.62Z"/><path class="cls-41" d="M24,9.3C15.81,6.73,7.62,4.12,0,0,10,.86,19.08,4.6,28.19,8.34,27.09,10,25.39,8.94,24,9.3Z"/><path class="cls-42" d="M244.8,251.54H251c-3,3.6-3.66,7.1-2,10.85-3.59.28-5.81-2-8-4.27-1.19-1.21-1.66-2.45-.07-3.72C242.13,253.37,243.22,252.11,244.8,251.54Z"/><path class="cls-35" d="M249.94,179.42c-4,.64-7.86-.45-11.77-.89l-.06-2.13c1.39-.19,3,.79,3.29-2.1.44-4.08,4.07-3.37,5.86-1.69C248.85,174.11,251.71,176.15,249.94,179.42Z"/><path class="cls-43" d="M297.84,141.41,293,145.47c-2.18,1.82-4.93,2.61-7.26,4.15a4.3,4.3,0,0,1-1.32.57c-1.3.08-2.48-.05-2.75-1.66,1.18-3.82,4.56-5.3,7.61-7.13,1.72-.94,3-2.48,4.84-3.27,1.59-.22,3.67-1.71,4,1.48Z"/><path class="cls-24" d="M290,245.41c2-8.3,4.12-16.58,8.21-24.19.78-1.47,1.65-1.32,2.8-.78l0,2c-1.14,2.28.13,5.29-2.18,7.21-3.25,2-2.82,5.66-4,8.6C293.63,240.92,293.82,244.54,290,245.41Z"/><path class="cls-44" d="M278.14,79.16,277,82.45c-.51,1-1.64,1.75-2.28.8-2.88-4.31-6.68-3.26-10.57-2.18a4.66,4.66,0,0,1-2.43,0,1.68,1.68,0,0,1-1-1c.92-1.44,2.34-2.66,2.15-4.62a5.65,5.65,0,0,1,5.05,1.17c1.67,1.24,3.42.55,5.08-.28C275,76.79,278.14,75,278.14,79.16Z"/><path class="cls-45" d="M298.11,139.61c-1.29-1.91-2.75-.87-4.18-.25-1.12-1.38-.31-2.65.56-3.55,1.24-1.27-.15-1.1-.59-1.48.8-2.72,4.34-5.5-.84-8.24,2.73,0,5,.89,6.87-.66C299.15,130.13,299.7,135,298.11,139.61Z"/><path class="cls-46" d="M24,9.3c1.15-1.36,2.78-.65,4.18-1,5.68,1.32,10.37,4.76,15.51,7.24-.32,2.49-1.91,1-3,1C35,14.31,29.27,12.39,24,9.3Z"/><path class="cls-47" d="M233.92,149.51a7.43,7.43,0,0,0-1.31-5.68c-3.07-4.34,0-8.68-.11-13,0-1,1.4-1.27,2.39-1.46-1.72,7.55-.19,14.79,2.1,21.95A3.88,3.88,0,0,1,233.92,149.51Z"/><path class="cls-48" d="M202.06,102.52c.93,2,2.91,2.38,4.72,3,.71.25,1.82.51,1.2,1.49-.31.49-1.46.45-2.23.65-2.42,1.57-4.16-.13-6-1.22-1.64-1.3-3.51-2.34-4.68-4.17l-1.29-1.58c-.06-2,1.06-1.92,2.44-1.42C198.39,99.93,200.54,100.65,202.06,102.52Z"/><path class="cls-49" d="M40.68,16.54c.93-.54,2.32.33,3-1,6.18,2.08,11.68,5.53,17.37,8.6l-1.34,1.34Z"/><path class="cls-50" d="M247.89,89.4c1.18,1.06,2.19,2.48,4.11,2,4,4.21,4,5.17-.17,6.83-1.56-.59-3.42-.72-4.1-2.67-.44-1.52-1.72-1.09-2.78-1.18C246.83,93.25,244.52,89.65,247.89,89.4Z"/><path class="cls-51" d="M244,242.47c.45,2.32,3.64,1.32,4.3,3.42-1.92,2.28-6.83-2.36-7.15,3.24-.22.64-.57.73-1.06.26-2.87-1.21-2.14-3.66-2-5.89C239.63,240.77,241.7,241,244,242.47Z"/><path class="cls-52" d="M256,220.45c3.63-.08,7.31.37,10.82-1-1,2.83-.46,6.3-3.59,8.17-.27-3.57-2.7-4.67-5.76-5.14C256.4,222.29,254.42,222.64,256,220.45Z"/><path class="cls-53" d="M235.91,105.4c-.79-1-2.31-1.46-2.1-3.11,2.36-3.78,6.15-5.5,10.11-7C240.31,97.94,240.77,103.78,235.91,105.4Z"/><path class="cls-54" d="M196.19,99.31a3,3,0,0,0-2.44,1.42c-5.13-4.62-11.7-7-17.12-11.17l1.25-1Z"/><path class="cls-55" d="M190.86,116.58a3,3,0,0,1,2.56-2c1.86-.19,3.1-3.31,5.17-1.49s-.87,3.45-.65,5.29C195.68,117.4,193,118.13,190.86,116.58Z"/><path class="cls-56" d="M79.87,36.52c3.51-.54,5.86,2.67,9.15,2.86,1.7.7,3.92,0,5.2,1.86-1.57,3,3,2.08,2.73,4.22Z"/><path class="cls-57" d="M195,102.31l5.12,3a3.53,3.53,0,0,1,0,3.38c-.31,1,.16,2.46-1.5,2.67-2.18.28-1.42-2.34-2.79-2.87a4.56,4.56,0,0,1-.93-4.94Z"/><path class="cls-6" d="M297.91,229.41c2.2-1.81,1.27-5,3-7a140.51,140.51,0,0,1-.82,22.37c-.07-3.26-.32-6.53-.13-9.77.11-1.89-.42-3-2.1-3.68A1.43,1.43,0,0,1,297.91,229.41Z"/><path class="cls-58" d="M249.84,65.49c2.92.46,2.67,1.91.84,3.37-1.06.85-2.74.94-2.88,2.75-1.85-1.71-4.25-3.27-1.77-6.22Z"/><path class="cls-59" d="M244,242.47c-2-.05-4.1-.21-5.92,1-.55-2.15.63-3.7,1.82-5.25,1,1.9,1,1.9,3.16-.93,2.24.48,3.88,1.4,3,4.14Z"/><path class="cls-60" d="M301.13,157.16c-.1,2.06-.2,4.12-.32,6.67L299,161.38c.35-3.32-1.14-6.81.93-10A12.2,12.2,0,0,1,301.13,157.16Z"/><path class="cls-28" d="M273,208.4c-.52,3,.88,6.13-.9,9-1.05-3,1.22-6.74-2.14-9.17,3.44-1-.37-4.44,2-5.76C273.16,204.29,272.9,206.38,273,208.4Z"/><path class="cls-61" d="M300.91,174.31a6.81,6.81,0,0,1,4.81-2.82c1.46,4.27-2.39,4.58-4.57,6.13C300.58,176.55,302.13,175.33,300.91,174.31Z"/><path class="cls-62" d="M195,103.51a7.12,7.12,0,0,1,.93,4.94c-3,1.13-3.18-2.37-5-3.16Z"/><path class="cls-63" d="M240.08,249.39l1.06-.26,3.67,2.41c-.66,1.86-1.46,3.5-3.93,2.86A7.52,7.52,0,0,0,240.08,249.39Z"/><path class="cls-64" d="M253.76,81.31l-1,.25c-1.39-.37-3.47.45-3.62-2.08,2,.33,2.48-2,4.2-2.33C254.53,78.48,253.9,79.92,253.76,81.31Z"/><path class="cls-65" d="M224.9,138.55c.28-1.47-.48-3.28,1.65-4.66.39,2.47,1.21,4.54-.53,6.51C225.64,139.79,225.27,139.17,224.9,138.55Z"/><path class="cls-66" d="M263.9,206.49c-2.09,4.16-6.37,5.6-9.89,8-.27-.2-.66-.53-.57-.75,2.54-6.44-1.47-10.28-5.58-14.08-1.86-1.76-3.83-3.42-5.57-5.29-2.18-2.35-.69-2.94,1.62-2.95,4.4,3.28,10.5,5.13,12.92,9.95C258.64,205,261,205.53,263.9,206.49Z"/><path class="cls-67" d="M295.87,189.31c0,3.34-1.89,5.75-3.91,8.11-1.22,3-3.15,3.81-6,2l-6.05-.05C284.57,195,290.8,193.05,295.87,189.31Z"/><path class="cls-68" d="M277,199.42c-3.24-3.54,0-6.94,1.77-8.28,3.34-2.49,6.69-5.13,11.23-8.32-2.59,8.06-9.38,11.14-13.06,16.64Z"/><path class="cls-69" d="M286,199.46c2.33.3,4.21-.7,6-2,3.26,1.7.45,2.83-.55,3.66-2.16,1.79-4.85,1.43-7.45,1.24C283.36,200.37,285.65,200.62,286,199.46Z"/><path class="cls-70" d="M289.83,142.21a29.86,29.86,0,0,0-7.71,6.36c-1.87,3.44-5.17,5.61-7.6,8.55-3.9,4.46-7.09,9.46-10.83,14-1.45,1.92-1.77,4.49-3.56,6.22-2.59,2.77-5.73,3.13-9.18,2.06h0c1.63-1.42,5-2,2.24-5.43-.62-.77-.64-3.21,1-3.27,4.13-.17,5.95-2.37,7.29-5.95.55-1.47,2.57-2.38,4.39-3.95-3.79-.61-6,3.88-9.44,1.83,1.55-4.14,6.19-2.37,9.54-5.3H250.74c.29-2,1.49-1.75,2.35-2a3.66,3.66,0,0,1,2.24-1.89c9.32-3.38,19.25-5.18,27.82-10.52,1.65-1.13,3.25-2.35,5.42-2.21C289.32,140.94,290,141.25,289.83,142.21Z"/><path class="cls-71" d="M288.72,141.23,284,143.64c-9.33,4.53-19.46,6.92-29,10.77l-1.84.94.84-2.93c1.1-3.29,4.22-3.89,6.88-5,2.27-.95,4.65-1.62,6.89-2.66a44.09,44.09,0,0,0,11-5.84c1.61-1.15,3.15-2.52,5.33-2.46,2.58-1,5-3.44,8-1a1.62,1.62,0,0,1,.14.46c0,2.1-4.57,1.9-2.55,5A1.54,1.54,0,0,1,288.72,141.23Z"/><path class="cls-72" d="M268.1,145.57c-4.49,2.77-10.11,3.19-14.17,6.85l-2,0c1.45-4.44,6.23-5.26,9-8.28a6.86,6.86,0,0,1,1.34-.31c5.59-1.65,9-6.32,13.4-9.63a43,43,0,0,0,8.44-8.91c.82-1.2,2-1.86,3.38-1.2a1.39,1.39,0,0,1,.52,2.39c-1.21,3.28-4.25,5.12-6.17,7.84C278.7,139.82,273.59,142.92,268.1,145.57Z"/><path class="cls-73" d="M261.74,144.25c-2.78,3.32-6.66,5.31-9.85,8.13a3.67,3.67,0,0,0-3.08,1.94c-4.65,1.64-1.48-1.68-1.77-2.8,3.31-4.52,8.69-6.07,13.13-8.94C261.21,141.91,263.07,142,261.74,144.25Z"/><path class="cls-74" d="M286.88,169.38l-.89.09c-.7.67-2.06,1.43-1.88,2.09,1.95,6.93-3.72,5.67-7.14,6.83l-5,.92a5,5,0,0,1-1.59-3.31c-.76-1.24-1.77-.4-2.66-.3-4.47.51-4.66.29-3.62-4.52,1.82-3,5.84-3.86,7.22-7.31.72-.78,1.51-1.22,2.53-.53,2.54.42,4-1,5.17-3,1.49-2.53,4.05-2.56,6-1.47s.28,3.11-.54,4.25C282,166.62,285.16,167.67,286.88,169.38Z"/><path class="cls-8" d="M277,178.39c1-1.42,2.73-.8,4-1.45,1.65-.83,4-.68,1.81-3.87-2-2.89,1.31-3,3.18-3.6l-1.07,4.1c3.22-.72,6.27-1.34,8.15,2A61.57,61.57,0,0,1,277,178.39Z"/><path class="cls-4" d="M271,175.45l1,3.86-17,1.31c-1.34-.47-3,.15-4.08-1.17,3.63.88,6.26-1.22,9-3C263.71,177.2,267.24,175,271,175.45Z"/><path class="cls-75" d="M256,190.51c-1.8,3-4.22,2.12-6.36.72-1.69-1.1-5.24-1.1-3.68-4.8C250,186.11,252.13,190.46,256,190.51Z"/><path class="cls-76" d="M297.91,229.41l0,1.94a13.6,13.6,0,0,0-1.9,7.54c.24,3-.3,5.46-3.9,7.93,6.34-.17,6.87,1.58,4.29,5.94-1.63,2.74-.43,6.47.6,9.67-4.28-.89-5.16-4.5-6.56-7.85-.37-.87.61-5.19-3.28-1.85-1.57,1.34-2.22-2.38-3.63-3.6,1.56-1.18,3.08-.47,4.47-.7,1.33-.56,1.36-2,2-3,3.36-3.84,3.63-9.06,6-13.35C296.48,231.09,296.12,229.46,297.91,229.41Z"/><path class="cls-7" d="M289.7,236.29c-.26,2.79-1.73,3.65-3.41,4.69C285.7,238.3,287.27,237.41,289.7,236.29Z"/><path class="cls-77" d="M273.86,163.34l-2,1.06a5.85,5.85,0,0,1-1.44,2c-.71.6-1.45,1.68-2.47.73s-.1-1.79.42-2.62a92,92,0,0,1,6.31-8.23c2.94-3,5.67-6.41,10.33-6.86l-.05,0c1.17-.7,2-.76,2,1A40.76,40.76,0,0,0,273.86,163.34Z"/><path class="cls-78" d="M295.63,147.69A13.42,13.42,0,0,1,287.16,160C289.29,155.07,292.46,151.27,295.63,147.69Z"/><path class="cls-79" d="M287,150.43a1.94,1.94,0,0,0-2-1c1.85-3,5.16-3.06,8-4C292,148.4,289.37,149.28,287,150.43Z"/><path class="cls-80" d="M247.86,199.64c2.56,1.06,4,3.69,6.93,4.46,1.48.39,2.4,1.75.89,3.84a10.75,10.75,0,0,0-1.67,6.53l-1,1c-3.38,4.9-5,4.86-8.38-.23-2.31,2.21,1.73,4.91-.56,7.08-1.49-5.59-4.61-10.79-4-16.87.52.38,1,.75,1.57,1.14,1.12.84,1.86,2.8,3.41,2.31,1.76-.57,1-2.58.9-3.88C245.72,202.81,248,201.68,247.86,199.64Z"/><path class="cls-81" d="M245.91,145.25,243,146.5a7.17,7.17,0,0,1,.48-4.39c2.22-4.16.34-5.16-3.54-4.67-2.31-4.08-2.34-4.11,1-7.06.77-.69,0-1-.15-1.39-.62-1.53-1.2-3.07-1.89-4.58-1.69-3.7-1.22-7.35.27-11,2.35-.51,3.42,2.71,5.83,2,.54,2-1.38,2.77-2.19,4.19a12.73,12.73,0,0,0,4.34-4.92c1-2.12,2-1.69,3.25-.27,1,1.94-.36,4,.23,5.91,1.76,1.9,2.49-.74,3.8-.92,1.12-.15,2.37-1,3.23,0s-.07,2.18-.79,3c-2.2,2.67-4.78,5-7.08,7.58-2.15,2.45-3.13,4.95-2.34,8.1.12,2-.71,3.94-1,5.92A2,2,0,0,1,245.91,145.25Z"/><path class="cls-82" d="M250.09,120.48c-2.48-2,.81-4.22-.23-6.28-.09-1,.31-1.68,1.42-1.73-.39-4.82,3.93-10.42-2.46-14.27-.68-.41-2.4-1.08-1.09-2.63l4.21,1.92c3.75,1.15,7.7,2,10.28,5.36.24.4-.56.94-.18,1a4.43,4.43,0,0,1,3.25,1.57,2.78,2.78,0,0,1,.14,1.43c-.66,1.55-2.17,1.87-3.52,2.41-4.49.75-7.41,3.12-8.43,7.76C253.11,118.64,252.56,120.63,250.09,120.48Z"/><path class="cls-83" d="M239.22,113.44c1.35,3.59-1.29,7.45.74,11-2.17.55-2.3.6-2.91-1.26-1.14-3.49-2-7-.15-10.58-.29-1.35-1.71-2.67-.13-4.08C237.59,110.15,238.4,111.8,239.22,113.44Z"/><path class="cls-84" d="M251.28,112.47l-1.42,1.73c-3.49-.33-1.69,3.86-3.85,4.52-1.48.45-2.39,3.23-3.82,2-1.91-1.69,1-2.45,1.64-3.7a8.75,8.75,0,0,1,1.22-1.52C247.36,115,247.2,109.28,251.28,112.47Z"/><path class="cls-85" d="M246.06,241.46c-.26-1.92-1.71-3-3-4.14l-1.29-3.41c3.23,2.56,5.68,5.88,9.48,7.6.19.09-.08,1.19-.14,1.82C249,243.82,248.05,241.25,246.06,241.46Z"/><path class="cls-13" d="M250,233.43a4.86,4.86,0,0,0,4,3c.58,1.74,2.72,1.81,3.52,3.24.54,1,2,2.35-.58,2.74-2.72-1.11-5.5-2.18-7.55-4.36C247.84,236.47,246.39,234.54,250,233.43Z"/><path class="cls-86" d="M288,126.44c-.58-2.43-1.77-2.74-3-.54-2.18,4-5.68,6.61-9.12,9.33-.63-1.71-.22-3.91-2.33-4.92-.74-3.36,1.4-5.5,3.71-6.9a47.5,47.5,0,0,0,12.74-12l3,2c-.45,2.88.66,5.46,2.21,8.88C289.56,119.4,290.57,125.34,288,126.44Z"/><path class="cls-87" d="M268.1,145.57c5.31-2.87,8.87-7.85,13.7-11.29l2.19,2.17C279.07,140.14,274.34,144.16,268.1,145.57Z"/><path class="cls-88" d="M288.72,141.23c-.45-3.18-.45-3.18,3.24-5.79l1.94-1.11c1.7-.54,2.56-.16,1.68,1.71-.52,1.12-1.69,1.91-1.65,3.32-1.43.85-2.19,2.68-4.09,2.85Z"/><path class="cls-89" d="M236.9,112.59c-.28,3.44.56,6.77,1.11,10.12.16,1,.11,2.51,2,1.72,1.5,2.93,3.76,5.67,2.55,9.4-2.15.07-1-2.73-2.79-2.93-1.65,2.34.08,4.41.26,6.54-3.76-1.2-2.78-4.78-3.55-7.39-.6-2-.51-4.25-.73-6.38a11.09,11.09,0,0,1-.56-9.33Z"/><path class="cls-90" d="M235.14,114.34c-.56,3.15.22,6.23.56,9.33-1,.75-.6,1.9-.84,2.87q-.37-.09-.75-.15c-.06-4.89-.13-9.78-.16-14.67,0-.8.14-1.61.23-2.63C235.74,110.78,234.56,112.71,235.14,114.34Z"/><path class="cls-91" d="M290,111.44c-1.7,4.49-4,8.26-8.68,10.53-3.42,1.65-6.89,4-7.3,8.51.21.8-.22,1.1-.92,1.21a18.67,18.67,0,0,0-2.81-1.26,3.26,3.26,0,0,1-1.66-1,2.67,2.67,0,0,1-.17-1.34c4.58-5.17,9.06-10.45,14.13-15.17,1.42-1.18,3.35-1.92,3.64-4.22-1.29.43-1.71,1.59-2.51,2.35-2,3.36-6,4.38-8.37,7.3-2.79,3.11-6,5.6-10.17,6.47-1.58.33-3.21,1-4.44-.72a2.14,2.14,0,0,1,.72-1.93c2.45-1.86,5.79-2.46,7.52-5.33a29.83,29.83,0,0,1,2.2-2.57c2.88-4.84,8-7.17,12-10.69,2.17-1.12,4.34-2,6.62-.25,1,.05,2,.15,3,.13,2.17,0,2.28,1.82,2.61,3.1.59,2.39-1.52.81-2.29,1.22A6.52,6.52,0,0,0,290,111.44Z"/><path class="cls-92" d="M289.85,103.32a15.19,15.19,0,0,0-6.81,1.27,1.1,1.1,0,0,1-1.28-.09c-1.27-3.08,1.78-3.78,3-5.49a10.51,10.51,0,0,1-1.82,1.51c-.95.57-2,1.74-3,.65s-.87-2.22.66-3.15c.54-.33-.52-1.59,0-2.44a15.26,15.26,0,0,0,9.52-7c1-.84.73-2,.92-3.12,2.72,2.72-.29,6.61,2.09,9.63,1.39,1.76,1,4.79,4.64,4.66,1.43-.06,2,2,2.1,3.55C296.52,102.68,293.18,101.49,289.85,103.32Z"/><path class="cls-93" d="M228.7,122.18c2.19,1.48.64,3.09.16,4.66-1.3,1.27-2.64,2.42-4.63,1.39-.88-.6-2-.88-2.47-2A6.56,6.56,0,0,1,228.7,122.18Z"/><path class="cls-94" d="M221.76,126.23c1.08.27,2.34,0,3.2,1-.55.88-1,1.89-2.16,2.1-1.18.68-.94,3.67-3.47,2.11C218.74,129.05,218.78,127,221.76,126.23Z"/><path class="cls-95" d="M222.8,129.33c.07-1.36,1-1.89,2.16-2.1,1.46,1.54,2.48-1.42,3.9-.39,1.92,3.9-1.94,4.63-3.73,5.52C223,133.41,223.32,130.62,222.8,129.33Z"/><path class="cls-96" d="M259.74,70.33c2.34.93,2.51,3.18,3.16,5.15a6.6,6.6,0,0,1-1.34.54c-1.83.33-4.09,1.43-5.28-.54s1.92-2.08,2.39-3.57A6.39,6.39,0,0,1,259.74,70.33Z"/><path class="cls-44" d="M263.88,86.52c-5,2-3.57-3.68-5.84-5l2.69-1.41.29.32C262.59,82.2,264.93,83.56,263.88,86.52Z"/><path class="cls-97" d="M200.17,108.65c0-1.13,0-2.26,0-3.38a7.17,7.17,0,0,0,5.59,2.43c1.63,1.16,4,0,5.57,1.63-2.34,1.8-2.34,1.8-9.5-.15Z"/><path class="cls-98" d="M263.88,86.52c-.24-2.35-2.91-3.55-2.86-6,4,0,7.62-3.18,12.11-.84,1.54.8.33,5.3,3.84,2.81,1.89,1.3,1.92,1.39.3,2.07-2.77,1.15-2.11,2.38-.2,3.72l.42.55c.39,3.48-1.22,3.24-3.36,1.76s-3.48-3.89-7-5.49c3,3.26,1.06,8.2,6,9.22-4.12,2.73-4.16,8.45-8.23,11.22-2.67-.69-2.67-.69-2.76-2.18,1.62-4.84,2.58-9.75,1.84-14.87Z"/><path class="cls-99" d="M263.92,88.45c2.6,4.72.38,9.61.39,14.41a10.31,10.31,0,0,1-2.23.46l-10.14-5.83c.88-.47,3.59-.38,1.74-1.9-1.69-1.38-.16-3.26-1.68-4.18,1.6-.77,3.22-1.5,4.79-2.33,1.76-.94,2.23.75,3.19,1.45-2.17,3,.56,2.81,2,2.74,3.32-.15.45-2.51,1.1-3.66A9.5,9.5,0,0,1,263.92,88.45Z"/><path class="cls-72" d="M270.89,129.45a1.84,1.84,0,0,1,2.08,2c1,3-.88,5.07-2.77,6.87-2.45,2.35-4.6,5.14-8,6.25-.14-.1-.28-.19-.42-.3,0-2.14-1-.9-1.73-.47l-13,7.74c-2-1.8-.69-4.19-1.13-6.27a4.15,4.15,0,0,1,.08-.79c2-4.8,5.89-8.15,9.45-11.74,1.1-.48,2.23-1.09,3,.51.15,2.17-1.57,3.24-2.72,4.64a21.83,21.83,0,0,0-2.43,3.23,10.6,10.6,0,0,1-3.57,3c-.38.19.73.57.24.11-.09-.08,0-.19.33-.34,4.13-2,9.17-2,12.54-5.67C265.48,135.29,267.77,132,270.89,129.45Z"/><path class="cls-100" d="M290.11,88.57c-1.34,4.57-3.21,8.42-9.15,6.87l-.46-.5c-.24-1.51.84-3.28-.88-4.51.44-1.81,1.44-3,3.45-2.94C285.27,88.8,288,86.75,290.11,88.57Z"/><path class="cls-101" d="M283.07,87.49l-3.13,3c-1.9.6-2.1-1.22-3-2.08l.11-.2C278.78,85.68,280.75,85.25,283.07,87.49Z"/><path class="cls-79" d="M285,149.42c-3.56,2-7.17,3.93-9.89,7.09a.59.59,0,0,1-1,0,29.3,29.3,0,0,1,8-7.89C282.84,149.68,284,149.32,285,149.42Z"/><path class="cls-88" d="M254.93,154.41a11.83,11.83,0,0,1,5.18-2.8c7.94-2.69,15.9-5.32,23.86-8-5,5.27-12.24,5.15-18.39,7.6C262.21,152.59,259.11,155.6,254.93,154.41Z"/><path class="cls-102" d="M271,175.45c-3.63.92-7.05,4.4-11.06,1,1.18-1.91,1.11-4.43,3-6a2.43,2.43,0,0,1,2.06,1c-.92,2.72-.92,4.52,2.81,3,1.21-.48,2.8-1.25,3.77-.84C273.29,174.37,271.57,174.92,271,175.45Z"/><path class="cls-103" d="M265,171.43a2.1,2.1,0,0,1-2.06-1c3.89-4.52,6.51-10.07,11.21-13.94a6.57,6.57,0,0,1,1,0l-7.29,10.07c2.26.11,2.66-1.83,4-2.18C271.47,168.63,266.89,168.73,265,171.43Z"/><path class="cls-104" d="M262.16,144.55c4.07-4,8.95-7.31,10.81-13.12l1.06-1c6.32-.65,2,2.87,1.86,4.75a47.61,47.61,0,0,1-10.8,8.74C264.25,144.44,263.44,146,262.16,144.55Z"/><path class="cls-105" d="M250.09,120.48c1.78-1,2.16-3,2.48-4.61,1-5.29,4.42-7.29,9.37-7.51a15.13,15.13,0,0,0,2.77.43,4.85,4.85,0,0,1,6.72,4.91,60.83,60.83,0,0,1-8.9,6.57c-5,4.81-10.57,9.08-13.24,15.82a2.88,2.88,0,0,1-2.47,2.15c-1.59-3.09-1.38-5.56,1.48-8.15,3.31-3,6-6.68,9.36-10.51-3.66.51-5.35,3.45-8.24,4.09C248.77,122.4,250.29,121.62,250.09,120.48Z"/><path class="cls-106" d="M246.82,138.24c3.08-7.84,9.12-13.32,15.09-18.85a2,2,0,0,1,2-.23c1,2-1.08,2.28-1.83,3.31l-.95,1.19c-.69,3.82-3,6.76-5.34,9.66-3.29,3.7-6,7.93-9.81,11.14C245.08,142.23,246.51,140.31,246.82,138.24Z"/><path class="cls-107" d="M264.84,105.5c.41-2,2.34-3.13,1.94-6-.34-2.45,3.56-3.94,6.28-4.93,4.54-3.88,6.37-3.69,7.95.81l-.05,0c.59,1.8-.07,3.4-.66,5.42l5.45-3c-.53,2.92-3.73,3.75-3.86,6.4-4.27,3.48-13.38,4.65-16.94,2.17A4.6,4.6,0,0,0,264.84,105.5Z"/><path class="cls-108" d="M265,106.48c5.87,1,11.35-1.07,16.94-2.17l1.15.28c-1.12,3-4.46,3.47-6.52,5.49a25.77,25.77,0,0,0-4.62,5.28,2.35,2.35,0,0,1-1-2c-1.2-4.22-2.69-4.39-9.88-1.1-1.33-1.69,2.7-2.13.92-3.9Z"/><path class="cls-109" d="M254.91,137.41l3.25-3.8c3.33-4.05,6.69-8,11.35-10.68,2.32-1.32,3.91-3.44,5.55-5.48,1.84-3.23,6.06-3.78,7.91-7,.7-.6,1.62-.67,1.91.17.52,1.54-1,2-1.89,2.84-4.37,5.28-8.69,10.61-14.07,14.94-2.71,4.64-7.12,7.31-11.57,9.89C256.58,138.73,255,139.6,254.91,137.41Z"/><path class="cls-110" d="M270.89,129.45c-4.07,6.45-8,12.93-16.62,14.21-2.19.32-4.26,1.49-6.92,1.77l5.48-5.12c6.6-1.77,10.85-7.06,16.13-10.81Z"/><path class="cls-111" d="M275.06,117.45c-4.43,6.64-10.83,11.22-16.9,16.16-.64-1.31-1.55-.34-2.36-.29.6-3.87,2.93-6.79,5.34-9.66,3.93.76,7.18-.77,10.17-3.07C272.6,119.6,273.81,118.5,275.06,117.45Z"/><path class="cls-86" d="M269,129.5c-4.46,5-8.54,10.51-16.13,10.81a3.52,3.52,0,0,1,2.08-2.9c4.22.08,6.37-3.35,9.3-5.46,1.6-1.14,3.14-2.37,4.71-3.56C268.93,128.76,268.94,129.13,269,129.5Z"/><path class="cls-112" d="M270.9,113.36a2,2,0,0,1,1,2l-1.95,2c-1.83.9-3.15,3.25-5.73,2.06l-2.31-.07C265.12,117.7,267.41,114.64,270.9,113.36Z"/><path class="cls-113" d="M283,113.45c-.48-1,3.13-2,0-3l4.26-5.36C288.74,110.16,286.62,112.23,283,113.45Z"/><path class="cls-111" d="M264.22,119.46,270,117.4c-1.67,3.16-4.8,4.06-7.86,5.07Z"/><path class="cls-114" d="M281,95.39c-2.19-4.76-5.23-1.24-7.95-.82-2.22-.52-6.56,1.32-4.37-4.12.34-.86-.63-2.53-1.43-3.46s-2.69-1.36-.92-2.71a2.66,2.66,0,0,1,3.54.56,44.35,44.35,0,0,0,5.3,5.23c2.76,2.12,1.3-.94,1.78-1.63l3,2.08C282,91.77,280.89,93.71,281,95.39Z"/></g></g></svg>