<svg xmlns="http://www.w3.org/2000/svg" viewBox="0 0 262.15 225"><defs><style>.cls-1{fill:#050c32;}.cls-2{fill:#ab927b;}.cls-3{fill:#33605f;}.cls-4{fill:#555b6a;}.cls-5{fill:#bdb2a9;}.cls-6{fill:#daa566;}.cls-7{fill:#be602e;}.cls-8{fill:#a38e6a;}.cls-9{fill:#726563;}.cls-10{fill:#030619;}.cls-11{fill:#79746b;}.cls-12{fill:#396951;}.cls-13{fill:#477d66;}.cls-14{fill:#3d6852;}.cls-15{fill:#05303d;}.cls-16{fill:#205a43;}.cls-17{fill:#1c323f;}.cls-18{fill:#3b6a5d;}.cls-19{fill:#988666;}.cls-20{fill:#000328;}.cls-21{fill:#010219;}.cls-22{fill:#00010f;}.cls-23{fill:#000830;}.cls-24{fill:#29523c;}.cls-25{fill:#204439;}.cls-26{fill:#042128;}.cls-27{fill:#341027;}.cls-28{fill:#06121c;}.cls-29{fill:#6f4b52;}.cls-30{fill:#443d53;}.cls-31{fill:#573f4b;}.cls-32{fill:#b46e48;}.cls-33{fill:#76585c;}.cls-34{fill:#70606a;}.cls-35{fill:#613b39;}.cls-36{fill:#817485;}.cls-37{fill:#b08e8d;}.cls-38{fill:#2d4d46;}.cls-39{fill:#040516;}.cls-40{fill:#ecb1b3;}.cls-41{fill:#e9aeb2;}.cls-42{fill:#477156;}.cls-43{fill:#4c8271;}.cls-44{fill:#123e38;}.cls-45{fill:#0d313e;}.cls-46{fill:#356557;}.cls-47{fill:#496d66;}.cls-48{fill:#1b3a43;}.cls-49{fill:#e9a4a2;}.cls-50{fill:#2d4e4e;}.cls-51{fill:#3d7053;}.cls-52{fill:#33644d;}.cls-53{fill:#01184b;}.cls-54{fill:#22544b;}.cls-55{fill:#05061a;}.cls-56{fill:#28324a;}.cls-57{fill:#202a3c;}.cls-58{fill:#6d8983;}.cls-59{fill:#6c4953;}.cls-60{fill:#9c676b;}.cls-61{fill:#cf985b;}.cls-62{fill:#d6bea4;}.cls-63{fill:#c5a685;}.cls-64{fill:#e2d9ce;}.cls-65{fill:#d2c6b4;}.cls-66{fill:#a79283;}.cls-67{fill:#cc9080;}.cls-68{fill:#0e1523;}.cls-69{fill:#262545;}.cls-70{fill:#3d1f38;}.cls-71{fill:#a4746c;}.cls-72{fill:#c08a78;}.cls-73{fill:#986968;}.cls-74{fill:#cbb8a0;}.cls-75{fill:#8e867a;}.cls-76{fill:#535f69;}.cls-77{fill:#a09585;}.cls-78{fill:#b1a18d;}.cls-79{fill:#9f8e74;}.cls-80{fill:#cfc2be;}.cls-81{fill:#0a3531;}.cls-82{fill:#d2b398;}.cls-83{fill:#f6f6f3;}.cls-84{fill:#165045;}.cls-85{fill:#122b2c;}.cls-86{fill:#e2dfd4;}.cls-87{fill:#578b5c;}.cls-88{fill:#256049;}.cls-89{fill:#010518;}.cls-90{fill:#1c553b;}.cls-91{fill:#587b69;}.cls-92{fill:#031025;}.cls-93{fill:#6d6469;}.cls-94{fill:#f4753c;}.cls-95{fill:#144434;}.cls-96{fill:#0f413a;}.cls-97{fill:#072327;}.cls-98{fill:#082b2b;}.cls-99{fill:#183c34;}.cls-100{fill:#316243;}.cls-101{fill:#3a5b44;}.cls-102{fill:#031921;}.cls-103{fill:#0a312a;}.cls-104{fill:#604750;}.cls-105{fill:#ba7c74;}.cls-106{fill:#eca392;}.cls-107{fill:#ab6f66;}.cls-108{fill:#af714f;}.cls-109{fill:#dfa18c;}.cls-110{fill:#f7bbb0;}.cls-111{fill:#2d5143;}.cls-112{fill:#09113a;}.cls-113{fill:#e87200;}.cls-114{fill:#da0c1b;}.cls-115{fill:#826462;}.cls-116{fill:#c99281;}.cls-117{fill:#511c0c;}.cls-118{fill:#3a6c57;}.cls-119{fill:#745060;}.cls-120{fill:#ce969d;}.cls-121{fill:#191b2e;}.cls-122{fill:#fed8da;}.cls-123{fill:#133135;}.cls-124{fill:#174942;}.cls-125{fill:#52785f;}.cls-126{fill:#527957;}.cls-127{fill:#01091a;}.cls-128{fill:#2b5e41;}.cls-129{fill:#d2aa91;}.cls-130{fill:#305e53;}.cls-131{fill:#39694a;}.cls-132{fill:#0a282b;}.cls-133{fill:#2a5e4a;}.cls-134{fill:#2f5d45;}.cls-135{fill:#07372d;}.cls-136{fill:#083231;}.cls-137{fill:#1e4a38;}.cls-138{fill:#104236;}.cls-139{fill:#000228;}.cls-140{fill:#141b30;}.cls-141{fill:#ed9082;}.cls-142{fill:#aa7b57;}.cls-143{fill:#fdc9c4;}.cls-144{fill:#e9d4b5;}.cls-145{fill:#e1c9b6;}.cls-146{fill:#ece5d8;}.cls-147{fill:#cccac9;}.cls-148{fill:#ad7b70;}.cls-149{fill:#1e2e31;}.cls-150{fill:#050f1f;}.cls-151{fill:#030514;}.cls-152{fill:#8c5f64;}.cls-153{fill:#f3b8b5;}.cls-154{fill:#c9968f;}.cls-155{fill:#e09d93;}.cls-156{fill:#945765;}.cls-157{fill:#663948;}.cls-158{fill:#b7aa95;}.cls-159{fill:#9d9588;}.cls-160{fill:#e0ceb9;}.cls-161{fill:#d2bb98;}.cls-162{fill:#e6daca;}.cls-163{fill:#d4b88a;}.cls-164{fill:#c2a382;}.cls-165{fill:#b4a189;}.cls-166{fill:#817c74;}.cls-167{fill:#706057;}.cls-168{fill:#647a89;}.cls-169{fill:#0d1638;}.cls-170{fill:#314259;}.cls-171{fill:#6d8769;}.cls-172{fill:#f2ebe5;}.cls-173{fill:#754f47;}.cls-174{fill:#3e7051;}.cls-175{fill:#2b6146;}.cls-176{fill:#38624c;}.cls-177{fill:#66806b;}.cls-178{fill:#1d4435;}.cls-179{fill:#14362d;}.cls-180{fill:#c1705a;}.cls-181{fill:#092b35;}.cls-182{fill:#bc9c8f;}.cls-183{fill:#c5a169;}.cls-184{fill:#d7673a;}.cls-185{fill:#23553d;}.cls-186{fill:#1f503c;}.cls-187{fill:#052e2c;}.cls-188{fill:#011a23;}.cls-189{fill:#27573b;}.cls-190{fill:#43684b;}.cls-191{fill:#b09261;}.cls-192{fill:#d79991;}.cls-193{fill:#f9c1bf;}.cls-194{fill:#eead94;}.cls-195{fill:#704b4a;}.cls-196{fill:#c1b7b5;}.cls-197{fill:#b27677;}.cls-198{fill:#425b54;}.cls-199{fill:#121d32;}.cls-200{fill:#e5b5b5;}.cls-201{fill:#aa7270;}.cls-202{fill:#ece4e0;}.cls-203{fill:#7f7776;}.cls-204{fill:#7f7e7f;}.cls-205{fill:#d4c5af;}.cls-206{fill:#ab917f;}.cls-207{fill:#32523f;}.cls-208{fill:#d1735d;}.cls-209{fill:#457550;}.cls-210{fill:#2e6144;}.cls-211{fill:#063638;}.cls-212{fill:#1f513d;}.cls-213{fill:#2f544e;}.cls-214{fill:#23573f;}.cls-215{fill:#1c4b41;}.cls-216{fill:#03113d;}.cls-217{fill:#f1e6d6;}.cls-218{fill:#fecbc7;}.cls-219{fill:#47253f;}.cls-220{fill:#3c283b;}.cls-221{fill:#9e676a;}.cls-222{fill:#694755;}.cls-223{fill:#d4858f;}.cls-224{fill:#63374a;}.cls-225{fill:#5d4548;}.cls-226{fill:#edcd9a;}.cls-227{fill:#e0b876;}.cls-228{fill:#d8b899;}.cls-229{fill:#e4c5a2;}.cls-230{fill:#cfb082;}.cls-231{fill:#929085;}.cls-232{fill:#9b7f53;}.cls-233{fill:#b3a4a4;}.cls-234{fill:#e1dadd;}.cls-235{fill:#cfb49e;}.cls-236{fill:#578859;}.cls-237{fill:#021b2c;}.cls-238{fill:#f6dbb5;}.cls-239{fill:#a18a8f;}.cls-240{fill:#79747e;}.cls-241{fill:#133d2d;}.cls-242{fill:#1b183b;}.cls-243{fill:#547e57;}.cls-244{fill:#5e6470;}.cls-245{fill:#115cb4;}.cls-246{fill:#e1c4ae;}.cls-247{fill:#7a363b;}.cls-248{fill:#f0d4a1;}.cls-249{fill:#faf4f1;}.cls-250{fill:#93574d;}.cls-251{fill:#ecd2cc;}.cls-252{fill:#58364b;}.cls-253{fill:#faf6f6;}.cls-254{fill:#dfa9aa;}.cls-255{fill:#fcd36f;}.cls-256{fill:#f5ebda;}.cls-257{fill:#340d1d;}.cls-258{fill:#e9dde9;}.cls-259{fill:#d9c9c9;}.cls-260{fill:#f8e9d9;}.cls-261{fill:#d0ccd8;}.cls-262{fill:#f8eadf;}.cls-263{fill:#e9d2d7;}.cls-264{fill:#00000f;}.cls-265{fill:#002;}.cls-266{fill:#2a5e51;}</style></defs><title>Ресурс 32</title><g id="Слой_2" data-name="Слой 2"><g id="Слой_1-2" data-name="Слой 1"><path class="cls-1" d="M47.17,72c-4.82-3.07-8.51-8.23-16-4.66-2.9,1.38-7.95-.33-12-.36V65c7-3,13.6-6.86,21.21-8.26a2.79,2.79,0,0,1,3,1,3.36,3.36,0,0,1,.16.42,2.36,2.36,0,0,1,0,.46c1.68-3.56,4.24-2.29,6.76-1.23A4.11,4.11,0,0,1,51,58.54c.86,2-.67,5,2.55,5.93,1.34.9.81,1.87.13,2.85-1.28,1.22-1.85,3-3.25,4.16C49.38,72.05,48.38,72.66,47.17,72Z"/><path class="cls-2" d="M262.15,162v6c-1.87,2.59-4.39,2.76-7.19,2-3.13-1.26-7.65.83-9.37-3.86-1-3.74,2.45-4.94,4.06-7.2a3.31,3.31,0,0,1,1.31-.52C254.87,159,259.35,157.91,262.15,162Z"/><path class="cls-3" d="M125.93,1.91c.73-1.23,2.65-.43,3.22-1.91h6a60.13,60.13,0,0,1,13,5.41c5.23,3.07,8.46,7.31,8,13.79-.36,4.62.31,9.31-1,13.87-4.09-.82-4.27-4-3.25-6.8,2.73-7.5-1.25-15.89-8.51-19.54-4.08-2-8.49-2.66-12.9-3.31C128.87,3.18,127.12,3.41,125.93,1.91Z"/><path class="cls-4" d="M245.11,140.06c6.34.08,12.22,1.49,17,5.94v2a10.82,10.82,0,0,1-2.33,1.65c-.79.62-1.35,1.57-2.48,1.69a3.43,3.43,0,0,1-1.23-.48c-2.94-3.22-7.06-4.82-10.4-7.49C245.12,142.34,244.52,141.31,245.11,140.06Z"/><path class="cls-5" d="M262.15,162c-3.24-2.52-7.55-1.19-11-3a1,1,0,0,1-.33-.82c0-.3.07-.45.13-.45.63-1.27,2.35-1.08,3.3-2.56a9.07,9.07,0,0,1-6.68-6.17,2.63,2.63,0,0,1,1.55-2.26c3.32.21,5.45,2.69,8.07,4.22l0,0c2.14,1.23,3.2,3.51,5,5.11Z"/><path class="cls-6" d="M255.14,169c2.49.69,4.75-.19,7-1v5c-1.7,2.86-4.59,3-7.42,3.27-1.23,0-2.46.17-3.69.24a7.9,7.9,0,0,1-5.17-3.71c.32-2.58,2.28-2.79,4.26-2.82C251.87,170,253.67,170.43,255.14,169Z"/><path class="cls-7" d="M254.12,175.17a21.62,21.62,0,0,0,8-2.17v4H260.7c-2.72,1.35-4.84,4-8.3,3.77C249.23,177.76,251.23,176.33,254.12,175.17Z"/><path class="cls-8" d="M262.15,156c-3.08-.32-3.86-2.87-5-5.11l1.9-1.77c2.3.83,1.56,3.56,3.06,4.88Z"/><path class="cls-9" d="M262.15,154c-2.57-.66-2.29-3.09-3.06-4.88.69-1.28,1.92-1.08,3.06-1.12Z"/><path class="cls-10" d="M144.38,5.88c7.55,3.67,12,13,8.53,20.84a4.77,4.77,0,0,0,2.23,6.35c0,1.28.05,2.55.07,3.83.32,3.07-.71,6.12,0,9.24.3,1.38.08,3.38-1,4.16-2.84,2-1.13,3.22.34,4.67-2,5.11-5.66,8.07-11.23,8.49-1.39-1.23-3.49-2.27-1.29-4.53.09-.09.06-.23-.39-.26a2.07,2.07,0,0,1-1.87-1.27c-.34-1.83,1-3.08,1.59-4.58a24.32,24.32,0,0,1,1.93-3.68,18.48,18.48,0,0,0,2.92-9,5,5,0,0,1,.5-1.25c2.76-2.26,2.15-4.81.64-7.44-.4-2.35-1.09-4.67-.64-7.09,1.66-3-.64-9.24-4.31-11.58-.84-.53-1.81-.85-2.67-1.34-1.59-.91-3.56-1.85-2.75-4.09.69-1.93,2.58-2.52,4.55-2A23.49,23.49,0,0,1,144.38,5.88Z"/><path class="cls-11" d="M174,123c12.67,4.09,25.95,5.2,38.89,7.94,5.66,1.2,11.48,1.93,16.6,5-1.34,2.28-3.66,1.72-5.7,2-1.88-.35-3.8-.62-5.28-2A27.28,27.28,0,0,0,204.15,133c-3.58,1.61-7.14,2.08-10.64-.18-1.41-.92-2.83-.18-4.25-.07-3.37.47-5.39-3.09-8.68-2.86a10.4,10.4,0,0,1-5.53-.35,10.51,10.51,0,0,1-4.1-1.57c-1.66-1.25-1.79.66-2.59,1.19-3.44-.5-6.84-1.56-10.38-.67a2,2,0,0,1-1.5-2.07,22.94,22.94,0,0,1,1.54-6.58,3.12,3.12,0,0,1,2.82-.1c2.12.73.67-1.06,1.08-1.56a2,2,0,0,1,1.12-.74,4.11,4.11,0,0,1,1.4.09C167.77,119.09,171.84,119.4,174,123Z"/><path class="cls-12" d="M174,123l-10-4.78c.31-1.91,2-2.83,3.59-4.7-1.84,1.85-3.17,3.13-4.47,4.44h-.49l-.49,0a2.47,2.47,0,0,1-1.82-1.1,7.81,7.81,0,0,1-1.17-5.61,4.51,4.51,0,0,1,.53-1.31c2.7-1.93,4.14-4.82,5.75-7.58,1.53-1.53,1.47-4.85,4.85-4.29,4.51,5.12,2.32,11.44,2.88,17.23C173.46,117.82,173.28,120.44,174,123Z"/><path class="cls-13" d="M152.1,76.18A69.86,69.86,0,0,1,167.22,89c-.61,1.51-.8,3.16-1.54,4.63-1.59,2-3.91,1.81-6.07,2.11-3.28-.66-4.69-4.94-8.57-4.45-1-1.31-1.31-3.07-.09-4,3.87-2.9,2-6,.7-9.13A2,2,0,0,1,152.1,76.18Z"/><path class="cls-14" d="M143.17,63.17c4.52-1.57,8.38-4,10.91-8.22,1.14-1.56.28-4,2.23-5.19,1,4.05.11,8.47,2.58,12.28,1.1,1.69-.09,2.57-1.83,3.05-2.65.73-5.48,1.07-7.7,3a1.76,1.76,0,0,1-1.94.33c-1.5-2.49,1.26-2.72,2.36-4.36-2.36,2.35-6.65,2.15-6.37,6.51a2.08,2.08,0,0,1-1.72,1.2c-2.67-.24-3.53-1.91-3.47-4.33C138.91,64.87,140.27,63.11,143.17,63.17Z"/><path class="cls-15" d="M147.19,68.07l2.17,0c-1.16,3.41.57,5.85,2.74,8.14.05.6.11,1.2.16,1.8,1.86,2.5,1.49,4.82-.48,7.08s-4.1,1.17-6.11,0a19,19,0,0,0-6-2.07c-2.1-.72-1.76-2-.74-3.39a20.06,20.06,0,0,1,4.48-4.53c2-1.43,3.28-3.21,3.22-5.76A2,2,0,0,1,147.19,68.07Z"/><path class="cls-16" d="M159.19,95c1.68-1.53,4.37-.19,5.93-2.06,3.67-.82,3.62,2.78,5.24,4.41a.48.48,0,0,1,0,.65c-2.56.68-2.31,3.66-4.09,5-1.59.69-2.37,2.78-4.46,2.63-2.39-.42-3.65-1.81-3.61-4.28C158.86,99.29,157.8,97,159.19,95Z"/><path class="cls-17" d="M156.31,49.76c-1.11,1.57,1.19,4.61-2.23,5.2-.57-.86-1.29-.83-2.12-.41s-2,.8-2.53-.41.23-1.92,1.23-2.35c3.72-1.57,4.14-4.22,3.12-7.84-.67-2.37.44-4.8,1.43-7.05C157,41.07,156.07,45.46,156.31,49.76Z"/><path class="cls-11" d="M245.11,140.06l1.07,2.89c-1.52,1.29-2.71.1-3.9-.59a11.67,11.67,0,0,0-8.34-1.49,3.51,3.51,0,0,1-2-.59c-.85-1.32-2.19-2.43-1.86-4.26C235.41,136.21,240.19,138.41,245.11,140.06Z"/><path class="cls-18" d="M170.36,97.36c-2.15-1-2.76-3.82-5.24-4.41.18-1.61-.57-3.7,2.1-4C168.81,91.56,171.93,93.58,170.36,97.36Z"/><path class="cls-19" d="M230.1,136c1.06,1.09,2.45,2,2.13,3.85-2.79-.8-6.62,1.44-8.24-2.8l5.53-1.2A.47.47,0,0,1,230.1,136Z"/><path class="cls-20" d="M107.45,224.87c-19.39,0-34.92.13-54.3.13-3,0-4-1-5-4-1.32-4-.86-5.06.58-9,.66-1.82.91-3.55-.18-5.1a1.38,1.38,0,0,1,0-1.68c2.65-3.13,6.42-2.8,10.06-2.34,12.05,1.5,23.65,5,35.43,7.78,10.6,2.5,21.92,3.88,32.93.71a46.81,46.81,0,0,1,15.78-1.66h.08l0,4.45c-3.36.21-6.69.7-10,1.14a177,177,0,0,0-24,4.45,1.36,1.36,0,0,0-.78,2.05c.49.75.94,1.48.64,2.27A1.29,1.29,0,0,1,107.45,224.87Z"/><path class="cls-21" d="M161.13,187.14c-4.53-1.1-7.95-5-12.87-5.09-.51.39-.76,1.08-1.45,1.28a3.38,3.38,0,0,1-2.38-1.18,5,5,0,0,1-1.19-2.46,98.76,98.76,0,0,1,3.16-16.17,23.89,23.89,0,0,0,3.48-4.46c1.63-2.17,3.55-1.35,5.32-.39,11.22,6.07,23.26,8.42,35.91,8,2.77,0,4.95.85,5.32,4,.5,4.15,2.48,6.7,6.91,6.9.73,0,1,.72.91,1.47-5.93,4.18-11.67,8.82-19.43,8.92-5.43.07-10.87-.08-16.3-.14"/><path class="cls-22" d="M148.26,213.06c-6.61-3.89-13.44-2.31-20.11-.48a42.4,42.4,0,0,1-21.36.8c-.32-.08-.66-.29-1-.24-11.69,2.08-21.46-5.29-32.47-6.6-5.37-.64-10.7-1.62-16-2.55-3.48-.61-6.41.95-9.45,2.14-5.08-1-8.87-3.92-11.84-8-.41-4.68,3.13-2.93,5.37-3.3a112.16,112.16,0,0,1,13,4c3,1,6.17,1.27,9.21,2.11,8.55,1.85,17.2,3.19,25.71,5.24,5.85,2.81,12.2,2.91,18.42,2.79,4.44-.08,8.9-.21,13.35-.38,4.31-.43,8.59-1.25,12.94-1,2.36-.06,4.71,0,7.06,0,1.81.06,3.67-.12,5.39.5,2.18.77,3.91,2,2.57,4.72A1.79,1.79,0,0,1,148.26,213.06Z"/><path class="cls-23" d="M108.14,224.87c-.09-.66-.21-1.31-.25-2-.12-1.69-3.71.19-2.6-2.33.73-1.64,2.47-2.32,4.47-2.66,10.35-1.76,21.07-7,31.39-8.92,2.54-.48,5.63,1,8,1,.3,2.93-1.21,9.93-.9,12.86-.38,2.26-2.08,2.15-3.78,2.14q-13.17-.09-26.33-.14c-1.24-2.48.76-3.22,2.31-4a53.65,53.65,0,0,1,9-3.35c-6.61.52-12.15,4.61-18.23,7.38Z"/><path class="cls-24" d="M150.22,201a7.52,7.52,0,0,1,.05,6.18c-8.73,1.15-17.35-1.27-26.06-.81a35,35,0,0,1-18.38-11.1c1.85-3.28,5.29-3.84,8.42-4.94,3.62,1,7.47.42,11.07,1.56,1,2.89-1.48,2.93-3,3.73,2.54,3.1,6.11,2.9,9.55,3.1,6-.36,11.73,1.46,17.6,2.15Z"/><path class="cls-25" d="M121.12,194.93c.89-1.6,4-.11,4-2.92a3.23,3.23,0,0,1,2.74-1c7.71,1.23,8.6.75,10.7-5.66a1.24,1.24,0,0,1,2.26.51c1.26,4.13,4.33,6,8.18,7.12-.72,2.83.48,5.37,1.18,8a2.21,2.21,0,0,0-.51.18c-4.33-.18-8.05-2.46-12.14-3.48-3.64-2.25-7.73.22-11.49-1.09C124.44,196,122.44,196.51,121.12,194.93Z"/><path class="cls-26" d="M149,193c-6.85,1.76-7.6-4.06-9.9-8-3.26-2.1-2.26-5.48-2.57-8.47,4.34-2.74,5.58-2.28,6.56,2.39.1.45.65.73,1,1.07l1,2c.15,1.34.62,2.06,2,1.06l1.12-1Z"/><path class="cls-27" d="M204.25,179c-6.3.48-8.84-3-9.11-8.76-.13-2.86-2.36-2.06-4-2.3,1.53-3.71,4.77-1.8,7.3-2.23a3.81,3.81,0,0,1,2.82,1.38c.42,1.48-.61,2.25-1.52,3.08-.52.52-1.37,1-.78,1.87s1.66.6,2.56.64c3.19-.39,5.38.3,4.55,4.22C205.59,177.74,205.32,178.74,204.25,179Z"/><path class="cls-28" d="M123.18,205c8-.68,16,1.24,24,.93a3.4,3.4,0,0,1,3.08,1.19l-.13,1.86c-3,1-5.9-2.38-8.87-.06l-7.2,0c-2.53-1.06-5.21-.9-7.86-1.05a5,5,0,0,1-1.32-.38C124,206.89,122.66,206.6,123.18,205Z"/><path class="cls-29" d="M226,175.72c-5-.15-10.05.73-15-.53,1.06-1.68,3-1.27,4.52-1.94,3.59-2.25,4.9-7,9.32-8.36a1.38,1.38,0,0,1,1.72.75,2.89,2.89,0,0,1,.05,1.34,7.55,7.55,0,0,1-2.58,3.39c-1.95,1.28.4,1.07.41,1.62C222.81,174.15,226.33,174.13,226,175.72Z"/><path class="cls-30" d="M216.09,174.1c-1.44,1.56-3.44.51-5.09,1.09-1.81.09-3.81-.33-4.92,1.74-.54-2.81-2.3-3.65-5-3-.64-1.36-2.74-2-2-4l2.06-1.86a9,9,0,0,0,7.41,2.75C211.35,171.28,214.27,171.44,216.09,174.1Z"/><path class="cls-31" d="M226,175.72c-1.9-.66-2.65-1.9-2-3.87,1.83-3.84,4.62-4.6,8.29-2.6a3.76,3.76,0,0,1,1.33,2.62c-.16,1.39-1.21,1.85-2.34,2.22a10.4,10.4,0,0,0-3.14,1.82Z"/><path class="cls-32" d="M254.12,175.17c-1.35,1.36-3.11,2.58-1.83,4.92,2.91,2.16,1.08,4.22-.13,6.3-2.64,1.2-3.26-.8-4-2.55l-.05-1.7c-.83-2.36.94-3.7,2.06-5.3.33-.29.66-.58,1-.89C251.86,174.74,253,175,254.12,175.17Z"/><path class="cls-33" d="M248.11,183.84c1.13,1.08,2,2.57,4,2.17.56-.5.85-1.51,1.93-1l-1.52,8.8C249.64,190.55,248.27,187.47,248.11,183.84Z"/><path class="cls-34" d="M251.07,177.19l-3,4.95c-3-1.13-1.94-6-5.87-6.33a1.76,1.76,0,0,1-.59-1.21c.31-1.42.68-2.78,2.51-2.83,1,.57,1.24,1.82,2.12,2.51C247.57,175.7,249.73,175.75,251.07,177.19Z"/><path class="cls-35" d="M254,185l-1.93,1c.47-2,1.7-3.89.21-5.92,3.12-.17,5.18-3.22,8.41-3.09C258.7,179.85,254.79,181.11,254,185Z"/><path class="cls-36" d="M242.09,174.92c0,.3.08.6.1.89-3.5,0-6.11,4.18-10,2.09-.21-1.89,1.6-1.84,2.52-2.66a10.19,10.19,0,0,1,2.46-1.14C238.85,174,240.77,172.67,242.09,174.92Z"/><path class="cls-37" d="M235.19,176.08l-3,1.82c-1.69.06-2.68-1.26-4-2,0-1.4.51-2.42,2-2.69C231.87,174.17,234,174.39,235.19,176.08Z"/><path class="cls-38" d="M141.27,208.94c3-3.52,5.92,0,8.87.06.16,1.41.79,2.95-1,3.81C148.39,207.67,144.2,209.59,141.27,208.94Z"/><path class="cls-39" d="M144.38,5.88c-.62.2-1.34.71-1.85.55-1.94-.58-4.21-.48-4.74,1.3-.68,2.32,2,2.66,3.57,3.15,5.79,1.8,6.21,7.61,8.5,11.78,1.35,2.45-1.62,1.7-3.09,1.49-1.39,0-2-.93-2.39-2.13a6.77,6.77,0,0,1,0-2c.33-2.33-1-3.5-3-4.26-3.89-3.19-7.85-6.08-13.29-3.77-1.48.59-2.54,1.79-3.8,2.69-3.24,2.27-7.12,3.9-8.22,8.28-.32,1.41-1.83,2.29-1.71,3.89.18.61.4,1.19.54,1.8.57,3.36-3.37,4.6-3.55,7.6a6.15,6.15,0,0,1-.8,2,2.46,2.46,0,0,1-2.53,1c-1.4-4-1.55-8.14-1.89-12.28a3.07,3.07,0,0,1,1.1-2.87c2.15-2.3,3.84-4.81,3.69-8.16l.07,0c1-9.21,9.72-8.2,15.41-11.61.4,0-.46-.77-.19-.16.12.26,0,.32-.32.38-1.47.27-3.11.86-2.78-1.74l2.82-.86C132.39,1.82,138.62,2.76,144.38,5.88Z"/><path class="cls-40" d="M70.14,52.05l3,2c1.65,3.83-1.32,6.52-2.36,9.66,3.78.69,5-2.47,6.86-4.57a1.33,1.33,0,0,1,1.32-.3c2.07,2,.79,4.14.2,6.25-.9,1.79-1.77,3.61-3.83,4.39-4.55-.4-8.09,3.45-12.64,3-1.54-.92-1.67-2.31-1.3-3.86.44-1.34,1.9-1.54,2.72-2.41-.81-2.09-4,.37-4.42-2.3.37-2.14,2.32-2.77,3.72-3.94a6.58,6.58,0,0,0,3.09-4.32C66.9,53.64,68.3,52.64,70.14,52.05Z"/><path class="cls-41" d="M70.14,52.05c-2.77,2.47-1.87,7.6-6.38,8.81-2.25-.64-5.65,1.23-6.34-2.88.79-2.06,1.17-4.08-.55-5.91-.13-1.73,1.25-2.25,2.38-3,1.79,1.21,3.81.89,5.78.82S69.07,49.82,70.14,52.05Z"/><path class="cls-42" d="M108.14,39.15,110,37.9a4.72,4.72,0,0,1,4.66-.77c1.73.57,2.77,2.08,1.13,3.22-2.35,1.64-2.2,3.83-2.48,6.06-.39,3.17-2,4.82-5.33,4-1.11-.12-2.26-.9-3.31.19-.45.4-.9.78-1.52.34.17-2.35-.88-4.89,1.07-7C105.93,42.69,105.35,39.58,108.14,39.15Z"/><path class="cls-43" d="M75.92,53.84c2.45-1.47,4.83-.68,7,.44,4.56,2.29,9.42,1.62,14.21,1.79a2.18,2.18,0,0,1,.59,2,10.25,10.25,0,0,1-2.13,4.53c-1.73,1.94-3.49,1.9-5.67.52-4.16-2.62-7.61-6.36-12.47-7.85A3.07,3.07,0,0,1,75.92,53.84Z"/><path class="cls-44" d="M103.18,51l1-1c4.66,3.23,5.41,5.14,3.06,7.79-.75,3.85,1.24,6.21,4.33,8,.13,1,0,2,0,3-.21,3.16.54,6.53-2,9.2a1.82,1.82,0,0,1-1.53.29c-2.19-1.29-2.09-3.5-2.2-5.59a15.24,15.24,0,0,0-2.41-8.28c-1.87-3.14-1.19-6.41-.44-9.68Z"/><path class="cls-45" d="M123.12,2.77c.79,2.05,3.09.57,4.49,2.05C122.36,9,113.18,7.41,111,15.9,111.37,9.3,115.59,4.73,123.12,2.77Z"/><path class="cls-46" d="M103,54.72c1.09,3-.48,6.31,1.22,9.21a11,11,0,0,1-2.89,9.18c-1.3.28-1.73-.62-2.11-1.57-.34-2.12-.76-4.23-1-6.36a2.9,2.9,0,0,1,2.36-3.49,4.51,4.51,0,0,1-3.44-3.8l.09-1.82C98.78,54.21,101.56,57.41,103,54.72Z"/><path class="cls-47" d="M59.25,49.1c.16,1.58-1.86,1.59-2.08,2.89-.44.27-1,.48-1.41.22-3.29-2.27-7-2.35-10.72-2-1.36-4,3-2.61,4-4.33-3.19-1.83-6.7-.36-10-1C46.71,41.89,53,45.31,59.25,49.1Z"/><path class="cls-48" d="M108.14,39.15c-1.6,1.38-1.43,4.17-3.89,4.85.72-4.45,1.74-8.88.83-13.45a3.84,3.84,0,0,1,1.06-3.6C108.4,30.76,108.47,34.92,108.14,39.15Z"/><path class="cls-49" d="M69.15,64a31,31,0,0,0,4-9.87,1.28,1.28,0,0,1,.82,0c1.4,1,2.79,2.09,2.46,4.16C74.31,60.53,73.91,65,69.15,64Z"/><path class="cls-48" d="M110.93,15.92c2.44,4.38-.11,6.51-3.69,8.16C108.05,21.18,108.71,18.2,110.93,15.92Z"/><path class="cls-50" d="M76.24,57.94c-.89-1.2-2.21-2.15-2.26-3.85l1.94-.25,2.13.37c1.21,1.52,1.51,3,0,4.58l.09.36C77.07,59.49,76.53,58.91,76.24,57.94Z"/><path class="cls-51" d="M41.94,171.94c3.34-10.49,4.67-21.56,9.07-31.74.9.82,1.65,1.32,2.92.3a25.55,25.55,0,0,0,6-6.47c1.82-2.93,3.8-5.81,7.45-6.79,3.49.83,5.15,3.35,6.1,6.55-1.71,2-.42,3.56.68,5.3s3.07,3.57.17,5.48c-2.63.05-5,1.72-7.74,1.21-.62-.12-1.38,0-1.38,1,0,6.45-5.44,6.51-9.59,8.07-2.87,1.31-2.42,5-4.84,6.68-1.27,1.18-3.07,1.86-3.49,3.81C47.11,168.82,45,170.77,41.94,171.94Z"/><path class="cls-52" d="M41.94,171.94c3.19-1.77,3.61-5,4.36-8.12,1.53-.56,2.89-1.69,4.68-1.34,2.77,1.51,1.73,3.83,1.39,6.09s-.22,2.27,1.83,2.25c2.69-5,3.67-5.47,8.82-3.17,4.93,2.2,9.7,4.76,14.52,7.18a9.78,9.78,0,0,1,1.22.79c2.16,1.87,4,4,6.22,5.9,1.15,1.41,3.68,2.22,2.12,4.82-4.21,1.23-7.18-1.56-10.5-3.21-2.93-1.13-5.85.66-8.77,0a67.32,67.32,0,0,0-22.95-5.68c-1.14-.77-2.62-.72-3.75-1.53A5.87,5.87,0,0,1,41.94,171.94Z"/><path class="cls-53" d="M58.19,107.92c2.17,7,6.32,12.9,10,19.11a4.1,4.1,0,0,1-1,1,13,13,0,0,0-5.58,5.52,23.33,23.33,0,0,1-9.78,9.65c-1.39-.65-.24-2.08-.8-3,1.64-9.79,3-19.64,6.93-28.89C58.36,110.32,58.12,109.06,58.19,107.92Z"/><path class="cls-54" d="M41.13,176c1-.2,2-1.54,3,0,2.17,3.06,5.53,2.39,8.58,2.76,2,.24,4.46-.71,5.64,1.95-1.54,1.7-3.58,2.89-4.86,4.85-4.79.34-9,3.43-14,2.89l-.5-.55C40.87,184.11,39.16,179.7,41.13,176Z"/><path class="cls-54" d="M42.15,196c-2,.69-5.12-1.73-6.1,2.06-1.93-4.25.81-7.13,3-10.19l.38.35C44.7,190.81,45,191.74,42.15,196Z"/><path class="cls-55" d="M75.16,110c-1.74-4.43-5.68-7.42-7.61-11.78-.93-2.12-2.91-.06-4.4-.21-4-8.32-7.52-16.93-15-22.94.88-1.28,1.95-2.46,2-4.14,1.11-1.22.42-3.8,3-4,1.75.5,1.93,2.22,2.73,3.46A17.92,17.92,0,0,0,58,73.55c1.67,1.9,4.69,2.39,5.51,5.19a6.56,6.56,0,0,1-.26,2.57C64.5,85.52,67.26,89,69,93c3.48,4.7,6.44,9.78,10.12,14.35.55,1.39,1.26,2.93-.38,4S75.91,111.63,75.16,110Z"/><path class="cls-56" d="M50.17,70.92c3.23,3.32-.15,3.36-2,4.14L47,73c0-.33.09-.67.13-1Z"/><path class="cls-57" d="M45.13,50c4.74-3.66,8.26-.08,12,2,3.85,1.46,3.24,3.61.95,6-1.72,1.18,1.91,3.59-1,4.48-2.88-.52-4.92-2.31-6.73-4.44-3.34-1.64-6.24-2.24-7.21,2.81V58c0-.64,0-1.28,0-1.93h4.25c-.6-2.11-4.59-1.33-3.34-4.33A1.45,1.45,0,0,1,45.13,50Z"/><path class="cls-58" d="M45.13,50c-.38.58-.75,1.17-1.13,1.76-1.67-4.88,1.84-5.25,5.08-5.86.32.09.74.07.94.28.51.5.13.77-.38.82C47.59,47.18,45.63,47.48,45.13,50Z"/><path class="cls-59" d="M57.08,62.09C58.27,61,56,58.93,58.12,58c1,2.76,4.51.4,5.64,2.84l-3.5,3.27a21.88,21.88,0,0,0-5.17,6.93c-1.45-1-.9-2.92-2-4.09.19-.65,1.1-1.33-.06-1.93a1.09,1.09,0,0,1-.08-1.2C54.12,62.71,55.83,62.93,57.08,62.09Z"/><path class="cls-60" d="M57.08,62.09c-.32,2.75-2.57,1.6-4,2-3-.64-1.57-3.6-2.75-5.19,0-.29,0-.57.07-.85C53,58.7,54.87,60.69,57.08,62.09Z"/><path class="cls-57" d="M50.28,58.91q1.38,2.6,2.75,5.19a3.28,3.28,0,0,1,0,.94C47.66,65,51.1,61,50.28,58.91Z"/><path class="cls-61" d="M245.24,174.92l-1.1-2.86a2,2,0,0,0-1.29-1.57c-2-.56-3,.29-3.39,2.18a2.72,2.72,0,0,1-2.38,1.24,4.2,4.2,0,0,1-3.82-1.85l-1.21-1.95a2.88,2.88,0,0,1-.41-2.16,8.39,8.39,0,0,1,4.7-4.72c2.92-.91,5.49.19,8,1.41a10.34,10.34,0,0,1,1.81,1.34c2.17,3.41,6.33,1,9,3.06.08,2.29-.63,3.34-3.17,2.43-2.19-.77-4.49-1.17-5.77,1.63C246.78,174.18,246.88,175,245.24,174.92Z"/><path class="cls-62" d="M244,165.83A14,14,0,0,0,236.2,164a1.07,1.07,0,0,1,0-1.27c2.52-.65,2.34-3.55,3.92-5.13-2-.61-2.7,3-4.89,1.8-1.81-1.52-.2-3.8-1.25-5.48a15.78,15.78,0,0,0-1.75-2,3.3,3.3,0,0,1-.3-4.08c1.89-1.26,3.5-.28,5.1.65,3.69,2.16,7,5.09,11.59,5.46,1.92.16,3.12,1.84,2.57,4.1l0,1c-.32,0-.64.1-1,.13C244.93,158.39,244.66,162.28,244,165.83Z"/><path class="cls-63" d="M244,165.83a4.2,4.2,0,0,0-.24-1.45c-1.08-1.91-.76-5,0-5.49a5.72,5.72,0,0,1,6.39.2c.16,3.17-4.71,3.4-4,6.89Z"/><path class="cls-20" d="M111.19,224.88c5.85-5.8,13-8.24,21.1-8.41-2.91,3.26-7.34,3.3-10.88,5.24-1.49.81-3.15,1.07-3.27,3.15Z"/><path class="cls-8" d="M234,140.16c4.85-2.45,8.23,1.51,12.22,2.79,4.21,1.93,8.37,3.91,11,8a27.63,27.63,0,0,1-8-3.91c-2.25.55-4.08-1-6.17-1.22-1.45-.28-3,.24-4.36-.76C237.84,142.72,234,143.3,234,140.16Z"/><path class="cls-64" d="M239.32,144.82c1.25.18,2.65-.95,3.77.43,1.71,1.21,2.91,3.11,5.06,3.74,2.18,1.24,2.55,4.68,6.31,4.3,2.31-.24-.33,3,2.12,3.77-2.24,1-4-.45-5.38.95-1.1-2.14-2.15-3.78-5.27-3.22-2.94.52-4.68-2.62-7.18-3.76-2.19-1-3.79-3.27-6.58-3-.92.24-1.21-.24-1.2-1,0-.43,1.76-1-.24-1.32-2.41-.33-2.75-1.92-1.88-4C233.26,139.65,236.06,143,239.32,144.82Z"/><path class="cls-65" d="M248.15,149c-3.28.91-4.24-1.33-5.06-3.74,2.48-.94,4.1,1.17,6.15,1.76Z"/><path class="cls-66" d="M245.24,174.92a1.93,1.93,0,0,0,1-1.82c2.32-.22,3.1,2.21,4.91,2.85,0,.41,0,.82,0,1.23C248.91,177,246.68,177,245.24,174.92Z"/><path class="cls-67" d="M144.94,22.35l1.83,1.8A20,20,0,0,1,148.38,32a2.61,2.61,0,0,1-1.36.51c-2.12-.31-4.31-.1-6.38-.79a4.59,4.59,0,0,0-5.89-.33A11.13,11.13,0,0,1,127,28.09c.71-3.1,3.35-2.52,5.13-2.1,5.08,1.22,8.23-.58,10-5.28C143.68,20.2,144.6,20.78,144.94,22.35Z"/><path class="cls-68" d="M143.17,63.17c-1.28,1.35-3.29,1.89-4.1,3.76-.57,1.13-1.32,1.91-2.74,1.45-1.57-1.39-3.28-1.1-5.1-.55-1.46.45-3.09,1.68-4.36-.39a2.73,2.73,0,0,1,.78-1.89,22.82,22.82,0,0,1,6.11-3.83c1.72-.81,1.11-2,1.26-3.1,1.32-1.58,2.79-2.73,5-1.88C143.74,57.58,141.73,61.22,143.17,63.17Z"/><path class="cls-69" d="M147.13,31.85l1.25.19c2.94,2.83,2.93,5.27-.93,7.21-4.56.83-8-1-10.75-4.51a2.65,2.65,0,0,1,.37-2.33C140.33,30.55,143.76,31.72,147.13,31.85Z"/><path class="cls-70" d="M137.24,35.09l10.2,4.16c-.1.25-.21.51-.3.76a3.55,3.55,0,0,1-2.93,2,32.66,32.66,0,0,1-6.61-.54A3.41,3.41,0,0,1,136,38.86C135.94,37.44,136,36.08,137.24,35.09Z"/><path class="cls-71" d="M140,56.74,135.14,59c-1.39,2.34-3.15,2.48-5.2.87a2.55,2.55,0,0,1-.26-1.39c1.15-2.15,4.71-1.56,5.17-4.52a2.93,2.93,0,0,1,2.09-1.44c1.81.4,3.71-.15,5.49.57Z"/><path class="cls-72" d="M142.43,53.1c-1.81,1.18-3.6,1.58-5.33-.13-.58-1.34.05-2.38.83-3.39,1.37-1.13,2.75-2.24,4.65-2.33,1.41.31,2.58.76,1.48,2.54C143.52,50.89,143,52,142.43,53.1Z"/><path class="cls-73" d="M144.06,49.79c-.06-1.29-.85-1.79-2-1.89a2.61,2.61,0,0,1-1.1-3c1.28-1.07,2.61-2.11,3.18-3.79l3-1.12C147.12,43.59,146.46,47,144.06,49.79Z"/><path class="cls-74" d="M189.17,132.1c1.65-1,3-2.07,5.13-.25,2.94,2.48,6.47,1.06,9.76.16a13.7,13.7,0,0,0,6.45,1.79c2.3.12,4.54.49,5.8,2.82a1.79,1.79,0,0,1-.1,1.34c-4.38,1.87-8.61,0-12.89-.56-1.08-.16-2.31-1.14-3.14.15s.41,2.07,1.13,2.93c1.51,3,5.61,6.08-.31,9-1.16.58,1,1.73.74,2.84-2.46,3.32-7,2.3-9-2a1.94,1.94,0,0,1,.46-.83c5.21-5.12,5-6-2-8.13a2.63,2.63,0,0,1-.77-1.14,7.68,7.68,0,0,0-2-4.27C187.34,134.57,187.05,133.08,189.17,132.1Z"/><path class="cls-75" d="M168.12,128.84c.88-3.39.82-3.27,3.29-1.81a14.68,14.68,0,0,0,3.76,1c.57,2.36-2.25,2.53-2.77,4.31a11.25,11.25,0,0,0,9.68,4.17c1.65,3.6,1,4.9-2.42,4.52-2.56-.28-5.12,1.58-7.61-.13-2.29-2.16-1.44,1.72-2.76,1.43-3.71.84-2.61-4-5.19-4.43-1.24-.71-1.08-2.45-2.32-3.18C161.4,130.11,166.11,130.92,168.12,128.84Z"/><path class="cls-76" d="M160.94,116.89l1.25,1,2.48,3.63c-2.67,1-4.23-1.7-6.47-1.52a2.4,2.4,0,0,1-1.68-1.11c-.49-.58-.64-1.48-1.58-1.68-.34,1.34.66,2.41.71,3.67a2.89,2.89,0,0,1-.28,1.39c-.68.77-1.43,1.31-2.51.72-1.4-3.42-5.8-5.11-5.51-9.52,1.4-1.83-1.89-4.25.73-5.93,1.51,1.75,1.88-1.27,3.11-.74a24.9,24.9,0,0,0,6.23,6.35C158.56,114.43,160.11,115.32,160.94,116.89Z"/><path class="cls-77" d="M182.15,137c-4.74,3.07-7.53-2.58-11.57-2.6.31-1.47-.79-3.52,1.45-4.2,1.32-.4,2.52-.77,3.14-2.12,1.84,1.09,3.88.93,5.89.88,1.1.7-2.17,3.47,1.6,3.12,1.37-.13,2.11,1.41,1.29,3A4.2,4.2,0,0,1,182.15,137Z"/><path class="cls-74" d="M239.32,144.82c-3.59-.24-6.3-3.57-10.15-2.86a26.78,26.78,0,0,1-8-1.34c-1.69-1.11-3.61-1.9-4.93-3.53l-.2-.37c.47-1.64,1.37-2.35,3.05-1.46l4.94,1.81c.87,2.47,3.31,1.46,4.56,1.32,1.82-.21,2.55.81,3.68,1.48l1.73.29C234.78,142.82,239.63,140.86,239.32,144.82Z"/><path class="cls-78" d="M183.13,135c.81-1.47.1-1.92-1.29-2.22-3.07-.65-1.65-2.33-.78-3.85.49-.58,1.49-1.71,1.75-1,1.1,3.17,4.32,2.68,6.36,4.14-1,1.44-1.13,2.71.6,3.76s2.38,2.29,1.33,4.15C187.56,139.74,184,139.48,183.13,135Z"/><path class="cls-79" d="M168.12,128.84c-1.29,2.72-5.4,2.73-6,6.16-.24,2.15-1.48,1-2.23.55a6.15,6.15,0,0,1-3.13-4c.16-1.29,1.21-2.25,1.34-3.55C161.74,125.16,165,126.67,168.12,128.84Z"/><path class="cls-19" d="M219.05,135.26,216,136.72c-2.25-2.1-5.23-1.65-7.9-2.14-1.79-.33-3.74-.05-4-2.57,5-1.58,9.54,1.51,14.4,1.55C218.66,133.56,218.85,134.67,219.05,135.26Z"/><path class="cls-80" d="M157.26,119.18l.94.83a7.07,7.07,0,0,1-1,6c-1.47,1.38.7,3.28-.67,4.69a1.26,1.26,0,0,1-1.22.58,3.42,3.42,0,0,1-1.71-2.31,5.58,5.58,0,0,1-.06-1.47c.28-1.92.4-3.88,1.49-5.57a1.7,1.7,0,0,0,.27-.81A2,2,0,0,1,157.26,119.18Z"/><path class="cls-81" d="M163.17,117.94c.45-3.7,3.86-4.48,6.52-6.07a16.87,16.87,0,0,1-5.64,6.32C163.75,118.12,163.46,118,163.17,117.94Z"/><path class="cls-82" d="M156.11,131c.23-1.68-.71-3.63,1.13-4.94-.08.82-.17,1.65.9,1.94,1.51,1.52,1.22,2.57-.81,3.19A1,1,0,0,1,156.11,131Z"/><path class="cls-83" d="M158.89,101.31c-.29,2.25,1.56,2.86,3,3.83,2.51,2.59-.21,3.48-1.57,4.81l-.56,1a1.42,1.42,0,0,1-1.19.5c-2.87-1.22-4.5-4.34-7.71-5-1.68-.15-3.37,0-5-.29-2.14-.64-4-1.48-3.72-4.26C147.56,98.26,153.13,96.69,158.89,101.31Z"/><path class="cls-84" d="M166,110.52c.19-3.14.52-6.2,4.11-8.25C169.79,106,167.84,108.25,166,110.52Z"/><path class="cls-85" d="M160.27,110c.08-1.74,2.71-2.67,1.57-4.81,1.58-.48,2.49-2.35,4.4-2.15C164.52,105.54,164.18,109.28,160.27,110Z"/><path class="cls-86" d="M159.14,111a.53.53,0,0,1,.56-.11c.42,2,.83,4,1.24,6-1.4-.85-3.08-1.35-3.9-3C156.63,112.16,157.94,111.62,159.14,111Z"/><path class="cls-87" d="M158.89,101.31a19.25,19.25,0,0,0-16.55.78c-.9.37-1.26-.12-1.44-.9.84-2.1,2.83-2.89,4.55-4,2.56-1.48,3.24-4.67,5.7-6.23,4.77-2.82,5.5,2.41,8,4C159.62,97.14,160.59,99.29,158.89,101.31Z"/><path class="cls-88" d="M151.15,91c-.9,2.89-2.28,5.43-5,7-.5.29-1.28,0-1.18-.26,2.11-5.66-2.85-8.37-5-12.24a14.77,14.77,0,0,1-1.16-2.19A1.73,1.73,0,0,1,139,82a14,14,0,0,1,6.22,1.25c1.52.76,3,3.5,5,1.81a5.83,5.83,0,0,0,2-7c2,3.39,5.37,6.82-.63,9.81C151.08,88.07,151.29,89.88,151.15,91Z"/><path class="cls-89" d="M139,82a8.08,8.08,0,0,1-.05.85,2.79,2.79,0,0,1-2,1.22c-3.75,0-7.13-2.42-11-1.72-2.94-1-6.9.34-8.43-3.77a2.8,2.8,0,0,1,1-2.09c5.42-4,11.11-2.37,16.78-.75,2.55-1.22,3.68-4.6,7-4.59l1-1.07c1-1.36,2.12-2.1,3.79-1.16,2.34,3.37-.33,5.21-2.43,6.78A16.44,16.44,0,0,0,139,82Z"/><path class="cls-90" d="M142.27,71.11l-6.19,5.74c-1.68-1.3-4.36-1.21-5.24-3.67a8.68,8.68,0,0,1,5.29-5.12l2.94-1.13C139,69.16,139.63,70.92,142.27,71.11Z"/><path class="cls-91" d="M147,68.88,143.23,70c-2.64-.43-2-1.85-.6-2.84a85.93,85.93,0,0,1,7.94-4.76,1.82,1.82,0,0,1,1.67.44c.58.69-.25,1-.68,1.46-1.33,1.4-3.65,1.63-4.38,3.73C147.13,68.34,147.08,68.61,147,68.88Z"/><path class="cls-92" d="M144.14,180l-3.24.67c-1.25-2.08,1.8-2.56,1.28-4.67h-5.05c-1.24.64-2.17,0-3.07-.74-.9-2.11,2.24-3,1.47-5.11a54,54,0,0,0-5.85-7.43c-2.05-2.1-3.9-4.91-7.5-2.46a1.39,1.39,0,0,1-1.83-.28c-.63-.79-.19-1.56.26-2.26a19.15,19.15,0,0,1,2.73-2.89c2.71-5.06,9.52-7.36,15.14-5.14,1,4,2,8.05,6,10.4,1,1.21,2.74,1.85,2.89,3.72-.07,1.9.63,3.41-1.06,5.65C144.33,172.05,144.75,176.42,144.14,180Z"/><path class="cls-93" d="M199.13,167c-2.65.48-5.5-.67-8,1-13.05.29-25.56-1.72-36.93-8.59-1.6-1-2.9-1.38-3.85.7-1.39-.94-1.42-2.36-1.35-3.82,1.1-4.2,3.78-2.44,5.78-1.23a68.14,68.14,0,0,0,18.43,7.46,53.75,53.75,0,0,0,16.25,2.09c3.1.18,6.3-.54,9.29.88A1.05,1.05,0,0,1,199.13,167Z"/><path class="cls-94" d="M149.84,155.81c.18,1.42.36,2.85.53,4.27a5,5,0,0,1-3,3.74l-3.23-2.62c-3.4-3.56-2.94-7.63-1.58-11.82,1.8-1.86,3-.51,4,.89a33.89,33.89,0,0,1,2.78,4.13A14.19,14.19,0,0,1,149.84,155.81Z"/><path class="cls-25" d="M147.14,183.05c-.2,1.07.39,3.07-1.66,2.34-1.58-.56-1.78-2.1-.34-3.4Z"/><path class="cls-95" d="M89.11,207.08A230.54,230.54,0,0,1,63.19,202c1.15-3.37,3.89-2,6.06-1.88,2.55.15,5.07,1.39,7.58,0a2.51,2.51,0,0,0-.91-1.45c-1.38-1-3.16-1.18-4.58-2.1a2.72,2.72,0,0,1-.77-1c-.18-2.35-4.17-2.06-3.48-5,3-3.83,4.67-4.39,8-1.42A69.3,69.3,0,0,0,90.29,199.8c-.53,2.35-.1,3.6,2.82,3.44,4.74-.27,9.57-1.55,14.22.58.6,1.3.15,2.79-1.11,2.57-4.53-.79-8.49,2-12.9,1.74A18.55,18.55,0,0,1,89.11,207.08Z"/><path class="cls-96" d="M42.15,196c2.44-3.78-1-5.47-2.75-7.78,4.58-1.06,8.71-4,13.72-3.21a8.92,8.92,0,0,1,6.5,3.59c.28,1.11-.23,2.11-.46,3.13,1.13,2,3.29,1,4.87,1.71s3.63.65,4.45,2.67a1.5,1.5,0,0,1-.52,1.22c-5.16.62-10-1.72-15.12-1.52.4.76,1.81.95,1.94,2.13a2.17,2.17,0,0,1-.65,2Z"/><path class="cls-97" d="M89.11,207.08c3.54-.28,7.2.9,10.51-1.86,1-.84,3.48-.17,5.19.21,1.47.33,2.17.08,2.37-1.4a3,3,0,0,1,2-1c2.59.75,3.74,3.35,6.35,4.29-1.59,1.77-3.18,1-4.58,1.24,4.82.44,9-5,14.16-1.52h0c.12,2.91-3.11,1.32-4,2.95-9.24-.2-18.54,1.58-27.73-.86C91.86,208.66,90.29,208.35,89.11,207.08Z"/><path class="cls-98" d="M54.13,200l0-2a3.57,3.57,0,0,1,3.11-1.31c7,.73,14.21.31,20.87,3.29,2.15.62,1.5,1.55,0,1.8a19,19,0,0,1-7.87-.22c-2.37-.61-4.8-1.29-7.06.41A36.55,36.55,0,0,1,54.13,200Z"/><path class="cls-99" d="M121.2,209.94c0-2.8,3.18-1.24,4-2.95,3.11.06,6.29-.24,8.92,2C129.72,208.53,125.49,209.65,121.2,209.94Z"/><path class="cls-100" d="M87.13,186.08c.17-2.21-2.53-2.31-3-4.07,0-1.2-1.15-2.57.46-3.58,1.53-.57,2.89,0,4.25.59,6.76,2.81,5.9,2.67,10.09-3.15a1.88,1.88,0,0,1,1.38-.07c3.14,6,9.72,8,14.24,12.42a2.32,2.32,0,0,1-.42,2.78l-8,4c-2.74,1.78-4.72-.11-6.6-1.59-1.48-1.16-.67-2.25.74-3A23.83,23.83,0,0,1,95,190C92.32,188.76,88.68,189.49,87.13,186.08Z"/><path class="cls-101" d="M114.15,191v-3l.65-.26c4,1.09,7.57-.87,11.52-1.57-1.15-2.28-3.25-1.92-4.78-2.64-2.15-1-4.24-2.05-1.48-4.5,1.57-1.41.64-3.53,1.79-5a3.47,3.47,0,0,1,2.74-.42c3,0,5.82,1.13,8.68,1.8,3.63.85,4.34,3.65,2.5,7-1.58,2.9-2.76,6.05-6.4,7-1.29.35-.8,1.66-1.24,2.48l-3,0A15.64,15.64,0,0,1,114.15,191Z"/><path class="cls-95" d="M95.15,189c2.5-.34,4.71.82,7.07,1.31-.48,1.28-3.29.63-2.4,1.68a7.87,7.87,0,0,0,6.32,3c5.39,3.83,10.6,8,17,10l2,2c-5.49-1.31-10.32,3.42-16.12,1.65,1.65-1.29,3.54-.19,5.4-1L109.15,204c-2.5.49,3.32-2.46-.79-1.76-3.77.64-10.71-4.55-11.47-7.85C97.43,192.24,95.09,191,95.15,189Z"/><path class="cls-102" d="M138.17,197c4.22.36,7.85,2.36,11.54,4.18-3.19,2.2-6.24-.36-9.34-.52s-6.13-.48-9.21-.69c-.77-1-3.11.35-2.94-1.75.15-1.73,1.86-1.44,3.13-1.73A10.56,10.56,0,0,1,138.17,197Z"/><path class="cls-103" d="M138.17,197c-2.3,0-4.6,0-6.9.07-1,0-2.28.07-2.23,1.23,0,.58,1.37,1.12,2.12,1.67-4,.33-7.44-1.89-11.15-2.89-.69-.19-1.89-.38-1.1-1.46.36-.49,1.45-.45,2.21-.65,4.39-.55,8.7,1.77,13.18.21C135.62,194.68,137.14,195.76,138.17,197Z"/><path class="cls-24" d="M128.13,192c0-1.05-2.34-2.2-.79-2.72,4.11-1.4,5.29-5.11,7.77-7.87,3.12-3.47-.34-4.8-1.52-4.85-3.26-.14-6.15-2.2-9.46-1.56,2.88-3.61,4.72-3.61,10,0l3,1,2,9C139,192.45,135.69,194.56,128.13,192Z"/><path class="cls-104" d="M199.13,167c0-.28.05-.56.08-.83a3.23,3.23,0,0,1,2-1.26c2.85-.22,5.65-1.8,8.57-.37,1.36,1.6-.24,2.15-1,3a11.08,11.08,0,0,1-4.09,1.63c1.25,1,3.63.43,3.58,2.83-2.91-.32-6.52.65-7.07-3.92C200.75,167.16,199.93,167.07,199.13,167Z"/><path class="cls-104" d="M199.1,169.88c0,1.7,3.46,1.61,2,4-1.7,0-3.75.7-4-2.05C197,170.41,197.06,169.15,199.1,169.88Z"/><path class="cls-105" d="M208.23,171.94l-5.31-2.45a12.57,12.57,0,0,1,5.13-2.61c3.56,2.76,3.34-1.15,4.54-2.57a3.43,3.43,0,0,1,3.92-1c1.5,2,2.25-1.76,3.66-.48.5,3,2.91.63,4.2,1.47a2,2,0,0,1,1,.89c-2.31,2.79-6.56,3.94-7,8.36,0,.26-1.47.38-2.25.57C213.51,173.22,211,172.07,208.23,171.94Z"/><path class="cls-106" d="M235.11,153c1.71,2-.41,4.05.13,6.06a2.86,2.86,0,0,1,.49,2.87c-1.3,1.87-2.39,3.89-3.85,5.65-2,.54-4.25,2.76-5.82-.66a3.61,3.61,0,0,0,.15-.86c.66-1.07-.45-3.1,1.8-3.31.74-.33.31,1.94,1.25.68,1.68-2.22,2.42-4.93,3.48-7.49C233.21,154.82,232.85,152.8,235.11,153Z"/><path class="cls-107" d="M226.06,167c2,1.7,4,1,6-.11a.71.71,0,0,1,.14,1.23l-.15,2c-3.32-2.42-5.5.42-8,1.74C222.63,170.17,222.87,169.58,226.06,167Z"/><path class="cls-108" d="M228.09,162.94l-1.88,3.15-.87-.92a2.21,2.21,0,0,0-.45-.3,4.59,4.59,0,0,1,.63-4.15c1.44-1.86,2.65-1.55,3.26.76A2.19,2.19,0,0,1,228.09,162.94Z"/><path class="cls-109" d="M233.26,172.06l3.91.92a1.23,1.23,0,0,1-.15,2l-1.83,1.15a4.94,4.94,0,0,1-5-2.86C231.24,172.87,232.53,173.2,233.26,172.06Z"/><path class="cls-107" d="M237,174.93l.15-2a2,2,0,0,0,2-.89c.89-2.59,3.11-1.93,5-2.07,1.08.68,1,1.36,0,2-.69.95-1.37,1.91-2,2.87C240.4,173.87,238.71,175.44,237,174.93Z"/><path class="cls-110" d="M142.08,21c-.3,5.62-2.35,7.41-7.74,6.52-2.43-.4-4.79-1.32-7.08.36-1.81,1.11-3.76.15-5.63.39-2.76-.85-3.31,2.16-5.13,2.95-1.65-.34-1.22-2.36-2.46-3-.55-.24-1-.55-.86-1.25a51.37,51.37,0,0,0,8.43-8c5.64-2.15,11.34-1.67,17-.39C140.14,18.85,141.53,19.39,142.08,21Z"/><path class="cls-111" d="M107.1,49.08c3.59,1.29,5.27.29,5.12-3.77-.08-2.13-.77-4.9,3-5.31,1-.11.62-1.74-.73-1.91s-3-.14-4.47-.19c.1-.62.21-1.24.32-1.86,2.57-.77,5.14-.14,7.7,0a6.35,6.35,0,0,1,1.33.46c1.48,1.06,3.25,1.79,4.1,3.57.18,1.44-.84,2.54-1.08,3.87-.73,2.9-2.83,5.12-3.9,7.85-3,1.19-2.43,5.43-5.52,6.57C109.28,56.36,107.83,53,107.1,49.08Z"/><path class="cls-112" d="M142.08,21c-6.86-2.45-13.79-3.54-20.86-.87-2.1.8-3.07,3.69-5.88,3.19.07-6,4.9-7.39,9-9.47,2.55-1.81,5.17-.64,7.67,0,3.68,1,7.5,1.46,11,3.13.91.85,2.48,1.25,2.11,3-.07.78-.13,1.56-.2,2.33C144,22,143.34,20.82,142.08,21Z"/><path class="cls-113" d="M127,11.33c6.14-3.23,10.85-.58,15.17,3.68a.89.89,0,0,1-.21,1.34C136.74,15.29,131.29,15,127,11.33Z"/><path class="cls-114" d="M127,11.33l15.18,4.75c1.94-.1,1.55,1,1.06,2.1-6.27-1.46-12.32-3.87-18.83-4.3A2.91,2.91,0,0,1,127,11.33Z"/><path class="cls-115" d="M119.13,37c-2.93-.27-6,.63-8.78-1-1-3.68,4.84-4.1,3.69-7.83a2.64,2.64,0,0,1,2.14,2.69C116.3,33.36,118.45,34.85,119.13,37Z"/><path class="cls-116" d="M115.34,23.35c2-1.05,3.31-3.25,5.87-3.19-1.2,4-3.73,6.45-8,6.81Z"/><path class="cls-117" d="M143.21,18.18c-.09-.83-.18-1.66-1.06-2.1,0-.35,0-.71,0-1.07,2.91.53,4.2,2,3,5Z"/><path class="cls-118" d="M78.08,58.79l0-4.58c5,1.25,8.48,5.12,12.49,8,2.1,1.48,3.1.9,4.58-.19,1.34,1.25,1.24,2.76.81,4.33-1.8,2.58-5.48,2.76-7.11,5.57a2.31,2.31,0,0,1-1.25.54,4.16,4.16,0,0,1-1.87-.74A11.82,11.82,0,0,0,81.57,70c-2.81-.57-1.47-4-3.47-5.09C77.44,62.85,81.34,60.8,78.08,58.79Z"/><path class="cls-119" d="M63.05,79.36c-1.21-2.6-4.57-2.87-5.87-5.39,1.57-1.53,4.35,0,5.65-2.25,3.81,0,6.48-3.62,10.44-3.34.89.07,1.57,0,1.8,1-1.16,4.5-6,2.16-8,4.32a7.13,7.13,0,0,1,5.57-.4,2.34,2.34,0,0,1,1,.92c-.15,1.89,2.83,3,1.28,5.25-3.1.44-6.29.1-9.34,1A2.62,2.62,0,0,1,63.05,79.36Z"/><path class="cls-120" d="M62.83,71.72c.57,6.89-4,.79-5.65,2.25l-2.09-2.91c-.8-4.19,1.33-6.2,5.17-6.93,2,.12,4.19-.59,6,1,.88.79.57,1.35-.47,1.65-1.26.33-3.34-1.22-3.53,1.55C62.34,69.46,61.94,70.71,62.83,71.72Z"/><path class="cls-121" d="M73.1,74H66c2.15-3.54,6.83-1.62,9.06-4.57l3-4.5c1.64-.57,3.66-1.53,2.57,1.73-.46,1.4-.56,2.24,1.17,2.4,1.89,2,.11,3-1.22,3.76C78.31,74,75.84,75.08,73.1,74Z"/><path class="cls-122" d="M76.24,57.94l1.93,1.21c-.29,4.17-3.81,5.26-6.74,6.71-.91.46-3.36.93-2.28-1.9C73.14,63.87,73.11,59,76.24,57.94Z"/><path class="cls-119" d="M62.22,68.31c-1.26-.37-2.9-.75-1-2.33,1.66-1.41,3.28-.78,4.58.78Z"/><path class="cls-123" d="M107.1,49.08c2.63,2.57,2.92,6.7,6,9a1,1,0,0,1-.29,1.42c-2.79.86-5.47,1.37-6.68-2.33-1.17-1,5-.88.41-2.57-2-.75-.74-3.48-2.4-4.56C104.32,47.11,106.1,49.33,107.1,49.08Z"/><path class="cls-124" d="M95.2,67c0-1.66,0-3.33-.08-5,.65-1.36,1.31-2.72,2-4.09,1.53,2.43,6.55,2.54,4.77,7.17-1.76.58-1.3-1.78-2.47-2.11-.81,2.9,1.27,5.32.73,8-.68,1.24-.79,3.22-3.07,2.34A6.48,6.48,0,0,1,95.2,67Z"/><path class="cls-125" d="M95.2,67l2,6c1.29.82,2.58,2.33,3.91.06q1.55-4.53,3.08-9.07c2.72,2,2.74,5,2.92,7.87.14,2.08-.38,4.27,1.1,6.11a3.39,3.39,0,0,1-1.58,1.39,2.74,2.74,0,0,1-.9.4c-4.54.11-9.09.54-13.63-.16-.32-3.07-3.09-4.88-3.94-7.68C89.06,68.14,91.87,67.18,95.2,67Z"/><path class="cls-126" d="M109.14,78c1.12-3.26,1-6.63,1-10,2.76-1.87,4.77,0,6.89,1.37,1.56,2.86.46,5.9.55,8.87-.77,2.33,1,2.72,2.52,3.38,2.1.93,4.33,1.61,6.12,3.13,3.14,2.66,3.25,5.36.4,8.7a6.17,6.17,0,0,1-3.57-.47,7,7,0,0,1-2.42-1.52c-3.25-4.66-6.49-9.34-11.64-12.21A1,1,0,0,1,109.14,78Z"/><path class="cls-127" d="M106.13,57.14c2,2,4.51,1.94,7,1.85,1.43-.76,2.76,0,4.12.26,1.36.47,2.86.58,4,1.59a1.8,1.8,0,0,1,0,1.42c-1.27,1.47-3,1.64-4.78,1.48-.63,0,.16.91,0,.26,1.58-.16,3.21-.43,3.87,1.62-1.28,2-3.33,1.58-5.21,1.73-1.42-.15-2.88-.22-3.87-1.49-1.33-2.49-3.16,1.53-2.84.43C109.49,62.55,101.78,61.3,106.13,57.14Z"/><path class="cls-128" d="M111.25,65.86l3.86.24c1.42,1,4,.23,4.3,2.82-.48.91-1.11,1.54-2.25,1.1-2.48-.15-4.36-2.39-7-2A2.05,2.05,0,0,1,111.25,65.86Z"/><path class="cls-129" d="M109.14,78c0,.26,0,.51,0,.77.62.82,1.7,1.42,1.32,2.73-1.08,1.72-2.66,1.7-4.37,1.26-2.78-1.59-.94-3.14,0-4.69l2-.18A3.18,3.18,0,0,0,109.14,78Z"/><path class="cls-130" d="M101.12,73c.33,1,1.61,2.47.2,3-2.39.87-3-1.58-4.11-3,1.56.2,1.92-1.35,2.9-2A2.26,2.26,0,0,0,101.12,73Z"/><path class="cls-131" d="M73.14,134c-1.86-2.13-3.13-4.85-6-6l1-1a9.68,9.68,0,0,0,6.09-1c1.66-1.3,4-4.15,4.92-3,2.35,3,7.91,2.66,7-1-1-4,1.3,12.46,2,11,1.42-.3,1.47,2.4,1.56,3.48.43,5.33,4.42,5.59,9.39,6.32-4.73-6.23-.78-10.88,1.78-15.79a1.59,1.59,0,0,1,1.37-.19,4.07,4.07,0,0,1,1.09,1.85,77.44,77.44,0,0,1,1.35,20.19c-.55,6.69-4,12.86-11.14,15.7a10.49,10.49,0,0,1-1.93.41c2.55,3.57,6.53,6.2,7.52,11-1.14,5.64-3.1,6.76-8.09,5.14-2.29-.74-4.29-2.5-6.92-2.14s-3.92-2.15-6-3l0,0c-4.42-2.45-8.57-5.4-13.31-7.29-1.29-.52-2.93-.86-3.18-2.7,2.63-2.52,8.47-3.23,12.29-1.29a22.48,22.48,0,0,1,4.72,2.85A17.71,17.71,0,0,0,70.63,162c-1.94-.65-4-1.74-1.22-4-1.15-.18-2.09.78-3.26.91a5.92,5.92,0,0,1-2.89-.26c-2.63-1.7-5.53-2.93-8.12-4.72,1.34-1.52,3.39-1.06,5-1.8,3.13-1.41,3.48-1.75,2.81-5.54a1.83,1.83,0,0,1,1.46-2.12"/><path class="cls-132" d="M63.15,158l3,.08c1.24,2.08-.42,2.51-1.78,3-1.67.56-3.48.77-5,1.93-.06,2,2.18,1.78,2.73,3.09,5.52,3.08,11.52,5.37,16.09,10-5.27-1.58-9.89-4.56-14.79-6.92-3.91-1.89-7.16-2.83-8.27,2.88-3.45-.26-3.63-.35-2.27-3.25,1.22-2.61,1.57-4.6-1.75-5.64l-4.8.73c.73-1.69,2.53-1.95,3.85-2.85C54.17,158.63,58.43,157.31,63.15,158Z"/><path class="cls-133" d="M63.15,158c-4.19,1.65-8.63,2.2-13,3,2.64-1.63.66-6.57,5-7C58.6,153.72,61.11,155.38,63.15,158Z"/><path class="cls-134" d="M59.16,189c-1.91-1.47-4.45-2-6-3.94.94-2.29,1.66-4.85,5.07-4.06,2.43-1.3,4.34.46,6.45,1.09,1.14.34,2.28,1.73,3.42,0,3,1,6-2.48,9.08,0,4.83,5.85,9.59,11.77,18.4,11a2.17,2.17,0,0,1,2,1.26c.35,2.82,0,5.37-2.79,6.87-1.85,1-3.52.93-4.66-1.14-5.64-.58-9.49-4.26-13.28-7.9-3.06-2.93-5.85-5.84-9.68-1.11C64.05,192,61.23,192,59.16,189Z"/><path class="cls-135" d="M97.12,194.07c-3.13-.23-6.27,0-9.4-.88s-6.1-1.75-6.66-5.64c-.36-2.48-4.51-2.32-3.92-5.51,3.11,1.89,6.28,3.64,10,4l8,2.95c1.9,1.12,3.73,2.28,3,5C97.83,194.49,97.49,194.49,97.12,194.07Z"/><path class="cls-136" d="M68.06,182.05c.86,1.8,1.71,3.6-1.61,2A34.51,34.51,0,0,0,58.19,181c-2.33-1.86-5-.76-7.58-.94-3-.21-5.36-1-6.45-4,.75.32,1.57,1,2.25.9C54.38,175.54,61.05,179.5,68.06,182.05Z"/><path class="cls-137" d="M51.1,163.09c1.29.29,3-2,3.76.15.62,1.86,1.1,4.4-.68,6-2.37,2.08-1.15,2.45.94,2.76-.6,1.27-1.68,2.56-2.93,1.64-1.83-1.35-1.77-4-1.11-5.65C51.79,166.13,52.3,164.75,51.1,163.09Z"/><path class="cls-138" d="M78.14,176c2.45.11,4,1.9,6,3,.3,1,1.6,2,0,3A21.4,21.4,0,0,1,78.14,176Z"/><path class="cls-139" d="M79.18,107h-1c-4.65-3.7-7-9.08-10-13.94a75.53,75.53,0,0,0-6-12.08l.9-1.62,2.19.53c3.41-.2,5.82,3.2,9.35,2.57.31.15.78.4.74.61-1.15,5.57,2.11,8.19,6.59,10.07.41.17.57.79.71,1.28C82.35,98.86,82,103.28,79.18,107Z"/><path class="cls-140" d="M62.15,81c3.7,3.18,5.21,7.46,6,12.08C65.82,89.2,63.06,85.55,62.15,81Z"/><path class="cls-141" d="M244.14,170c-1.29,1.62-3.6.75-5,2.07C238.89,168.69,240,168.22,244.14,170Z"/><path class="cls-142" d="M232.21,168.07c-.05-.41-.09-.82-.14-1.23.6-1.9,1.1-3.86,3.06-4.9a1.29,1.29,0,0,1,1,1.07l0,.94Z"/><path class="cls-143" d="M228.09,162.94c0-.32.13-.63.21-.94a35.61,35.61,0,0,0,.36-8.19,2.69,2.69,0,0,1,4.51-1.85c.79.08,1.58.18,1.94,1.07-1.73,3.71-2,8.09-5,11.19-.5.5-.82,1.73-1.74.64C228,164.44,228.15,163.59,228.09,162.94Z"/><path class="cls-144" d="M236.17,163l-1-1.07c0-.95.06-1.9.1-2.85a2.47,2.47,0,0,0,.47-.11c1.7-.77,2.65-3.61,5.22-1.87.32.21.48.66.71,1C239.08,158.91,240.68,164.38,236.17,163Z"/><path class="cls-145" d="M233.17,152l-3,0c-1.62.08-3-.17-3.65-2,.58-5.45.79-5.59,4.65-3l1,1A6,6,0,0,0,233.17,152Z"/><path class="cls-146" d="M231.12,147c-4-2.54-3.49.9-4,3a1.3,1.3,0,0,1-1.25.25c-1.48-.1-2.54-3.42-4.4-.56a2.47,2.47,0,0,1-1.61,1.06c-3.84.13-6.28-2.28-8.68-4.76-.53-.39-1.07-.78-1.62-1.15-1.28-.79-2-2.27-3.56-2.75a2.51,2.51,0,0,1-.41-1.27c.4-2.08,2-3.78,3.71-3.09,3.89,1.58,8.24,0,11.91,2.23,2.7.49,5.61.16,8,2-.25,4.75,2.94,2.18,5,2C234.65,146.84,232.94,147,231.12,147Z"/><path class="cls-147" d="M121.14,27a12.44,12.44,0,0,1,6.12.91l8,2.86a4.39,4.39,0,0,1,4.83,0c2.3.63,4.91-.78,7,1.07-3.24,1.28-7-.76-10.06,1.48-.79,2.7-3.36,2.28-5.28,3a1.35,1.35,0,0,1-1.07-.68c-.53-1.37.5-3.26-1.39-4.18-2.52-1.64-5.84-1.27-8.24-3.22A1,1,0,0,1,121.14,27Z"/><path class="cls-148" d="M140.1,30.78h-4.83C136.89,28,138.5,28.19,140.1,30.78Z"/><path class="cls-149" d="M119.18,69l-4.07-2.91c1.63-.38,3.51.56,4.92-.94.21-1.13.91-2.09,1.07-3.23,0-.31,0-.61,0-.92-1.77-1.26-1.56-2.35.27-3.32,4.1,1.76,3.19,6.6,5.73,9.32,1.94,1.81,3.2-1,4.75-.72s4.43-2.49,4.24,1.77a15,15,0,0,1-5,5c-4.19,2.42-6.63-1.78-10-2.61A2,2,0,0,1,119.18,69Z"/><path class="cls-150" d="M127.14,67c-2.57-.71-3.33-2.85-3.83-5.06-.36-1.58-.3-3.28-2.26-3.87-2.89-.79-2.12-3.53-2.89-5.45l.06-.68c-1.28-3.72,3.35-5.41,3-8.8,3.34.9,1.91,3.61,1.94,5.58,0,4,.58,7.8,3.8,10.66,1.1,2.08.52,4.46,1.18,6.63Z"/><path class="cls-151" d="M128.15,66c-2.83-1.56-2.22-3.69-1-5.93.68-1.06,1.54-1.61,2.82-1,1.74,1.56,3.45.72,5.15-.09.44.92,2.59,1.64.27,2.89S130.57,64.64,128.15,66Z"/><path class="cls-152" d="M131,36c1.67-1.69,4.17-1.49,6.06-2.67.05.59.11,1.18.17,1.76-.06,1.33-.13,2.66-.19,4a1.47,1.47,0,0,1-1.79.2c-1.12-.9-1.66-3-3.84-1.35C131.09,38.18,130.65,36.81,131,36Z"/><path class="cls-153" d="M131,36l6,3.09,1,2.11a1,1,0,0,1,0,1.24,5.55,5.55,0,0,1-1.14.85,9,9,0,0,1-5.62.64,5.39,5.39,0,0,1-2.51-1.39c-1.36-1.46-1.11-3.09-.49-4.76.59-1.08,1.19-2.15,2.73-1.77Z"/><path class="cls-154" d="M138,41.69a.7.7,0,0,1,.06-.49c2-.76,4-.27,6.05-.07,2,3.5-.17,3.84-2.87,3.77a2.46,2.46,0,0,1-1.69-.64C138.81,43.55,138,42.87,138,41.69Z"/><path class="cls-149" d="M130,59.1l-2.82,1c-3.13-1-5.93-6.43-5.41-10.43.29-2.21,1.12-4.47-.53-6.52L123.16,40c2-1,2.39.32,2.3,1.77a8.55,8.55,0,0,0,1.92,5.89,2.36,2.36,0,0,1,.08,1.29c-.84,1.11-2.31,1.87-2,3.61-.58,3.65,2.82,3.94,4.66,5.54Z"/><path class="cls-155" d="M130.08,58.06c-4.86,1-5.83-1.9-5.77-5.82,1.75-.92,2.77.74,4.15,1.13,1.91,1.42,4,1,6,.47l.55.34C136,58.81,132.33,57.52,130.08,58.06Z"/><path class="cls-156" d="M138.24,50.11,137.1,53,135,54.18l.12-.18c-.54-.44-1.27-.41-1.84-.79-.85-2-4.07-2.33-3.48-5.24a4.71,4.71,0,0,1,2.28-1.62,3.68,3.68,0,0,1,2.73.14,1.51,1.51,0,0,1,.65,1.06C134.74,50.18,138,48.56,138.24,50.11Z"/><path class="cls-157" d="M138.24,50.11c-1.57.2-3.26.53-4.15-1.23-.53-1.07.63-.67,1.07-.9a22.39,22.39,0,0,0,5-3.86l1.07.78c.27,1,.53,2,.8,3C140.76,48.6,139.94,50.11,138.24,50.11Z"/><path class="cls-158" d="M191.16,141c2.64-1.42,4.86.57,6.86,1.44s-.42,2.7-.65,4.16c-.37,2.4-2.16,3.1-4.21,3.47a4.54,4.54,0,0,1-1.73,1.2c-1.57.57-3.15,1.12-4.76,1.57-5.29.64-7.89-3.3-10.95-6.44,1.57-3.68,4.17-4.64,7.7-2.79a9.17,9.17,0,0,0,4.63,1.28C187.89,140.73,187.89,140.73,191.16,141Z"/><path class="cls-159" d="M191.16,141c-5.66,1,.28,3.78-1.37,5.55-4.25,1.26-8.74-5.58-13.65-.58-1.57.49-2-.9-2.76-1.69-.65-1.36-2.63-2.36-1.21-4.3,2.85,2.35,6.25-2.72,9,.67.37-1.21,2-2.09,1-3.67a2,2,0,0,1,1-2c1.82,3,5.6,2.87,8,5Q191.12,140.51,191.16,141Z"/><path class="cls-160" d="M210.16,144l1,1c1,2.68-.09,6.23,3.25,8,0,3.07-1.32,4.55-4.17,2.68-1.95-1.29-3.45-2.67-6.07-1.56-1.28.54-2.27-1-3-2l-2.88-3.12c7.42-.6,3.14-4.87,2.89-7.92,2-1.33,3.5-.22,5,1h0C207.17,143.3,208.12,144.75,210.16,144Z"/><path class="cls-161" d="M201.14,152.05c1.41-.15,2.45,2.87,4.42.06,1-1.38,3.4.49,4.35,1.8,2.35,3.23,3.23,1.22,4.27-.89a1,1,0,0,1,1.32.18c1,3.11-.34,5.31-2.75,7.1a4.13,4.13,0,0,1-2.14-.33c-4.85-.78-9-4.18-14.23-3.58-1.24-.57-2.37-1.34-3.56-2-1.28-1.16-2.27-2.43-1.64-4.31h2C195,152.64,199.2,153.68,201.14,152.05Z"/><path class="cls-162" d="M206.14,142l-5-1c-3.34.21-3.39-2.09-2.87-4.24.65-2.69,2.55-1.63,4.3-1.05,4.43,1.47,8.95,2.27,13.62,1.37,2,.34,3.87,1,5,2.87-3.3-.2-6.67.29-9.83-1.07S206.72,139,206.14,142Z"/><path class="cls-163" d="M174.2,143.86c.64.71,1.29,1.41,1.94,2.11,3.81,1.75,5.79,6.84,11,6l.55.39c.9,1.87,2.14,3.8-.76,5.11a2.23,2.23,0,0,1-1.24-.55c-.22-.23-.47-.7-.65-.67-4.94.78-8.28-2.9-12.38-4.41-5.4-1.06-5.4-1.06-4.44,4.28-1.23.78-2.3.29-3.35-.39-2.25-1.7-3.62-3.87-2.57-6.72,1.19-3.23.09-5.77-1.89-8.18-.07-2.58,2.07-2.93,3.77-3.74,3.72-.63,2.55,3.94,5,4.69C170.33,143.75,171.78,145,174.2,143.86Z"/><path class="cls-164" d="M164.19,137.12c.16,2.22-3.37,1.57-3,3.91a2.15,2.15,0,0,1-2.63.35c-1.16-1.38-2.25-2.8-4.21-3.21-2.13-.44-3-1.84-2.61-4,.71-1.57,1.7-2.82,3.55-3.09a8.08,8.08,0,0,1,.86-.09l1.22.19c1.31,1.66,2.1,4,4.83,3.84C164.14,134.47,163.19,136.72,164.19,137.12Z"/><path class="cls-165" d="M174.2,143.86c-1.83-.36,1.08,3.62-1.58,1.91-1.33-.85-5.84.3-3.45-4,.74-1,.82-3.16,3-1.83C172,141.73,174.22,142.21,174.2,143.86Z"/><path class="cls-166" d="M148.19,113c-.34,2.24,1,3.63,2.45,5s2.89,2.7,2.56,5c-1.72.63-1.92.71-2.13.15-1.14-2.91-3.87-3.3-6.32-4.16a28.8,28.8,0,0,0-10.06-12.81c-.83-1.23-1.77-2.62-.52-3.92,1.05-1.09,2.42-.19,3.59.27a24.65,24.65,0,0,1,3.46,1.7C144.66,106.24,146.15,109.83,148.19,113Z"/><path class="cls-167" d="M145.05,118.9c4.1-1.43,6,.61,7,4.32,0,.12.31.28.4.24a4.76,4.76,0,0,0,.79-.5l1.87-1c-.34,2,.37,4.21-.85,6.12a12.72,12.72,0,0,1-8.1,1.32c-1.64-1.18-3.45-2.31-.8-4.32,2-1.52,0-2.42-.62-3.52C144.36,120.61,143,119.53,145.05,118.9Z"/><path class="cls-168" d="M148.19,113c-3.7-1.48-4.36-5.64-7.07-8a15.42,15.42,0,0,0-2.92-1.76c-2.93-1.38-3.28-2.95-.3-4.73a3,3,0,0,1,3.26,2.5l1.18,1.08a4.92,4.92,0,0,0,3.84,3.2c1.19.48,2.37,1,2,2.64C147,109.62,150.8,111.28,148.19,113Z"/><path class="cls-169" d="M159.14,111l-2.1,2.92c-2.31-2.05-6.29-2.63-6-6.93a.65.65,0,0,1,.14-1C155.37,105.25,156.32,109.63,159.14,111Z"/><path class="cls-170" d="M157.26,119.18l-1.92,2c-.39-.49-1.09-1-1.1-1.46,0-1.45-2.2-2.25-1.15-3.87a1.85,1.85,0,0,1,2.19-.59C157.3,115.85,157.13,117.59,157.26,119.18Z"/><path class="cls-171" d="M151.19,106a1.51,1.51,0,0,1-.14,1c-.85.67-1.46,2.11-2.9.93l-2-2.64C147.92,105.08,149.73,104.36,151.19,106Z"/><path class="cls-172" d="M155.25,131.06a7.64,7.64,0,0,1-2.91,3.08c-2.92,3.29-7,2.61-10.75,3.25-1.64,0-2.34,1.41-3.36,2.34-.66.53-1.51,1.14-2.24.83-4.56-1.92-9.52-3.36-11.87-8.43,1.92-2,4.22-1.4,6.46-.86a25.67,25.67,0,0,0,5.39.35A38.77,38.77,0,0,0,154,128.93C155,129.33,155.11,130.2,155.25,131.06Z"/><path class="cls-173" d="M154,128.93c-5.09,5.17-11.52,4.12-17.79,3.87-2-.55-4.17-.2-6.11-1.22-1.71-.9-1.1-1.6.06-2.36,1.81-.73,3.73-.48,5.6-.64,2.15-.22,4.21-1,6.41-.87a7.56,7.56,0,0,1,3.88,1.25,20.7,20.7,0,0,1,8.13-.89A3.14,3.14,0,0,1,154,128.93Z"/><path class="cls-174" d="M141.16,101l-3-2a9.36,9.36,0,0,1-1.07-1c-1.57-3.38-1.26-7.18-2.43-10.66A4.82,4.82,0,0,1,137.16,83l1.79-.22c3.14,2.22,3.79,6.75,7.87,8.28.83.31.54,2.73-.39,4-.65.9-1.68,1.76-.28,2.86Z"/><path class="cls-175" d="M126,93c3.47-3,1.92-5.6-1-7.63a21.11,21.11,0,0,0-6.26-2.94c-3-.84-2.69-2.38-1.56-4.43.3-.4.62-.38.94,0,1.65,3.77,5.45,1.84,8.06,3,2.24,1.4,5.52,0,7.29,2.66-1.41,2.18-2.73,4.34-2.71,7.13a4.06,4.06,0,0,1-1.94,3.75C127.42,94.77,126.11,94.92,126,93Z"/><path class="cls-176" d="M121.13,70c.34-1.95,1.66-2.39,2.43-.7,1.6,3.53,4.89,2.85,7.57,3.73,1.32,1.7,4.65.81,5,3.83-.7.3-1.31,1.05-2.21.43-4.85-3.35-9.8-2.52-14.78-.34C115.42,73.34,120.21,72.23,121.13,70Z"/><path class="cls-177" d="M121.13,70c.14,1.52-.08,2.94-1.54,3.73-1.69.9-1,2-.5,3.22-.34.33-.68.67-1,1h-.47l-.47,0c-1.2-2.65-.21-5.3,0-8l2-1Z"/><path class="cls-88" d="M133.07,84.16c-1.8-2.16-5.13-1-6.93-3.16,3.93-.7,7.28,1.72,11,2-1,1.22-.63,3.09-2.06,4.07C133.08,87,132.85,85.76,133.07,84.16Z"/><path class="cls-178" d="M124.13,156a8.14,8.14,0,0,0-3.81,4.81c4.42-5.17,7-2.62,9.54.42s4.82,5.85,7.23,8.77c-2.28,2.91-4.25,2.79-5.76-.66a8.11,8.11,0,0,0-1.88-2.83c-1.78-1.8-4.07-2.13-6.44-2.21-1.5,0-3-.13-4.49-.16-3.18,0-2.7-4.07-4.42-4.46s-4.12,2.4-6-.48a1.85,1.85,0,0,1,0-1.33c4-2.88,5.69-7.13,6.79-11.72a1.65,1.65,0,0,1,1.22-.52c2.12.62,3.49,2.17,4.81,3.82C122.11,151.53,123.65,153.49,124.13,156Z"/><path class="cls-179" d="M130.11,166c.9.66,2.63,1.4,2.57,1.95-.59,5.33,2.39,2.63,4.41,2.08.78,2.7-2.24,3.17-2.94,5-3.34.24-6.67-3.2-10,0l-2-.9a3.52,3.52,0,0,1-3.6.59c-2.22-1.5-1.92-3.71.32-3.77,3.59-.08,5.46-2,7.61-4.19A3.19,3.19,0,0,1,130.11,166Z"/><path class="cls-180" d="M138.12,139c.35-1.13.4-2.46,1.86-2.87,2.6,1,2.69,3.6,3.71,5.61a3,3,0,0,1-.09,1.95c-1.54,1.64.23,3.59-.49,5.31.4,4.05-1.36,8.28,1,12.17-4.6-2.36-6.26-6.35-6.25-11.26a4.8,4.8,0,0,1-.42-2.64c.43-1.7,1.85-3.25.72-5.16C137.71,141.11,137.21,140.07,138.12,139Z"/><path class="cls-181" d="M137.9,147.13c0,.94,0,1.87,0,2.81-3.68-.71-7,1.55-10.66,1.31-3.08-.2-.33,4.22-3.07,4.74-2.36-1.31-2.53-4.08-4-6,4.14-3.06,9.33-2.81,14-4.4a3.32,3.32,0,0,1,2.74-.19A1.72,1.72,0,0,1,137.9,147.13Z"/><path class="cls-182" d="M149.84,155.81l-.72-.73c-.58-1.33-2.14-2.37-1.21-4.14,3.92-1.42,5.78,2.37,8.71,3.43,6.72,3,13.37,6.28,20.8,7.33,2.53.35,5,1,7.53,1.4,1.47.77,3.84.26,4.11,2.79a69.17,69.17,0,0,1-33.94-9.15C153.63,155.9,152.08,153.29,149.84,155.81Z"/><path class="cls-183" d="M189.06,165.89c-.9-1.46-3.08-.27-3.91-1.89-2.14-1.39-2-2.82-.08-4.29a63.44,63.44,0,0,1,14.28,3.51c1.11.43,2.07,1.14,1.72,2.62l-1.86.27Z"/><path class="cls-184" d="M148,151.16c.39,1.3.77,2.61,1.16,3.92-3.08-.94-2.61-5.42-6-6.05-1.53-1.13-1.07-3-1.54-4.52s.9-.55,1.52-.51c3.21.19,3.51,3.08,4.75,5.11A3.86,3.86,0,0,1,148,151.16Z"/><path class="cls-185" d="M97.12,194.07l1-.06c-.21,2.43.18,4.12,3.33,4.07,3.33-.05,4.78,5.39,9.68,2.45l-2,3.47-2,0c-5.2.12-10.42.1-15.61.43-1.53.1-2.9.83-3.66-1.11-.84-2.14,1.72-2,2.19-3.33C94.82,201.36,96.71,199.75,97.12,194.07Z"/><path class="cls-186" d="M78.13,200c-8-.16-15.87-2.71-24-2-.77-2.19-5.52.41-4.41-3,.79-2.4,3.75-.27,5.76-.2,4.33.17,8.48,1.27,12.68,2.12,3.23-1.67,6,.8,9,1.07Z"/><path class="cls-187" d="M59.16,189l8,2c.92,1.75,4.77.6,4,4-4.58.13-8.78-1.39-12.94-3.07Z"/><path class="cls-186" d="M58.18,192,71.12,195c0,.31,0,.63,0,.94a2.45,2.45,0,0,1-3,.06,28.2,28.2,0,0,0-9.55-2.17C57.66,193.82,55.28,193.33,58.18,192Z"/><path class="cls-187" d="M68.18,196l3-.06a9.36,9.36,0,0,1,6,2.05l-9-1.07A7.06,7.06,0,0,1,68.18,196Z"/><path class="cls-188" d="M44.73,190A19.65,19.65,0,0,1,54,192.65C50.09,193.27,47.14,193.4,44.73,190Z"/><path class="cls-189" d="M130.11,166c-2.12,1.34-5,1.71-5.29,5.19-.18,1.95-1.89,1.08-3.15.64-2-.71-4-1.2-3.48,2.17-1,1-2.15.67-3.29.49-4.08-.66-4.31-1.27-1.87-4.75,1.61-1.27,3.46-1.48,6.19-1-3.36-.83-5.67-.65-7.25,1.88-1.85,1-3.54,2.29-5.71,2.52-2.76-.52-5,.09-6.11,2.94h-1c-2.48-3.25-5.33-6.19-7.49-9.73-1.56-2.53-.15-2.28,1.5-2.28,4.61.43,6.75-3.91,10.37-5.49,1.7-.75,2.86-2,4.63-.5,1.55,2.55,3.2,2.63,4.91.18.55-.8,1-1.95,2.14-1.64s1,1.62.91,2.51c-.42,3.55,1.52,4,4.46,4C124,163.06,127.87,162,130.11,166Z"/><path class="cls-131" d="M100.15,176c-1-5.87,2.6-4.76,6-4-1.7,5.36-1.49,5.94,3.95,9.14,2.67,1.56,5,3.21,4.05,6.84h0C108.47,185.17,102.11,183.16,100.15,176Z"/><path class="cls-190" d="M114.15,188a8.23,8.23,0,0,0-5.94-6.45c-2.48-.71-3.51-3-4.66-4.81-1.65-2.6,2.51-2.67,2.6-4.72,2.21,0,3.58-2.6,6-2a.56.56,0,0,1,.93.08c-.49,2.48-.49,2.48,5.11,3.88l3.93.13c-.06,2.54,1.8,5.78-2.9,6.59,2.09,2.34,4.83,1.89,7,2.89,1,.47,2.44.74,2.29,2.23a2.21,2.21,0,0,1-2.79,2.13C121.8,186.92,118,192.3,114.15,188Z"/><path class="cls-191" d="M201.07,165.84c-1.51-2.74-4.93-3-6.88-3-3.58,0-6-2.12-9.05-2.84-.1-.18-.2-.36-.31-.53.16-1-.69-2.59,1.39-2.57.3,0,.6.07.89.12,1.93.69,3.79,1.11,4.91-1.28a1.88,1.88,0,0,1,1.3,0,2.09,2.09,0,0,0,2.82.17c1.32-.8,2.88-1.57,4.21-.73,3.4,2.16,7.63,1.76,11,3.9.12,1.41-.75,2.18-1.81,2.83a4.87,4.87,0,0,1-5.61-.56c1.59,1.78,3.82,1.26,5.84,1.56a4,4,0,0,1,1.27.6,1.43,1.43,0,0,1,.35,1.28.87.87,0,0,1-1.2.14Z"/><path class="cls-192" d="M210.17,165h1a2.06,2.06,0,0,1,1.93,0c-.19,2.16-1.36,3.87-2.59,5.64-2-.51-1.46-2.67-2.49-3.74Z"/><path class="cls-193" d="M213.13,165c-.64.08-1.27,1.1-1.93,0a2.58,2.58,0,0,0,.07-.78c-.28-1.55-.53-3.09,1-4.18,1.56-2.08,2.84-4.27,2.77-7,1.27-2.06,1.69-2.3,2.39-1.13.83,1.38,2-.17,2.61.81a1.9,1.9,0,0,1,.49,1.26c-.4,1.82-1.26,3.54-1.23,5.46-.17,1.8-.66,3.43-2.35,4.41C215.69,164.19,214.08,163.43,213.13,165Z"/><path class="cls-194" d="M229.18,154.05c2.26,2.94.18,5.39-.88,7.95-.57-1.45-1.29-2.84-2.12-.22a7.83,7.83,0,0,1-1.29,3.09,6.76,6.76,0,0,0-5.53,2.15c.33-2,.51-3.05.68-4.11a3,3,0,0,1-.38-3.61,1.48,1.48,0,0,1,1.23-.59c3.67,4.46,2.79-1.65,4.43-1.93S227.85,154.91,229.18,154.05Z"/><path class="cls-195" d="M220.09,159c0,1.29,0,2.59,0,3.88-1.19-.22-1.3,3-3.05,1l1.33-4.69C218.86,158.38,219.46,158.53,220.09,159Z"/><path class="cls-196" d="M121.14,27c0,.29,0,.59,0,.88-.35.78-1.15,1.22-1.49,2a4.69,4.69,0,0,0-.05,2.41c.7,2.24,2.72,2.72,4.54,3.5,1.53.65,3.35,1.21,2,3.52-2.69.33-4.82-1-6.91-2.36l-.05.09c-3-1.07-4.9-2.68-2.95-6.14C117.14,28.71,117.76,26.1,121.14,27Z"/><path class="cls-197" d="M119.18,37,125.85,39c1-.65,1.83-1.73,3.24-1.05.65,1.25-.94,2.6.18,3.83-.61,1.84.85,2.57,1.91,3.51a2.52,2.52,0,0,1,.92,1.73,1.88,1.88,0,0,1-1.88,1,2,2,0,0,1-2.91,0c-3-.85-3.5-3-3.12-5.7.15-1,1.1-2.35-1-2.34C121.64,39.21,119.72,39,119.18,37Z"/><path class="cls-198" d="M117.13,60.15l-4-1.16c0-.31,0-.63-.07-.94a24.32,24.32,0,0,0,2-4.94c.46-2.58,1.8-1.63,3.16-1.16h0C119.24,54.87,119.73,57.71,117.13,60.15Z"/><path class="cls-198" d="M116.07,49.26c-1.07-2.4-1.37-4-.28-5.66a1.39,1.39,0,0,1,1.25.17C118.06,45.55,117.15,47,116.07,49.26Z"/><path class="cls-199" d="M88.17,71.86c2,2,5.71,3,4,7.08a3,3,0,0,1,.57,2.76c-1.14,2.35-3.46,3.1-5.58,4.11a3.42,3.42,0,0,1-2,.54c-1.47-.55-2.78-1.29-3.3-2.92-.13-2.6-3.94-2.2-4-4.86,1.06-2,3-1.92,4.87-2,3,1.41,3.73-.16,3.7-2.77a2,2,0,0,1,.82-1.73A9.21,9.21,0,0,0,88.17,71.86Z"/><path class="cls-200" d="M73.1,74c2.2-.65,4.39-1.36,6.63-1.91,1.68-.42,2.78-1.06,2.11-3a5.74,5.74,0,0,1,4.52,2c.54,3.13-1.25,4.67-4,5-3.2.4-6.77,2.89-9.52-1.08Z"/><path class="cls-201" d="M72.89,75c5.63,2.27,10.77.77,13.47-3.93l.89,1-.18,2.13c-.18,2.27-1.79,2.77-3.66,3-1.65.71-3.68.32-5.11,1.71a2,2,0,0,1-3.19-.07C75,77.13,71.4,77.54,72.89,75Z"/><path class="cls-202" d="M75.11,78.79l3.19.07A49.12,49.12,0,0,1,83,82c1.18,1,0,1.11-.73,1.34-2.8.39-5.49-1.28-8.32-.45-4.09,2.5-5.78-2-8.67-3C68.33,77.72,71.77,78.75,75.11,78.79Z"/><path class="cls-203" d="M91.87,81.66l.28-2.72c4.59-1.71,9.44.7,14-.86.3,1.33-1.85,2.62-.06,4a3.75,3.75,0,0,1,2.12,2.73,5.66,5.66,0,0,1,.15,2.86c-1.08,1.45-2.45,1-3.52.21-3-2.23-6.45-2.33-10-2.29C93.26,84.76,91.45,84.07,91.87,81.66Z"/><path class="cls-204" d="M126,93c.77,1.24,2,1,3.12.93,3-.27,4,1.85,4.94,4.06.25,1.32-.26,2.53-.43,3.79-.51,3.74-2.3,3.22-4.59,1.66a4.62,4.62,0,0,1-.94-1.94c-.38-2.29-1.83-3.81-3.58-5.16-1.37-1.06-2.54-2.24-1.44-4.17Z"/><path class="cls-205" d="M110.15,81l-1-2.22c6.56,1.49,8.78,7.31,12,12.08.72,2,2.59,3.52,2.25,5.91-2.27,1.21-2.77-1-3.89-2A14.85,14.85,0,0,1,118.41,93c-1.72-3.14-2.9-6.61-5.59-9.17A23.22,23.22,0,0,1,110.15,81Z"/><path class="cls-206" d="M123.23,96.93c0-2.23-2.24-3.74-2-6.06l1.8,1.27c.29,1.88,1.6,2.8,3,4s3.94,2.27,3,5.06c-.51,1.32-.89,2.79-2.82,2.54a3.23,3.23,0,0,1-2.29-1.49A23.28,23.28,0,0,1,123.23,96.93Z"/><path class="cls-111" d="M117.13,60.15q.54-4.09,1.07-8.19c2.23,1.44,1.28,4.37,2.86,6.12a2.77,2.77,0,0,0,.08,2.93C119.77,60.91,118.25,61.48,117.13,60.15Z"/><path class="cls-207" d="M121.1,61.93c1.74,1.77,1.05,2.73-1.06,3.23a6.79,6.79,0,0,1-4.27-1.74Z"/><path class="cls-208" d="M110.15,81a3.85,3.85,0,0,1,3.07,1.73c.33,2.42-1.46,2.55-3.08,2.86-.83-.75-2-.14-2.9-.78L106.13,82C107.49,81.76,109.12,82.54,110.15,81Z"/><path class="cls-209" d="M87.17,135c0-.32,0-.65,0-1-1.54-2.73-1.16-8.74-4.25-8.37C74,126.71,62.74,113.15,69.15,108c3.63-2.92,18.77-2.42,20-7,2.24-1.36,4.72,4.87,5.94,6s1.77,3.18,3.73,4.21c.72-3-.62-5.47-1.14-8.11-.42-2.11-.53-4.54,2.88-2.42a40.61,40.61,0,0,0,5,6.56c1.23,1.22,2.69,2.5,1.88,4.62-1.21.54-2.31,1.1-2.27,2.76,0,1-.32,2.45-1.24,2.47-6.86.09-2.85,4-2.45,6.66.18,1.12.67,2.24-.34,3.22,0,2.45.32,4.78-2.49,6.42s-.54,3.94.28,5.62c.92,1.88,2.11,3.8.46,5.39S96,143,95.48,143.17C87.28,145.76,90.91,136.63,87.17,135Z"/><path class="cls-210" d="M108.15,158c-3.42,1.55-7.37,2.59-9.65,5.63-2,2.74-3.42,2.37-5.35.36,5.32-3.06,8.4-7.83,10.23-13.53.29-.93.83-2,.65-2.83-.92-4.6-2.37-9.09-1-13.94.4-1.41-.5-3.18-.81-4.79,3.58,1.26,7.67,5.43,8,8.2.57,1.58,1.33,3.27.58,4.85-.88,1.86-.18,2.63,1.08,4,1.54,1.73,3.89,4.49-1.12,5.65-3.29.77-.34,4.79-2.64,6.35Z"/><path class="cls-211" d="M109.17,137c-1-3.86-4.71-5.3-7-8.06,0-.64-.07-1.27-.1-1.91a19.88,19.88,0,0,1,2.76-10.08c3.29-5.25,3.74,1.34,5.76,1.84,1.56,5.34,5.94,9.12,7.89,14.25-1.51,3.3-3.89,6.43-1.6,10.39a2.18,2.18,0,0,1-.78,2.6l-1,0C111.8,143.89,111.57,139.71,109.17,137Z"/><path class="cls-212" d="M62.09,166l-.5,0c-2.06-.16-4.61-.66-4.83-2.67s2.89-1.48,4.14-2.68c1.47-1.43,4.7.69,5.21-2.62a7.66,7.66,0,0,1,6.16-.78c.19,1.16-.58,1.38-1.37,1.64s-1.69-.22-2.05,1.31a17.88,17.88,0,0,1,11.49,7.49c.6.84,2.32,1.57,1.07,2.77s-1.85-.37-2.67-1.14C73.91,164.75,68.35,163.55,62.09,166Z"/><path class="cls-213" d="M109.89,119.27c-1.09-1.17-3-1.55-2.88-4.62-3,4.44-1.58,9.34-4.89,12.35h-1c-.85-2.63-1.41-5.42-2.65-7.87-1.49-3-.22-4.1,2.22-3.16,3.51,1.36,3.64-.3,3.42-2.79-.34-3.81,1.59-1.9,3-1.26,2.46.07,2.57,2.19,3.31,3.77C110.74,117,111.29,118.28,109.89,119.27Z"/><path class="cls-214" d="M93.75,175.27a11.35,11.35,0,0,1-7.18-9.12C90.12,168.61,91.74,172.09,93.75,175.27Z"/><path class="cls-215" d="M79.18,107q1.45-6.5,2.9-13c-.68-1.21-.41-2,1-2.29,4.18,2.35,4,7.16,6.14,10.71,1.45,6.09.5,9-3.66,10.93-1.87.87-3.78,1.27-5.49-.43C82.42,110.55,82.37,108.54,79.18,107Z"/><path class="cls-216" d="M83.08,92c-.33.67-.66,1.35-1,2-1.19-.58-2.33-1.51-3.57-1.69-4.56-.66-6.32-2.52-3.65-6.95.58-1,0-1.91-1-2.5,2.94-3,5.62-1.11,8.32.45.92,1,2.49,1.2,3,2.66C86.43,88.66,85,90.4,83.08,92Z"/><path class="cls-217" d="M229.18,154.05c-.72,1.32,0,4.14-3.06,3-1.38-1.39-1.3-3.12-1.14-4.88a3.16,3.16,0,0,1,1.28-2.18h.84l3,2C229.8,152.68,229.49,153.37,229.18,154.05Z"/><path class="cls-218" d="M226.14,152c0,1.68,0,3.35,0,5a2.34,2.34,0,0,0-1,2.09c-.06,1.68-.16,3.67-2.33,3.6-2.54-.09-1.22-2.51-1.74-3.85-1.41-1.45-.84-3.26-.89-5,0-.32,0-.63,0-.95a2.21,2.21,0,0,1,0-3l1-1C224.74,146.76,224.78,150.49,226.14,152Z"/><path class="cls-162" d="M220.13,150c0,1,0,2,0,3-1.66,1.45-3.38-2.22-5,.06l-.91,0c-5.88-.83-3.51-4.78-3-8C214.16,146.64,216.14,150.11,220.13,150Z"/><path class="cls-145" d="M226.14,152c-1.84-.72-2.29-3.79-5-3-.65-2-.23-3,2-2a6.55,6.55,0,0,1,3.14,3Z"/><path class="cls-162" d="M210.16,144c-2.33,1.29-4.44,2.16-4-2C208.54,140.56,208.53,143.94,210.16,144Z"/><path class="cls-219" d="M129.09,38,125.85,39c.58-2.19-1.32-1.68-2.32-2.13-2.31-1-5.18-1.47-5.25-4.9a1.9,1.9,0,0,1,2.64,0c3.16,2.39,6,1.8,8.63-.8l.63-.26c3.78,1.1.76,3.35.85,5.07C130.38,36.67,129.73,37.32,129.09,38Z"/><path class="cls-219" d="M118.29,28.93c.55-1.43,1.95-.55,2.85-1.05,3,1,6.39,1,9,3.06l-.26.28C125.45,33.42,121.87,31.2,118.29,28.93Z"/><path class="cls-220" d="M131,46.12c-1.73-.46-3.37-1.18-3.59-3.19-.1-1,1.12-.87,1.82-1.12l1.87,1.35a3.66,3.66,0,0,1,.46.18c1.41.86,4.55-1,4.36,1.5S133,46.59,131,46.12Z"/><path class="cls-221" d="M140.18,44.12c.12,3.62-2.09,4.21-5,3.86,0-.31,0-.62,0-.93,1.56-1.3,1-3.42,1.92-5l.92-.39A3.81,3.81,0,0,1,140.18,44.12Z"/><path class="cls-222" d="M137.09,42.09c-.32,1.78,1.21,4.27-1.92,4.95H132.1L131,46.11c1.47-.41,3.39.56,4.41-1.4-1.09-1.56-3.34.2-4.31-1.55C133.15,43,135.23,43.15,137.09,42.09Z"/><path class="cls-223" d="M127.31,48h2.91c.55,2.24,4,2.18,3.9,5-1.39,1.4-3,1.3-4.74.82-1.5-1.26-6.12-1.05-2.29-4.84C127.17,48.63,127.25,48.31,127.31,48Z"/><path class="cls-157" d="M127.09,48.94c-1.81,2.75.7,3.08,2.22,4a1.44,1.44,0,0,1-1.19,1.18l-3.81-1.84C123.64,49.8,124.83,48.92,127.09,48.94Z"/><path class="cls-224" d="M128.12,54.08l1.19-1.18,4.81.06,1,1C132.83,56.36,130.49,56.61,128.12,54.08Z"/><path class="cls-163" d="M193.16,156.05q-.49,0-1,0c-4.08,1.68-3.09-3-5-4h0c1-1.36,2.77-1.11,4-1.93.65,1.31,1.31,2.61,2,3.92C193.22,154.68,193.72,155.36,193.16,156.05Z"/><path class="cls-183" d="M193.16,156.05c-.06-.68-1.13-1.36,0-2.06,1.41.06,2.94-.07,3,2-.14,1.19.32,2.9-1.7,2.73C192.86,158.59,193.26,157.12,193.16,156.05Z"/><path class="cls-225" d="M212.32,160.05c-.4,1.38.36,3-1,4.18l-1.12-.29c-.86-.8-1.61-1.64-1-2.94l2.18-1.85Z"/><path class="cls-226" d="M148,151.16l-.65-1.18c1.62-1.16,3.57-1.76,3.9-4.4.44-3.46,4.56-2.49,6.36-4.49l.67-.15,2.91.09c3.08,1.45,4.73,3,2.38,6.8-1.3,2.11-.64,5.17,1.66,7.18.13,1.84-.85,2.43-2.43,1.92-2.2-.71-4.62-.6-6.64-1.89C153,154.69,151.29,151.16,148,151.16Z"/><path class="cls-227" d="M185.14,160a3.16,3.16,0,0,0,0,4c-2.76.47-5.28-.91-8-1.05a1.27,1.27,0,0,1,.1-2.08s.4-.15.12-.11c-.8.11-1.4,1-2.24.89-3.52-.4-5-3.4-7-5.66-.38-.54-.72-1.1-1.14-1.61-.8-1-2.2-1.83-1.51-3.36s2.3-1,3.54-1c1.43,0,3-.45,4.13,1a10.6,10.6,0,0,0,7.61,6.08A6.59,6.59,0,0,1,185.1,160Z"/><path class="cls-228" d="M168.14,156a4.1,4.1,0,0,1,3.31,1.86c1.78,2.3,3.52,4.51,7.24,1.29l-1.5,3.81A54.37,54.37,0,0,1,156.12,155c3-1.09,6,1.7,9.07,0Z"/><path class="cls-183" d="M185.1,160c-3.11-1.05-6.26-2-9.32-3.18-2.61-1-2.32-3.58-2.62-5.78,2,.47,4.51.66,5.42,2.59,1.09,2.27,2.62,1.92,3.78,1,3.71-3,3.5,0,3.86,2.32C185.85,158,185.48,159,185.1,160Z"/><path class="cls-183" d="M187.16,152c2.66.11,1.94,4.43,5,4-.63,5.51-3,2.45-5.06,1C188.41,155.39,187.2,153.7,187.16,152Z"/><path class="cls-229" d="M142.94,142.21c-1-2-2-4-3-6.05a44,44,0,0,0,12.36-2c0,2.16,1.13,2.86,3.23,3.22,1.48.26,4.51.39,2.67,3.58l-.14.12C153.27,144.38,148,141.49,142.94,142.21Z"/><path class="cls-230" d="M145.05,118.9c-1.14.81.14,1.36.21,2,.77,3.78-2.63,3.47-4.55,4.62a2.78,2.78,0,0,1-2.1-.4,4.82,4.82,0,0,1-1.34-5,3.07,3.07,0,0,1,1.95-2c2.16-.14.63-1.26.5-2-.28-3.47-2.56-5.65-5-7.74a14.47,14.47,0,0,1-3.51-2,1.34,1.34,0,0,1-.19-1.28c1.61-1.35,2.94-.61,4.22.56C140.53,108.61,144.33,112.61,145.05,118.9Z"/><path class="cls-231" d="M135.26,105.7c-1.38,0-2.85-1.58-4.1.27a5.38,5.38,0,0,1-1.95,4.85c-.72.57-1.26,0-1.58-.56-1-1.76-.58-3.53.08-5.28a5.27,5.27,0,0,1,1.46-2c5.3,1.57,3.12-2.93,4-5,1.6-1.58,3.29-1,5-.17,0,.37,0,.75,0,1.12-1.41,1.23-2.35,2.43.11,3.55,1.18.55,2.39,1.08,2.88,2.45l-6.29-2.35C133.86,103.83,135.4,104.66,135.26,105.7Z"/><path class="cls-232" d="M141.18,125c.74-2,3.77-1.61,4.08-4,.71,1.7,7.66,3.13.13,5.29-1.62.46.85,1.67.7,2.73h-4C141.13,127.77,140.29,126.56,141.18,125Z"/><path class="cls-233" d="M130.19,129.88c1.18,2.72,4.36,1.28,6.06,2.92-3.95,1.26-7.91-2.17-11.87,0l-.52.47c-2.48-.28-3-2.71-4.57-4.06-1-2-3.67-3.52-2.11-6.4C121.55,125.11,126.41,126.51,130.19,129.88Z"/><path class="cls-233" d="M138.12,139l1.08,3c.82,1.94,0,2.56-1.74,1.85s-3.35-2.14-5.27-2.76c-2.72-1.2-4.5-3.74-7.18-5a3.39,3.39,0,0,1-1.3-1.55,2,2,0,0,1,.19-1.31l.48-.41c3.07,1.95,6.18,3.84,9.2,5.88C135.1,139.71,136.52,140.08,138.12,139Z"/><path class="cls-234" d="M130.19,129.88c-4.76-1.55-9.49-3.16-13.17-6.8-2.51.25-3.4-1.79-4.67-3.29a13.25,13.25,0,0,0-3.1-4,7.76,7.76,0,0,0-2.08-3.92c-1.61-4.1-6.28-6.25-7-10.93-.82-1.62-3.43-2.41-2.29-4.93,3.54-.67,4.24,2.53,6,4.36a27.43,27.43,0,0,0,6.11,7.19c8.16,6.92,16.1,14.15,25.6,19.3,1.48.78,2.73,1.6.55,3Z"/><path class="cls-235" d="M136.12,129.94c.43-.95,1.08-2-.83-2,.93-1.7.81-4.91,4.27-3l1.62-.07a4.93,4.93,0,0,1,.91,4Z"/><path class="cls-236" d="M138.17,97.88l-5,.17a11.13,11.13,0,0,0-4.11-4.15c-.11-2,.83-3.72.52-5.83a3.3,3.3,0,0,1,3.48-3.91l2,2.94C138,90.15,136.26,94.54,138.17,97.88Z"/><path class="cls-237" d="M124,134l1.12,1c2.67,3.95,7.1,6.44,9.07,11v1.83c-5-1.29-9.2,2.45-14,2.19l-4-4c-.16-3.81-3.58-7.68.22-11.4.58-.57,1.21-1.09,1.82-1.64C120.45,131.56,122.19,133,124,134Z"/><path class="cls-189" d="M109.17,137c3.22,2.19,4.5,5.68,6,9,1,4.73-2.74,11.07-7,12a29.19,29.19,0,0,0,0-3c-.54-5.07-.55-5.07,4.52-4.87,0-3.3-2.21-4.44-6-4.72C110,142.8,110.69,140.09,109.17,137Z"/><path class="cls-238" d="M142.94,142.21c2.56-1.64,5-2.15,8-.54,2.27,1.22,4.69-1.29,7.19-.61-1.2,1-.4,4.49-3.88,2.82-1.34-.64-2.54,1.78-2.35,2.38,1.84,5.56-2.51,3.19-4.56,3.72q-2.12-3-4.22-6Z"/><path class="cls-239" d="M132.13,140a8.84,8.84,0,0,1,5.37,2.74c1.16,1.09,1.56.38,1.7-.79,2,2.32.08,3.67-1.3,5.14l-.93-.82C135.44,144.16,131.71,143.7,132.13,140Z"/><path class="cls-240" d="M132.13,140c1.15,2.45,4.2,3.43,4.84,6.27l-2.78-.33c-3.65-3.13-7.37-6.22-9.07-11C128.08,135.82,129.68,138.54,132.13,140Z"/><path class="cls-241" d="M113.08,170.08l-.93-.08a3.1,3.1,0,0,1,4.55-3.06c1.67,1,3.2.41,4.78,1.43Z"/><path class="cls-104" d="M209.15,161l1,2.94c-3.74-.07-7.09-1-9.54-4.28C203.85,158.59,205.83,163.83,209.15,161Z"/><path class="cls-105" d="M220.16,153.94c1.63,1.41.73,3.28.89,5a4.52,4.52,0,0,1-1,.13l-1.76.14A5.72,5.72,0,0,1,220.16,153.94Z"/><path class="cls-242" d="M118.29,28.93c4,0,7.51,2.77,11.63,2.29-2.57,4.44-4.88,5.09-8.7,2.33-.93-.67-1.71-1.5-2.94-1.55C118.28,31,118.28,30,118.29,28.93Z"/><path class="cls-243" d="M98.34,96c-.39,2,2.32,2.91,1.86,5-2.19-.81-2.49.34-1.57,1.83,1.49,2.39,1.33,5.06,1.84,7.62.2,1,.8,2-.24,2.68-1.33.84-2.18-.52-2.94-1.18-2.34-2-3-5.56-6.11-7a6,6,0,0,0-3.07-3q-2.51-5-5-10,1.07-3,2.11-6l1-1c5.77-.4,8.06,4.54,11.63,7.54C98.53,93.64,99.19,94.72,98.34,96Z"/><path class="cls-244" d="M97.55,93.19C93.5,90.83,91,86.27,86.18,85l5.69-3.37c.47,1.8,2.46,2.14,3.39,3.51a6.19,6.19,0,0,1,1.67,2c1.07,4,4.35,1.42,6.5,2.21a2,2,0,0,1,1.22,1.71A3.08,3.08,0,0,1,103,93.64,5.58,5.58,0,0,1,97.55,93.19Z"/><path class="cls-245" d="M83.41,77.15l3.66-3c1.53,2.33-.17,3.7-1.74,4.65C83.94,79.68,83.28,78.61,83.41,77.15Z"/><path class="cls-246" d="M95.87,87.05c-.2-.63-.41-1.26-.61-1.88,3.12-1.69,5.93-.92,8.85.76,1.17.68,2.12,3,4.14,1.29,1.76-.29,1.42,1,1.46,2-1.83,3-4,1-6,.37C101,89.19,97.9,89.72,95.87,87.05Z"/><path class="cls-247" d="M109.2,88.83c-.06-.69,0-1.43-1-1.61a2.16,2.16,0,0,1-1-2.4c.65,0,1.38-.8,1.92.19,1.3,1.27,4.78,1.61,1.94,4.61A1.74,1.74,0,0,1,109.2,88.83Z"/><path class="cls-248" d="M129.17,103c-.36,2.25-.71,4.51-1.29,8.14,1.63-2.45,1.86-4.25,3.28-5.17l0,.39c1.17,1.15,2.19,3.17,4,.68,1.89,2.86,6.36,4.27,5,8.94-2,.12-3.71-1.51-5.76-.7-2.36-1.08-4.9-1.72-7.26-2.78-2-.88-3.55-2.3-3.66-4.74.68-1.58.77-3.47,2.42-4.54,1.43,0,2.1-1.25,3.06-2C129.06,101.8,129.11,102.4,129.17,103Z"/><path class="cls-249" d="M126,103.22c-1.1,1,1.25,3.64-1.73,3.82-.65.68-1.15,1.59-2.3,1.51-5.09-2.72-8.67-7.16-12.6-11.2a8.62,8.62,0,0,1,2.08-7.85c3.48-1.18,5.63.72,7.51,3.25L120.16,94c-.2,3.44,3.11,5.11,4,8Z"/><path class="cls-250" d="M118.91,92.75c-2.5-.93-4.45-3.27-7.44-3-.71,0-.84-.21-.39-.76,1.09-2.16-1.79-2.44-1.92-4,1.66-.21,3.17-.69,4.06-2.27C116.36,85.37,117.82,89,118.91,92.75Z"/><path class="cls-251" d="M124.2,102c-2.54-2-6-3.67-4-8,1.29.7,1.4,2.63,3.07,2.93C124.64,98.4,125.6,100,124.2,102Z"/><path class="cls-252" d="M124,134,118.19,133c-3.46-4.15-7.43-8-8.3-13.7-.22-1.14-.43-2.28-.64-3.42a7.66,7.66,0,0,1,3.8,3.21c1.41,4,3.25,7.7,7.26,9.77l3.59,4.39A1.58,1.58,0,0,1,124,134Z"/><path class="cls-253" d="M139.56,125c-2.65-.78-2.76,2.11-4.27,3-7.76-2.88-13-9.29-19.55-13.91-5-3.54-9.62-7.53-12.57-13.08,1.9-1.76,5.4-1.21,7.82,1.19,1.05,1,1.27,2.65,2.51,3.54,3.72,3.51,8.46,5.49,12.61,8.35,3.57,2.83,8.83,2.24,12,5.9C138,121.82,138.21,123.59,139.56,125Z"/><path class="cls-254" d="M138.11,120c-4.41-1.46-9-2.36-13-5-.27-1.44.77-1.5,1.73-1.62,3.69.51,6.76,3.17,10.63,3,1.29.46,3,.49,2.63,2.62A2.1,2.1,0,0,0,138.11,120Z"/><path class="cls-255" d="M140.12,119c-.62-1.19-1.88-1.42-3-1.94s-2.6-.28-2-2.17c2.36-2.87,3.4.52,5.05,1.06.07,1.34,2.61.41,2,2.1C142.06,118.58,140.85,118.72,140.12,119Z"/><path class="cls-256" d="M135.19,107c-.4,1.21.83,3.54-1.42,3.38-1.89-.12-2.79-2-2.57-4.06C132.68,105.68,133.82,107,135.19,107Z"/><path class="cls-257" d="M120.31,128.82c-4.55-.67-7-4-7.26-9.77l4,4Z"/><path class="cls-258" d="M113.17,107c-2.59-2.2-3.82-6-7.92-6.46-.86-.09-1.52-.31-2.08.48-1.66-1.61-2.71-3.81-4.83-5-.26-1-.53-1.9-.79-2.84a12.78,12.78,0,0,0,5.49-.57,38,38,0,0,1,10.48,10.6C113.57,104.48,113.86,105.78,113.17,107Z"/><path class="cls-259" d="M113.17,104c-2.82-4.28-7.53-6.89-10.13-11.38.38-.54.76-1.08,1.13-1.63,4.33-.32,4,4,6,6l12,11a1,1,0,0,1,.31.82c0,.3-.07.45-.14.45C117.55,110.46,115.27,107.38,113.17,104Z"/><path class="cls-260" d="M110.15,97c-2.47-1.52-3.18-4.8-6-6-.34-.37-.67-.74-1-1.1-.34-.16-.46-.33-.38-.53s.19-.31.29-.31c2-.89,4.18,2.46,6.13-.22l1.88.21a2.74,2.74,0,0,1,.39.76Z"/><path class="cls-261" d="M103.07,89.05a6,6,0,0,1,.09.84c-3.39,1.52-6.52,2.38-7.29-2.84Z"/><path class="cls-262" d="M122.14,109l0-1,2.11-1c.56,3,2.42,4.48,5.35,5a9,9,0,0,1,5.59,2.87l2,2.16c-3.93.9-6.83-1.58-10-3.09C125.08,112.73,122.84,111.64,122.14,109Z"/><path class="cls-263" d="M122.14,109a15.1,15.1,0,0,1,5,5,2,2,0,0,0-2,1l-12-8c-.27-1-1.62-2,0-3C116.32,105.38,117.86,109.65,122.14,109Z"/><path class="cls-139" d="M77,123.08a7.6,7.6,0,0,1-2.62,3.73,5.66,5.66,0,0,1-6,.63,30.34,30.34,0,0,1-10.23-19.52L54.44,103c3.63-.39,6.05-2.89,8.71-5,1.22-1.27,3-2.55,4.25-1,3.24,4,7.26,7.52,8.1,13"/><path class="cls-264" d="M54.44,103c-1.53-1.65-3.57-2.23-5.64-2.91-12.14-4-24.22-8.25-36.33-12.34,6-15.12,11.94-9.92,17.82-9.53,2.88.19,4.84.11,6.4-3.07,2-4,6.34-2.47,9.8-2.91A5.31,5.31,0,0,1,49,73.91c6.76,6,10.83,13.88,14.76,21.81a3.09,3.09,0,0,1-.06,2.42C61.33,101.17,59.07,104.34,54.44,103Z"/><path class="cls-265" d="M47,73c-2.43.33-4.86.69-7.3,1-1.18.14-2.2,0-2.23,1.83-.09,4.79-3.43,4.4-6.7,3.93q-5.52-.81-11-1.66a3.86,3.86,0,0,1-3.28-4.28c1-8,4.46-8.33,7.79-8.13a52.85,52.85,0,0,0,10.79-.63c5.33-.77,9.29,2.42,12.51,6.46A1.88,1.88,0,0,1,47,73Z"/><path class="cls-124" d="M43.11,56.09A1.09,1.09,0,0,1,42.36,58c-4.86-.12-9.1,2-13.3,4.11-2.76,1.4-5.76,1.78-8.65,2.75C5.15,70,8.15,85.68,8.15,85l-6-7.94L.58,74.51C-.76,72.25.15,63,4.15,57s14-8,15-8c3.59,0,8.2,7.37,11.7,6.44a21.6,21.6,0,0,1,12.24.63Z"/><path class="cls-266" d="M39.07,44.93c3.24-.76,6.5-.45,9.75-.21,1.36,1.88-.58,2.08-1.47,2.63-1.76,1.1-3.17,2.25-2.24,4.6.32,1.77,3.7,2.06,2.68,3.94S44.1,57.15,42,57.08a28.58,28.58,0,0,0-13.81.49c-4.47,1.25-9.57,2.44-13.41-6a1.4,1.4,0,0,1,1-1.94C23.47,48.1,31.46,46.49,39.07,44.93Z"/></g></g></svg>