<svg xmlns="http://www.w3.org/2000/svg" viewBox="0 0 227.16 247.22"><defs><style>.cls-1{fill:#bcc4d0;}.cls-2{fill:#c9ced6;}.cls-3{fill:#b7b9be;}.cls-4{fill:#e6e8ea;}.cls-5{fill:#dce1e4;}.cls-6{fill:#c9c7d3;}.cls-7{fill:#dbdfe4;}.cls-8{fill:#cdd4db;}.cls-9{fill:#8ba0a0;}.cls-10{fill:#cbd6dc;}.cls-11{fill:#b5c9d4;}.cls-12{fill:#5d3f04;}.cls-13{fill:#b0c5d2;}.cls-14{fill:#e5e7e9;}.cls-15{fill:#bac3c7;}.cls-16{fill:#fbbb99;}.cls-17{fill:#b9bbc0;}.cls-18{fill:#5c3c08;}.cls-19{fill:#c4d4df;}.cls-20{fill:#8c949d;}.cls-21{fill:#7d571c;}.cls-22{fill:#6e4b0b;}.cls-23{fill:#cad0d3;}.cls-24{fill:#a7b7c5;}.cls-25{fill:#c4d5de;}.cls-26{fill:#d0d3dc;}.cls-27{fill:#95adb5;}.cls-28{fill:#78a6c4;}.cls-29{fill:#8badc7;}.cls-30{fill:#e2bfb2;}.cls-31{fill:#94a6b7;}.cls-32{fill:#bda25f;}.cls-33{fill:#a1b5c7;}.cls-34{fill:#a4acaa;}.cls-35{fill:#afc0cb;}.cls-36{fill:#d1cdd2;}.cls-37{fill:#c4c5c2;}.cls-38{fill:#6f787e;}.cls-39{fill:#a6abac;}.cls-40{fill:#5f8dac;}.cls-41{fill:#c1cad3;}.cls-42{fill:#583207;}.cls-43{fill:#a1b1c4;}.cls-44{fill:#d7d2c8;}.cls-45{fill:#728ea9;}.cls-46{fill:#c4d2db;}.cls-47{fill:#b5b9bd;}.cls-48{fill:#9caab2;}.cls-49{fill:#727573;}.cls-50{fill:#705c43;}.cls-51{fill:#859a9f;}.cls-52{fill:#c28477;}.cls-53{fill:#8e9184;}.cls-54{fill:#bb9b6f;}.cls-55{fill:#5b96ba;}.cls-56{fill:#9a8147;}.cls-57{fill:#e0e1e2;}.cls-58{fill:#77613b;}.cls-59{fill:#f5e6e3;}.cls-60{fill:#91adbe;}.cls-61{fill:#7990a0;}.cls-62{fill:#89a5bd;}.cls-63{fill:#848d95;}.cls-64{fill:#866824;}.cls-65{fill:#395d7a;}.cls-66{fill:#d7bbaa;}.cls-67{fill:#cbb38e;}.cls-68{fill:#718fa7;}.cls-69{fill:#92a7be;}.cls-70{fill:#a67f47;}.cls-71{fill:#efeeec;}.cls-72{fill:#d8d0c1;}.cls-73{fill:#c3a86b;}.cls-74{fill:#b9a79c;}.cls-75{fill:#b3b4be;}.cls-76{fill:#e2bf9d;}.cls-77{fill:#7f5b35;}.cls-78{fill:#925242;}.cls-79{fill:#f1f5f8;}.cls-80{fill:#848f9a;}.cls-81{fill:#327297;}.cls-82{fill:#79560c;}.cls-83{fill:#88a9c3;}.cls-84{fill:#4387ae;}.cls-85{fill:#a5c0d0;}.cls-86{fill:#cdd7df;}.cls-87{fill:#abc3d3;}.cls-88{fill:#c2b699;}.cls-89{fill:#7aa2bd;}.cls-90{fill:#437494;}.cls-91{fill:#8c8d91;}.cls-92{fill:#7d839c;}.cls-93{fill:#a3bbc2;}.cls-94{fill:#5a5e67;}.cls-95{fill:#759ab5;}.cls-96{fill:#cdd1d4;}.cls-97{fill:#c9dde7;}.cls-98{fill:#d8dce2;}.cls-99{fill:#4e6271;}.cls-100{fill:#8596a8;}.cls-101{fill:#6b7075;}.cls-102{fill:#22323e;}.cls-103{fill:#50626c;}.cls-104{fill:#767480;}.cls-105{fill:#526b86;}.cls-106{fill:#d8dcde;}.cls-107{fill:#c2d2de;}.cls-108{fill:#81a8be;}.cls-109{fill:#ebc18a;}.cls-110{fill:#e4cdd2;}.cls-111{fill:#b07622;}.cls-112{fill:#e0d5c8;}.cls-113{fill:#c4b6ab;}.cls-114{fill:#3d566e;}.cls-115{fill:#a7b1c3;}.cls-116{fill:#99a5b5;}.cls-117{fill:#999aa7;}.cls-118{fill:#081b22;}.cls-119{fill:#b8c2c9;}.cls-120{fill:#849eae;}.cls-121{fill:#95abb9;}.cls-122{fill:#91b1c8;}.cls-123{fill:#446f89;}.cls-124{fill:#7494a6;}.cls-125{fill:#afaba7;}.cls-126{fill:#637c75;}.cls-127{fill:#655e40;}.cls-128{fill:#799596;}.cls-129{fill:#debd8e;}.cls-130{fill:#779ab2;}.cls-131{fill:#89aec7;}.cls-132{fill:#8ba6b7;}.cls-133{fill:#9bbbd3;}.cls-134{fill:#558fb2;}.cls-135{fill:#638aa1;}.cls-136{fill:#a2b6c5;}.cls-137{fill:#251505;}.cls-138{fill:#543309;}.cls-139{fill:#3a2502;}.cls-140{fill:#806429;}.cls-141{fill:#86651f;}.cls-142{fill:#c8d8e3;}.cls-143{fill:#65869a;}.cls-144{fill:#d2dcdf;}.cls-145{fill:#8eacc1;}.cls-146{fill:#bebfc7;}.cls-147{fill:#75a1c1;}.cls-148{fill:#bea577;}.cls-149{fill:#a88861;}.cls-150{fill:#cabe91;}.cls-151{fill:#4481a1;}.cls-152{fill:#7e4c0b;}.cls-153{fill:#f0d6cb;}.cls-154{fill:#e69d7b;}.cls-155{fill:#cfa985;}.cls-156{fill:#d4d4d6;}.cls-157{fill:#414643;}.cls-158{fill:#64727b;}.cls-159{fill:#53482c;}.cls-160{fill:#372b1a;}.cls-161{fill:#745417;}.cls-162{fill:#9a7643;}.cls-163{fill:#947544;}.cls-164{fill:#878f8a;}.cls-165{fill:#69533b;}.cls-166{fill:#bacedb;}.cls-167{fill:#97b2c8;}.cls-168{fill:#bbc0cf;}.cls-169{fill:#4a7c99;}.cls-170{fill:#bd8c63;}.cls-171{fill:#688ea4;}.cls-172{fill:#fbe2ce;}.cls-173{fill:#3c2320;}.cls-174{fill:#a9bcce;}.cls-175{fill:#e4c4b4;}.cls-176{fill:#986f29;}.cls-177{fill:#baa580;}.cls-178{fill:#d7c2a4;}.cls-179{fill:#8b908c;}.cls-180{fill:#1a5b81;}.cls-181{fill:#cdb680;}.cls-182{fill:#dac092;}.cls-183{fill:#ede6d8;}.cls-184{fill:#5f6c70;}.cls-185{fill:#9c927d;}.cls-186{fill:#a3a398;}.cls-187{fill:#696b67;}.cls-188{fill:#bca175;}.cls-189{fill:#90662b;}.cls-190{fill:#b3bbc8;}.cls-191{fill:#aebbc9;}.cls-192{fill:#525a75;}.cls-193{fill:#2f4d63;}.cls-194{fill:#b2b8c0;}.cls-195{fill:#b1b9c5;}.cls-196{fill:#c8d1d8;}.cls-197{fill:#cfd7d9;}.cls-198{fill:#c4cace;}.cls-199{fill:#a6bfcf;}.cls-200{fill:#7f8895;}.cls-201{fill:#a3a7aa;}.cls-202{fill:#898991;}.cls-203{fill:#c99428;}.cls-204{fill:#a66516;}.cls-205{fill:#e6ba61;}.cls-206{fill:#bb8c0f;}.cls-207{fill:#825916;}.cls-208{fill:#ae8e76;}.cls-209{fill:#3b546b;}.cls-210{fill:#7da2bd;}.cls-211{fill:#cbd5df;}.cls-212{fill:#0a2c3c;}.cls-213{fill:#a5bed0;}.cls-214{fill:#6b859a;}.cls-215{fill:#5f8095;}.cls-216{fill:#b6c5d0;}.cls-217{fill:#739bb7;}.cls-218{fill:#b6ccda;}.cls-219{fill:#7a7767;}.cls-220{fill:#565e51;}.cls-221{fill:#4d5041;}.cls-222{fill:#6e541f;}.cls-223{fill:#d6a742;}.cls-224{fill:#8c733c;}.cls-225{fill:#57482b;}.cls-226{fill:#4a80a1;}.cls-227{fill:#4d87a9;}.cls-228{fill:#4780a3;}.cls-229{fill:#719fbc;}.cls-230{fill:#c7d4dc;}.cls-231{fill:#aac8da;}.cls-232{fill:#2e7894;}.cls-233{fill:#2c769f;}.cls-234{fill:#377ea7;}.cls-235{fill:#170a08;}.cls-236{fill:#bea479;}.cls-237{fill:#ab8d48;}.cls-238{fill:#dec9c6;}.cls-239{fill:#e3d2c7;}.cls-240{fill:#756342;}.cls-241{fill:#b59664;}.cls-242{fill:#c8d7e4;}.cls-243{fill:#1a6d97;}.cls-244{fill:#192f44;}.cls-245{fill:#e5c77e;}</style></defs><title>Ресурс 42</title><g id="Слой_2" data-name="Слой 2"><g id="Слой_1-2" data-name="Слой 1"><path class="cls-1" d="M165.82,247.22h-7a24.66,24.66,0,0,0-2-1.69c-3.38-3.46-6.42-1.49-9.46.57-1.24,0-2.45,0-2.78-1.61.28-.74,1-.64,1.57-.83-.36.05-.72-.06-1.08,0-4.57.36-9.32,2.6-13.49-1.3a5.36,5.36,0,0,1-1.54-1.57,3.31,3.31,0,0,1-.47-2.86c1.89-2.37,3.85-4.58,7.3-2.62,3.87,1,7.64,4.17,11.71.48a8,8,0,0,1,3.23-1.44,4.24,4.24,0,0,1,2.75.41c.85.88,2.09.9,3.09,1.39,2,1,1.9,1.36.06,4,7-3.47,9.6-2.31,9.32,4.1a3,3,0,0,1-1.13.88c-.43.2-1-.07-1.31.47a2.49,2.49,0,0,1,1.35.48A.89.89,0,0,1,165.82,247.22Z"/><path class="cls-2" d="M165.82,247.22c0-.27,0-.55,0-.82.55-1.14,1.83-1.3,2.68-2,1.35-.83,2.6-2.66,4-2.4,3.21.61,2-1.77,2.48-3a4.5,4.5,0,0,1,3.59-3.26c.89.1,1.68.52,1.67,1.45-.05,3.75,2.05,2.76,4.2,2.06,1.42-.47,2.87-2.48,4.35-.82,1.23,1.37,1,3.24,0,5-.4.68.83.19,1,.68.62,1.15-.22,1.62-1,2.13l-1,1.05Z"/><path class="cls-3" d="M144.82,244.23c.75,1.22,2,.91,3.1,1,3.28.38,6.56-2,9.85,0a2,2,0,0,1,1,2h-12c-1.22-1.09-2.91,0-4.17-.9C142.55,244.77,143.13,243.92,144.82,244.23Z"/><path class="cls-4" d="M142.76,246.1c1.37.31,3-.36,4.06,1.12h-20c0-.25,0-.51,0-.77C132,243.54,137.39,244.71,142.76,246.1Z"/><path class="cls-5" d="M18.77,202.27c-2.46-2.91-2.47-6.78-4-10.06,2.79-1.84,6.76-1.38,8.84-4.58,2.44-2.11,5.44-1,8.17-1.41,1.4.07,2.91-.4,4.07.82.18,1.36,2.46,1,2.2,2.71-.24.78-1,1.3.58,2,2.78,1.25,6.09,2.46,5.93,6.59,0,.37.5-.09.77-.12,2.59-.35,5-4,7.82-.58,1.66,1.67,3.24,3.05,4.27-.56.2-.72,1-1.2,1.74-1.55,1.5-.45,2.9-.46,3.92,1,.31,3-2.18,4.24-3.77,6-.92,1.05-2.11,2,.07,2.93,3.35,1.47,1.81,2.91-.14,4.13a21.52,21.52,0,0,0-4.11,2.75,2.79,2.79,0,0,1-1.36.3c-1.86-.32-3.14-1.76-5.36-2.81.71,1.89,1.89,3,2.37,4.39,1,2.94-3.09,8.3-6.17,7.91-.64-.08-1-.81-1.13-1.49-.37-2.94,0-6.13-2.86-8.2a2.63,2.63,0,0,1-.39-1.28c.76-1.9,2.08-4-1.73-3.93-6-3.25-8-5.49-7.82-9.1-3.28,3.29-3.28,3.29-8.11-2.73.2.64-.3-.11-.18.14C24.24,199.52,23.61,202,18.77,202.27Z"/><path class="cls-6" d="M115.8,34.15c6.1,3.81,11.71,8.11,15.61,14.35,2.75,4.4,4.43,8.85,2.4,14.06-.72,1.84-1.27,3.8,0,5.7a2.41,2.41,0,0,1-2.68.49c-2-1.29-.84-3.47-1.4-5.38-.22,2-.41,3.84-2.91,2.35-1-.61-1.9-1.3-3.16-1-3-1.28-5.94-2.48-9.27-2.1-1.53-.59-2.08-1.88-2.46-3.31,1.37-3.61-3-5.87-2.18-9.36a5.3,5.3,0,0,1,2.74-1,6.55,6.55,0,0,0,5.75-4.69c1-3.22-1.75-4.2-3.5-5.78C113.93,36.76,113,35,115.8,34.15Z"/><path class="cls-7" d="M189.76,244.19c-1.43-.08-2.66,1.38-4.93.42,3-1.31,4.58-3,3.21-6-2.47,1.5-4.79,3.47-8,2.66-3.84-1,1-3.75-1.08-5.07-.74-1.7.92-2.81,1.05-4.3,3.73-3.16,7.59-6.15,8.38-11.55.18-1.17,1.72-2,3.23-1.88a3.9,3.9,0,0,1,1.81.83c3.9,1.15,5.34-2.06,7.39-4.16a10.48,10.48,0,0,1,7-3c1.94,2.82-.8,3.55-2.16,5-.89.93-1.42,2.18-2.56,2.93-1.38.91-2.94,1.87-2.48,3.83.55,2.34,2.7,1.93,4.42,2.19,2.85-.09,2.25,3,3.83,4.12.39,2.49-1.68,3.69-2.82,5.37-2.3,1.7-5.52,1.83-7.36,4.32-1.65,1-2.79,2.64-4.39,3.74A18.76,18.76,0,0,1,189.76,244.19Z"/><path class="cls-8" d="M136.86,235.89c-3.2-1.76-4.77,1.41-7.07,2.36-2.72,1.42-3.61-1.39-5.32-2.29-1.5-.75-3.09-3.33-4.52-1.6s-1.44,4.69,0,6.95c1,1.54,2.45,2.8,1,4.78-3.4-.12-6.86.93-10.18-.59a2.15,2.15,0,0,1,1.62-1.25,7.32,7.32,0,0,0,2.63-.77c-1.67-1.23-3.86-.44-5.27-1.67-1.65-1.34-2.68-3.54-5.14-3.81-.8-.19-1.71-.5-2.4,0-3.48,2.61-6.22,1.2-8.77-1.49.13-3.1,2.49-3.61,4.82-4.05s2.94-1.46,2.24-3.87.56-5.08-2.42-6.67c-.86-.46-.5-1.81.25-2.65,2.07-1.25,3.79,0,5.58.75,1.06.38,2.11.76,2.51,2,2.7,1.07,4.26,3.2,5.63,5.67.93,1.67,2.09,1.67,2.55-.52,2.06-1.31,3.35.39,4.87,1.22s3.5.87,5.29,1.1a3.19,3.19,0,0,1,1.22.54c.54,3,3.07,2.36,5,2.82a9.09,9.09,0,0,0,3.2-.23c2.05-.15,4.14-.9,6.09.43C141.87,237.23,139.23,236.4,136.86,235.89Z"/><path class="cls-9" d="M139.74,75.24c1.22,2,7.28,3.92,0,6-1.54.45-1.26,1.95-.82,2.94,3,6.9,3.39,14.46,5.43,21.6.78,2.72,4.06,4.2,3.35,7.47a2.13,2.13,0,0,1-1.9-.39c-2.43-.8-3.05-3.62-5.27-4.66a5.05,5.05,0,0,0-3-4.21c0-3.84-1.55-7.48-1.29-11.39.16-2.48-2.36-3.25-3.91-4.6-1.28-3.72-4.52-6.06-6.58-9.24-.72-1.1-1.8-2-1.62-3.46s1.79-2.07,2.87-2.92c1.6-.77,1.57-3.47,3.91-3.37a6,6,0,0,1,1.79,2.26C134.27,74,135.92,76.56,139.74,75.24Z"/><path class="cls-10" d="M18.77,202.27c2.31-1.63,6.05-2.8,1.82-6.35-1.11-.93-.18-1.76.52-2.43,1.21-1.15,1.61-.23,2,.81a3.75,3.75,0,0,0,.58.78c2.55,3.49,5.08,6.57,7.34-.22.05-.15.59-.12,1.31-.24-.28,2.42-.54,4.74-.87,7.67,3-2.33,4.66-2.22,4.55,1.72,0,1.52,1.35,2.13,2.82,2.21,1,1.52-.42,4,2,5v1c.14.62.42,1.73,0,1.78-3.42.4-6.35,3.55-10.13,1.82-1.05-1.18-1.88-2.53-2.87-3.75a6.48,6.48,0,0,1-.64-1.19c-.86-3.35-5.22-.75-6.32-3.69C20.14,205.56,19.46,203.91,18.77,202.27Z"/><path class="cls-11" d="M105.8,197.24c2.88,1.58,5.69,2.81,9.26,2.14a21.7,21.7,0,0,1,8.77.57c4.58,1.06,9.15.58,13-2.58A15.74,15.74,0,0,0,140,198c3,.24,5.7-1.5,8.7-1.06a7.33,7.33,0,0,1,4.43,4.57c-2.2,2.22-3.79,6.23-8,2.74a9.6,9.6,0,0,0-2.58-1.34c-8.76.09-17.58-1.68-26.19,1.31-1.76.61-3.64-.26-5.45.14-1.54.9-3,2.12-4.91,2a11,11,0,0,1-3.65-.88c-2.38-1.43-5.15.39-7.55-.86,1-3.54-.67-8.14,4-10.25a5.26,5.26,0,0,1,4.06,1.89c0,.34-1.5.79.09,1C103.93,197.33,104.87,196.73,105.8,197.24Z"/><path class="cls-12" d="M101,101.23C99,91.8,96.5,82.5,93.64,73.29c0-2.38,2.34-1,3.22-2a13.69,13.69,0,0,1,3.29-.53A2.89,2.89,0,0,1,102.5,73c.78,2.4-2.9,3.2-2,5.64.14.41.25.83.37,1.25.86,3.75,1.67,7.54,6.75,7.48,2,3.09,2.21,6.54,2,10.06a2.46,2.46,0,0,1-.82,1c-.31.42-1.17-.63-1.2.28a8.51,8.51,0,0,0,1.58,5.33,2.09,2.09,0,0,1-.17,1.33,3.75,3.75,0,0,1-1.13.76c-1.76.62-3.33.57-4.06-1.49A9.33,9.33,0,0,0,101,101.23Z"/><path class="cls-13" d="M81.7,196.39l4.09.91c2.62,1.58-.22,4.56,1.64,6.34a5.47,5.47,0,0,1,.95,1.8,3.26,3.26,0,0,1-1.16,3.13,13.22,13.22,0,0,1-4.3,2c-2,.13-4.06.42-5.79-1-3.5-4-8.28-6.66-11.88-10.6a3.94,3.94,0,0,1-1.31-1.6c-.37-1.78-1.66-2.1-3.24-2.14s-3.21.45-4.66-.56a.92.92,0,0,1-.35-.8c0-.3.09-.45.17-.45A62.49,62.49,0,0,1,73,194c.35,1.61,2.25.95,3,2,.27,1.55.55,3.17,2.44,3.49.68.12.77-.79.92-1.38C79.5,196.76,80.82,196.88,81.7,196.39Z"/><path class="cls-14" d="M43.81,220.26c.44.45,1.11,1.37,1.28,1.29,2.16-1.08,2.61-4.21,5.45-4.55-.65-1.65-.77-3.52-2.23-4.82a4.59,4.59,0,0,1-1.77-3.6c3.63-1.17,4.92,2.36,7.28,3.65,2.63,3.55,4.86,7.26,4.37,12a2.73,2.73,0,0,1-1.16.73c-3.53.48-4-2.69-5.42-4.72C50.29,221.28,50.13,223,49,224c-.32.35-.57.76-.88,1.12.44-.1.35-.6.64-.82a5,5,0,0,1,.78-.56c2.23.13,3,1.42,2.9,3.51a6.25,6.25,0,0,1-7.63,2.58c-2.58-1.09-2.72,1.16-4.07,1.42-2.24-4-5.46-7.18-8.87-10.18C35.67,217.84,39.82,220.19,43.81,220.26Z"/><path class="cls-15" d="M137.72,191.26a6.54,6.54,0,0,1-2-4.08c1-.93,2.84-.62,3.4-2.24a2,2,0,0,1,1.58-1,4.52,4.52,0,0,1,1.17.62c3.53.56,6.19-2.89,9.87-2,5.41,1.35,7.62-3.37,10.86-6.09a1.61,1.61,0,0,1,1.05-.87c3.34,1.06,7.58.15,9.54,4.29-2.3,3.43-6.37,4-9.61,5.9a30.36,30.36,0,0,1-6,2.21c-2,.87-3.49,2.87-6,2.65C147,191.31,142.37,192,137.72,191.26Z"/><path class="cls-16" d="M78.77,34.4c4.25.21,6.87-1.42,8.59-5.66,1.29-3.16,3.36-6.5,7.35-7.44a1.85,1.85,0,0,1,.6,1.92c-1,2.44-3.17,4.07-4.11,6.39,4.07-2.35,4.32-2.22,5.2,2.68-2,4.36-3.68,8.89-7.26,12.3A3.63,3.63,0,0,1,87,45a3.31,3.31,0,0,1-1.28-.51,10,10,0,0,0-3.62-5.91c-.89-1.08-2.32-1.12-3.42-1.76C77.33,36.06,77.3,35.18,78.77,34.4Z"/><path class="cls-17" d="M93.78,236.36c2.65,1.45,5.19,3.23,8,.09.64-.71,2.18-.39,3.1.52,0,.66.15,1.32.12,2a12.38,12.38,0,0,1-.41,3.32,2.24,2.24,0,0,1-1.36,1.36c-2.07-.12-4.2-1-6.18.37-3.62.73-7.71-1.58-10.29-.84-4.32,1.26-8.41.3-12.51,1a24.32,24.32,0,0,1-4.43,0c2-3.78,5.91-1.52,8.73-2.7.66-.14,1.32-.24,2-.35,1.79-.12,3.07-.79,3-2.88,1.3-2.36,4.29.48,5.6-1.85C90.7,235.64,92.26,234.69,93.78,236.36Z"/><path class="cls-18" d="M108.82,105.18v-.91c-.57-2-2.24-3.79-.87-6h.91c3.43,1.51,5.35,3.88,4.48,7.85,1,1.57,2.76,2.28,4.13,3.41,3.74.93,1.16,3.94,1.92,5.86a11.52,11.52,0,0,1-6.64,7.25,2.2,2.2,0,0,1-1.69-1.08c-1.06-3.07-2.51-5.77-6.18-6.29a.62.62,0,0,1-.19-.79c-.53-2.1,1.32-2.76,2.35-3.91C109.18,109.26,108.27,107,108.82,105.18Z"/><path class="cls-19" d="M52.81,198.23c-3.17-2.22-5.52,2.17-8.61,1.08-1-.35-2.86,1.84-3.12-.48s2.34.35,3.12-1.51c-2.53-1.3-3.4-5.38-7.58-4.27a1.2,1.2,0,0,1-1.54-.89c-.56-2.3,2.21-1.54,2.71-2.9,2.1-2,4.91,1,7-1,3.09.3,6.65-1.6,9,2,1.4,5.78-2.77,3.74-5.36,3.88,2,.28,4.21.22,4.85,2.87A2,2,0,0,1,52.81,198.23Z"/><path class="cls-20" d="M124.84,235.14c2.32,0,2.43,3.46,4.95,3.11.29.69.59,1.38.89,2.08-.48.62-1.26.59-2.07.91,1.14-.08,2.08.38,3,.12,3.39,1.22,6.53,3.91,10.53,1.09.79-.56,2.77.49,4.18.88,1,.27.26.59-.08.7a7.89,7.89,0,0,1-1.47.2c-.68.63-1.37,1.25-2.06,1.87l-16,.35-3.85-.45c-1.51-1.71-1.74-3.92-2-6C120.47,237.15,121.49,235.11,124.84,235.14Z"/><path class="cls-21" d="M129.79,157.47a41.74,41.74,0,0,1-15.06-17.19c1.64-.8,3.23.83,4.88.09,3.15-.18,5.81.22,6.63,4.09.33,1.59,2.25,2.29,3.35,3.5,2.6,2.85,3.48,5.88.86,9.23Z"/><path class="cls-22" d="M118.86,141.16c-1.92,2.24-2.67-1-4.13-.89-5.22-7.58-7.85-16.19-9.85-25.05,5.81-2,5.9,2.56,6.92,6a48.83,48.83,0,0,0,4.59,13.17,14.49,14.49,0,0,1,1,1.73C117.87,137.84,119.39,139.21,118.86,141.16Z"/><path class="cls-23" d="M40.77,231.26a7.12,7.12,0,0,0,1.08-4.37c3.57,4.14,6.77,1.1,10,.34a1.62,1.62,0,0,1,1.89-.34c1.61,1.44-1,2.91,0,4.35q2.28,10.23-8.19,12.13c-1.33-.18-2.79-.28-3.06-2-.21-1.28.53-1.7,4.77-3-1.7-2.29-4-3.7-6.33-5.13Z"/><path class="cls-24" d="M43.81,220.26c-3,1.42-6.09.31-9.12.33a9.07,9.07,0,0,0-2.79.49l-5.41-4.83a3,3,0,0,1,1-1c1.06-.48,2.13-1,3.21,0,1,.24,2.18,1.42,3,0,1.32-2.15,2.9-2.2,5-1.21,1.78.85,1.31-1.33,2.15-1.79,1.36-.06,2.46.08,2.9,1.77C44.27,216.12,45.33,218.15,43.81,220.26Z"/><path class="cls-25" d="M86.84,204.24c-3.49-1.84.17-4.76-1-6.94,2.33,0,4.58-.32,6.34-2a5.82,5.82,0,0,1,6.71-1c-.93,1.69-2.79,2.84-1.21,5.46,1.41,2.33-3,2.13-2.82,4.42A7.71,7.71,0,0,1,86.84,204.24Z"/><path class="cls-26" d="M193.83,243.21a9.11,9.11,0,0,1,4-4c4-.95,7.78-3.32,12.17-2.1a4.74,4.74,0,0,1,1.08.87c2.61,3.1,1.81,5.2-1.9,6.45-1.37.62-3.06.41-4.2,1.65l-9.18.06c.31-.51.16-1.24-.27-1.28C194.52,244.76,193.52,244.65,193.83,243.21Z"/><path class="cls-27" d="M151.74,130.06c-3.47,1.15-.73,3.44-1,5.19-.28,2.06,1.45,5.35-3,4.92-2.79-3.59-2.21-8.52-4.84-12.18a3.5,3.5,0,0,1-.76-1.14,20.14,20.14,0,0,0-1.35-4.68c-1.56-3,.08-7.82,3.08-9.37.39-.2.93.17,1.29.53.89,1.4.82,3.1,1.44,4.59,1.14,2.7,1.48,5.7,3,8.27C150.07,127.63,152,128.25,151.74,130.06Z"/><path class="cls-28" d="M137.72,191.26c4.61-1.7,9.39-1,14.12-1.06.55,1.59-1.41,2.45-1.12,4a3.5,3.5,0,0,1-1.3,2.84l-.62.19a22.94,22.94,0,0,1-9.86,2,20.15,20.15,0,0,0-1-7C137.87,191.89,137.79,191.57,137.72,191.26Z"/><path class="cls-29" d="M192.81,220.2l-1.12-1.06c-3.56-1.93-7.34.81-10.93-.53a2.42,2.42,0,0,1-1.24-1.6c1.18-1.63,1.2-3.79,2.49-5.38a14.43,14.43,0,0,1,6.38-1.77c2.24-.19,4.61-1,6.3,1.34A9.93,9.93,0,0,0,197.1,216C194.34,216,196.14,220.73,192.81,220.2Z"/><path class="cls-30" d="M110.05,29.17a4.34,4.34,0,0,1,.7.14,12.75,12.75,0,0,1,1.87,7.09c-1.41,4.19,1.07,9-1.91,12.9a2.44,2.44,0,0,1-1.6,0C104.15,48,99,48.05,94,47.1a2,2,0,0,1-1.37-1.78c1.76-1.88,4.28-1.29,6.4-2,3.57,0,1.26-2.4,1.53-3.75.06-2-.33-4.05,1.39-5.59a2.49,2.49,0,0,1,1.4-.22c1.74,1.85,1.4,4.7,3.15,6.55.45,1,.43,2.23,1,3.55,2.17-4.64.17-9.16.89-13.51A1.9,1.9,0,0,1,110.05,29.17Z"/><path class="cls-31" d="M103.69,34.24c-.31-.06-.62-.11-.94-.14-2.15-3.36-1.37-7.42-2.65-11-.6-1.71-.59-3.62-1.68-5.17C97.6,16.4,97.3,14.6,96,13.35l-.27-1a2.39,2.39,0,0,1-.32-1.92C96,8.57,93.47,5,97.48,5.16c3.15.16,4.9,3.09,4.22,6.15-.57,2.55.32,3.74,2.18,4.84l.92,1.25c-.4,1.52.31,3,.32,4.48s0,3.25.08,4.88C105.09,29.34,105.89,32.1,103.69,34.24Z"/><path class="cls-32" d="M134.86,184.1l-2.25-16.69c-.44-1.56-.51-3,.83-4.27,3.93,2.4,9.12,1.53,12.71,4.84,0,2.18-1.3,3.06-3.18,2.74-3.95-.68-5.46,1.24-5.64,4.83.57,3,.93,6-1.15,8.61A.86.86,0,0,1,134.86,184.1Z"/><path class="cls-33" d="M205,226.14c-2,3.2-4.21,1.16-5.52-.37-1.82-2.1-.72-4.41,1.33-5.92,2.85-2.1,5.57-4.23,7-7.62l0,0c2.28-1.47,2.3.9,3.14,1.86s1.1,1.56-.25,2.12c-.19,2.11-4,1.26-3.32,4.1.47.95.41,2.13,1.33,2.86.07,1.3-.36,1.67-1.71,1.22S204.8,224.5,205,226.14Z"/><path class="cls-34" d="M155.79,143.46c3,1.52,4.81,4.62,8,5.81.68,1.42,2.65,2.09,2.32,4.08a6.89,6.89,0,0,1-4.37,3.45c-1.9.36-3.16-.78-4.45-1.87-1.89-2.19-5.55-2.89-5.61-6.62.35-.73.94-1.79,1.52-1.7C156.05,147,155,144.58,155.79,143.46Z"/><path class="cls-35" d="M40.94,233.26c2.08,0,4.44-.74,5.19,2.34.48,2,2.92,1.06,4,2.39a6.18,6.18,0,0,1-4.81,2.28c-.75.07-2-.16-1.88,1s1.54.82,2.43,1c.46,1.73-1.32,1.89-2,2.83-1.74,0-3.57.56-5.07-.84.25-2.36-2.55-1.75-3.17-3.27C37.32,238.37,40.89,237,40.94,233.26Z"/><path class="cls-36" d="M207.75,176.2c1,0,2,0,3,0,3.78.09,6.81,1.71,6.87,5.67s-2.92,5.59-6.79,5.37c-2.4.38-3.15-1.58-4.28-3-.23-2.4,2.17-2.49,3.35-3.77C208.75,179.25,205.8,178.9,207.75,176.2Z"/><path class="cls-37" d="M161.83,156.22l3.83-2.88c1.25,0,2,.8,2.82,1.6,1.3,1.5,1.93,3.44,3.26,4.93,2.36,1.76,4.17,4.62,7.79,3.68,3.08-3.39,3.81.41,5.35,1.75-1,2.3-3.37,1.87-6.15,2.12l6.21,3.75a2.61,2.61,0,0,1-1.89,1c-3.62-.24-5.91-2.75-8.38-4.94a11.57,11.57,0,0,0-2.55-2.07,20.59,20.59,0,0,1-2.84-1.65C167.41,160.44,162.88,160.1,161.83,156.22Z"/><path class="cls-38" d="M66.77,244.1l-7.95.07c-4.6-3-1.16-5.06.83-7.31,1.63-.88,3.33-.24,5-.22,2.28.35,4.47,1.1,6.74,1.46,1,.15,2.16.37,2.35,1.45.23,1.39-1,2-2.08,2.36C69.91,242.42,68.56,243.75,66.77,244.1Z"/><path class="cls-39" d="M66.77,244.1c1.57-2.14,4.28-2.74,6.86-4.7-3.84-.19-6.9-.63-9.7-2.08,1.08-2.87,3.91-2.75,6.18-3.61,6.06.75,8.67,3.29,8.73,8.48-2.77,1.73-6.26,0-9,1.9Z"/><path class="cls-40" d="M197.79,202.22a4.75,4.75,0,0,1-1.86,4.15,4.56,4.56,0,0,1-3.06-.77c-3-1.63-6.36,1.16-9.32-.78-2.35-1.6-2.57-4.21-3.15-6.65a2.39,2.39,0,0,1,1.92-2.53,2.89,2.89,0,0,1,3,1.94c.64,1.49,1.51.61,2.34.34a2.52,2.52,0,0,1,2.34,1C192,201.45,196.11,199,197.79,202.22Z"/><path class="cls-41" d="M103.88,16.15c-2.48-.43-4.65-1.25-3.07-4.34.89-1.74-.21-2.75-.75-4a2.88,2.88,0,0,0-3.23-1.71c-1.66.25-.78,1.83-.94,2.82a32.36,32.36,0,0,0-.2,3.42C94,9,94.44,5.36,95.08,2.21c.8-3.89,4.51-1.32,7.07-2C100.6,6,102.39,11.08,103.88,16.15Z"/><path class="cls-42" d="M85.86,43.93a3.11,3.11,0,0,0,.9.43,21,21,0,0,1,3.59,5.22C90.93,50.78,91.51,52,90,53a2.53,2.53,0,0,1-3.5-.54c-1.26-1.28-2.06-2.94-3.4-4.16-1.78-1.37-2.33-3.74-4.15-5.09l-3.15-3.92c0-2.84,0-2.84,4.53-1.82A19.15,19.15,0,0,1,85.86,43.93Z"/><path class="cls-43" d="M208.75,244.12a52.12,52.12,0,0,0,2-5.7c3.77-2.22,7.64-3.63,11.92-1.33-2.59,4.7-6.68,7.21-11.85,8.13C209.65,245.75,209.13,245.08,208.75,244.12Z"/><path class="cls-44" d="M200.86,194.27l-1,1.9a4.41,4.41,0,0,0-5.3,0c-2.16.81-4.28,1.45-5.07-1.74.52-1.63,2-2.06,3.36-2.48,2.87-.86,3.74-2.82,3.34-5.59,1.34-3.7,5.21-2.17,7.62-3.68a2.42,2.42,0,0,1,1.29.5,3,3,0,0,1,.46,1.3C203,187.27,202.9,191.23,200.86,194.27Z"/><path class="cls-45" d="M206,235.19c-.49-2.5,2.47-3,2.91-4.93,2.27.86,4.35,1.5,6.77-.17,1.62-1.11,4-1.82,5.21,1.12a10.41,10.41,0,0,1-2.9,4.58,9.5,9.5,0,0,1-6.82.27C209.49,235.27,207.6,235.94,206,235.19Z"/><path class="cls-46" d="M31.82,186.22c-2.36,1.77-5.44.65-7.91,2-2.78.11-5.58-.61-8.35.21-2,0-4.14.48-5.82-1.19C12,183.82,14.83,182.76,19,184S27.65,184.76,31.82,186.22Z"/><path class="cls-47" d="M124.84,235.14c-5.83,2.7-1.13,7.26-1.92,10.86l-2,.09c-.06-3.55-4.16-5.5-3.18-9.84,1.14-5,1.27-5.54,5.83-2.57A7.37,7.37,0,0,1,124.84,235.14Z"/><path class="cls-48" d="M43.87,245.12c-.21-1.56,1.37-1.86,2-2.83,2.87.21,4.44-1.83,6-3.67C54,236,55,233.33,49.57,231.35l4.08-.24.66.11a5.55,5.55,0,0,1,2.95,3.36c.1,1.27,1,2.3,1.12,3.57-1.1,2.74-4.67,2-6.08,4.45,1,1,2.91.2,3.67,1.73C52,245.88,47.91,245,43.87,245.12Z"/><path class="cls-49" d="M170.79,160.26l-3.18-4.84c-.59-1.42-.31-2.52,1.2-3.13l10,4c.71,2.52-.92,3.56-2.81,4.44C174.25,160.79,172.47,161.13,170.79,160.26Z"/><path class="cls-50" d="M96,13.35c2.7-.06,2.69,1.92,2.84,3.78,1.48,3.32,1.29,6.91,1.7,10.4-.92,1.8-1.33,3.82-2.35,5.58-1,.54-1.68.18-1.75-.79-.2-3.1-1.61-6-1.29-9.18-.13-.62-.26-1.23-.4-1.84C95.13,18.65,95.54,16,96,13.35Z"/><path class="cls-51" d="M155.79,143.46c.52,1.52,1.05,3,2.1,6.08-2.52-2.77-4.28-2.27-6-1.27l-.64-.22a5.24,5.24,0,0,1-1.67-2.84c-.56-1.66-2.23-2.37-3.14-3.71-.78-1.14-1.52-2.41.82-2.66l.58.37c.93,1,1.6.88,1.9-.46s-.22-2.62,1.07-3.5l0,0c1,2.2,1.31,4.8,3.71,6.15Z"/><path class="cls-52" d="M103.69,34.24l.3-8c.71-.39,1.53-.12,2.26-.38a4.74,4.74,0,0,0,1.68-.8c1.26,1.07,1.58,2.64,2.12,4.09l-1.28,1.25c-.4,3.43-.56,6.94-3.12,9.67C103.16,38.76,103.23,36.57,103.69,34.24Z"/><path class="cls-22" d="M107.87,111.18l-3.18,3.25c-1.9-4.21-2.64-8.75-3.66-13.2,2.1-.09,3.59.56,3.79,3s2,.75,3,1.06A5,5,0,0,1,107.87,111.18Z"/><path class="cls-53" d="M175.82,160.23a10,10,0,0,0,3-4c7,1.74,8.17,3.42,6.07,9.05-2,1.32-2.56-4.43-5-1l-.54-.4a5.62,5.62,0,0,0-3.13-3.18C176.11,160.58,176,160.41,175.82,160.23Z"/><path class="cls-54" d="M204.78,183.32c-.29-.08-.59-.15-.89-.21a11.92,11.92,0,0,1-6-2.36,4,4,0,0,1-.71-1.07c-1-1.87-5.11-1.84-4-4.21s3.79.4,5.83.22a1.24,1.24,0,0,0,.84-.47,6.56,6.56,0,0,1,4.89,1.18C206,178.69,208.73,181,204.78,183.32Z"/><path class="cls-55" d="M16.8,187.23a7.41,7.41,0,0,1,7.11,1c-1.38,5.11-5.6,3.71-9.1,4-2.43-1.9-5.69-1.36-8.28-2.81.45-1.06,1.54-.66,2.3-1L8.78,188C11.46,187.82,14.38,190.16,16.8,187.23Z"/><path class="cls-56" d="M151.74,130.06c-.77-1.08-2.47-1.25-2.75-2.82.72-2.51-3-5.16.23-7.59a2.65,2.65,0,0,1,2.74.53C155.9,125.11,155.85,127.59,151.74,130.06Z"/><path class="cls-57" d="M200.86,194.27c0-2,1.5-3.7.6-5.82-1.39-3.3,4-1.39,3.37-4.25a1.37,1.37,0,0,1,2,0c2.14,0,2.27,2.59,4,3.06C207.17,189.1,203.25,190.61,200.86,194.27Z"/><path class="cls-58" d="M139.74,75.24c-4.34,2.93-6,1.86-9.08-5.88a.67.67,0,0,1,.26-1l2.88-.11C135.36,71,138.5,72.29,139.74,75.24Z"/><path class="cls-59" d="M111.77,36.2l-1-6.89,5,4.84c-1.41,1.35-1.31,2.74-.12,4.16.75,2.61,1.41,6.3-1.54,6.69s-2.43-3.59-2.78-5.92A3.9,3.9,0,0,1,111.77,36.2Z"/><path class="cls-60" d="M194.83,195.2c2-1.61,4.11-3.23,5,1a12.45,12.45,0,0,0-2.07,6c-2.19-1.22-4.66-.51-7-.95-1.45-.27-1.48-.86-1.1-1.92.15-.17.31-.33.45-.5C192.5,198.63,194.18,197.58,194.83,195.2Z"/><path class="cls-61" d="M56,244.33,49.62,244c1.18-4.45,6.13-3.76,8.25-6.66a1.28,1.28,0,0,1,2-.05c-.11,2.32-4.19,4.05-1,6.86Z"/><path class="cls-62" d="M209.64,209.17c2.35-3,5.43-4.61,9.89-4.87-2.11,3-3.9,5.5-5.68,8C211.67,212.3,209.84,211.82,209.64,209.17Z"/><path class="cls-63" d="M102.7,243.37l1.29-1.19c2.78-1.46.4-2.67-.18-4l1.08-1.25c3-.14,3.91,2.08,5,4.2-.08,2.18,4.45,1,3,4.11l-2.16.22c-2.59-.66-5.46.36-7.89-1.28-.32-.15-.44-.33-.37-.53S102.61,243.37,102.7,243.37Z"/><path class="cls-64" d="M152,120.18l-3.07.13c-1.92.64-2.13-1.29-3.11-2-1.46-1.41-.77-3.3-1.11-5,.13-1.66.78-2,2.06-.82l1,.79A10.75,10.75,0,0,1,152,120.18Z"/><path class="cls-65" d="M210.72,235.14c2.4.22,4.81.69,7.2-.06,2.09-1.68,4.21-4.36,6.05.23l-1.3,1.78-11.92,1.33a1.7,1.7,0,0,0-.71-.32C208.91,236.8,208.6,235.69,210.72,235.14Z"/><path class="cls-66" d="M206.8,184.18l-2,0c0-.29,0-.59-.05-.88,2.22-2.33-.8-4.61-.07-6.92l3-.2c0,1.36,0,2.57,2.11,2.3a2.13,2.13,0,0,1,2.48,1.84c0,1.44-1.23,1.78-2.43,1.84A3.39,3.39,0,0,0,206.8,184.18Z"/><path class="cls-67" d="M182.79,171.27l2.15-.1a14.65,14.65,0,0,1,7,1.9,8.27,8.27,0,0,1-1.33,2.16c-1.46,2.66-3.3,3.41-5.72,1.12a10.1,10.1,0,0,0-2.8-1.85C180.65,173.07,181.43,172.11,182.79,171.27Z"/><path class="cls-68" d="M192.81,220.2c.48-.42,1.41-1.13,1.35-1.23-3.12-5.07,1.46-2.51,2.94-3a5,5,0,0,0,3.7-.81c-.39,3.75-3.43,4.85-6.2,6.32C192.79,222.46,192.65,221.68,192.81,220.2Z"/><path class="cls-69" d="M224,235.31c-1.92-2.71-4-.71-6.05-.23,1.13-1.18.2-3.91,2.93-3.87l.42-.24c2-1.1,4.58-1.68,5.66.23S225.24,234.08,224,235.31Z"/><path class="cls-70" d="M189.81,174.23c.38-1,1.37-.88,2.15-1.16l7.86,2.15c.56,1.43.42,2.37-1.42,1.73-1.5-.52-2.93-1.24-4.81-2,.7,2.79,4.11,1.79,4.23,4.33C193.34,180.46,191.27,177.84,189.81,174.23Z"/><path class="cls-71" d="M20.83,207.21c1.18.77,2.31.58,3.7.33,2.48-.44,4.22.51,3.18,3.57-.33,1.71-1.6,2.52-3,3.18C23.15,212.06,21.05,210.14,20.83,207.21Z"/><path class="cls-72" d="M86.8,66.23c-3.91-4.36-4.13-9.88-4.75-15.26,1.68-.56,2.3.49,2.75,1.8-.19,3.64,3,6,3.53,9.4C88.17,63.65,88.07,65.16,86.8,66.23Z"/><path class="cls-73" d="M86.8,66.23c.27-1.36-.57-3,.93-4.05,3.07,0,3.31,2.65,4.22,4.65-.24,1.85,2.36,3.32.74,5.36C88.08,72.83,88.79,68.2,86.8,66.23Z"/><path class="cls-5" d="M52.82,197.22c-1.13-3-5-1.19-6.6-3.92,2.43-1.3,7.24,2.76,7.61-3.09.67,1.06,1.35,2.12,2,3.18.06.33.12.66.19,1a2.15,2.15,0,0,1,.24,1.43C55.53,197.26,54.65,198.42,52.82,197.22Z"/><path class="cls-74" d="M133.94,163.15a8.38,8.38,0,0,0-1.33,4.26c-.48-3.44-3.42-6.19-2.82-9.94a.3.3,0,0,1,0-.5c1.39,0,1.34-1.9,2.67-1.95,2.11,1.49,2.05,3.85,2.39,6A2.92,2.92,0,0,1,133.94,163.15Z"/><path class="cls-75" d="M193.83,243.21c1,1.64,2.94.4,4.22,1.42l-2.26,1.52-6.94,0c.31-.66.61-1.32.91-2A3,3,0,0,1,193.83,243.21Z"/><path class="cls-76" d="M80.57,38.36c-1.54.62-3.79-2.46-4.8.92-1.67-2.48-1.12-3.36,3-4.88-.74,1.62.15,1.9,1.5,1.83s2.47.4,2.57,2A1.88,1.88,0,0,1,80.57,38.36Z"/><path class="cls-77" d="M83.8,53.21c-.26-1-.23-2.23-1.75-2.24q-1.58-3.88-3.13-7.77c2.44.36,2.74,3.28,4.83,4,.53,1.92,2.57,3.47,1.42,5.8A.92.92,0,0,1,83.8,53.21Z"/><path class="cls-78" d="M107.93,25.08l-.48,2.23-1.35-1.23c-2-1.17-.91-3.72-2.27-5.18.33-1.17-.51-2.66,1-3.51C106.31,19.76,107.9,22.1,107.93,25.08Z"/><path class="cls-79" d="M16.8,187.23c-2.08,6.47-5.24,1.66-8,.77l1-.76Z"/><path class="cls-80" d="M35.63,241l5.64.55c.22,2.18-2.11,1.45-2.47,2.72-1.62.08-3.41.43-4.33-1.39C34,242,35,241.46,35.63,241Z"/><path class="cls-81" d="M192.8,205.17c1.17.06,2.42-.07,3.13,1.2a2.36,2.36,0,0,1-.21.82c-1.31,2.63-3.2,3.41-5.82,1.78a2.86,2.86,0,0,1-.66-1.28C189.5,205.54,190.78,204.84,192.8,205.17Z"/><path class="cls-82" d="M92.69,72.19c.38-1.94-2.72-2.76-1.59-5,2.92.49,6.35.4,5.7,5l-3.16,1.07C93.33,72.92,93,72.56,92.69,72.19Z"/><path class="cls-83" d="M81.7,196.39l-2,1.7c-1.92.75-2.83-.69-3.89-1.8-1.09-.59-3.84,1-2.87-2.26C76.09,194.05,78.87,195.29,81.7,196.39Z"/><path class="cls-84" d="M8.83,188.37l-2.3,1c-2-.37-4.24.61-6.53-1.81C3.4,186.9,6.15,186.54,8.83,188.37Z"/><path class="cls-85" d="M44.8,188.24c-1.87,3.56-4.8-.19-7,1-.59-.77-2.8-.16-1.9-2.22Z"/><path class="cls-86" d="M209.64,209.17l4.21,3.14L211,214.12c-1.27-.24-1.58-2.11-3.14-1.86A3.07,3.07,0,0,1,209.64,209.17Z"/><path class="cls-87" d="M138,192.2c.31.55.49,1.36,1,1.62,3.35,1.82,1.87,3.57,0,5.36a3,3,0,0,1-2.07-1.81C138.32,195.87,137.72,194,138,192.2Z"/><path class="cls-88" d="M134.86,184.1a6,6,0,0,0,.95-.08c1.72-.81,2.71.74,4,1.25.35,4.38-2.53,1.77-4.14,1.91A2.92,2.92,0,0,1,134.86,184.1Z"/><path class="cls-89" d="M189.83,208.2c2.32,1.73,4.17.74,5.89-1-.34,1.34-.69,2.67-1,4a10.19,10.19,0,0,0-6-.08A2.37,2.37,0,0,1,189.83,208.2Z"/><path class="cls-90" d="M206.79,220.29c-2.86-1.17-.79-2.28.23-2.91a14.87,14.87,0,0,1,3.73-1.14c0,1.09.38,2.29-.89,3A3.33,3.33,0,0,1,206.79,220.29Z"/><path class="cls-91" d="M168.81,152.29l-1.2,3.13-2-2.08c-.62-1.35-1.23-2.71-1.85-4.07Z"/><path class="cls-92" d="M208.75,244.12l2.07,1.1c-1.75,1.63-3.83,1-5.85.87C205.17,243.38,207,243.75,208.75,244.12Z"/><path class="cls-93" d="M154.54,141.36c-5,.22-2.42-4.13-3.71-6.15Z"/><path class="cls-94" d="M102.7,243.37c0,.29.07.57.12.85L97.06,244C98.64,241.09,100.65,242.05,102.7,243.37Z"/><path class="cls-95" d="M206.79,220.29c.7-1.3,1.94-1,3.07-1-.36,1.32-.73,2.63-1.1,3.95C206.77,223.14,206.79,221.7,206.79,220.29Z"/><path class="cls-96" d="M24.67,214.29c0-2,1.93-2.22,3-3.18l.2.21c1.27,1.93.36,3.44-.94,4.87l-.48.06Z"/><path class="cls-97" d="M105.8,197.24c-1.16.54-2.29,1.21-3.66.89-.76-.18-1.76-.44-1.4-1.38.16-.4,1.41-.37,2.16-.54C104,196.21,105.11,196.12,105.8,197.24Z"/><path class="cls-98" d="M175.78,239.05c.46,5.26-5.08,3.71-7.05,6.21-1,.68-1.77.53-2.12-.73a3.2,3.2,0,0,1,0-4.29c-4.28-2.22-8.07,2.28-12.1.27a1.82,1.82,0,0,1,1.79-1.77c.81-.15,2.25.9,2.16-.83-.07-1.21-1.18-1.23-2.3-.89-1.93.57-1.86-.52-1.33-1.84.07-2.23,1.93-1.81,3.25-2.2,1.85.27,3.29-1.33,5.12-1.15a24.61,24.61,0,0,0,3.75,3.16c.42.62.74,1.53,1.64.45,1.21-1.46,2.59-2.37,4.53-1.28A10.62,10.62,0,0,1,175,236C175.6,236.91,175.26,238.09,175.78,239.05Z"/><path class="cls-99" d="M158.69,234.14c-1.3.35-2.91-.49-3.89,1l-3-.1c-1.85-1.72-4.32-.12-6.3-1.17a2.26,2.26,0,0,1-1-1c0-2.38.38-4.39,3.39-4.41,2.91,1.34,2.15-2.42,3.84-2.78a3.27,3.27,0,0,1,3.23-.67,2.84,2.84,0,0,1,.61,1.91c-.33,2.23,1.7,2.47,2.86,3.47S161.19,232.72,158.69,234.14Z"/><path class="cls-100" d="M144.58,232.72l1.42.51c1.25.79,3.11,1,2.88,3.16-1.42,2.42-2.71,5.26-5.87,1.67-.92-1.05-2-.59-3.21-.35-1.37.27-3.27.89-2.94-1.82.86-.93,3.77.52,2.86-2.46C141.13,231.76,142.8,231.87,144.58,232.72Z"/><path class="cls-101" d="M157.77,245.21c-3.29-.28-6.56,2.79-9.85,0C151.15,241.21,153.58,241.2,157.77,245.21Z"/><path class="cls-102" d="M148.88,236.39c-1-1-1.92-2.11-2.89-3.16,1.61-.13,3.22-.31,4.83-.37,2.13-.08,1.34,1.17,1,2.22Z"/><path class="cls-103" d="M131.66,241.36c-2,2.15-3.74,0-6.21.23,2-2,3.68-1.11,5.23-1.26Z"/><path class="cls-104" d="M166.61,244.53a2.18,2.18,0,0,0,2.12.73c-.6,1.31-1.94.75-2.9,1.13-1.09-.39-3.38.35-3-1.41C163.25,243.06,165.33,245,166.61,244.53Z"/><path class="cls-105" d="M175.78,239.05c-1.74-.49-2.25-1.36-.89-2.83-.24-2-1.1-4-.48-6.13a3.38,3.38,0,0,1,1.6-1.48c3-.67,4.28.86,4.7,3.56.74,1.94-.77,2.89-1.77,4.07C177.78,237.06,176.4,237.62,175.78,239.05Z"/><path class="cls-14" d="M93.78,236.36c-1.82-.7-3.26.85-5,.83a2.23,2.23,0,0,1-1.37-2.4c.09-3.35.27-6.62-4.72-3.64-1.35.79-2.42-.72-3-2-.86-1.85-.61-3.4,1.58-4.17-1-.15-1.85.82-2.87.34-2.24-.53-4.47.29-6.71,0-3.67-2.79-9.95-2.44-10.65-8.89-.1-1-1.46-1.25-2.31-1.74-1.22-1-2.9-1.29-3.93-2.56l5.42-5.2c-1-1.15-4,.55-4.26-2.18-.18-2.36,2.35-2.45,3.44-3.77l3.44-4.12a1.64,1.64,0,0,1,1.94.15l1,1.18c.92,1.54,0,3.27.51,4.84.71,2.29.86,5,4.73,3.72,2.52-.83,4.36,2,6.82,2.35,1.49,1,3.51-.35,4.91,1.09l.58.36c1.4,3,5.71,2.92,6.8,6.28,1.44,3.31,1.64,3.39,3.81,1.29a3.15,3.15,0,0,1,2.13-.87c1.32.12,2.4.57,2.7,2-1,2.91,1.09,3.76,3.13,4.31,1.44.38,2.06,1.1,1.71,2.39-.51,1.86-2,0-3.22.79.7,1.43,3.26,2.15,1.89,4.64-1.19,2.17-2.47,2.37-4.72,2.12A3.91,3.91,0,0,0,93.78,236.36Z"/><path class="cls-106" d="M54.83,212.21c1.56.21,3.65-.66,4,2A26.28,26.28,0,0,0,60.35,221c.13,2.33,1.93,3.26,3.6,4.29,1.4.32,2.92-1.25,4.25.24,0,3.24-2.56,3.45-4.75,4.15a7.82,7.82,0,0,1-2.73-.67c-2.37-.69-3.67-2.06-2.92-4.7-.34-4.36-3.47-7.8-4-12.1Z"/><path class="cls-24" d="M40.81,211.21c-6.11.52-3-2.67-2-5,1.53.24,3.72-.88,4.47.75C44.18,208.9,42,210,40.81,211.21Z"/><path class="cls-107" d="M52.82,197.22A3.3,3.3,0,0,0,56,195a2,2,0,0,1,2.88,1.31c-1.27,1.44-.21,4.45-3.14,4.72-2,.19-2.15-1.67-2.91-2.83Z"/><path class="cls-108" d="M58.86,196.34,56,195a1.42,1.42,0,0,1,.08-.65c3,.55,7.15-2.46,8.76,2.7L62.87,197C61.7,195.63,60.21,196.43,58.86,196.34Z"/><path class="cls-109" d="M109.62,48.14l.18,1.08c.36.23.48.45.35.67s-.24.32-.37.32c2,2.75,5,5.18,3,9.22-1,1.06.05,3.29-2.09,3.73-6.49.7-7,.41-8.57-5.06a7.69,7.69,0,0,1-.54-3.67c.91-2.43,4.45-2.86,4.5-6.18C106.05,47.47,108.35,47.55,109.62,48.14Z"/><path class="cls-110" d="M109.78,50.21a6.55,6.55,0,0,1,0-1c2-2.26.61-5,1-7.46.3-1.86-.65-3.93,1-5.56,0,2.92.2,5.76,2.39,8.79,1.13-2.42.24-4.87,1.52-6.68,2.83.61,4.66,1.85,4.18,5.27s-2.66,5.47-5.71,6.51C112.84,50.54,111.25,50.19,109.78,50.21Z"/><path class="cls-111" d="M111.69,62.16c-.28-1-1.18-2-.49-3.07.09-.15,1,.21,1.54.34.62.91.87,2.13,2.08,2.58,1.54-.25,1.88,1,2.38,2a3.33,3.33,0,0,1,.06,1.37c-.07.22-.15.43-.22.65-2,3.3-5.81,4.15-8.68,6.28a4.1,4.1,0,0,1-3.23.75c-2.52-.69-.1-3.16-1.55-4.25-.47-1.22-1.39-2.3-1.26-3.72.38-1.1,1.36-1.75,2.24-1.17C107.65,65.92,109.64,64.07,111.69,62.16Z"/><path class="cls-112" d="M130.92,68.37c-.09.33-.17.65-.25,1-1.17,1.06-.88,3.22-2.81,3.71-2-.34-4.45,2.36-6-.88-.79-1.78-1.44-3.58-.64-5.53.19-1.54,3.35.12,2.62-2.43,2.76-4.2,2.7,1.76,4.54,1.18,1.3-1.41-.34-3-.29-4.55C132.66,62.24,130.41,65.78,130.92,68.37Z"/><path class="cls-113" d="M123.81,64.23c.41,1.42,2.5,2.16,1.64,4.19-1.72,0-1.9-2.61-3.77-2.2-2.1.54-3.05-1.9-4.94-1.91L114.82,62C118.4,60.39,121.23,61.8,123.81,64.23Z"/><path class="cls-114" d="M180.71,232.17c-1.37-1.48-2.36-3.62-5-2.89a.71.71,0,0,1-1.11-.16c-.2-1.55.91-2.5,1.64-3.62,2-2.07,2.15-5.39,4.68-7.13,3.62-.14,7.43-3,10.78.77-3.36.67-2.25,3.77-3.31,5.65C186.69,227.81,185.11,231.67,180.71,232.17Z"/><path class="cls-115" d="M210.72,235.14c-1.05.8-.71,1.92-.68,3-3.25-1.31-6.11.8-9.11,1.3a5.33,5.33,0,0,1-3.11-.18c1.92-2.95,5.12-3.3,8.14-4C207.54,234.47,209.12,233.28,210.72,235.14Z"/><path class="cls-116" d="M195.89,227.17c-.69.67-1.09,1.6.18,1.72,1.5.15,3.1-.35,2.59,2.1-2-.62-1.64,2.69-2.63,2.13-1.58-.9-4.11-1-4.39-3.53-.18-1.67,1.28-2.54,2.15-3.65a1.65,1.65,0,0,1,2.24-.38C196.82,226.07,196.39,226.66,195.89,227.17Z"/><path class="cls-117" d="M199.75,233.76c1.75-.13,2.42-2.69,4.49-2a1.46,1.46,0,0,1,.08,1.22C203.18,234.52,201.55,234.39,199.75,233.76Z"/><path class="cls-118" d="M144.58,232.72l-4.86.71-5.8-.55a6.93,6.93,0,0,1-2.74-4.78c2.53-2.37.43-5.68,1.69-8.32,4.65-1.69,9.65-.86,14.36-2a3.87,3.87,0,0,1,1.44,0c2.74,1.45,2,3.91,1.83,6.21a6.2,6.2,0,0,1-.2,1.28c-.76,1.2-.3,2.93-1.66,3.86C145.53,228.35,146,231.56,144.58,232.72Z"/><path class="cls-119" d="M114.81,227.17c.18,1.43.36,2.86.65,5.14-2.77-2.88-6.94-3.62-6-8.2-2-.59-2.45,1.81-4,1.58-1.16-1.42.15-2.47.48-3.65a2.41,2.41,0,0,1,3-1.35C111.22,222.54,115.93,222.21,114.81,227.17Z"/><path class="cls-120" d="M131.77,228.27c.87,1.47,2.57,2.55,2.15,4.61-.55,1.57-1.86,1.33-3.09,1.3a12.66,12.66,0,0,0-1.68-2c-2.1-2.44-5.83-3.59-6-7.57a2.76,2.76,0,0,1,.34-1.26c1.19-1,2.78.75,3.93-.58C130.48,223.34,130.71,226.12,131.77,228.27Z"/><path class="cls-121" d="M114.81,227.17c-.44-3.6-4.4-3.51-6.09-5.8a3.41,3.41,0,0,1,2.81-1.83,4.53,4.53,0,0,1,1.37.13,5.34,5.34,0,0,1,3.47,3.07c.68,1.81,2.42,2.46,3.83,3.45,1.82,1,4.9.53,4.68,3.94C120.62,232.24,118.23,228,114.81,227.17Z"/><path class="cls-122" d="M98.75,219.37l-2.84-1.23c-2-1-3.19-2.39-2.38-4.78.93-.77,1.78-.24,2.63.17a5.51,5.51,0,0,0,6.69.35,3.22,3.22,0,0,1,3.43,1.89,2.89,2.89,0,0,1,0,1.34c-1,1.36-2.23,2.6-3.35,3.91C101.77,219.8,100.21,219.71,98.75,219.37Z"/><path class="cls-123" d="M124.88,230.13c-.53-2.93-3.59-1.5-5-2.9-.19-1.6-.42-3.3,1.27-4.24,1.23-.68,2.07.19,2.66,1.24,1.33,2.12,1.65,5.09,5.15,5.3,1.08.06.85,1.59.74,2.57-1.86.64-2.88-.65-4-1.73Z"/><path class="cls-124" d="M102.88,221c-.06-2.05.33-3.73,2.91-3.69,1.84-.17,3.45.7,5.15,1.17.62.35,1.09.8.92,1.6l-3.14,1.27-2.81.67C105.16,220.94,103.93,221.25,102.88,221Z"/><path class="cls-125" d="M112.87,245.28c-.52-1.73-3.48-1.66-3-4.11,1,.17,2,.69,2.85.43,2.42-.75,4.58.34,4.54,2.26C117.18,246.32,114.39,244.79,112.87,245.28Z"/><path class="cls-121" d="M125.69,230.37c1.78-.44,2.51,1.53,4,1.73a2.15,2.15,0,0,1,1.14,2.08,7.23,7.23,0,0,0-3.3-.47C124.55,234.1,124.7,232.38,125.69,230.37Z"/><path class="cls-126" d="M137.82,104.22c4.57-1.38,3.79,1.3,3,4,2.68,1.67,2.64,3.8,1.11,6.26-3.36,5.41-3.21,7.62.79,12.82l0,0c1.16,3-.49,3.54-2.83,3.07-1.24-.25-2.3-1.22-3.56-1.62a3.72,3.72,0,0,1-1.72-2.92,12.63,12.63,0,0,0-.92-3.28,4.67,4.67,0,0,1-.38-3.38c1.94-3.39,4.73-6.5,2.79-11-.54-1.25.16-2.6,1.09-3.65C137.42,104.46,137.62,104.34,137.82,104.22Z"/><path class="cls-127" d="M125,75.23c1.82,2.44,2.91,5.46,5.53,7.25,2.07,1.41,2.45,3.41,2.39,5.66,3.82,4.42,3.72,9.43,2.23,14.67a5.13,5.13,0,0,1-1.14,2.65,2.27,2.27,0,0,1-2.13.09,3.23,3.23,0,0,1-1-1.87c-.46-2,.54-4,0-6-.26-.61-.53-1.21-.77-1.82-2.18-3.26-1.22-7.41-3.12-10.74-1.49-2.06-2.29-4.63-4.54-6.14a3.11,3.11,0,0,1-.2-2.1C122.74,75.74,123.3,74.54,125,75.23Z"/><path class="cls-128" d="M142.74,127.28c-4.81-1.94-6.67-9-2.74-12.38,2.83-2.41,2.2-4.27.84-6.7,3.23-.32,3.42,3.55,5.89,4.28a1.74,1.74,0,0,0-2.06.82c-2.17,3.12-5.7,6-1.78,10.2C144,124.65,142.73,126,142.74,127.28Z"/><path class="cls-126" d="M133.85,102.29c2-4.88.18-9.49-1-14.15,3.24.76,5.67,1.41,4.36,6.15-.8,2.93,2.14,6.44.59,9.93l-.16.1C136.07,104.24,136,101.26,133.85,102.29Z"/><path class="cls-129" d="M125,75.23a3.5,3.5,0,0,0-2.24,1.94c-.72,1.47-1.71,2.09-3.23,1-.69-4.34-2.93-8.36-2.74-12.89l0-.15c2.63-1.06,3.43.9,4.12,2.68.57,1.49.82,3.11,1.92,4.36.89,1.15,1.86,1.46,2.77.09,1.84-2.76,1.85-.4,2.29.79Z"/><path class="cls-130" d="M27,216.19c.31-1.62.62-3.25.94-4.87a3.92,3.92,0,0,1,2.75,3.9Z"/><path class="cls-131" d="M181.82,196.23l-1,2c-.66,1.76-2.14,2.29-3.81,2.75a36.55,36.55,0,0,0-9.85,4.12c-4.37-.51-2.92,3.58-4.29,5.44a2,2,0,0,1-1.94,0c-2.08-1.81-5-.39-7.15-1.77a12.69,12.69,0,0,0-7.18.81c-1.38-.21-1.89-1.23-2.23-2.42a4.35,4.35,0,0,1,1.48-3.86c1,.39,1.68,3.18,3.13.59.89-1.62,3-1.16,3.87-2.58,6.69-2,13.53-3.33,20.27-5.1C176,195.45,178.94,193.87,181.82,196.23Z"/><path class="cls-87" d="M109.81,203.18a135.18,135.18,0,0,1,32.82-1.76c.41,0,.79.54,1.18.83-4.94,2.74-10.3.77-15.42,1.36-2.06.19-4.15-.59-6.15.12,1.63.94,3.77,1.28,3.94,3.69a1.68,1.68,0,0,1-.47,1.18c-1.36.87-3.34.62-4.27,2.32a1.71,1.71,0,0,1-1.14.56c-2.4-2.53-5.89-3-8.76-4.68C110.47,205.83,109.23,204.94,109.81,203.18Z"/><path class="cls-132" d="M95.79,214.22l-2-1c-1.49-3.64,2.8-3.39,3.67-5.47-2.35-2-5.08-.18-7.59-.71-1-.2-1.45-1.14-2.13-1.78l-.89-1,8-.05c2.69.11,5.41-2.08,8.07.12a12.42,12.42,0,0,1,1.58,3.43c-.2,1.85,4.33,2.39,1.41,5-1.7.06-3.42-.2-5.05.47C99.1,213.36,97.67,214.91,95.79,214.22Z"/><path class="cls-133" d="M172.78,197.19c-6.61,1.51-12.84,5-19.95,4a10.3,10.3,0,0,1-4-4v0c4.89-4,5.71-4.08,10.73-.81.86.21-.55,2.28,1.54,1.7a11.45,11.45,0,0,0,3.78-2.27C167.77,194.64,170.52,194.5,172.78,197.19Z"/><path class="cls-134" d="M126.81,202.26h17l2,1a6.91,6.91,0,0,1-1,4c-.19,2.45-1.37,4-3.9,4.44a3.81,3.81,0,0,1-2.45-1.36c-1.31-2.6,1-3.7,2.69-5.08-2-.94-3.32.36-4.76.42a3.59,3.59,0,0,1-1.4-.33c-1.43-.92-3.09-.58-4.64-.86S126.91,204.71,126.81,202.26Z"/><path class="cls-135" d="M103.89,208.12a4.89,4.89,0,0,1-1-3.81l2.85,1c2.24.69,4.89.49,6.35,2.9a1.79,1.79,0,0,1-.33,1.4C108.59,212,106.13,210.63,103.89,208.12Z"/><path class="cls-136" d="M111.7,208.34l-6-3.05c1.87.29,3-.88,4.08-2.1L112,206.4A1.41,1.41,0,0,1,111.7,208.34Z"/><path class="cls-137" d="M104.75,68.35c0,1.32,0,2.64-.08,4,2,1.57,2.35,4,3.29,6.1,2.81,3.13,6.63,4.12,10.51,5a3.7,3.7,0,0,1,1.07.9c1.18,2.06-.2,3.93-.85,5.59-1.38,3.53-3.06-.59-4.68-.16a21,21,0,0,1,3.6,14.93c-.41,2.79-3.08,3.71-5.76,1.62,1.75-3.71-1.64-5.5-3-8-.46-3.7-.73-7.42-2.07-11-3.27-1.85-4.29-5.67-7-8h0c-.5-1.22.31-1.85,1.17-2.33,1.69-.94,1.71-2.18.85-3.67l-2-2.07a1.91,1.91,0,0,1,.15-3.06A18.91,18.91,0,0,0,104.75,68.35Z"/><path class="cls-138" d="M100.57,68.37c-1,.74-.72,1.79-.72,2.78-.71,1.25-1.92,1-3,1.07-.2-3.61-4.25-2.81-5.7-5a11.1,11.1,0,0,0-3.37-5.06c-1-3.11-5.29-4.81-3.93-9a4.9,4.9,0,0,0,.94,0c2.45,1,5.5,0,7.59,2.25,1.73,1,4,0,5.6,1.59,1.35,1.59-2.46,4.48,1.38,5.44C99.87,64.4,101.72,66.07,100.57,68.37Z"/><path class="cls-139" d="M99.81,79.23c4.24,1,5,5,7,8-3.16,2.26-4.93,1.3-5.63-2.38C100.8,83,100.27,81.11,99.81,79.23Z"/><path class="cls-139" d="M101.83,73.22c4.47,3.73-.19,4.39-2,6C96.44,75.86,102,75.51,101.83,73.22Z"/><path class="cls-140" d="M108,98.23c-.34,2.1,2,3.81.87,6-3.67-1.71-2.12-4.53-1.53-7.15.12.06.31.1.35.2A5.74,5.74,0,0,1,108,98.23Z"/><path class="cls-141" d="M107.87,111.18c0-2,0-4,0-5.94q.49,0,1-.06C109.79,107.38,111.45,109.7,107.87,111.18Z"/><path class="cls-142" d="M77.82,209.18c-1,1.48-2.25.67-3,.06-2.63-2-5.05-1.94-7.32.73-1.34-4.17-4.31-7.55-1.71-11.7C69.78,201.91,74.89,204.34,77.82,209.18Z"/><path class="cls-143" d="M82.73,210.27c1-1.41,2.56-1.69,4.11-2,1.93-.46,2.4,1.92,4,2.07,1.52.89,2.1,2.1,1.24,3.77-4,1-7-.62-9.34-3.84Z"/><path class="cls-144" d="M75.84,196.29c1.68-.22,2.44,1.54,3.89,1.8.86,1.38,1.15,2.63-.68,3.5-.83.39-2.09.43-2-.39C77.42,199.26,73,198.67,75.84,196.29Z"/><path class="cls-145" d="M90,211c-2.34.59-1.9-2-3.15-2.72.3-1,.59-2,.89-3l2,.94C91,207.74,91.28,209.33,90,211Z"/><path class="cls-106" d="M53.9,227.29l-2.08-.06a2.83,2.83,0,0,0-3-3h0c.15-1,.3-1.92.44-2.88.23-1.66,1.85-1.92,2.87-2.16,1.18-.26.82,1.44,1.25,2.21.84,1.51,1.67,2.83,3.59,2.92C56.93,226.34,57.65,229.13,53.9,227.29Z"/><path class="cls-48" d="M53.9,227.29c2.89,1,1.69-2.33,3.06-3q.42,0,.84,0c.92,1.33.72,3.56,3,3.77.65,1.06,0,1.69-.75,2.31-2.12-.28-3.54,3.94-6.1,1l-.34-.26C51.48,229.69,53.88,228.56,53.9,227.29Z"/><path class="cls-146" d="M48.8,224.23c.86,4.22-1.31,3.23-3.78,2.3.84-1.86,2.77-1.3,3.79-2.29Z"/><path class="cls-88" d="M162.67,177.22c-2.1,1.4-3.45,3.79-4.55,5.66-2.55,4.31-3.65,1.28-5.31-.28-.23,2-.23,2-2.08,1-1.3,2.51-4.37-.5-5.95,2.05-.93,1.48-2.9,2-3.89-.51.12-3.11-.76-6.12-.92-9.2-.13-2.38,1.25-3.92,3.23-2,2.47,2.41,3.22-.47,4.75-.9a1.32,1.32,0,0,1,1.25.36c.86,1.06,1,3.59,1.22,3.48,2.45-1,4.34.47,6.41,1.06-.18-.75-.53-1.52.31-2.12A5.77,5.77,0,0,1,162.67,177.22Z"/><path class="cls-147" d="M157.82,187.24l4.83-2.12c2.31.57,4-1.07,6.07-1.58a5.28,5.28,0,0,1,3.38.09c.54-1.36.74,4.42,1.44.07a2.8,2.8,0,0,1,1.1-1.59c1.58-.38,2.13.87,2.88,1.82,1,2.2,3.41,3.91,2.33,6.82-.65.82-1.61,1.53-2.53,1.24-4.27-1.31-8.82-.2-13.07-1.55C162.35,188.9,158.75,190.73,157.82,187.24Z"/><path class="cls-148" d="M148.78,173.25a7.16,7.16,0,0,0-1,1c-1.44,2.15-3,2.94-5.09.73a10.09,10.09,0,0,0-1.81-1.21c.09,4.07,2.29,7.73,0,11.32a4.49,4.49,0,0,1-.11-.82c-1.95-3.05-2.21-6.36-1.94-9.91-.75,0-1.62,1.55-3,.84,1.2-3.68,1.75-8.21,7.63-5.33,1,.5,1.73-.67,2.34-1.46,2.5-.95,3.72.41,4.54,2.51A2.16,2.16,0,0,1,148.78,173.25Z"/><path class="cls-88" d="M172.94,180.23c-2.79-3-7-2.39-10.29-4-1.09.81-2.05.52-3.27-.38a31.87,31.87,0,0,1,5.43-4.31,5.54,5.54,0,0,1,2.09-.35c1.41,0,2.76.55,4.18.61,2,.18,4.38-1.13,5.79,1.43,1.59,2.48,2,4.55-1.82,5.12-.53-.34-.78-.93-1.18-1.38a5.1,5.1,0,0,0,.87,1.16,1.55,1.55,0,0,1,.51,1.79,1.65,1.65,0,0,1-1.06.78A1.92,1.92,0,0,1,172.94,180.23Z"/><path class="cls-149" d="M164.82,172.22c-1.57.68-1.35,3.37-3.78,3.24-.73,0-.16.59.21.68a8.1,8.1,0,0,0,1.4.11,6.26,6.26,0,0,1,0,1c-2.07.41-3.86-.82-5.84-1-3.25.53-5.49-1.64-8-3h0c.35-.68.69-1.36,1-2,1.75-2.37,4.11-1.38,6.25-1,1.4.25,2.68,1.32,4.17.3a5.53,5.53,0,0,1,2.85-.28C164,170.57,165.12,170.78,164.82,172.22Z"/><path class="cls-133" d="M157.82,187.24c2,1.93,5.05.12,7,2.07-1.65,4.16-5.76,3.86-9.07,4.71a14.8,14.8,0,0,1-5.91.22c-1.69-2.49,1.33-2.69,2-4C154.08,189.71,155.09,186.73,157.82,187.24Z"/><path class="cls-150" d="M135.85,175.23l3.64-2.66c.45,4.13.87,7.93,1.29,11.73l-1,1c-1.84,1.2-2.53-1.29-4-1.25C136.17,181.09,137.36,178.17,135.85,175.23Z"/><path class="cls-151" d="M172.94,180.23a2.54,2.54,0,0,0,1,0c.63.52,1.51.9,1,2-.92,1.15.13,5.3-3.65,2.21-.71-.57-2.76.53-4.2.81s-3,1.79-4.48-.14C166,183.37,169.1,181,172.94,180.23Z"/><path class="cls-152" d="M91.81,56.23c-1.6-2.77-5.61,0-7.07-3l-1-5.93c1.17,1.59,2.33,3.18,3.51,4.76.63.85,1.38.67,2.19.26,1.26-.64.33-1.25.08-2-.72-2.08-3.09-3.38-2.77-5.93l1.86.15a5,5,0,0,1,3,0,2.07,2.07,0,0,1,.94.79l1.13,1c.22,1.31.53,2.55,1.92,3.14,1.46,1.14,3.12,2.1,3.44,4.17-.15.47-.67,1.15-.84,1C95.47,52.74,94,56,91.81,56.23Z"/><path class="cls-153" d="M91.92,45.11c-1.16.13-2.36.48-3.3-.6q3.54-6.15,7.07-12.29c.73.62,1.11,1.52,1.77,2.19.85,1.76,1.54,3.55,1,5.56A9.52,9.52,0,0,1,91.92,45.11Z"/><path class="cls-154" d="M96.89,34.21c-.88-.38-1-1.21-1.19-2-.31-3.11-1.17-4.61-3.94-1.51-.83.93-1.57,2.23-3.75,2,2.12-3.62,3.52-7.36,7.1-9.62,2.44,1.28,1.31,3.67,1.61,5.56.25,1.57-.49,3.3.91,4.65C98,34.16,97.7,34.41,96.89,34.21Z"/><path class="cls-155" d="M80.57,38.36l2.27-.09c2.09,1.31,4.3,2.55,3,5.66C83.77,42.39,81.67,40.84,80.57,38.36Z"/><path class="cls-156" d="M78.7,224.09c1.57,1.5,3.33-1,5.23.21-.65,2-6,1.33-3,5.1.56.7,1.14,2,2,.2,1-2.13,2.78-1.53,4.25-1,2,.71,1.6,2.64,1.67,4.27.07,1.45-1,2.89,0,4.33-1,3.38-3.61-.92-4.92,1-1.19.83-2.12-.33-3.58-.43.18,1.5,1.75,2.81.8,4.36l-2.27.07c-1.71-4.14-4.48-7.11-9-8.1-.94-3.55,2.58-4,4.18-5.63,1.08-1.11,2.63-1.73,3-3.48A1.7,1.7,0,0,1,78.7,224.09Z"/><path class="cls-157" d="M81.11,242.13c-.33-2.36-3-3.75-2.82-6.45,2.48-.29,3.62,2,5.6,2.52C86.75,242.19,82.52,241.16,81.11,242.13Z"/><path class="cls-158" d="M103.81,238.22c2,0,2.29,1.59,2.74,2.93.22.68.22,2-.13,2.2-1.06.57-1.56-.84-2.43-1.17Z"/><path class="cls-159" d="M131.84,105.26h1.95c3.4,4.86,2.4,7.14-4.38,10-4.46.76-4.36,3.59-3.15,6.93a3,3,0,0,1-1.42,1.58,3.34,3.34,0,0,1-2.09.18c-3.67-1.82-3.89-5.21-4-8.68-.13-.86-2.12-1.38-1.06-2.13,3.09-2.2-.93-1.82-.88-2.84a3.15,3.15,0,0,1,2.26-3c3.16-.48,3.25-1.5,1.67-4.06-2.21-3.59-1.39-6.91,2.12-9.43,2.16.23,3.68,1.13,3.79,3.55-.12,2.26,1.5,4.06,1.3,6.55S130.74,104.08,131.84,105.26Z"/><path class="cls-160" d="M122.73,94.13c-2.21,2.18,1.81,1.65,1.37,3.05-1.4,1.52-2.72-1.12-4.09,0,1.13,4,3.21,7.7,3.24,13.11-3.11-5.3-4.38-.6-6.39,0-1.64-1.37-3.93-1.93-5-4,4.5.36,2.86-.47,4.2-4.19,1.69-4.72-4-7.1-.64-11.14-1.93.22-2,1.89-3.37,1.42.22-5.42,2.51-4.92,6.17-1.43-2.08-3.18,1.2-4.65.84-6.92a7.09,7.09,0,0,1,1.17-4c1-1.49,1.77-.72,2.41.4a15.06,15.06,0,0,1,.45,5.09c-.08,2.23-.5,4.35,1.39,6.39C125.81,93.3,124.16,94,122.73,94.13Z"/><path class="cls-161" d="M118.8,115.23c1,.18,3.29.38,2.5,1.18-3.33,3.4,1,4.61,1.51,6.82-.79,3.42,2.58,7-.3,10.31.68.27,1.54.25,1.83,1.16.24,2.26-.15,4.4-2.56,5.08-2.86.8-3.72-1.84-5-3.56l-.94-.87c-.86-3.23-1.93-6.39-3-9.53a4.76,4.76,0,0,1,0-3.72C114.93,119.94,117.41,118.07,118.8,115.23Z"/><path class="cls-162" d="M112.77,122.1c1.34,3.68,1.13,7.9,4.13,11,1,1-.38,1.64-1.1,2.23-3.46-3.4-2.54-8.71-5.4-12.41-.48-.62.59-1.37,1.4-1.67C112.12,121.55,112.44,121.83,112.77,122.1Z"/><path class="cls-163" d="M116.74,136.22c5.23,4,5.23,4,7.17-2,1.86-.26,2.2,1.84,3.59,2.32a5.29,5.29,0,0,1,2,3.41c0,3.23,2.59,5.29,3.66,8,.18,1.74.09,3.5.25,5.26a2.79,2.79,0,0,1-1.6,2.06c0,1.39-.72,1.94-2.08,1.64,2.15-3.81,1.34-7-2.25-9.31a7,7,0,0,1-3.25-4.48c-.62-2.28-3.5-1.49-5.39-2C117.92,139.61,116.34,138.34,116.74,136.22Z"/><path class="cls-164" d="M136.77,128.19a2.09,2.09,0,0,1,2.9.55c2.28,2.63,2.64.35,3.09-1.41,4,1.56,4,1.57,2.61,5.36-.57,1.51.62,2,1.36,2.8,1.05,1.07,3.24,1.74,1.09,3.72h0c-2.12-1.33-4.26-2.5-6.86-1.33-1.87-1.75-3.84-3.38-5.76-5.09A4,4,0,0,1,136.77,128.19Z"/><path class="cls-165" d="M145.78,118.26l3.1,2a8.06,8.06,0,0,0,1,5c.59,1,.43,1.78-.91,1.94C146.89,124.62,147,121.22,145.78,118.26Z"/><path class="cls-166" d="M149.86,194.24c3-2.27,7-.52,10.16-2.53,1.48-1,3.56-.88,4.82-2.4,4.95.22,9.82,1.62,14.83,1,2.53-.15,3.67,1.49,4.51,3.52a2.47,2.47,0,0,1-.07,1.32c-.54.83-1.71.31-2.29,1.07h0c-3.1-.48-6,.73-9,1-2.66-.3-5.32-2.23-8,.05-1.66,1-3.32,1.35-5,0a9.51,9.51,0,0,0-11,0C149.15,196.23,149.5,195.24,149.86,194.24Z"/><path class="cls-167" d="M149.62,224.28c-.19-2,.93-4.22-1.13-5.84.76-1.39,2.72-.79,3.5-2.13,1-1.1,1.89-2.37,3.58-2.45,1.14.36,2.22,1.06,3.51.75,3.06-.21,5.62-2.52,8.83-2,4.71,1.16,9.36,1.87,13.53-1.57a.76.76,0,0,1,.45,1.07c.2,2.08.43,4.18-2.07,5.18.34,1.58-.88,1.47-1.82,1.67-4.22.43-8.48-1.14-12.68.3-1.9,1-3.77,2.12-6,2-1.83-.14-3.49-.13-4.58,1.85C153.52,225.23,151.59,225.08,149.62,224.28Z"/><path class="cls-168" d="M178.07,218.27a1.85,1.85,0,0,0,1.75-1c.36.37.73.74,1.09,1.12-1.1,2.74-1.49,5.86-4.08,7.82C173.74,223.31,174.28,219.9,178.07,218.27Z"/><path class="cls-169" d="M181.89,212.07a6,6,0,0,0-.09-.84c0-1.66-1.07-3.6,1.23-4.65,2.25.61,4.71.39,6.81,1.64v0c-.38,1-.76,2-1.13,2.92Z"/><path class="cls-170" d="M95,50.12c-1.57-.91-3.56-1.69-1.21-3.83a45.57,45.57,0,0,1,15.88,1.85c-1,.54-3.85-1.47-2.55,2.53.72,2.22-3.67,2-5.34,3.59l-.67-.17C98.92,52.92,97.67,50.39,95,50.12Z"/><path class="cls-171" d="M99.44,28.21c-.34-3.68-1-7.35-.64-11.08,3.64,5.12,3.68,11.07,4,17-1.34,1.8-.73,4-1.26,6C97.9,36.62,98.65,32.42,99.44,28.21Z"/><path class="cls-172" d="M105.65,40.09c.15-3.51,1.83-6.53,3.12-9.67A27,27,0,0,1,109.63,42c-.14,1.38-.48,3.8-2.61,3.44-1.81-.31-1-2.44-1.22-3.83C105.74,41.07,105.7,40.58,105.65,40.09Z"/><path class="cls-173" d="M99.44,28.21c.83,3.93.51,8.06,2,11.86-.68,1.32,2.86,4.21-1.55,4.14-1.81-.71-2.29-2.12-2-3.92l-1-6.08.74-.86C98.38,31.69,96.32,29,99.44,28.21Z"/><path class="cls-174" d="M97.91,40.29l2,3.92c-2.28,1.47-4.86.91-7.33,1.07h-.37l-.32-.17Z"/><path class="cls-175" d="M103.83,20.9a6.51,6.51,0,0,1,2.27,5.18c-.59,1.43-1.38.5-2.12.18Z"/><path class="cls-176" d="M160,171.1c-.1,1.27-.4,1.61-1.82,1a12.59,12.59,0,0,0-8.32-.88c-.82-1.66-2.45-2.15-4-2.77-.89-.5-1.12-1.93-2.74-1.44-4,1.21-6.83-.8-9.14-3.85.07-.68.13-1.36.19-2,1.1-1.93-.44-4.13.62-6.07,3.41-.17,6,1.44,8.37,3.68,1.3,1.25,2.22,3,4.12,3.5,1,.44,2,1,3,1.55,2.22,1.17,3.58,4.7,7,2.59C159,167.45,160.41,168.76,160,171.1Z"/><path class="cls-67" d="M160,171.1c-1-1.3-1.4-3.14-3.14-3.86-.34-1.3-1.33-1.43-2.49-1.85-3.7-1.32-6.52-5.91-6.33-9.75.06-1.12.37-3,1.65-2.31,2.72,1.5,5.57-.53,8.13.86,1.41.55,2.28,2.2,4.06,2,2.59,2.42,6.49,3.34,8,7,1.09.13.68,4.41,3,1.1l2,1.93a7.17,7.17,0,0,1-3.93,6.94l-4.15-1c-1.32-.25-1.89-3.3-3.89-1.05Z"/><path class="cls-177" d="M157.77,154.19c-2.87.22-5.79,3.3-8.82-.4,1.27,4.54.83,9.77,7.11,10.72,1.69.26,1.3,1.59.75,2.73-4.48,1.46-6.43-3.22-9.94-4.11-2.23-3.73-6.47-6.37-6.15-11.47,3.12-3,6.34-5.66,11.08-3.42l.07,0C153,151.12,156.31,151.7,157.77,154.19Z"/><path class="cls-178" d="M170.9,173.18l3.93-6.94c2.68,1.63,4.69,4.32,8,5-.28,1-1.51,2-.1,3,.37.93-.21,1.22-.95,1.42-1.75-1.4-3.84-1.43-5.92-1.5C174.87,170.55,172.37,174.33,170.9,173.18Z"/><path class="cls-179" d="M170.79,160.26a8.79,8.79,0,0,1,5,0l0,0c1.29,1.24,3.65,1.39,3.85,3.76l.27.36c.35,1,.38,2.46-.94,1.63C176.18,164.2,172.5,163.6,170.79,160.26Z"/><path class="cls-178" d="M172.86,164.31c-.09,1.79-.2,3.58-2.43,4.68-.21-2-.4-3.91-.59-5.78Z"/><path class="cls-14" d="M77.83,225.3c-.79,1.08,2,4.14-2.47,3.52-1.59-.23-4.2,2.89-5.53,5.28a15.08,15.08,0,0,1-5.9,3.22c-1.37,1-2.73-.87-4.09,0l-2,0c-1.32-.36-2.79-.67-.94-2.31.55-1.51,2.07-1.93,3.16-2.83s1.46-2.46,2.92-3c1.56-1.39,4.42-1.21,4.83-4,1.15-1.14,2.35.1,3.52-.06C73.5,225.81,75.69,224.16,77.83,225.3Z"/><path class="cls-180" d="M166.84,204.26c3.84-3.89,9.48-3.65,14-6.08,2.35,1.25.5,4.59,2.89,5.83l-.21.64c-3.38,3.61-7.6,4.25-12.23,3.49-1.59-.54-3.37-.6-4.69-1.83A1.64,1.64,0,0,1,166.84,204.26Z"/><path class="cls-181" d="M183.93,195.21c0-.32,0-.64-.05-1,.33-1.51-2.16-3.91,1.63-4.38,1.4-.18.53-2,.54-3,0-2.81,1.38-3.39,3.77-2.66,2.2.95,4.65,1.1,6.83,2.1,2.45,3.24.52,5.07-2.22,6.44a31.74,31.74,0,0,1-4.57,1.5c-1.45,1.56,1.58,3.13,0,4.68l-.13.42-1.85-1.15A5.23,5.23,0,0,1,183.93,195.21Z"/><path class="cls-89" d="M189.84,208.22c-2.44.44-4.85.61-7-1-.81-1.38.28-2.18.95-3.11l-.09-.13a19.4,19.4,0,0,0,7.78-.31c1.7-.37,2.23-.24,1.33,1.47C191.56,205.94,189.88,206.28,189.84,208.22Z"/><path class="cls-60" d="M183.93,195.21c1.4.88,3.2,1.24,3.94,3-.74,1.24-1.47,2.48-3.52,2.9.61-2.47.61-4.66-2.53-4.88A2.14,2.14,0,0,1,183.93,195.21Z"/><path class="cls-182" d="M196.65,186.31c-2.6,1.47-4.67-.36-6.92-1.11a2.4,2.4,0,0,1-.55-1.94c2-3.38,5.32-3.31,8.65-3.17a17,17,0,0,1,6.06,3C202.52,186.53,198.27,183.45,196.65,186.31Z"/><path class="cls-183" d="M189.85,198.93c1.15-1.56-4.83-3.13,0-4.68,1.14,3,3.24,1,5,.95C195.51,199.87,194.58,200.57,189.85,198.93Z"/><path class="cls-184" d="M60.79,233.19,56.93,235,54,231.37c2.31,1.57,3.58-2.3,5.81-1.12A2.33,2.33,0,0,1,60.79,233.19Z"/><path class="cls-185" d="M151.8,148.24c-4.3-.43-7.54,2-11,4-4.21,1.72-6.19-1.1-8.15-4-1.81-2.43-4.95-4.22-3.83-8-.31-5,3.69-5.65,7-7,3-.36,4.22,1.52,5,4,1.1,6.08,2.74,7.4,10,8C151.12,146.21,151.46,147.22,151.8,148.24Z"/><path class="cls-186" d="M150.79,145.19a11,11,0,0,1-2.32.7c-1.47.12-3.2,3.21-3.95,1-1.11-3.28-7.17-4.77-3.69-9.67,3.42-3.19,5.14-.36,7,2-2.37.33-1.19,1.33-.34,2.11C148.76,142.47,150.94,142.82,150.79,145.19Z"/><path class="cls-187" d="M179.65,164c-.91-1.64-3.73-1.32-3.85-3.76C178.61,159.9,180.37,160.66,179.65,164Z"/><path class="cls-188" d="M197.83,180.09l-8.11,3.19c-1.75.56-2.47-1.57-4.05-1.53-1,.65-.25,1.44-.13,2.15.2,1.19.31,2.47-.77,3.19s-2.34.12-3.16-.71a8.09,8.09,0,0,0-4.93-2.12l-1.7-2-1-2c.31,0,.61-.07.91-.08,2-2.05,3.94-4.31,7-4.92l.85-1c1.53-1.35,2.08.41,2.65,1.06,2.33,2.67,3.49,1.31,4.47-1.11,2.35,2.17,4.46,4.73,8,5C197.82,179.51,197.82,179.8,197.83,180.09Z"/><path class="cls-189" d="M134.84,155.16c.11,2,3.12,4.4-.71,6q-1.14-2.9-2.3-5.78l1-2.1C134.43,152.88,135,153.62,134.84,155.16Z"/><path class="cls-190" d="M174.77,230.21c-.48,2,2.86,3.95.11,6l-2.11-.46c.89-2.1-.37-2-1.84-1.89s-2.35,1.65-3.91,1.37-4.53.81-3.34-2.85l.37-.56a9.74,9.74,0,0,1,3.83-1.12C170.23,231.34,172.41,229.6,174.77,230.21Z"/><path class="cls-191" d="M158.69,234.14c1.59-2.73-1-2.84-2.34-3.47s-3.17-1-1.67-3.19c.65-.11-.13.14.46-.13,4.18-1.95,7-.31,9,3.41a1.63,1.63,0,0,1-.16,1.33l-.25.3C161.74,232.18,160.91,235.14,158.69,234.14Z"/><path class="cls-192" d="M167,235.24c1.5-1.09,2.73-2.7,5-2.06,1.83.51,2.06,1.27.74,2.57-1.74-2.85-3.19.13-3.26.69-.15,1.12.07,1.87-1.41,1.5S166,236.7,167,235.24Z"/><path class="cls-193" d="M163.48,231.43c-1.85-1-3.57-2-2.72-5.05-2,2.57-3.85,3.62-6.08,1.09,0-.83,0-1.66-.05-2.5-.42-3.31,2.48-3.5,4.36-4.64,2.26.17,3.87-1.45,5.82-2.11a.86.86,0,0,1,1.23-.07,2.44,2.44,0,0,1,.1,1.39c-.65,1.72-1.72,3.41,1.64,3.55,2.16.08,3.19,1.56,2.1,3.82a4.55,4.55,0,0,1-.92,1C166.71,228.45,166.16,231.62,163.48,231.43Z"/><path class="cls-194" d="M159,220.33c-.41,2.52-3.26,2.77-4.36,4.64a3.17,3.17,0,0,1-2.9,1.21c-1,.5-1.48-.1-1.83-.92l-.28-1c1.79-.91,4.3-.48,4.94-3.53C154.77,219.75,157.35,219.28,159,220.33Z"/><path class="cls-195" d="M149.9,225.26l1.83.92c-.48,1.57-.35,3.76-3.09,2.95C149.36,227.94,147,225.74,149.9,225.26Z"/><path class="cls-196" d="M174.77,230.21c-2.22,1.13-4.34,2.91-7,1-1.31-1.23-1.31-1.23,1.25-3.89l-.09.09c2.62-2.11,4.16.2,5.95,1.46a1.59,1.59,0,0,0,.82.38Z"/><path class="cls-197" d="M90,211c-.07-1.59-.15-3.19-.22-4.79,3.12.06,6.7-2.68,9,1.59-.34,2.9-5.14,1.87-5,5.43.15,1.88,1.24,3.35,2.12,4.92-3.65.47,1.22,2.73-1.14,3.55a24.5,24.5,0,0,1-4.53-1.39c-1.29-.65-3.42-1.79-.28-3.1.59-1.07.78-2.34,1.69-3.25C91.91,212.51,92,211.17,90,211Z"/><path class="cls-198" d="M71,226.08l-3.18-.82c-1.31.67-2.62,1.34-3.94,2a16.86,16.86,0,0,0-4.1-6.07c-1.43-2.18-3.34-4.29-1-7,2.89-.31,4.22.71,4.12,3.88,0,1.06-.68,5.73,3.3,2,1.42-1.35,3,.58,2.89,1.95-.26,2.59,1.46,2,2.77,2.33C72.35,225.27,71.59,225.62,71,226.08Z"/><path class="cls-199" d="M91.65,214c.1,1.44.49,3-1.7,3.25-1.76-3-7.42-1.88-7.18-6.93C85.32,212.49,88.64,212.84,91.65,214Z"/><path class="cls-200" d="M71,226.08l.89-1.77c2.29.72,4.48-1.8,6.79-.22l-.87,1.21C75.59,225.84,73.37,226.56,71,226.08Z"/><path class="cls-201" d="M59.8,221.19c4.46-.07,3.73,3.37,4.1,6.07C62.58,225.21,58.09,225.29,59.8,221.19Z"/><path class="cls-202" d="M60.79,233.19l-1-2.94,1-2.15A2.53,2.53,0,0,1,63,229.24,6.37,6.37,0,0,1,60.79,233.19Z"/><path class="cls-203" d="M111.69,62.16c-1.46,3.62-3.28,6.12-7.28,2.49-.52-.48-1.23,0-1.6.61-1.52,1-3,1.31-3-1.12a19.35,19.35,0,0,1,.38-4.47,3.14,3.14,0,0,1,2.48-2.22C103.59,63,107.71,62.44,111.69,62.16Z"/><path class="cls-204" d="M102.64,57.45l-1.82,1.71a4.1,4.1,0,0,1-2.12-.86,4.84,4.84,0,0,1-.81-.82c-1.7-2-4.65,2.05-6.08-1.25,1.35-3.47,4.49-2.33,7-2.74,1.35-1.05,2,.35,3,.8l-.08,0A4.75,4.75,0,0,1,102.64,57.45Z"/><path class="cls-205" d="M116.74,65.3c2.22,4,3.66,8.19,3.1,12.86-1.73,1.5-2.25,1.44-2.8-.26s.55-3.19.41-5.42c0,0-1,.39-.3.37.22,0,.23.15.18.47-.47,2.71-1.42,4.31-4,1.6A9.18,9.18,0,0,0,110,73a3.72,3.72,0,0,1-2-2C111,69.25,114.4,68.07,116.74,65.3Z"/><path class="cls-206" d="M108,71l1.79,1.25c1.07,1,2.33,1.89,2.79,3.41.41,1.88.31,3.59-1.55,4.73a4.38,4.38,0,0,1-4.13-1.33c-1-2.18-2.12-4.28-2.23-6.74C105.9,72.17,107.25,72.33,108,71Z"/><path class="cls-207" d="M98.61,57.37a2.84,2.84,0,0,1,2.21,1.79c-.15,1.38.78,2.67,0,4.18-1.15,2.24.89,1.7,2,1.92l1.94,3.09c-1.39.55-2.77,2.89-4.18,0-.77-2-2.29-3.71-1.67-6.06C98.62,60.68,97.74,59.07,98.61,57.37Z"/><path class="cls-208" d="M122.8,72.19c-3.27-1.26-1.53-6.83-6-7,0-.28,0-.56,0-.84,2.66-2,3.23,1.45,4.94,1.91C122.05,68.21,122.43,70.2,122.8,72.19Z"/><path class="cls-209" d="M174.88,228.9c-2.3.8-3.6-2.48-5.95-1.46.56-1.6,1.15-3.63-1.39-3.4-1.56.15-2.89.74-3.53-1s.19-3.14,1.91-3.91c1.51.21,2.7,1.76,4.32,1-1.71.31-2.93-.86-4.27-1.75l-1.16-.15c4.43-1.88,8.84-.11,13.26.05-2.55,2.31-3.51,4.86-1.24,7.92Z"/><path class="cls-210" d="M138.81,210.2l2,.9c2.66,2.2,3.52,6.16,7.21,7.34-4.8,2.82-10.21.79-15.22,1.91-1.9,2.82-4.92,1.85-7.54,2.22-2.33-2.92.07-3.6,2.12-4.31,2.79-1,5.84-.82,8.63-2-4.87,1.62-9.68,2-14.44-.29a1.78,1.78,0,0,1-1-1.72,7,7,0,0,1,6.63-2c3.64.64,6.94-1.1,10.27-2.31A1.34,1.34,0,0,1,138.81,210.2Z"/><path class="cls-211" d="M148.06,218.44c-5,.1-5.88-3.84-7.21-7.34,2.18-.43,2.27-3,4-3.9l1.91,2.14c.81,1.43.16,3.59,2.22,4.39,1.19,1.23,2.78,2,3.89,3.33-.73,2.69-2.86,1-4.33,1.38Z"/><path class="cls-212" d="M125.8,222.21l7-1.86c2.27,3,2.26,5.68-1.07,7.92-2.6-.65-2.23-4.35-5-4.87C125.91,223.47,125.47,223.16,125.8,222.21Z"/><path class="cls-99" d="M137.88,229.74c2.43-3.17,2.43-3.17,6.22.2C142.14,230.54,140.25,230.27,137.88,229.74Z"/><path class="cls-213" d="M125.8,222.21l1,1.19c1,2.43,0,1.82-1.32.91-.54-.38-1.1-.72-1.66-1.08a12,12,0,0,1-2.43-1c-.8-1.14-1.3-2.3-.18-3.53,1.18-1-.59-2.45.58-3.42,5.81,1.61,11.53,1.84,17.72-2.72-.85,4.08-2.41,5.28-4.83,5.63s-4.9.62-7.31,1.13C125.93,219.62,124.14,220.08,125.8,222.21Z"/><path class="cls-214" d="M121.82,222.22l2,1c0,.33,0,.66,0,1-4-2.46-2.28,2.43-3.93,3-1.27-.7-2.52-1.45-3.82-2.1s-1.08-1.37-.17-2.17c.86-1.6,2.33-1.84,3.94-1.76A3.77,3.77,0,0,1,121.82,222.22Z"/><path class="cls-215" d="M111.86,220.1l-.94-.89c-1.35-2.27.41-2.88,2-3.43a2.38,2.38,0,0,1,3,1.13c1,1.7.15,2.74-1.43,3.43a1.44,1.44,0,0,1-1.57-.1A5.28,5.28,0,0,1,111.86,220.1Z"/><path class="cls-216" d="M112.83,220.24a3.54,3.54,0,0,1,.84-.2,13.27,13.27,0,0,1,4.72-.42c1.4.14,2.56.78,1.36,2.51l-3.87.83Z"/><path class="cls-121" d="M119.75,222.13c-1.25-3-4.43-.3-6.08-2.09.81-1,3.25-1.84.91-3.18-1.74-1-3.45,0-3.66,2.35a6.05,6.05,0,0,1-5.13-1.88c0-.34,0-.69,0-1,.7-.72,1.73-1.25,1.38-2.55,2.12-2,7.69-2,10.2,0,1.37,1.82,4.25,2.48,4.15,5.41-.83,1.09.57,2,.28,3Z"/><path class="cls-217" d="M95.79,214.22c1.62-1,3.09-2.4,5.25-2,.77.5,2.2.35,1.88,1.92C100.58,218.06,98.19,216.7,95.79,214.22Z"/><path class="cls-218" d="M102.92,214.16,101,212.24a3.63,3.63,0,0,1,4.74.06c1,.29,1.47,1.16,2,1.92.78.49,1.34,1.47.7,2s-1.78.11-2.71.12Z"/><path class="cls-219" d="M135.88,133.23c-1.74,2.94-6.3,3-7,7l-2.06-3c-.53-.38-1.46-1.14-1.25-1.36,2.51-2.68,0-5.89,1-8.67,1.31-1.37,2.51.89,3.9.13.31-.17,1.23,1.13,1.15-.52-.26-4.76,1.87-3.44,4.18-1.6.06,1.09-.17,2.28,1,3C136.47,129.87,136.18,131.55,135.88,133.23Z"/><path class="cls-220" d="M128.82,114.24c4.42-1.46,7.36-3.74,5-9l.06-3c2.23-1.12,3.08.36,3.81,2-.06,2-.52,3.71.18,6,1,3.29-.63,6.85-3.9,9C130.48,119.39,129.22,117.25,128.82,114.24Z"/><path class="cls-221" d="M128.82,114.24c1.7,1.71,2.87,3.93,5.12,5.08.23.94.45,1.88.68,2.82-.68,1.23-2.18-.47-3.33,1.31-1,1.5-4.38,2.7-5.46-1.21,1.38-2.24-4.13,0-2-3.28C125.19,116.84,125.18,113.8,128.82,114.24Z"/><path class="cls-220" d="M125.83,122.24c1.77,2,4.52,1.72,5.41.16,1.45-2.56,2.37.28,3.38-.25l1.17,3c-1,.54-3.27-2.91-3.19,1.95.06,4.32-3.72-.24-5.81,0-1.72-.75-2.64-1.89-2-3.86Z"/><path class="cls-222" d="M122.73,94.13c.1-.88,2.22-1.75,1.17-1.95-4.65-.89-1.13-4.08-2-5.94,1.59-1.72,3-3.86,5.84-2,2.4,3.58,1.71,8,3.08,11.82-.91,2.6-1.89,5-5,2C126.56,95.42,123.69,95.5,122.73,94.13Z"/><path class="cls-223" d="M111.77,75.23a3,3,0,0,1-2-3c2.73-.52,4.37.83,5.26,3.27,1.51-.76,1.41-2.29,2.22-3.56a3.27,3.27,0,0,1,1.12,3.3c-.52,2.53-.37,2.56,1.45,2.91l2.87-1c.07.71.14,1.41.2,2.12s-.23,1.25-1.12,1c-2.22.27-.52,3.44-2.74,3.71L119,84c-1.62-2.19-5.3-.61-6.49-3.58.42-1.93,2.35-2,3.69-3C113.6,78.73,112.88,76.62,111.77,75.23Z"/><path class="cls-224" d="M125.77,98.12c2.53,1.44,3.54-.9,5-2l1,1.08c-.07,2-2,4,0,6.06l.06,2c-1.51.6-2.58,2.56-4.73,1.09s-1-2.67-.11-4C128.31,100.41,123.52,100.3,125.77,98.12Z"/><path class="cls-225" d="M121.79,80.29l1.12-1c.91-.15,2.58-1.87,2.47.31-.12,2.33,2,2.93,2.36,4.68-2.4-.69-3.71,1.88-5.84,2C121.86,84.26,121.82,82.27,121.79,80.29Z"/><path class="cls-222" d="M131.78,103.24c-2.12-.86-2.12-2.63,0-6.06C133.46,99.2,131.06,101.22,131.78,103.24Z"/><path class="cls-226" d="M152.82,217.06c-1.73-.4-3.74-.44-4-2.88-2.81-2.82-1.73-4.47,1.64-5.41a20,20,0,0,1,3.33-.67c.93.3,1.48-2.68,2.44-.42.5,1.17.79,1.58,1.94,1.06,2.21-1,2.22-1,2.62,1.5,0,.23,0,.47,0,.7-.89,2.15-2.68,3-4.82,3.45A4.61,4.61,0,0,0,152.82,217.06Z"/><path class="cls-227" d="M167.81,213.22c-3.14,0-5.57,3.11-8.95,2-1.71-2.6,2.43-2.93,2-5l0,0,1.88-.17c1.51-.32,3-.86,4.53-1.06,1.87-.25,3.68-1.06,5.62-.52,1.43.73,1.39,1.64.16,2.46A12.8,12.8,0,0,1,167.81,213.22Z"/><path class="cls-228" d="M166.83,210.22c-1.38-.33-2.84,1.86-4.16-.15-.53-5.57.32-6.76,4.17-5.81l-.06,2C167.36,207.55,168.19,208.87,166.83,210.22Z"/><path class="cls-229" d="M153.79,208.1a3.26,3.26,0,0,1-2.74,1.85c-3.52.08-2.73,2.17-2.23,4.23-4.37,0-2.88-2.59-2.11-4.84C148.69,206.77,151.11,206.66,153.79,208.1Z"/><path class="cls-134" d="M137.82,210.22c-2.31,3.66-6.85,3.75-9.71,3.42-2.63-.3-4.78.76-7.14.51a2,2,0,0,1-.32-2.94l.23-1c1.22-1.11,2.74-.78,4.14-.74,1,0,2,.46.86-1.06a1.05,1.05,0,0,1-.23-.49c4-4.09,7.6-.51,11.33.61C137.64,208.9,138.23,209.31,137.82,210.22Z"/><path class="cls-230" d="M120.65,211.21c.1,1,.21,2,.32,2.95l.81,1.12c-1.84,1.21,6.74,3-.24,3.92l-4.82-4.95c1.41-4.61-3.77-2.84-4.87-5a5.16,5.16,0,0,0-.14-.89c.1-.65.2-1.3.31-1.94C115.19,207.48,119.11,207.2,120.65,211.21Z"/><path class="cls-231" d="M137.12,209.31c-.92,0-1.82,1-2.76-.07-2.53-2.76-5.61-2.18-8.71-1.32-.66-1.82-1.74-2.95-3.89-2.72-1.55.16-1.38-.81-.94-1.81a88.82,88.82,0,0,1,15,1.63l.1.18C137.67,206.17,138,207.55,137.12,209.31Z"/><path class="cls-232" d="M135.81,205c-5.15.82-10.09-.22-15-1.63,1.05-1.55,1.05-1.55,6-1.13,1.47,1.49,3.36.75,5.08,1C133.39,203.42,135.31,202.65,135.81,205Z"/><path class="cls-233" d="M125.88,208.41c.56,1.48,3.3-.67,3.15,2.29l-8.15-.49C121.42,206.5,124.08,208.64,125.88,208.41Z"/><path class="cls-136" d="M111.85,209.23a8.78,8.78,0,0,0,2.42.44c1.45-.16,3-1,4,.75s-1.2,2.48-1.55,3.83c-1.33,0-2.09-3.5-3.94-.55-1,1.62-2.14.84-3.21-.24s-1.69-.72-1.75.76l-2-1.92c1.11-1.24-.14-1.5-.83-2s-2.32-.71-1.06-2.22C106.35,209.87,109.05,209.86,111.85,209.23Z"/><path class="cls-131" d="M159.82,197.24h5C161.75,200.08,160.54,200.08,159.82,197.24Z"/><path class="cls-234" d="M137.12,209.31c-.41-1.37-.81-2.74-1.21-4.11,1.34-.53,2.16-2,3.84-1.94,1.29.07,2.86-.2,3.44,1.25.76,1.9-1.15,2.2-2.19,2.46-1.88.47-2.27,1.6-2.19,3.23l-.5,0h-.49Z"/><path class="cls-160" d="M112.8,80.38c1.77,1.71,5.46.17,6.18,3.66a14,14,0,0,1-12.08-5l3.95,1C111.58,79.7,112.26,79.61,112.8,80.38Z"/><path class="cls-235" d="M98.61,57.37c.41,1.63,2,3.19.28,4.94-1.21.43-2.49,1.36-3.54-.2-1.16-1.74,1.71-1,1.53-2.42-.09-.69.65-1.47,1-2.21A2.17,2.17,0,0,1,98.61,57.37Z"/><path class="cls-236" d="M148.79,173.25c3.34-.77,5.37,2,8,3l1.79,2.83C155.9,176.1,148.06,181.67,148.79,173.25Z"/><path class="cls-237" d="M176.68,184.26c3.93-4.13,4.79,2.77,7.71,2.23.63-1,.31-1.91.06-2.9s-3-1.49-.12-3.17c2.35-1.37,2.74-.37,3.68,1.11a11.76,11.76,0,0,0,1.71,1.75c0,.64,0,1.28,0,1.92-4.7-1.08-1.86,2.57-2.26,4-.2.68,1.55,1.79-.13,2.72l-3.46,2.36q-2.12-2-4.21-3.95C178.67,188.29,177.68,186.28,176.68,184.26Z"/><path class="cls-67" d="M181.84,175.26c.45,2.6.47,2.31-2.09,2.1-2-.17-2.47,3.2-4.91,2.82,0-.65,0-1.3,0-2h0c1.83-1,3.33-2,1-4C178.1,173,180.18,172.94,181.84,175.26Z"/><path class="cls-238" d="M162.86,171.14c-.45-.58-1.25-1.15-1.28-1.75s.82-.61,1.52-.52c2,.28,3,1.61,3.65,3.32l-1.93,0Z"/><path class="cls-239" d="M174.82,178.23c-2.23-.21-2.4-2.16-3.86-3.75,3.61-.24,3.9,1.62,3.87,3.74Z"/><path class="cls-109" d="M101.81,54.29l-3-.8L95,50.12C98.31,49.75,100.18,51.82,101.81,54.29Z"/><path class="cls-240" d="M124.84,123.23l2,3.86c.52,2.06.89,4.18,1.6,6.17s-4.47,1.3-1.58,3.94c-2.18.22-1.65-2.24-2.9-2.95l-3.39-.2c1.92-1.2,3.43-3,2-4.72-2.1-2.48-.32-4.12.3-6.1Z"/><path class="cls-241" d="M134.84,155.16a3.25,3.25,0,0,0-2-1.92,4.32,4.32,0,0,1-.11-5c2.67,1.41,4.81,3.92,8.15,4,1.1,4.13,6,6.15,6,10.88a2.53,2.53,0,0,1-2.54-1.12C142.29,158.13,138.27,157.06,134.84,155.16Z"/><path class="cls-29" d="M167.81,213.22c1.11-2.06,3.19-2.53,5.17-3.2.09,0,.18-.28.15-.41s-.18-.26-.28-.39c-.55-.54-1.65-.81-1-2,4.54,1.17,8-1.66,11.89-3.12l-.95,3.11c.38,1.51.66,3-1,4-1.22,1.49-3.34,4.39-3.53,4.27C175,213.4,170.81,215.92,167.81,213.22Z"/><path class="cls-242" d="M160.82,210.21c.46,2.11-1.89,3.13-2,5-1.27.71-2.36.82-2.91-.87C156.87,212.18,159.64,212.12,160.82,210.21Z"/><path class="cls-243" d="M171.89,207.26l1,2-6,1c.33-1.34-.9-2.65-.05-4A8.28,8.28,0,0,1,171.89,207.26Z"/><path class="cls-209" d="M169,227.35c.1,1.46-2.18,2.16-1.25,3.89-1,1.58-2.56.58-3.84.85a3,3,0,0,1-.45-.66C165.35,230.11,165.76,226.79,169,227.35Z"/><path class="cls-244" d="M166,218.37c2.29.21,4.4,1.53,6.81,1.24-2.32.27-4.86,4.63-6.86-.46A1.16,1.16,0,0,1,166,218.37Z"/><path class="cls-245" d="M112.8,80.38l-1.94-.3a8.26,8.26,0,0,0,.91-4.85l4.38,2.66C115.51,79.36,113.89,79.52,112.8,80.38Z"/></g></g></svg>