<svg xmlns="http://www.w3.org/2000/svg" viewBox="0 0 439.65 124.45"><defs><style>.cls-1{fill:#4c4646;}.cls-2{fill:#4f4a4c;}.cls-3{fill:#514746;}.cls-4{fill:#7c6f67;}.cls-5{fill:#7c5c5a;}.cls-6{fill:#0d090a;}.cls-7{fill:#090303;}.cls-8{fill:#130608;}.cls-9{fill:#15110e;}.cls-10{fill:#281b10;}.cls-11{fill:#422e1f;}.cls-12{fill:#3b2518;}.cls-13{fill:#9a8563;}.cls-14{fill:#a77459;}.cls-15{fill:#f1f3ed;}.cls-16{fill:#342116;}.cls-17{fill:#975841;}.cls-18{fill:#71604d;}.cls-19{fill:#e9d8c6;}.cls-20{fill:#d8e5d4;}.cls-21{fill:#6a5d45;}.cls-22{fill:#8d8070;}.cls-23{fill:#7c7667;}.cls-24{fill:#b5a77b;}.cls-25{fill:#8f7f67;}.cls-26{fill:#7b6f58;}.cls-27{fill:#dfd7c7;}.cls-28{fill:#bbbeb1;}.cls-29{fill:#807160;}.cls-30{fill:#e4eae3;}.cls-31{fill:#7d7467;}.cls-32{fill:#846e4f;}.cls-33{fill:#c9ccb3;}.cls-34{fill:#a08f73;}.cls-35{fill:#efeddf;}.cls-36{fill:#77695c;}.cls-37{fill:#a6a196;}.cls-38{fill:#eff4ea;}.cls-39{fill:#b09f7d;}.cls-40{fill:#c7c3b4;}.cls-41{fill:#33302b;}.cls-42{fill:#736c59;}.cls-43{fill:#bebea4;}.cls-44{fill:#919388;}.cls-45{fill:#908c7e;}.cls-46{fill:#443c35;}.cls-47{fill:#aaaba3;}.cls-48{fill:#351a14;}.cls-49{fill:#211511;}.cls-50{fill:#451e17;}.cls-51{fill:#582721;}.cls-52{fill:#b95744;}.cls-53{fill:#843d2e;}.cls-54{fill:#b14d38;}.cls-55{fill:#722b21;}.cls-56{fill:#8f3f34;}.cls-57{fill:#b54;}.cls-58{fill:#8c3e34;}.cls-59{fill:#d46d56;}.cls-60{fill:#ce604d;}.cls-61{fill:#9e4f3d;}.cls-62{fill:#a54938;}.cls-63{fill:#e2e3d2;}.cls-64{fill:#7a3024;}.cls-65{fill:#784138;}.cls-66{fill:#352720;}.cls-67{fill:#7a4234;}.cls-68{fill:#795342;}.cls-69{fill:#665142;}.cls-70{fill:#767372;}.cls-71{fill:#8f564b;}.cls-72{fill:#352721;}.cls-73{fill:#141211;}.cls-74{fill:#695440;}.cls-75{fill:#7a6551;}.cls-76{fill:#331816;}.cls-77{fill:#16130d;}.cls-78{fill:#675340;}.cls-79{fill:#695846;}.cls-80{fill:#291916;}.cls-81{fill:#5b4e45;}.cls-82{fill:#4c4540;}.cls-83{fill:#4c4545;}.cls-84{fill:#a79265;}.cls-85{fill:#2a1e19;}.cls-86{fill:#554233;}.cls-87{fill:#3d302a;}.cls-88{fill:#1d1712;}.cls-89{fill:#40271f;}.cls-90{fill:#322019;}.cls-91{fill:#382616;}.cls-92{fill:#623428;}.cls-93{fill:#815e37;}.cls-94{fill:#56241c;}.cls-95{fill:#6b3e30;}.cls-96{fill:#633927;}.cls-97{fill:#5b3c2a;}.cls-98{fill:#5d402c;}.cls-99{fill:#523627;}.cls-100{fill:#52371d;}.cls-101{fill:#9b8772;}.cls-102{fill:#5f4e39;}.cls-103{fill:#72634e;}.cls-104{fill:#886f56;}.cls-105{fill:#bb6a59;}.cls-106{fill:#705131;}.cls-107{fill:#886542;}.cls-108{fill:#7d6548;}.cls-109{fill:#dedfcf;}.cls-110{fill:#c2b595;}.cls-111{fill:#c9c2a9;}.cls-112{fill:#d7d1b5;}.cls-113{fill:#e0e2c9;}.cls-114{fill:#c7bb9a;}.cls-115{fill:#a79475;}.cls-116{fill:#4a2f1f;}.cls-117{fill:#4d4034;}.cls-118{fill:#e4ccac;}.cls-119{fill:#b2a891;}.cls-120{fill:#cbc8a9;}.cls-121{fill:#87776a;}.cls-122{fill:#c4c8b1;}.cls-123{fill:#a8977a;}.cls-124{fill:#2c1d15;}.cls-125{fill:#5e4a39;}.cls-126{fill:#a99f87;}.cls-127{fill:#65594b;}.cls-128{fill:#d9dbc5;}.cls-129{fill:#431e18;}.cls-130{fill:#55291e;}.cls-131{fill:#3d2b23;}.cls-132{fill:#26160e;}.cls-133{fill:#513a2c;}.cls-134{fill:#876e50;}.cls-135{fill:#775c47;}.cls-136{fill:#453930;}.cls-137{fill:#c35845;}.cls-138{fill:#a65747;}.cls-139{fill:#985140;}.cls-140{fill:#bf5c46;}.cls-141{fill:#4b1e14;}.cls-142{fill:#6b3024;}.cls-143{fill:#834334;}.cls-144{fill:#42352f;}.cls-145{fill:#625348;}.cls-146{fill:#77604c;}.cls-147{fill:#574236;}.cls-148{fill:#a7977d;}.cls-149{fill:#c4c1a5;}.cls-150{fill:#5f442f;}.cls-151{fill:#a69276;}.cls-152{fill:#967967;}.cls-153{fill:#b1a088;}.cls-154{fill:#c3c3ac;}.cls-155{fill:#ae9877;}.cls-156{fill:#8e4c38;}.cls-157{fill:#d3ba98;}.cls-158{fill:#866f54;}.cls-159{fill:#a48e71;}.cls-160{fill:#755e47;}.cls-161{fill:#826f5d;}.cls-162{fill:#64503e;}.cls-163{fill:#d8cfaf;}.cls-164{fill:#cec3a7;}.cls-165{fill:#4f3f34;}.cls-166{fill:#b8ab8a;}.cls-167{fill:#dbc8aa;}.cls-168{fill:#e7e8cc;}.cls-169{fill:#7d6448;}.cls-170{fill:#5c4431;}</style></defs><title>Ресурс 72</title><g id="Слой_2" data-name="Слой 2"><g id="Слой_1-2" data-name="Слой 1"><path class="cls-1" d="M0,124.45l.13-.85c1.92-1.6,4.22-1,6.4-1.11a51.66,51.66,0,0,1,5.28,0c29.69-.33,59.39-.09,89.08-.13a8.62,8.62,0,0,1,4.33.75,1,1,0,0,1,.46,1.34Z"/><path class="cls-2" d="M162.15,124.45H131.49c-.5-.61-1.52-.23-1.94-1a2.32,2.32,0,0,1,0-1.14c1.3-1.71,2.69-3.33,2.18-5.78-.17-.82-.11-2,1.37-1.88a4.49,4.49,0,0,1,2.38,4.73c-.4,3.11,1.25,3.17,3.51,3.13,5.88-.08,11.76,0,17.64,0,1.72,0,3.49-.18,5.09.76A1.14,1.14,0,0,1,162.15,124.45Z"/><path class="cls-3" d="M393.67,124.45q0-.39-.06-.78c1.36-1.42,3.16-1.3,4.88-1.31q18.06-.08,36.12,0c1.72,0,3.51-.11,4.91,1.24.05.28.09.56.13.85Z"/><path class="cls-4" d="M129.88,123.63c.65.06,1.28.15,1.61.82H105.68a3.21,3.21,0,0,1,0-.76,2.84,2.84,0,0,1,1.27-.88c6.51-.85,13-.34,19.57-.34A4.77,4.77,0,0,1,129.88,123.63Z"/><path class="cls-5" d="M162.15,124.45c0-.23,0-.46,0-.69s.33-.36.49-.55c3.81-1.38,7.76-.44,11.64-.72,2.44.13,5-.69,7.18,1.15v.81Z"/><path class="cls-6" d="M106.43,123.6a4.43,4.43,0,0,0-.72.09l-86.62,0c-2.55,0-5.1-.07-7.65-.11-.53-1.09.64-2,.37-3-.15-3.65-3.06-6.11-4-9.41-.48-1.65-1.13-3.25-1.51-4.91-.47-1-.94-.81-1,.12a18.59,18.59,0,0,0,.69,7.82c1,3,2.77,6.18.44,9.43l-6.24,0v-25A6.91,6.91,0,0,1,4.57,97a13.15,13.15,0,0,0,5.89-2.35c3.87-2.64,7.42-2.39,11.12.45,1.15.89,2.05,2.14,3.6,2.47,2.34.49,4.21,1.91,5.72-2.12,1.42-3.78,5.59-6,10.05-6.46a4.3,4.3,0,0,1,4.38,2.28,14.48,14.48,0,0,0,6.29,6c.48.23.1-.19.31.23,2.25,4.72,7.28,4.89,11.18,6.91,2.36,1.22,4.69-.27,7.08-.18,5.15.2,5.17,0,6,5,.17,1,.43,1.9,1.48,2.19a2.36,2.36,0,0,0,2.88-1.64c1.78-4.69,5.91-4.51,9.74-4.77,2.8-.18,4.8.8,4.24,4.22-.21,1.21-.39,2.77,1.29,2.82,2.21.07,4.2,2.51,6.43.87a2.57,2.57,0,0,0,.52-3.94c-4.13-3.88-4.19-9.72-7.16-14.15-1-1.54-1.63-3.39-2.92-4.78-5.85-6.26-8.94-14.28-13.66-21.26a18.34,18.34,0,0,0-.71-2.13c-1.3-3.22,2.49-3.65,3.17-5.8,1.43-1,2.82-2,2.46-4,3.13-.13,3.63,2.62,4.93,4.5.85,2.09,1.93,3.16,4.58,2.41,3-.86,6.3-.51,9.21-2.36,1.93-1.22,4.45-1,5.59,1.36s-1.12,3.23-2.66,4.24-3.43,1.51-4,3.91c3.14.47,5.62-1.19,8.24-1.75,4.23-.9,7.17,1.65,10.6,2.87a2.23,2.23,0,0,1,1.28,2.37c-.54,3.41,1.33,4.12,4.17,4.14a3.5,3.5,0,0,1,3.15,2.2c.62,1.35,1,1.13,1.7.06,1.06-1.54,2.41-1.21,3.24.16,1.18,2,4.06,2.93,3.32,6-.27,1.12,1,1,1.7,1.21A3.94,3.94,0,0,1,142.1,91c.21.78.24,1.78.86,2.22,3.24,2.34,2,3.54-.28,6.23-5.9,6.86-13.82,10.47-21.13,15.11C116.15,117,112,121.46,106.43,123.6Z"/><path class="cls-7" d="M374.12,98.71c-7.75-5-14.86-10.58-17.92-19.84-.71-2.14-2.67-2.8-4.49-3.6-1.16-1.71.29-2.7,1.14-3.77,3.94-5,8.72-9.29,11.17-15.33a146,146,0,0,0,9-18.76c1.6-3.93,3.92-7.23,8.24-8.56,1.18-1.79,2.71-3.31,3.88-5.1.36-.42.9-.57,1.3-.94,1.83-1.65,4.21-2.68,5.48-5,1.36,1.22,2.36,1.07,3.06-.72a3.64,3.64,0,0,1,2-2.28,7.08,7.08,0,0,1,6,1.53,145.16,145.16,0,0,0,18.88,11.36c1.08.56,2.16,1,1.86,2.63-.68,3.53,1.14,5.85,3.9,7.66,2.07,1.47,1.66,3.46,1.08,5.44-1.9,6.43-5.81,11.67-9.74,17-7.37,9.91-16.69,18.05-24.56,27.54-4.36,5.25-11.16,7.71-17.16,11A3.2,3.2,0,0,1,374.12,98.71Z"/><path class="cls-8" d="M374.12,98.71c8.58-3.42,16.64-7.46,22.64-15,4.07-5.08,9.15-9.34,13.28-14.37,6.9-8.39,15-16,17.92-27.11a6,6,0,0,0-.38-4.24c2.78.87,5.67,1.46,8.09,3.23.91,1.54,2.71,2.06,3.83,3.36l0,79-45.91.07a61.72,61.72,0,0,0-5.18-4.42,4.09,4.09,0,0,1-1.94-4.44c1-1.31,3.05-1.2,3.87-2.74-2.58-2-4.9-4.3-8.1-5.31Z"/><path class="cls-9" d="M79.87,68c4.54,6.71,7.43,14.5,13,20.53,3.55,3.87,4.9,8.82,7.2,13.29,1.15,2.26,1.25,4.71,3.91,6.44,2.48,1.6,0,4.11-.94,6s-2.16.83-3.25,0a1.73,1.73,0,0,0-.71-.37c-3.75-.64-8-.84-5.2-6.65.09-.18-.29-.71-.57-.94-1.86-1.57-10,.4-11,2.69-.65,1.51-1.25,2.93-2.93,3.62-2.82,1.14-5-.82-4.12-4.61.71-3.2-.91-3.41-2.83-2.79a20.58,20.58,0,0,1-7.52.78c-3.22-.35-6.36-2.88-10.14-2.46-.77-6.4-9.05-6.39-10.49-12.31-.38-1.56-2-1.57-3.4-1.42a10.81,10.81,0,0,0-9.41,8.5c-.36,1.39-1.38,2.4-2.6,1.63-2.54-1.6-5.79-1.4-8-4.1A6.24,6.24,0,0,0,11.71,95C8.19,98,4.15,98,.14,98.64-.34,97,.48,96.26,2,95.76c1.22-.41,2.67-.1,3.68-1.16a51.78,51.78,0,0,0,8.7-3.1c3.88-.2,8.06-1.77,11.19,3,2.13-6.82,7.58-7,13-7.29a9,9,0,0,1,5.34-.74c5.48,1.31,9.22,5,12.66,9.16,1.29,1.58,2,4.12,4.83,3.87-.14-5.67-2.1-11-2.4-16.67-2.57-4.75-3.27-9.31,1.36-13.32A3,3,0,0,1,62,69.22C66.37,71.51,70.49,71,74.29,68,76.24,66.48,78,67,79.87,68Z"/><path class="cls-10" d="M237.4,80.05c0-2.89-.5-5.26-4.34-3.91a1.82,1.82,0,0,1-1.61.32c-2.53-1.57-4.61-.62-6.45,1.24a39.7,39.7,0,0,0-4.65,5.53,13.57,13.57,0,0,1-9.74,2.84c-1.88-9.94-11.52-12-17.89-17.32-2.56-2.13-6.24.5-6.87,4.28-.3,1.82.31,3.8-.95,5.45-2.18.18-1.78-1.63-2-2.77a6,6,0,0,0-4-5.06c-2.33-.89-3.22,1.17-4.66,2.27-4.53,3.43-8.14,8.11-14,9.72a20,20,0,0,1-8.26,1c-2.67-.38-4.5-1.49-5.46-4A5.63,5.63,0,0,0,143.42,76a3.59,3.59,0,0,1-1.2-1.28A29.12,29.12,0,0,0,134.16,64c-1.12-2-1.12-3.77,1.4-4.39,2.22-.54,3.14.71,3.85,2.93,1.18,3.71,4.6,6.1,6.53,9.42,1.32,2.26,3.36,3.26,5.54,4.38,5,2.55,9.35.62,13.77-1.42,1.52-.7,2.33-1.84,1.61-3.57a5.12,5.12,0,0,1,.31-5,6.38,6.38,0,0,1,3.11-2.67c2.71,1.35,4.43.49,5.41-2.31a19.56,19.56,0,0,1,1.5-2.82c3.16-5.72,4.07-6,10-3,1.72.84,3,1.71,2.36,3.93s.61,3.53,2.45,4.45c3.85,1.11,7.68,2.78,11.57.15.48-3.3,2.31-3.27,4.52-1.71,2.63,1.86,4.52,4.18,4.32,7.71a14.65,14.65,0,0,0,.32,4.8,6.16,6.16,0,0,1,.19,1.66,10.73,10.73,0,0,0-.07-2.28,7.84,7.84,0,0,1,.08-1.19c.17-3.75-.89-7.51.24-11.23,1.16-1.63,2.55-2.22,3.67-.14.85,1.57,2.46,1.44,3.62,2.23,1.38,2.13.45,4.69,1.31,6.77a11.62,11.62,0,0,1,.21-5.16,2.74,2.74,0,0,1,1.27-1.33,17.17,17.17,0,0,1,4.61-.71c2.25-.2,3.46.79,3.32,3.16a3.59,3.59,0,0,0,.3,2.57c.75.88,1.56,1.52,2.74.75s.51-1.61.14-2.45a4.3,4.3,0,0,1-.29-1.12c.11-2.38,1.45-3.62,3.71-4,3.31,1.11,2.9-1.48,3.28-3.29l.2-1.57c2.06-2,3.86-1.53,4.95.88.94,2.08,3.05,3.72,2.57,6.36-1.34,1.5-2.62,3-2.62,5.22,0,.94-.17,2.2-1,2.52C241.49,73.92,240.05,77.59,237.4,80.05Z"/><path class="cls-11" d="M223.44,64.74l-.8.81c-2.07,1.39-1.59-1.11-2.44-1.6-2,.51-4.15,1.69-4.17-2.13,0-1.49-1.32-.6-2.1-.23-1.28,0-2.09,1.09-3.26,1.34-3.11,0-3.45-2-3.07-4.36.44-2.73-.3-3.66-3.24-2.89-6.33,1.68-11.5-1.53-16.44-4.72-4.71-3.05-4.56-3.27-9-.52-2.53-2.71-1.22-5.37.09-8,4.64-.69,8.72.69,12.47,3.32a9.6,9.6,0,0,0,2.82.91,15,15,0,0,1,4.32.83c4.41,1.78,8.77,2,13.09-.29.91-.34,1.82-.69,2.77-1,2.75-.83,4.8-.32,5.58,3.25-1-2.49.06-3.76,1.71-4.81,2.1-1.33,3.81-.62,5.33,1,1,1.26,2.84,1.77,3.49,3.43.52,1.86,1.38,1.59,2.46.43a27.74,27.74,0,0,1,4.57-4.43c.58-.4,1.8-1.86,2.1.37-1.94,2.31-4,4.53-5.78,7-1.11,1.55-1,3.2,1.55,2.78,2.05-.34,2.72.3,2.51,2.23-1.73,1.51-3.48.78-5.2,0a33,33,0,0,0-3.22-1.56c-2.67-.92-4.2-.48-4.6,2.74C224.68,60.69,225,63,223.44,64.74Z"/><path class="cls-12" d="M248.42,64.77c-1.11-2.23-2.22-4.45-3.31-6.69-1-2.06-2.52-.63-3.84-.59a5.59,5.59,0,0,1-.27-1.1c4.73-2.07,3.4-6.51,4.05-10.19.52-2.91.3-6.31,4.22-7.26,3-.62,5.93.12,8.89,0a4.36,4.36,0,0,1,3.89,1.65c.82,1.19-.65,2.12-1.31,3.06A26,26,0,0,0,259,46.77a3.86,3.86,0,0,0,0,3.53c.28,1.1.79,2.21,0,3.32a1.33,1.33,0,0,1-1.64-.11c-1.45-.78-2.71-2.35-4.62-1.22s-.59,2.88-.49,4.29c.22,3-1.53,6,.24,9-.17,1.74,2.12,4-1,5.12-.2.37-.39.85-.2,1.15,2.52,3.87-.08,4.6-3.1,5.08C245.58,72.8,247.24,68.79,248.42,64.77Z"/><path class="cls-13" d="M62.2,101.09c-2.81,1.17-3.68-1.49-4.75-2.83-3.66-4.54-7.28-9-13.06-10.94-1-.79-2.26-.13-3.33-.55-2.26-1.32-4.38-2.75-7.32-2.29-1.73.28-2.16-.78-.63-2A122.8,122.8,0,0,1,53.21,72c.72,1.28.88,1.41.08,2.39a3.57,3.57,0,0,0-.3,4.35,5.88,5.88,0,0,1-1.61,5.21c-1.69,2-1.11,3,.73,4.47A36.5,36.5,0,0,1,62.2,101.09Z"/><path class="cls-14" d="M212.27,30.08c-.69,1.06-1.43,2.09-2.06,3.18s-.42,1.71.92,1.76a.54.54,0,0,1,.12,1,5,5,0,0,1-3.35.75c-2.39-.16-3.43,1.42-4.41,3.16-2.49,1.31-4.4-.33-6.45-1.27a1.72,1.72,0,0,1-.61-1,6.39,6.39,0,0,0-1.54-5.53c-1.7-1.8-2-4.28-2.54-6.62a10.57,10.57,0,0,0-.37-3.87c-.38-1.54.69-1.72,1.88-1.61,2.71.85,4.92,2.64,7.39,3.94a21.89,21.89,0,0,0,7.83,2.8C211,26.9,212.92,27.34,212.27,30.08Z"/><path class="cls-15" d="M142.79,37.31l2.51-2.54c1.35-.71,2.9-1.08,3.95-2.32A56.78,56.78,0,0,1,177.3,18.29c2.53-.46,4.31-2.21,7.08-2.26,3.82-.08,7,.44,10,2.66.36.7-.07,1-.63,1.26-2.63.85-5.37.16-8,.58-2.83.17-5.08,1.58-7.19,3.32a4.42,4.42,0,0,1-1,.51c-3.66.92-7.18,2.29-11.19,1.43-2.38-.51-4,2.41-6.37,2.79a5.54,5.54,0,0,0-1.48.69c-2.16,2.26-3.82,5.08-6.93,6.29-2.5,1.37-4.7,3.34-7.64,3.84C142.71,39.17,142,38.66,142.79,37.31Z"/><path class="cls-16" d="M223.44,64.74a30.37,30.37,0,0,1,.58-6.27c1.25-4.76,3.68-5.84,7.65-2.78a8.7,8.7,0,0,0,6.28,1.8l.81,1.63a3.79,3.79,0,0,1-.54,3.89c-2.35.39-3.58,1.74-3.49,4.18-1.62,1.38-3.23,1.16-4.83,0,.82-1.78,1-3.15-1.72-2.78C226.62,64.59,225,64.63,223.44,64.74Z"/><path class="cls-17" d="M267.74,38.06c-.55-1-2.37,1.88-2.37-.78a65.86,65.86,0,0,0,5.21-10.55c1.72-2.84,5.48-2.56,7.53-4.91a1.9,1.9,0,0,1,.84.82c.53,1.49.7,3.06,1.58,4.47,2.77,4.44,1.61,7.26-3.6,8.61a8.74,8.74,0,0,0-4.23,2C271.13,39,269.34,37.21,267.74,38.06Z"/><path class="cls-18" d="M120.83,47.05c1.51.78,1.19,4.32,4.23,2.81a1.46,1.46,0,0,1,.22,1.13,2.67,2.67,0,0,1-2.57,1.16c-2.17-3.46-5-1.35-7.64-.91-1.46.14-3.11-.27-4.08,1.35a2.33,2.33,0,0,1-.95.49c-.66.14-1.57,0-1.91.46-2.87,4.06-7.41,2.87-11.29,3.7-1.72.38-3.24,0-3.52-2.15a3.93,3.93,0,0,1,2.45-2.33c5-2.54,10.47-3.63,15.41-6.31C114.21,44.81,117.9,42.65,120.83,47.05Z"/><path class="cls-19" d="M267.74,38.06c1.5-1.13,3.19-.93,4.88-.72,1.94,1.16,4.08.41,6.12.59,1.79.16,3.72-.07,4.79,1.92.32,1.9-1.31,2.36-2.37,3.25a4.4,4.4,0,0,1-3.86.32c-6.2-1.84-11.9-1.25-16.8,3.4-.94.9-1,.82-2.51.12a10.6,10.6,0,0,1,3.76-6.18c-4.25-.33-8.39-3.58-12.69.53.08-.94.15-1.65.21-2.35a1.75,1.75,0,0,1,1.72-1.4c.51,0,1,.4,1.53.39a37.8,37.8,0,0,1,14,2c1.15.44,1.34.11,2-.83C269.39,37.72,267.92,38.42,267.74,38.06Z"/><path class="cls-20" d="M330,4.17c.67.4,1.66,1.32,2,1.13,3.8-2.28,6.89.27,10.18,1.33,6.68,2.14,13.33,4.36,20,6.55-.51,1.42-2.13,1.78-2.83,3-1.92,1.39-2.6-.32-3.53-1.4-3.15-2.32-6.34-4.45-10.52-2.66-2.28,0-3.3,2.92-5.76,2.53a2,2,0,0,1-.72-1.35c.11-3.82-1.78-4.81-5.18-3.74-1.32-1.69-5.51-1.1-4-5Z"/><path class="cls-21" d="M239.67,45.51c-3.21.27-4.27,3.26-6.23,5.08a3.57,3.57,0,0,1-2.83,1.25c-.92-.19-.63-1.55-.63-2.45,1.4-1.33,2-3.13,2.69-4.84,1.65-1.72,3.71-2.93,5.49-4.48,1.35-.85,2.23-2.35,3.86-2.82l4-2.37c2.08-.79,2.23,0,1.22,1.57-.74,1.18-2.34,1.74-2.5,3.37A26.07,26.07,0,0,1,239.67,45.51Z"/><path class="cls-22" d="M120.83,47.05a2.81,2.81,0,0,1-2.4-1.1c-.8-1-.93-.88-2,.48a1,1,0,0,1-.59.35c-7,.5-12.58,4.82-19.07,6.64a3,3,0,0,1-.79,0c-2.52-1.79.49-1.71.85-2.52,4.92-2.87,10.49-4.24,15.56-6.7C116.5,42.23,118.93,43.45,120.83,47.05Z"/><path class="cls-23" d="M244.72,39.82c-1.29-.75-.2-1.27.22-1.79s.94-1,1.41-1.43c.74-.74,1.46-1.49-.35-1.72,3.46-3.15,6.92-6.31,10.39-9.44,1.74-1.56,2.16-3.62,2.23-5.78,0-.62-.48-1.34.55-1.53.8-.14,1.23.45,1.59,1,1.25,1.85.57,3.58-.48,5.2-2,3.07-4.75,5.42-7.36,7.9S247.46,37.29,244.72,39.82Z"/><path class="cls-24" d="M52.42,78.48c-1.76-1-2-2.19-.66-3.86.6-.75,2.45-1,1.45-2.67l7.28-3c.29.14.39.27.29.42s-.18.22-.28.22c-3.28,4.08-3.28,8.33-.66,12.71.2,1.75-1,1.23-1.69.88A13.31,13.31,0,0,1,52.42,78.48Z"/><path class="cls-25" d="M297.62,10.6c.71-1.91,2.48-2,4.07-2.36a6.23,6.23,0,0,0,5.45-2.58c.93-1.29,2.17-2.36,4-2.14a3.48,3.48,0,0,1,1.09.4,3.46,3.46,0,0,1,.77.89,3.07,3.07,0,0,1-.4,3.83c-1.23,1.18-3,1.61-4.23,2.74-.32.24-.68.61-1,.59a17.77,17.77,0,0,0-12.16,4.1A2.53,2.53,0,0,1,293.35,14C294,11.84,296.57,12.2,297.62,10.6Z"/><path class="cls-26" d="M233.16,44.73c-.54,1.91.17,4.67-3.18,4.66-.43-1.84-3.4-.86-3.44-3.13-.2-3.72-3.86-2.55-5.67-4a1.66,1.66,0,0,1,0-1.14c1.48-1.86,3.19-3,5.67-1.88,1.33,3.91,3.84,4.76,7.42,2.89C234.67,43.3,233,43.73,233.16,44.73Z"/><path class="cls-27" d="M193.64,19.55l.78-.86a11.18,11.18,0,0,1,2.91,1.23,28.68,28.68,0,0,0,13.3,5.95c3.13.58,2.81,2.14,1.64,4.21-.08-1.19-.56-2.17-1.86-2.19-6.68-.1-11.54-4.28-16.84-7.46C193.15,20.1,193.17,19.81,193.64,19.55Z"/><path class="cls-28" d="M359,15.57c0-2.15,2.19-1.49,3.16-2.39h0c1.67,2.29,4.07,2.37,6.56,2.21L380,20.33c-.68,1.75-2.23,1.75-3.72,1.87a9.27,9.27,0,0,1-5.76-1.72,10.42,10.42,0,0,1-1-.61C366.19,18,361.85,18.59,359,15.57Z"/><path class="cls-29" d="M33.11,82.47c-.06.59-.9,1.79.69,1.26,3.24-1.07,5.52.16,7.37,2.71a1.64,1.64,0,0,1-1.83.5c-5.36-2.47-9.8.71-14.47,2.32-2.64.9-5.11,2.39-8.07,1.91a1.44,1.44,0,0,1-.88-.86C21.58,87.55,27,84.2,33.11,82.47Z"/><path class="cls-30" d="M226.56,39.24a13.61,13.61,0,0,0-5.46,2.16c-2.89,1.89-3.35,1.71-3.57-1.4.42-1.9-1-2.2-2.28-2.57s-2.94-.45-3.86-1.82a4.41,4.41,0,0,1-.26-.59c4.26-1.58,8.22.35,12.26,1.14A3.53,3.53,0,0,1,226.56,39.24Z"/><path class="cls-31" d="M96.86,50.9c-.28.84-1.85,1.25-.85,2.52l-2.46,1.69a5.18,5.18,0,0,1-2.44,1.38c-.91.42-2.78.31-1.24,2.13,1,1.18,2.3,2.2,1.7,4.05-2.14,2.41-2.36-1-3.63-1.2A10,10,0,0,0,84,56.77,1.34,1.34,0,0,1,85,55C89,53.65,92.71,51.65,96.86,50.9Z"/><path class="cls-32" d="M293.65,13.93l1.71,1.68c.59,3.08-1.64,3.41-3.59,3.12A9.12,9.12,0,0,0,284.1,21a6,6,0,0,1-5.59,1.3,3.47,3.47,0,0,1-.34-.42c-.24-1.48,1-1.73,1.9-2.25,1.76-.3,2.85-1.63,4.09-2.71s2.74-1.91,4.57-1.45C290.51,15.42,292.27,15.28,293.65,13.93Z"/><path class="cls-33" d="M311.39,4.15c-2.27,0-3.44,1.64-4.57,3.23-1.45,2-3.1,2.46-5.13.86,1.14-3.15,4.16-4.43,6.43-6.45C310.23,1.16,311,2.37,311.39,4.15Z"/><path class="cls-19" d="M271.18,26.91c-.52,3.75-2.7,6.78-4.41,10-.15.29-.92.25-1.4.37-1-1.76-.4-3.38.76-4.66C267.89,30.69,268,28,269.42,26,270.32,25.69,270.85,26.1,271.18,26.91Z"/><path class="cls-34" d="M60.5,69.58c0-.22,0-.43,0-.64l4.15-1.54c2,.22,3.59-.76,5.28-1.49,1.23-.53,2.41-1.24,3.79-.44a2.45,2.45,0,0,1,.68,2.43c-3.77,3.09-8,2.76-12.4,1.86Z"/><path class="cls-35" d="M271.18,26.91,269.42,26c1.22-2.34,2.33-4.75,5.8-3.39.94.38,1.29-.6,1.57-1.4.55-1.6,1.84-1.76,3.28-1.55l-1.9,2.25C276.71,24.79,273.34,25,271.18,26.91Z"/><path class="cls-36" d="M74.1,67.27l-.65-1.79c-.53-.92.4-1.11.77-1.57l7.32-3.11A2.75,2.75,0,0,1,79.88,64c-1.12.48-1.17,1.26-.74,2.23s-.26,1.26-.91.93C76.79,66.43,75.47,66.87,74.1,67.27Z"/><path class="cls-37" d="M375.86,21.26c1.44-.08,2.9,0,4.15-.93,2.19.67,3.95,2.47,6.4,2.48l-.74.89c-1.75,2.79-3.87,1.2-5.91.5C378.33,23.4,376.13,23.6,375.86,21.26Z"/><path class="cls-38" d="M142.79,37.31a1.47,1.47,0,0,0,1.61,1.63,1.09,1.09,0,0,1-.07,1c-1.51,1.28-3.05,2.54-4.65,3.72-1.1.53-2.19,1-2.91-.53a1.25,1.25,0,0,1,.38-1C139.16,40.66,139.81,37.61,142.79,37.31Z"/><path class="cls-39" d="M293.65,13.93c-.83,3.07-2.71,2.84-4.92,1.56,2.85-1.84,5.28-4.45,8.89-4.89C297.59,13.25,294.7,12.5,293.65,13.93Z"/><path class="cls-40" d="M238.22,63c-.78-1.43-.07-2.66.54-3.89l2.31-.06c-.22,1.72,1.48,2.75,1.66,4.29C241,64.69,239.7,63.06,238.22,63Z"/><path class="cls-41" d="M396.91,14.85c-.81,2.21-1.46,4.53-3.79,5.76-.56-.81,0-2.18-1.23-2.76A6.8,6.8,0,0,1,396.91,14.85Z"/><path class="cls-20" d="M319.5,1C323,2.14,326.84,2,330,4.17l-.25.26a9.46,9.46,0,0,1-10.47-2.92Z"/><path class="cls-20" d="M368.72,15.38c-2.77,1-5.52,1.94-6.55-2.21Z"/><path class="cls-29" d="M14.46,92.15c-3,.54-5.51,2.94-8.81,2.45l10.27-4.29.4.45a.79.79,0,0,1-.16.83C15.61,91.83,14.94,91.7,14.46,92.15Z"/><path class="cls-42" d="M74.22,63.91c-.26.52-.52,1-.77,1.57-3.12-.2-5.45,3.22-8.81,1.92C67.86,66.29,70.82,64.49,74.22,63.91Z"/><path class="cls-43" d="M233.16,44.73c-1.49-1.42,1.21-1.52.82-2.6l2.08-1.61c1,.08,2-2.07,2.92.12Z"/><path class="cls-44" d="M124.77,51.23c.1-.45.19-.91.28-1.37a16,16,0,0,1,6.34-3.78l.3.46c-.78,3-3.86,3.56-5.71,5.44A.93.93,0,0,1,124.77,51.23Z"/><path class="cls-45" d="M239,40.64c-.93-1.27-2,.34-2.92-.12,1.79-1.45,3-4,6-3.27C241.53,38.85,240.23,39.72,239,40.64Z"/><path class="cls-20" d="M312.86,1.68C314.8-1.08,317.18.23,319.5,1l-.17.25c-.72,1.19-1.6,2-3.12,1.34a12.62,12.62,0,0,0-3-.49Z"/><path class="cls-44" d="M137.15,42.1l.06.95c-1.29,2.17-2.64,4.26-5.73,3.13l-.09-.09A17.84,17.84,0,0,1,137.15,42.1Z"/><path class="cls-20" d="M311.39,4.15c-1.06-.82-1.69-2.25-3.27-2.36,1.55-1.74,3.18.57,4.74-.11l.23.24a1.72,1.72,0,0,1-.93,2.14l-.37.14Z"/><path class="cls-46" d="M439.5,44.62c-1.8-.53-3.77-.86-3.83-3.36C437.35,41.91,439.28,42.29,439.5,44.62Z"/><path class="cls-47" d="M149.25,32.45c-.29,2.52-2,2.57-3.95,2.32A4,4,0,0,1,149.25,32.45Z"/><path class="cls-48" d="M364.64,56.71c-2.11,6.34-7.22,10.52-11.17,15.53-.74.94-1.78,1.66-1.76,3-2.8.35-4.85,3.4-8.06,2.22-.84-1.42.31-1.93,1.21-2.44a14.28,14.28,0,0,0,3.9-2.8c1.64-1.85,4.19-3.57,2.19-6.49s-5.53-3-8.74-1.29a33.59,33.59,0,0,1-19.66,4.38L318.65,67c-1.56-1.3-3.75-.78-5.4-1.83-.54-1.93-1.44-3.4-3.76-3.47a2.28,2.28,0,0,1-2.32-1.25c3.69-3.3,7.62-1.67,11.53-.56.42,4.26,3.75,5.05,7,5.65,3.09.57,7-1.75,8.63-4.73.26-.48.58-1,.25-1.48-.45-.63-1.18-.5-1.83-.32-1.81.53-3.23,1.85-4.95,2.54s-3.47,1.84-4.5-.86c3.73-2.2,6.06-6.5,11-7-3.74-3.33-7.63-4.77-12.35-3.19-1.2.41-3-.16-2.76-1.48.44-2.73-1.22-2.49-2.89-2.93-4.06-1.06-5.92-3.29-5.58-6.22,1.16-2.14,3.64-1.12,5.24-2.21,1.4-.82,2.56-2,4-2.81,3.3-2.33,7-3.87,10.48-5.94,1.3-.61,2.81-.75,4-1.73,1.61-1.11,2.82,0,4.1.74a2,2,0,0,1,.66.9c.36,2.81,1.07,5.49-2.89,6.81-1.33.44-2.12,3-.28,4.77,2.21,2.18,4.23,4.49,7.81,4.18a5.16,5.16,0,0,1,3.35,1.26,5.52,5.52,0,0,0,5.32.69c3.87-1.16,7.61,1,11.49.79a1.73,1.73,0,0,1,1.59,2.34C364.47,52,365.66,54.46,364.64,56.71Z"/><path class="cls-49" d="M248.42,64.77c-.13,2.9.47,5.84-.56,8.71a2.65,2.65,0,0,0,1.3,3.41c.31.12.45.29.4.5s-.11.34-.2.34a7.06,7.06,0,0,0,.88,10.4,2.84,2.84,0,0,1-1.76,1.34c5.27.55,10.33,1.33,15.47,0a5.58,5.58,0,0,1,4.63.39c3.13,2,4.81,4.52,3.39,8.44-1.48,4.08-4,6.08-8.49,5.87-7.3-.33-13.81-3.24-19.9-7-4.94-3-5.26-9.13-8.08-13.62-1.08-1.73,1.6-2.16,1.9-3.54,1.33-3.25,2.27-6.71,6.53-7.58,1.57-.32,1.32-2.13,1.29-3.44C245.17,66.74,245.94,65.13,248.42,64.77Z"/><path class="cls-50" d="M322.55,68.85c5-1.31,10.21-1.49,15.14-3.21A11,11,0,0,0,342.48,63c2.34-2.42,5.65-1.89,9.31,1.61,2.25,2.14,1.28,4.5-.38,6.39-1.83,2.09-3.62,4.38-6.58,5a1.54,1.54,0,0,0-1.18,1.43c-6.39-.76-12.29-3-18.12-5.64C324,71.19,323.46,69.93,322.55,68.85Z"/><path class="cls-51" d="M181.51,123.64l-7.3-.09c-.94-2,.52-3.17,1.93-3.68a16.2,16.2,0,0,0,10.23-9.79,9.19,9.19,0,0,1,4.57-4.32c2.6-.6,4.66,2.45,7.38,1.09.52-.21,1-.4,1.56-.62,1.57-.88,1.67-2.65,2.47-4,1-1.68,2.1-2.92,3.53-.34a37.34,37.34,0,0,1-1.56,7.83c-.87,3-2.85,5.18-5.57,5.81C192.36,117,187.37,121.2,181.51,123.64Z"/><path class="cls-52" d="M229.91,93.24c-6,3.59-12.79,2.51-19.32,2.86-1.85-2.51-.59-4.14,1.6-5.44a8.84,8.84,0,0,1,6.51-.78c2.89-2,3.63-5.55,5.72-8.13,2.69-3.33,5.43-3.36,7.77.1C232,85.76,230.71,89.45,229.91,93.24Z"/><path class="cls-53" d="M219.43,91.36c-5.62-1.89-8.79-.19-8.84,4.75a1.67,1.67,0,0,1-1.51,1c-1.72.18-1.61-1.17-1.87-2.22.81-5,.32-9.17-5-11.76-3-1.47-2.74-4.6-1.85-7.47,1.23-1.4,2.2-.26,3,.46,3,2.75,6.33,5.25,7,9.74.11.82.2,2.34,1.89,1.85,2-1.21,4.1-1.87,6.35-.58-.15-1.74.79-3.17,1.67-4.62.93-2.94,3.19-4.92,5.45-6.67,1.73-1.34,4-2.59,5.9.16-4.78,2-7.25,6.14-10.05,10.13C220.36,87.81,222,90.4,219.43,91.36Z"/><path class="cls-54" d="M258.93,53.35c-.26-1-.51-2.08-.76-3.11a1.14,1.14,0,0,1,1.16-.16,6.05,6.05,0,0,1,2.89,2.66c2.21,4.6,6.32,5.61,10.82,6.15,1.34.16,3.35-.54,3.55,1.9-1.48,1.14-3.34,1.2-5,1.75-.78,2.16-2.68,3-4.54,3.94-1.37.65-1.93-.25-2.4-1.26a7,7,0,0,0-3.09-3C257.63,59.93,257.05,57.82,258.93,53.35Z"/><path class="cls-55" d="M290.4,73.67c-.92,0-1.91-.23-2.53.77-1.08.06-1.26-.76-1.5-1.52a8.7,8.7,0,0,1-.08-2.39,5.57,5.57,0,0,1,1.35-3.32,1.93,1.93,0,0,1,1.12-.44c2.55.28,5.12-.22,7.64.1,5.52.7,10.27,2.92,13.63,7.59-.24,3.3-2.06,2.1-3.34,1a12.79,12.79,0,0,0-6-2.86c-2.18-.49-4.14-.59-6.12.66A4.15,4.15,0,0,1,290.4,73.67Z"/><path class="cls-56" d="M208.11,94.58c0,1-.09,2,1,2.52-.06,2.27-2.53,2.93-3.2,4.79-1.89-1.76-2.36-.31-2.86,1.23-.56,1.73-.88,3.66-3,4.3-.07-.11-.24-.24-.22-.32,1.7-5.1-2-7.55-5-10.36-1.18-1.09-2.38-2.46-1.45-4.2.84-1.57,2.42-1.34,3.9-1,1.82,1.49,3.45,3.17,5.13,4.81s.94-.68,1.48-.92C205.22,95,206.43,93.66,208.11,94.58Z"/><path class="cls-57" d="M309.65,77.72c-3,4.49-4.41,4.74-10.38,1.78-.35-.59-1-.88-1.43-1.35a3.5,3.5,0,0,1-.34-4.71c.93-1.47,2.33-1.39,3.87-1C304.7,73.35,306.9,76,309.65,77.72Z"/><path class="cls-58" d="M309.65,77.72c-1.87-.6-3.77-1-5.26-2.54s-3.64-3.5-5.83-1.69-.25,4.06.71,6c-3.74-.76-5.75-4.14-8.87-5.83,3.93-1.25,7.47-3.94,12.15-1.86a16.89,16.89,0,0,1,4.57,2.76c.84.76,1.9,2.55,2.6-.15a2.05,2.05,0,0,1-.3-2.15l.41-.4.55.18C310.55,74,310.85,76,309.65,77.72Z"/><path class="cls-59" d="M258.93,53.35c-.28,3.93-.44,7.69,4.8,8.73,2.12.42,1.35,3.54,3.3,4.4-3,1.11-6.67,1.54-8.43-1.19a12.78,12.78,0,0,1-1.21-11.78Z"/><path class="cls-60" d="M287.19,72.82c.22.54.45,1.08.68,1.62a1.54,1.54,0,0,1-.59,1.59c-2.23,2-4.78,1.26-7.29.79a8.72,8.72,0,0,1-4.75-8c2.53.91,5.21.81,7.82,1.23A5,5,0,0,1,287.19,72.82Z"/><path class="cls-61" d="M219.43,91.36a43.67,43.67,0,0,1,4.4-10.29A9.39,9.39,0,0,1,231.59,76l1.48.15-.15,5.49a.82.82,0,0,1-1.37.09c-2.21-2.85-4.65-2.29-6.1.37-1.63,3-4.8,5.18-4.6,9.14C220.9,92.08,220,92,219.43,91.36Z"/><path class="cls-62" d="M287.19,72.82a8.15,8.15,0,0,0-7-2.06c-2.57.55-3.58-.65-5-1.91-.54-1.07-1.09-2.14-1.63-3.22,5.88-1.37,11,.44,13.57,4.78C287.18,71.21,287.18,72,287.19,72.82Z"/><path class="cls-63" d="M268.58,89.88c-6.58,1-13.15,2.15-19.79.57-1.07-.25-2.44.76-3.19-.71a1.2,1.2,0,0,1,.17-1.1c1.12-1.08,2.16-.22,3.24.22.58.23,1-.21,1.23-.73l5.59.11c0,.58-.21,1-.84,1.07a.8.8,0,0,0,.66,0c2.33-.94,4.87-.45,7.24-1.14C264.92,88.31,267,88.3,268.58,89.88Z"/><path class="cls-64" d="M287.18,70.41c-3.53-4.42-8.9-3.61-13.57-4.78l-.51-.74c5.06-4.06,12.11-3,14.87,2.3C287.71,68.26,287.44,69.33,287.18,70.41Z"/><path class="cls-55" d="M288,67.19c-4.35-4.7-9.53-4-14.87-2.3-.54-.76-1.79-1.07-1.53-2.35.84-3,3.37-1.41,5.13-1.9l.6-.09a16.58,16.58,0,0,1,6,.47c2.22,1.55,6,1.93,4.7,6.15Z"/><path class="cls-65" d="M231.55,81.72c.46,0,.92,0,1.37-.09a20.28,20.28,0,0,1-.55,8.93c-.33,1.39-.94,2.43-2.46,2.68C228.51,89.12,231,85.57,231.55,81.72Z"/><path class="cls-66" d="M382.26,106.76c1.41-.88,2.54-.2,3.61.66,1.85,1.49,3.58,3.11,6.11,3.49.9.14.7.92,0,1.42-1.59-.36-3,.36-4.41.79-.86.26-1.51.19-1.78-.79C386.07,109.56,383.2,108.78,382.26,106.76Z"/><path class="cls-67" d="M249.36,77.73c-.07-.28-.13-.56-.2-.84,0-1.82,1.54-1.76,3.24-1.94-2.14-1.69-3.39-3.26-1.56-5.44a6.59,6.59,0,0,1,1.37.83c1.25,1.1,1.63,2.72,2.46,4.07-.06,1.36-.12,2.71-2.1,2.36A4.2,4.2,0,0,0,249.36,77.73Z"/><path class="cls-68" d="M251.8,70.45l-1-.94c-.73-1.49,3.35,1.18,1.16-1.25-1.37-1.51,1.25-1.69.53-2.73,2.07,1.34,5.3,2,3.26,5.72A3.78,3.78,0,0,1,251.8,70.45Z"/><path class="cls-50" d="M310.38,72.05a1.63,1.63,0,0,0-.62-.12c-.69-3.42,2.33-4.48,4.05-6.37,2.06-1.09,3.82-1.12,4.84,1.4C314.57,66.51,312.35,69.07,310.38,72.05Z"/><path class="cls-69" d="M385.83,112.33c2.06.09,4.12-2,6.19,0-1.65,1.27-3,3.09-5.53,2.48Z"/><path class="cls-12" d="M251.8,70.45c1.25.65,2.88-.56,4,.8-.37,1.06-.74,2.11-1.12,3.16C252.63,73.88,252.68,71.82,251.8,70.45Z"/><path class="cls-70" d="M262.89,88.19a22.25,22.25,0,0,1-9.07,1.38l2-1.33Z"/><path class="cls-71" d="M280,76.82c2.46,0,5,.46,7.29-.79C285.19,79.39,282.54,77.65,280,76.82Z"/><path class="cls-72" d="M12.81,121.13c.31,1.24-.9,1.61-1.37,2.4l-5.07,0a18.08,18.08,0,0,0-1.6-9.68c-1.21-2.69-.66-5.48-.65-8.24,0-1.28.91-2.61,2.09-2.51,1.76.15.8,1.85,1,2.9C5.61,111.08,8.24,118.11,12.81,121.13Z"/><path class="cls-73" d="M121,113.84c8.42-5.17,17.33-9.67,23.47-17.94-2.07-.36-3.06-2.16-3.28-4.53,3.35-1.86,5.06.16,6.54,2.75,2.51-4.44,6.1-5,8.85-1.07,2,2.88,4.05,1.6,6.25.68,1.4-.58,2.25-2.45,4.19-1.79a3.78,3.78,0,0,1,1.07,1.65c2.31,5.73,7.48,6.37,11.77,1.63,1.26-1.39,1.08-4.08,3.72-4.23a1.92,1.92,0,0,1,1,.68,5.66,5.66,0,0,1,1,2.29c.07,7.91-3.43,13.79-10.26,17.66-2.2,1.25-3.64,2.63-2.69,5.4a5.44,5.44,0,0,1,0,3.17c-1.15,2.47-3.23,3.3-5.47,2-2.4-1.34-3.63-.18-5,1.37l.07.15H133.44c1.34-3.5,1.86-6.54-1.15-8.94-1.24.88-2.41.18-3.6-.13C126.25,113.23,123.34,116.07,121,113.84Z"/><path class="cls-74" d="M121,113.84c2.71.71,5.45-2.12,8.14.09-2.73,2.9-2.64,4,.73,8.87,0,.28,0,.55,0,.83l-23.45,0A76.7,76.7,0,0,1,121,113.84Z"/><path class="cls-75" d="M129.86,122.8c-3.85-.51-3.16-4-3.85-6.33-.6-2,1.36-2.55,3.12-2.54l3.16.89C133.08,118,133.62,121,129.86,122.8Z"/><path class="cls-76" d="M162.13,123.61c.89-3.86,2.12-4.49,4.93-2.37,2,1.5,3.35.43,4.77-.83.79-1.08.43-2.32.36-3.46a3.41,3.41,0,0,1,2.66-3.85c6.66-2.27,10.31-7.43,12.9-13.59,1.21-.65,1.74.22,2.31,1,.52,1.55.67,3.2,1.24,4.74,0,.18,0,.36,0,.54-2.67,3.1-5.52,6-6.86,10.08-1,3.13-4.72,3-7.18,4.38-1.48.82-2.78,1.49-3.06,3.28Z"/><path class="cls-77" d="M167,92.18c-2.32,1.42-4.29,3.49-7.17,3.9-1.53.22-3.09.35-3.65-1.48-.66-2.14-1.57-3.7-4.18-3.16-2.39.5-3.78,1.8-3.66,4.42,0,.54-.38,1-1.41,1,.41-4.1-1.82-5.71-5.73-5.44-.16-2.2-1.68-2.38-3.43-2.45-1.55-.07-3.86,0-1.43-2.44.83-.83.55-1.64-.21-1.94-1.94-.79-2.26-2.9-3.61-4.12-2.2.55-1.15,3.12-3,4.36-.52-4.31-2.73-6.22-7-5.56-2.06.32-2.47-.79-1.86-2.73.82-2.6-.31-3.39-2.92-4.75-5.36-2.8-9.82-1.63-14.57.68a1.91,1.91,0,0,1-2.78-.72,2.07,2.07,0,0,1,.46-2.87,25.36,25.36,0,0,1,5-3.23c.9-.45,2.65-1,1.89-2.56a3.14,3.14,0,0,0-3.49-1.41,2.61,2.61,0,0,0-1.47.57c-3.18,3.51-7.8,1.53-11.58,3-2.2.87-2.27-2.35-3.3-3.74,1.41-.62,1.55,2.92,3.35,1a4.37,4.37,0,0,1,.66-.89c.93-.93,1.79-2.06,3.19-2.21,5.86-.6,10.43-4.12,15.41-6.7h0c1-1.41,3.27-.65,4-2.42.8-.07,1.94.17,2.33-.26,3.3-3.6,4.46-.88,5.7,1.79,1.28.65,2.18,1.8,3.5,2.46s2.35,1.73,1.41,3.46c-1.38,1.1-3.43.41-4.91,1.65,1.22.9,2.52.46,3.66.78,1.16,1.19,2.8.27,4.09.89a27.65,27.65,0,0,1,2.47,2.83c5.21,1.74,6.73,6.94,9.93,10.56l.81.81c2.75,3.1,4.14,7.14,7.18,10.11,2,2,3.79,2.62,6.41,1.38a63.53,63.53,0,0,0,7.7-4.37c1.55-1,3.49-2.15,5.2-.7s.43,3.27-.33,4.77C168.79,88.33,168.67,90.63,167,92.18Z"/><path class="cls-78" d="M12.81,121.13c-2.07.31-3.16-.36-4.23-2.45-1.48-2.88-2-6-3.13-8.89-.78-2,.1-3,1.71-3.77,1.12,3.57,2.24,7.12,4.47,10.21A5.55,5.55,0,0,1,12.81,121.13Z"/><path class="cls-79" d="M74.1,67.27c1-3.57,3.55.25,5-1,.25.57.49,1.15.73,1.73-4.66-.92-7.63,3.75-12.3,3.57-2.27-.09-4.07,0-5.58-1.8,3.31-.33,6.62-.68,9.94-1A2.39,2.39,0,0,0,74.1,67.27Z"/><path class="cls-80" d="M364.64,56.71c.07-2.35-2-4.57.09-7.13,1-1.16-.77-1.9-1.78-1.7a11,11,0,0,1-7.2-.78,3.78,3.78,0,0,0-3.48.47c-2,1.33-3.75,1.12-5.27-.76a.6.6,0,0,0-.31-.24c-5.15-.91-10-2.38-13.48-7.1-.2-.89,2.33-1.79,1-3.79-.15-.21.19-1.07.26-1.06,5,.42,3.43-3.77,4.39-6.16,1.1-.9,2.69-1.24,3-3,.5-2.68,2.37-3.78,4.8-4.81,2.74-1.15,4.92-2.53,7.05.88.67,1.07,2.21.43,3.39.07,2.8-.86,5.47-2.25,8.49-2.34,1.57,0,3.21-.93,4.69.35h0c1.75.6,1.1,2.92,2.65,3.65a18.31,18.31,0,0,0,5.94,1.92c2.13.45,3.58,1.53,3.49,4-.29.43-.54,1.22-.87,1.25-6.1.64-6.56,6.09-8.58,10.11C370.14,45.92,368.28,51.76,364.64,56.71Z"/><path class="cls-81" d="M382.31,29.15a5.38,5.38,0,0,0-4.79-3.24,8.46,8.46,0,0,1-5.69-2.21c.2-1.59,1-2.6,2.59-1.74,1.78,1,3.73,1,5.57,1.57,1.89.21,3.74,1.83,5.68.17C385.77,26.26,382.83,27,382.31,29.15Z"/><path class="cls-82" d="M394.83,25.55c.28.48.85,1.08.73,1.3-1.05,1.88-2.19,3.72-3.41,5.49-.1.14-1.1-.59-.84-1.05C392.37,29.4,392.61,27,394.83,25.55Z"/><path class="cls-83" d="M399.82,19.11c-.27.79-.73,1.5-1.59,1.58s-1.17-.55-1.19-1.26.61-1.15,1.26-1.3S399.5,18.47,399.82,19.11Z"/><path class="cls-84" d="M52.42,78.48c2.84.56,4.07,4.24,7.42,3.81.69,6.28,2.87,12.37,2.36,18.8-2.11-1.43-3.23-3.44-4.5-5.68-1.65-2.9-4.71-5.25-7.62-7.13-2.07-1.33-2-2-.57-3.5A8.93,8.93,0,0,0,52.42,78.48Z"/><path class="cls-85" d="M14.46,92.15l1.66-.79c5.6-1.09,11-2.49,16.05-5.45,2.29-1.35,4.89-.14,6.54,2.21a2.11,2.11,0,0,1-2.13.82c-6.63-.29-7.45.23-10,6.22a2.68,2.68,0,0,1-.88,1.23.82.82,0,0,1-1.19-.67c-.61-4.4-3.93-3.5-6.79-3.54Z"/><path class="cls-86" d="M38.71,88.12c-3.66-2.76-7-1.47-10.38.68-3.72,2.37-8,2.56-12.21,2.56a1.26,1.26,0,0,1,.2-.6c4.84-.5,9.13-2.82,13.53-4.54,3.53-1.38,6.49-1.87,9.74.15.39.24,1,.06,1.58.07,1.09.24,2.36-.22,3.22.88C42.49,87.56,40.47,86.93,38.71,88.12Z"/><path class="cls-87" d="M70.87,75.16c1.3.5,3.87.4,3.64,2-.38,2.55-3.41,2.6-5.45,3.18-1.11.31-2-1.16-2-2.45C67.11,75.47,69.07,75.48,70.87,75.16Z"/><path class="cls-88" d="M167,92.18c.09-2.77,1.41-5.13,2.54-7.55.39-.82,1.08-1.71.13-2.54-.73-.63-1.53-.14-2.25.18-3.65,1.61-6.72,4.21-10.44,5.78-2.71,1.14-4.58.93-6.31-1.32-2.76-3.58-6-6.84-7.06-11.49,1.89.11,2.73,1.46,3.47,2.94,2.07,4.15,4.6,5.69,9.09,4.44s9.08-2.11,12.37-6.44c1.87-2.46,5.38-3.71,7.24-6.65.94-1.49,2.51-.39,3.66.09,2.28.94,4.15,2.38,4.5,5.11.16,1.26-.49,2.73.87,3.71,2.07,0,3.5,1.54,2.59,2.94-2,3.13-1.87,6.86-3.52,10-2.35,1.35-2.43,4.31-4.57,6a9.73,9.73,0,0,1-9,1.78C167,98.32,167.61,94.77,167,92.18Z"/><path class="cls-89" d="M170.22,64a5.23,5.23,0,0,1-2.42,2.41c-1.34,2.34-3,3.53-5.91,2.39A11,11,0,0,0,154,69c-2.58.92-4.82.77-5.55-2.51-.56-2.51-2.47-1.92-4.16-1.89-3.94.06-4.5-.55-3.78-4.27.16-.82.53-1.75-.26-2.2-2.14-1.23-2.55-3.69-4.06-5.36,1.36-2.68,4.61-3.15,6.33-5.41a4.37,4.37,0,0,1,1.11-.36c3.18.7,6.23,2.05,9.63,1.56a3.43,3.43,0,0,1,2.52,1.06c3.32,2.74,4.91,3.45,7.12,4.16,3,1,5.74,2.89,9.13,2.45.24,0,.48.19.7.36C173.09,59.48,172.8,62.12,170.22,64Z"/><path class="cls-90" d="M136.44,52.68c1.12,0,2.19,0,2.29,1.57.06.91-.09,2,1.09,2.33,3,.88,3.63,2.09,1.37,4.74-1.61,1.88.27,2.65,1.85,2.5a24.78,24.78,0,0,1,4.66-.21c1.91.18,2.24.45,1.86,2.32C149,68.81,151,69.28,153,68.42c3.67-1.59,7.15-1.83,10.81-.09,2,.94,2.54-1.6,4-2,.07,1.3-1.4,2.52-.4,3.82,2.78,3.62.12,4.72-2.56,6.15-5.59,3-10.93,2.73-16.49-.24-2.93-1.56-4.46-4.49-5.64-6.82-1.37-2.69-6.05-3.71-4.47-8.06.17-.48-1.47-1.3-2.68-.9-2.34.77-.81,2.37-.83,3.63a1.74,1.74,0,0,1-2.44,0,5.75,5.75,0,0,1-2.45-2.31c.74-1.78-1.45-1.69-1.79-2.78a2.38,2.38,0,0,1-.64-1.47c0-1.21-.72-2.56-1.58-2.48-2.58.25-2.53-1.71-3.2-3.13l2.15-.57,1,.7a2.29,2.29,0,0,1,1.5.57c1.14.72,1.7,2.4,3.46,2.11a5.74,5.74,0,0,1,1-.16C133.61,54.66,134.72,52.86,136.44,52.68Z"/><path class="cls-91" d="M170.22,64l2.4-7.29c-.37-1.88,1-2.66,2.32-3.07,1.9-.58,3-1.94,4.14-3.36,2-3.79,4.62-4.15,7.88-1.48,4.37,3.58,9.15,6.47,15.13,6.3a8.16,8.16,0,0,0,2.37-.3c4.12-1.43,5.28-.57,4.19,3.77-.7,2.76-.05,3.83,2.69,3.81,2.35.28,1.48,2.16,1.58,3.42.21,2.65-.27,5.36.87,7.9l0,.8a2,2,0,0,1-1.67.8c-1.27-1.38-.9-3.13-.67-4.61.58-3.69-1.65-5.73-4-7.74-.66-.56-1.53-1.38-2.48-.71s.25,1.73,0,2.61c-3.17-.25-6.06-1.56-9-2.48-2.59-.79-4-.21-4.6,2.41-2.09-1.54-4.2-3.06-2.41-6.13.76-1.32-.29-1.55-1.17-1.92A29.45,29.45,0,0,1,184,55.08c-2.26-1.3-3.73-.62-4.82,1.58S177,60.89,175.92,63C173.8,67.15,173.7,67.17,170.22,64Z"/><path class="cls-92" d="M183.86,91.38c0-3.44-.21-6.8,2.64-9.65,1.49-1.49-.7-2.38-1.71-3.29-.15-4-.93-8.46,3.39-10.74s7,1.48,10.09,3.69c2.69,2,5.4,3.89,8.17,5.72,3.12,2.07,5,4.65,4.12,8.6A6.87,6.87,0,0,1,212.17,89c-1,1-2.27,1-2.27-.46,0-6.58-5-9.53-9-13.23-2.84,0-4.2-2.53-6.25-3.87-1.21-.79-2.06-2.13-3.67-2.28-4.05,1.52-4.89,4.7-2.14,8.35,1.11,1.48,2.79,2.82.58,4.69l-1.22,1.19a7.69,7.69,0,0,0-2.47,5.72c-.05,1.19.33,2.85-1.66,3.1Z"/><path class="cls-93" d="M191.22,64.74c-1.09-4-.3-5,3.62-3.63,3.36,1.16,7.22,1,10,3.7-2.4,3.45-5.8,1-8.7,1.31C194.59,66.3,192.87,65.24,191.22,64.74Z"/><path class="cls-94" d="M212.17,89c-2.15-.29-1.5-2-1.62-3.26,3.32-.82,6.73-1.34,9.69-3.21-.33,2.77-.27,5.85-4.62,4.87C214.17,87,213.3,88.39,212.17,89Z"/><path class="cls-88" d="M132.29,64l2.44,0c4.38,2.19,6.49,6.13,8.05,10.48-2.5-.18-2.91-2.51-4-4.05-1.54-2.24-2.32-5.19-6.05-4.66C132.18,65.8,132.38,64.6,132.29,64Z"/><path class="cls-95" d="M213.79,73.66c-2.19-.31-1.52-2-1.65-3.35-.27-2.66.92-5.46-.8-8,.39-1.88,1.25-2.12,2.59-.75Q213.86,67.62,213.79,73.66Z"/><path class="cls-96" d="M220.2,64c1.45-.44.84,2.27,2.44,1.6V74C219.79,70.27,220.26,67.06,220.2,64Z"/><path class="cls-97" d="M229.9,67.15l4.83,0h0c.54,3.62,0,3.94-4,2.43C229.77,69,229.93,68.05,229.9,67.15Z"/><path class="cls-16" d="M230.71,69.61c1.77-.1,4.48,1.36,4-2.43,1.38.84,2.4,1.72.69,3.25C233.48,72.17,232,71.67,230.71,69.61Z"/><path class="cls-98" d="M212.09,75.26a1.65,1.65,0,0,1,1.67-.8c-.11,1.38.41,2.82-.4,4.2C211.62,78,212.38,76.42,212.09,75.26Z"/><path class="cls-99" d="M179.08,50.24c.31,2.38-.67,3.8-3.13,4a4.09,4.09,0,0,0-3.33,2.43,7,7,0,0,1-7.14-.72c-2.06-1.35-4.17-2.2-6.63-.53-1.18.8-2.15.66-1.94-1.44.23-2.33-1.15-4.61-3.51-4.38a17.12,17.12,0,0,1-9.82-1.8c-.51-2.28,1-2.94,2.75-3.39s3.57-.8,4.84-2.29a2.81,2.81,0,0,1,1-.46c2,.07,3.77,1.29,5.81.78a5.74,5.74,0,0,1,2.8,1.41c1.63.85,2.8-1,4.32-.74,3.39,1.41,7.51.79,10.3,4.55,1.07-3-.17-6.9,4.31-6.53.79,1-.06,1.36-.66,1.84C179.83,45.39,177.2,47.81,179.08,50.24Z"/><path class="cls-100" d="M179.08,43l.81-1.61c1-3,4.44-2.6,6.24-4.49,2-.58,3.61-1.17,6-.39,3.23,1.06,2.41,2.26,1.36,4.13A14.35,14.35,0,0,0,191.25,47,19.51,19.51,0,0,0,179.08,43Z"/><path class="cls-101" d="M212.08,47.81c-4.12,3-8.44,2.73-13,1a37.08,37.08,0,0,0-5.42-1.22c-1.33-2-2.39-4.11-.62-6.45,2.16.09,3.45,1.87,5.24,2.7,3.79,1.75,7.6,3.17,11.88,2.55A2.87,2.87,0,0,1,212.08,47.81Z"/><path class="cls-102" d="M221,42.15c.38.07.83.29,1.14.17,4.2-1.7,4.75.6,4.38,3.94-.42-.33-.82-.68-1.25-1-2.24-1.61-3.82.25-4.63,1.56-1.3,2.1,2.13,1.35,2.3,2.85-2.87,1.21-3.41,1-4.57-2-.87-2.21-2.58-.15-3.8-.68.34-3,3.69-2.57,5-4.44C220,42.2,220.39,41.8,221,42.15Z"/><path class="cls-103" d="M220.16,42.82C219.23,45.45,216,45,214.59,47l-2.51.78a1.78,1.78,0,0,1-1.68-.88,1.8,1.8,0,0,1-.2-1.67,3.89,3.89,0,0,1,1.09-1.36C214.08,42.21,217.07,42.16,220.16,42.82Z"/><path class="cls-104" d="M193.57,41.34c-1.61,2.12.75,4.16.12,6.25L191.25,47c-1.79-2.69.26-4.5,1.49-6.5a.71.71,0,0,1,.91-.07A.81.81,0,0,1,193.57,41.34Z"/><path class="cls-105" d="M259,50.24h-.78c-.56-1.08-1.29-2.14-.18-3.3.34.08.89.35,1,.23,5.31-6.35,11.83-7.24,19.24-4.41a2,2,0,0,0,2.54-.49c2-1.27,3.31,1.21,5.13.87a2.53,2.53,0,0,1,.31,1.1,1.88,1.88,0,0,1-.78,1.5c-1.72.79-3.08-.57-4.64-.77-2.47-.32-4,.23-3.48,3.2a6.21,6.21,0,0,1-1,5.36A5.4,5.4,0,0,1,273.75,55,8.89,8.89,0,0,1,264.34,51C262.54,48.44,261.08,48.35,259,50.24Z"/><path class="cls-106" d="M193.56,40.53l-.82-.06,1-2.52c-2.38-.56-4.79-1.87-7.42-.61-1.48,1.11-3,1.69-4.71.39a8.67,8.67,0,0,0-5.25-1.49c-2.17,0-4.24-.58-5-3.09-.39-.65,1.83-.85.27-1.8a1.51,1.51,0,0,1-.57-2.27c3.22-1.23,6.58-2,9.86-2.92a7.89,7.89,0,0,1,8.87,3.09c1.64,2.29,3.23,4.51,6.07,5.52a1.64,1.64,0,0,1,.94,2.57l.06.89a1.14,1.14,0,0,1-.62,1.23A7.54,7.54,0,0,1,193.56,40.53Z"/><path class="cls-107" d="M196.86,37.34c-3.79-2.63-6.68-6.2-10-9.35a6.18,6.18,0,0,0-7.86,0c-2.3,1.84-5.51.59-8,2.08-.7.32-1-.09-1.32-.64a1.76,1.76,0,0,1,1.56-2.27c2.61-.59,4.73-2.17,7-3.42h0c1.37-1.87,3.86-1.59,5.53-2.9,2.05-.59,4.07.29,6.17.19s3.18,1.81,2.79,4.09c1.56,2.53,1.27,5.92,4.22,7.92C198.25,33.78,198.06,35.93,196.86,37.34Z"/><path class="cls-108" d="M211.39,35.61a35.17,35.17,0,0,1,5.66,1.24c.93.36,3.41.6,1.56,2.81-4.81,4.3-10.83,4.32-15.34,0-.37-3.18,1.22-4.27,4.19-4.06C208.76,35.74,210.08,35.63,211.39,35.61Z"/><path class="cls-109" d="M203.27,39.7c5.12,2.12,10.24,3.25,15.34,0-1.83,4.39,1.69,1.11,2.49,1.74a3.82,3.82,0,0,0-.08.75l-.86.67c-2.91.91-6.11.24-8.9,1.71-2,1.23-3.43-.64-5.15-1-2.71-.5-5.24-1.79-8-2-1.11-.47-3-.35-1.94-2.49.26-.29.53-.57.79-.85C199.27,37.72,201,40.05,203.27,39.7Z"/><path class="cls-110" d="M192.87,25.08c-1.29-5.25-6-2.17-8.88-3.68-.79-1.72,1.17-1.1,1.55-1.83,2.7-.85,5.4.49,8.1,0,0,.29,0,.59-.07.88-.9,0-1.15.31-.65,1.16C193.61,22.74,194.23,23.94,192.87,25.08Z"/><path class="cls-111" d="M178.35,23.69a7.78,7.78,0,0,1-7.17,4.11c-.94,0-.92.73-1,1.37-2.51-1.34-4.23,1.22-6.45,1.31-1.8-.46-4-.16-4.87-2.45,1.13-.4,2.42-.46,3.27-1.44,1.93-2.2,4.12-2.32,6.86-1.48C172.19,26.09,175,22.86,178.35,23.69Z"/><path class="cls-112" d="M151.64,34.9c2.72-1.56,4.18-4.44,6.64-6.28,1,1.88,3,1.65,4.65,2a1.54,1.54,0,0,1,.36,1c-1.31,2.06-3.27,3.5-4.9,5.26a4.17,4.17,0,0,1-1,.28c-1.25.08-3.32-1.23-2.89,1.72A2.3,2.3,0,0,1,153.24,40a4.14,4.14,0,0,1-3.2-.86C149.34,37.3,151.55,36.49,151.64,34.9Z"/><path class="cls-113" d="M151.64,34.9c2.31,2.47-1.65,2.44-1.61,4-.38,1.41-1.68,1.53-2.74,2a3.92,3.92,0,0,1-1,.2,2.18,2.18,0,0,1-1.8-.93l-.15-.5a4.41,4.41,0,0,0,.08-.72C146.62,37.25,148.81,35.5,151.64,34.9Z"/><path class="cls-114" d="M185.54,19.57,184,21.4c-1.19,2.43-3.91,1.12-5.61,2.3C179.65,20.38,182.78,20.3,185.54,19.57Z"/><path class="cls-115" d="M162.8,31c-2.19.51-4.8,1.82-4.52-2.37l.57-.6,4.92,2A1.09,1.09,0,0,1,162.8,31Z"/><path class="cls-116" d="M278.51,22.32c2.58-1,5.27-1.64,7.3-3.9,1.13-1.25,2.88-1.55,4.83-.82s4.1.92,4.72-2c2.44-1.91,4.25-5.78,7.83-4.51,2.12.75,3.36.17,5-.38,1.08,2.09-.14,3.28-1.76,4.2-.81.46-2.12.24-2.62.94-3.91,5.46-10.79,6.08-15.8,9.79-2.48,1.84-2.92,3.58-1.91,6.12a11.1,11.1,0,0,1,.91,5.09c1.33.21,1.76-1.21,2.82-1.36,2.4,2.68,2.29,3.42-.68,4.68a6.12,6.12,0,0,1-5,.31,8.86,8.86,0,0,1-1-.71c-3-1.47-6.18-.54-9.27-.54-1.65,0-2.16-.39-1.24-1.9-.14-2,1-2.53,2.74-2.39a6.25,6.25,0,0,0,4.33-1.66c2.08-1.55,2.57-3.09.54-4.82S278,24.66,278.51,22.32Z"/><path class="cls-117" d="M110.55,52.7c-.1.38-.08,1-.32,1.12-4.49,2.3-8.63,5.82-13.62,6.41-2.15.25-2.79,2.28-4.66,2.05a6,6,0,0,0-1.22-2.73c-.77-1.25-1.21-2.63.42-3.68.6-.87,1.53-.73,2.4-.76.23.31.41.76.72.92,2.26,1.13,10.16-.43,11.76-2.44C107.36,51.94,108.84,52,110.55,52.7Z"/><path class="cls-117" d="M114.6,50.27c-.34,2.49-2.21,2.42-4,2.42C110.54,49.6,112.79,50.3,114.6,50.27Z"/><path class="cls-118" d="M283.13,39.78l.78.15c1.61.41,3.07.91,1.62,3-1.89,2-3.08-1.14-4.77-.64C281.19,41.09,283.32,41.53,283.13,39.78Z"/><path class="cls-119" d="M316.24,1.77c1.31,1.29,1.95-1,3.09-.57,2.92,2.88,6.82,2.59,10.43,3.23.4,1.62-.08,4.06,3.11,2.78.69-.28,1.06,1,1,1.84-.74,1.7-2.37,1.2-3.69,1.5a4.4,4.4,0,0,1-1.18-.23c-1.6-.54-2.19-1.85-2.57-3.34a2.31,2.31,0,0,1-3.17,1.91c-1.29-2.9-4.94-2.07-6.7-4.23C315.93,3.75,315.4,2.83,316.24,1.77Z"/><path class="cls-120" d="M330.62,9.9l3.24-.85c1.7.7.75-3.7,2.44-1.58,1.05,1.33,5,.81,3.21,4.34-.36.7.06,1.8.12,2.71l-.31.51a2.62,2.62,0,0,1-2.23.28c-3.93-3.46-4.32-3.43-7.91.65-1.65,1-2.22.2-2.06-1.35C327.34,12.39,328.31,10.62,330.62,9.9Z"/><path class="cls-121" d="M370.24,19.63l-4.72.7c-1.76-.85-3.63-.28-5.44-.38a5.35,5.35,0,0,1-4-2.26,13.3,13.3,0,0,1-1.37-2.33c.24-.9.39-1.94,1.76-1.2,1,.17.65,2.82,2.54,1.41C362.69,17.07,366.94,17,370.24,19.63Z"/><path class="cls-122" d="M356.46,14.16l-1.55,1.36c-2.6,1.72-4.13-1.4-6.36-1.38-1.52-.31-3.33-.27-3.28-2.58C348.9,9.62,352.15,10.38,356.46,14.16Z"/><path class="cls-123" d="M345.27,11.56c.81,1.89,2.6,1.39,4.07,1.66.15,1.62-.94,2-2.21,2.27-1.66-.92-2.41.4-3.29,1.37a3.38,3.38,0,0,1-1.7.05c-1-.44-2.35-.44-2.5-2a.94.94,0,0,1,0-.41C341.48,13.49,342.58,11,345.27,11.56Z"/><path class="cls-124" d="M289.73,35.56c-.41,2.48-2.16,3.06-5,3.28,2.92-3.45.39-6.22-.25-9.1-.43-1.91-.21-2.87,1.47-3.94,3.59-2.27,6.91-5,11.37-5.48,1-.11,1.49-.94,2.09-1.69,1.74-2.13,3.25-4.45,6.65-4.45,1.6,0,1.83-2,2.13-3.46.64-1.94,2.84-1.37,4-2.49.79-.67,1.84-.17,2.68-.58,3.87-1.87,4.68-1.16,6.42,2.63,1.05,2.3,1.93,4.26,1.19,6.72-1.37,2.3-3.19,4.27-4.68,6.48-2.54,3.35-6,5.27-9.89,6.66-.74,1-.95,2.32-1.7,3.34a4.64,4.64,0,0,1-3.38,1.79c-.87.53-1.8-2.29-2.63.07-1.72,2.26-4,1.94-6.39,1.48C292.36,36.55,291.2,35.56,289.73,35.56Z"/><path class="cls-125" d="M321.79,17.07c-.46-2,1.46-4.61-2.2-5.94-2.07-.76,1.33-1.63,1-3C319.32,8,317.21,9.3,317.23,6c-.74,3.84-2.65,3.82-5.08,2.24a2.48,2.48,0,0,0,0-3.19c1.5-1.16,3.25-.46,4.88-.67,2,1.49,5.09,1.28,6.43,3.9.65.66,1.51.32,2.27.48s1.63.57,1.76,1.41-.61,1.17-1.22,1.41c-3,1.18-2.05,4.43-3.49,6.41C322,18.18,321.64,17.93,321.79,17.07Z"/><path class="cls-126" d="M317.07,4.37c-1.27,2.77-3.33-.11-4.88.67l0-1,.93-2.14c1-.39,2-1.57,3.15-.14C316.52,2.64,316.8,3.51,317.07,4.37Z"/><path class="cls-121" d="M380,23.53c-2-.11-4.1.7-6-.92-1-.86-1.4.77-2.17,1.09-1.95-.81-.22-3.05-1.6-4.08,2,.1,3.4,2.34,5.63,1.64C376.9,22.63,378.78,22.47,380,23.53Z"/><path class="cls-127" d="M91.15,55.87c-1.83,2.4,2.49,4,.8,6.41a5.25,5.25,0,0,0-.67.22,4,4,0,0,0-1.73-2.94c-1.07-.77-2.5-1.63-1.94-3S89.94,56.12,91.15,55.87Z"/><path class="cls-128" d="M126.75,52.61l-1-.68c.62-3.18,4.86-2.78,5.7-5.75,2.53.1,3.73-2.26,5.73-3.13.86,1.15,1.55.09,2.3-.17l.39.35c1,2.47-2.25,2.83-2.38,4.75a3.13,3.13,0,0,1-1.19,1c-1.82-.16-2.45,1.6-3.74,2.31C130.44,50.86,128.87,53,126.75,52.61Z"/><path class="cls-113" d="M139.51,42.88c1.52-1.21,2.64-3,4.81-3.22l.18.25c-.44,2.78-1.57,4.55-4.79,3.25Z"/><path class="cls-129" d="M311.39,39.76c-.17,2.34,2.91,5.29,5.95,5.6a36.81,36.81,0,0,0,3.78,0c.77,2-2.62,2.34-1,4,1.05,1.07,2.57.1,3.81-.06,3-.38,6.26-2.3,8.17,2.06.39.89,1.7.42,2.61.21a1.22,1.22,0,0,1,1.51.95c.28.86-.1,2.07-.75,2-5.13-.46-7,5-11.17,6.07a6.52,6.52,0,0,1-.79.12,3.43,3.43,0,0,1-4.84,0c-3.76-1.06-7.53-1.82-11.3,0-1.26,1.25-2.72,1.1-4.22.63-1.31-.76-.58-1.47.05-2.21,2.75-3.24,3.58-7.27,4.94-11.72-2.58,1-4.55,1-6-1.15-1.09-1.68-1.24-3.24.21-4.71,1.2-1.21,2.52-2.22,4-.38.72.88,1.28.58,2,0C309.19,40.36,309.93,39.24,311.39,39.76Z"/><path class="cls-130" d="M311.39,39.76a9.17,9.17,0,0,0-3.17,3c-.83,1.15-1.76,1.39-2.33-.09-.46-1.17-.49-2.71-2.22-1.22-1.08.94-2.56,1.93-1.22,3.65,1.18,1.52,2.22,3.6,4.6,1.11,1.46-1.54,2.64.5,2.32,1.16-2,4.17-1.84,9.41-5.94,12.59-.31.24-.6.51-.9.76-1.22,3.72-4.4,2.32-6.92,2.66a7.58,7.58,0,0,1-4.34-1.33c-1.74-1.75-2.29-4.36-4.25-6-1.31-2.27-1-4.53,0-6.79a14.23,14.23,0,0,0,1.07-3.43c.7-2.12,2-3.16,4.26-2.22a5.68,5.68,0,0,0,2.06.59c3.24-4,7.24-5.88,12.4-4.6,1.07.27,1.34-.59,1.77-1.21,1.06-1.53,2.12-3.06,4.11-3.53,2.37-.17,3.75.72,3.55,3.31-.14.87-.47,1.65-1.51,1.13C313.47,38.72,312.44,39.18,311.39,39.76Z"/><path class="cls-131" d="M342.08,16.28l1.56.19a6.15,6.15,0,0,0,6.55-.73c2,.74,4.65-.74,6.27,1.62,2.37,3,6.41.85,9.06,3A19.74,19.74,0,0,0,356.86,23c-1.82.94-4.16.23-4.34-.5-1.19-4.71-3.39-1.27-5.22-.9-2.55.51-4.47,1.41-4.52,4.57,0,2.55-1.83,2.93-4,2.31H338a21.16,21.16,0,0,0-2.18-4.55,2.86,2.86,0,0,1,.81-4.1C338.26,18.34,339.36,16.06,342.08,16.28Z"/><path class="cls-132" d="M295.28,62.35c2.49-.18,5.21.65,7.25-1.61l4.81,0c6.35,0,6.35,0,6.47,4.86-.17,2.88-3.84,3.53-4.05,6.38l-.05.08c-.82.71-1.84.88-2.5.06-2.3-2.84-5.73-3.73-8.74-5.37C296.82,65.82,294.63,65,295.28,62.35Z"/><path class="cls-132" d="M318.64,60.72h4.84c2.12,1.84,3.63,0,5.32-.85,2.27-1.17,5.1-4,7.05-1.6s-1.8,4.18-3.39,5.88c-3.12,3.35-11.36,2.91-14.11-.49C317.45,62.53,318.3,61.67,318.64,60.72Z"/><path class="cls-133" d="M337.24,20.48c-2.76,2.21-.09,4.52.88,5.15,2.23,1.47.41,1.94-.12,2.82-1.22.42-1.78-1.91-3.18-.78-2.57-.32-2.45-2-1.94-3.85.5-1.59-1.07-3.16-.06-4.76C335,17.48,336.11,18.94,337.24,20.48Z"/><path class="cls-134" d="M316.24,38.23c-.91-1.52-1.74-3.18-4-2.49a.88.88,0,0,1-.3-.66c0-.25,0-.38.08-.38a4.2,4.2,0,0,1,1.72-1.54c2.19-.8,4.25-2.15,6.76-1.66,1.91,1.52.83,2.84-.29,4.16C318.66,36.2,318.05,38.13,316.24,38.23Z"/><path class="cls-133" d="M320.18,35.66c.4-1.33,1.22-2.65.05-4-.84-1.42.06-1.85,1.21-2.09a34.11,34.11,0,0,1,7.26-.91,2.07,2.07,0,0,1,2.09.65C327.67,32.12,323.7,33.52,320.18,35.66Z"/><path class="cls-135" d="M330.79,29.31l-2.48-.06c.18-2.89,2.36-5,5.68-5.61-1.33,1.67-.64,2.93.83,4C334,29.53,332.33,29.26,330.79,29.31Z"/><path class="cls-136" d="M246.68,80c-1.91,2.54-.42,6.65-4.7,8.7l3.68-9.22Z"/><path class="cls-137" d="M189.53,101.13a2.27,2.27,0,0,0-1.59-1.52c-1.54-.17-1.56-1.41-1.8-2.5-.26-2.31.46-4.51.9-6.73a2.79,2.79,0,0,1,2.22-2.56,2.27,2.27,0,0,1,2.67,1.93c.65,4.43,3.71,7.21,6.42,10.33,2,2.31,1.53,5,.14,7.49-3.08,2.23-4.87-.83-7.18-1.76l0,0C190.37,104.39,191,102.36,189.53,101.13Z"/><path class="cls-138" d="M198.49,107.57c1-4.48-.5-8-4-10.93-1.86-1.56-2.53-4-3.3-6.18-.31-.9-.42-2-1.57-2-1.41,0-1.54,1.18-1.67,2.27-.26,2.1-.56,4.19-.84,6.28-2.17-.31-1.8-2.05-2-3.49.56-3.77-.36-7.92,2.78-11.06l.86-.82c1.49-.69,2.92-.91,4.23.38a56.14,56.14,0,0,0,4.86,6.24c1.56,1.94,1.47,2.14-.23,3.89-1.25.19-2.95-.65-3.66.73-.87,1.71,1.06,2.45,1.9,3.53A3.89,3.89,0,0,0,197,97.56c4.32,2.29,5.52,5.5,3,9.86Z"/><path class="cls-139" d="M191.18,68c3.86,1.57,6.31,5,9.68,7.24-.71,4.36.67,7.36,5.06,9,2.71,1,3.45,5.59,2.19,10.27-1.38,0-2.27,2.39-4,.8-1.9-5.46-6.34-8.79-10.4-12.44-1.07-1.75-2.74-2.89-4.22-4.22C185.28,74.91,186,70.54,191.18,68Z"/><path class="cls-140" d="M259,50.24a3,3,0,0,1,2.6-3.05c1.7-.22,2.33,1.21,3.06,2.55,1.9,3.46,5.05,4.71,8.87,4.54,2,2.21,4.85,1.75,7.33,2.47,3,.87,3.63,1.91,2.6,4.38-2.24-.21-4.51.37-6.71-.37v-.12c-1.73-1.44-3.83-.71-5.73-.8C264.57,59.52,262.19,54.38,259,50.24Z"/><path class="cls-141" d="M295.28,62.35a2.23,2.23,0,0,0,.34.71c4.11,3.91,9.28,6.15,14.09,9,0,.8,0,1.6,0,2.4-4-2.51-7.4-5.83-12.41-6.51C294.2,67.48,291,69,288,67.17c.17-3.37-3.32-3.62-4.77-5.6a7.28,7.28,0,0,1,7.94-.09Z"/><path class="cls-142" d="M194.39,82.53c4.08,3.65,9.64,6.19,9.75,12.85-.27,1.13,1.44,2.57,0,3.29-1.7.86-2-1.16-2.76-2.12-1.19-1.51-3.74-1.86-3.77-4.37,1.66-1.63.07-2.54-.8-3.61-1.53-1.91-3.92-3.25-4.1-6.07A1.11,1.11,0,0,1,194.39,82.53Z"/><path class="cls-64" d="M291.16,61.48l-8,.09c-2.15-.43-4.5.75-6.52-.81l7.26,0c.8-1.45,4.39,0,3.41-3.32a2,2,0,0,1,.61-1.5C290,57.21,290.68,59.28,291.16,61.48Z"/><path class="cls-88" d="M185.54,93.79A5.08,5.08,0,0,0,187.12,97c0,.93-.05,1.9.82,2.56a3.6,3.6,0,0,1-.95,4.54c-2.29,2.17-4.23,4.71-6.37,7-.62.68-1.34,1.68-2.1,1.75-4.63.43-6.11,3.51-6.69,7.47a15.71,15.71,0,0,0-.43-3.92,3.84,3.84,0,0,1,2.25-5.28c7.77-3.39,10.6-9.72,11.16-17.59A.45.45,0,0,1,185.54,93.79Z"/><path class="cls-143" d="M185.54,93.79a4.55,4.55,0,0,1-.73-.17L184,92.18c1.43-1.73.25-3.86.86-5.71a6.29,6.29,0,0,1,3-4C185.88,86,186.54,90.07,185.54,93.79Z"/><path class="cls-51" d="M189.53,101.13c2.29.93,2.44,2.66,1.76,4.71C189.5,104.71,189.55,102.91,189.53,101.13Z"/><path class="cls-144" d="M127.41,57.41l.92.77a2,2,0,0,1-.5.61c-.6.57-2.67.24-1.28,2.05-.79.07-1.74.46-2.34.16-1.2-.61-3.57.65-3.54-1.42,0-1.35,2-1.9,3.53-2.09A28.61,28.61,0,0,1,127.41,57.41Z"/><path class="cls-145" d="M126.55,60.84c-2.07-2.67.1-2.5,1.78-2.66.7,1.08,3.23,1.35,1.51,3.48C128.7,61.56,127.39,62.14,126.55,60.84Z"/><path class="cls-146" d="M151.66,42.18c-.26,2.81-2.73,2.82-4.5,3.06s-3,.88-3.58,2.56l-.79,0c-1.61.87-3.27,2.06-4.3-.68,1.81-3.44,6.2-3.56,8.38-6.52h0C148.76,40.31,150.58,40.11,151.66,42.18Z"/><path class="cls-147" d="M138.7,47c1.06,1.73,2.7.72,4.09.86-1.31,2.68-3.72,3.92-6.35,4.86-1.31,1.49-2.38,3.46-4.93,2.4,1.47-2.26,2.4-4.92,4.73-6.56l.81-.8C137.58,47.41,137.85,46.56,138.7,47Z"/><path class="cls-148" d="M136.24,48.52c-1.23,2.44-1.5,5.57-4.73,6.56a3.55,3.55,0,0,1-.66.17c-.85-.24-2-.38-1.85-1.52.25-1.76,1.79-2.35,3.27-2.86C133.23,49.47,133.55,47,136.24,48.52Z"/><path class="cls-149" d="M132.27,50.87c.42,1.75-4.63,1.72-1.42,4.38-.2.53.15,2-1.12.86a32.36,32.36,0,0,1-3-3.5C128.53,51.85,129.73,49.22,132.27,50.87Z"/><path class="cls-143" d="M194.39,82.53l-1.66,0a6.83,6.83,0,0,0-4-.83c2.23-1.75.17-2.66-.82-3.56-2.28-2-2-4.65-1.31-7A4,4,0,0,1,191.18,68c-5,4.17-4.91,7,0,11A9.94,9.94,0,0,1,194.39,82.53Z"/><path class="cls-150" d="M171.85,32.45c.1.38.11,1,.33,1.11,4.59,1.73,9.23,3.34,14.17,3.78-1.42,2.52-4.51,2.35-6.46,4-2.54.59-3.79,1.87-2.63,4.61a1.83,1.83,0,0,1-.36,2.23c-.69.56-1.84.65-2.23.06-2.46-3.71-7-2.46-10.17-4.51-1.62-1.16-2.59.72-3.94.83L158.14,43c-1.81-1.1-3.68-2.2-.44-3.86,2.62.86,4.46-1.32,6.75-1.75,3.07.24,1.11-2,1-2.62-.44-2.45,1.58-2.54,2.81-3.15S171.22,29.84,171.85,32.45Z"/><path class="cls-146" d="M158.17,39.71c-3.42,1.06.11,2.18,0,3.27-2.22,1.65-3.93.05-5.74-.9a2.25,2.25,0,0,1,.77-2.47l.77-.81c1.1-.81,2.44-1.22,3.47-2.14a3.68,3.68,0,0,1,.66-.23C160.67,37.44,159.54,38.57,158.17,39.71Z"/><path class="cls-151" d="M153.17,39.61c.3,1-.27,1.72-.77,2.47l-.74.1c-1.82.19-3.07-1.35-4.77-1.56,1.05-.57,2.1-1.14,3.14-1.72A5.16,5.16,0,0,1,153.17,39.61Z"/><path class="cls-152" d="M160.56,44.58c2.05-3,2.46-3.07,3.94-.83C163,43.21,162.52,47.39,160.56,44.58Z"/><path class="cls-153" d="M196.13,39.08c0,1.62,1.27,1.41,2.3,1.51,3.67,2.57,8.06,3.32,12.15,4.84l-.18,1.5c-6.75,1.57-12.1-1.06-16.83-5.59,0-.27,0-.54,0-.81C194.19,39.65,194.88,38.86,196.13,39.08Z"/><path class="cls-154" d="M210.58,45.43c-4.81.29-9-1-12.15-4.84a50.7,50.7,0,0,1,12.83,3.94Z"/><path class="cls-155" d="M312.21,34.94v.8C311.14,36.91,310,38,309,39.26s-.87,4-3.27.76c-1.33-1.81-8.76,2-9.32,4.65-.34,1.62-1.15,1-2,.63-.47-.41-.18-2.75-1.64-.63-2.44-1.17-3.65-.19-3.93,2.3-.11.9,0,1.87-.86,2.49-1.08.32-2.36,1-3.17-.15s-1.09-2.37.33-3.35c1,.07,1.08-.63,1.37-1.36.6-1.5-.6-.54-.91-.77,0-.31-.05-.61-.08-.92.56-1.59-.66-2.22-1.62-3,1.49-.52,3-.1,4.64-.52,3.11-.81,2.41-2.08,1.18-3.85,1.3-1.6,2.81-.3,3.9.09,2.4.85,4.38.7,6.27-1,.79.23,1.19,1.05,1.9,1.36,2.06.9,4.13,2,5.64-1a4.09,4.09,0,0,1,2.8-2A2.21,2.21,0,0,1,312.21,34.94Z"/><path class="cls-156" d="M285.51,46.14c-1.46,2.83.44,3.12,2.48,3.32-1,2.14-1.43,4.28,0,6.43,0,.53,0,1.07,0,1.61-1.55.49-2.94-.3-4.11-1-2.18-1.26-3.92-3.26-6.84-1.23-.88.61-1.89-.53-1.17-1.9.14-1.43,1.15-2.7.66-4.25-.55-1.73-1.65-4.1.37-5,1.83-.78,4.41-1.19,6.37.53a3.34,3.34,0,0,0,2.2.71.43.43,0,0,1,.23.46C285.62,46.06,285.57,46.14,285.51,46.14Z"/><path class="cls-54" d="M275.84,53.4c1,3.22,2.1.57,2.93-.06,1.23-.93,2.09-2.24,3,.38,1,2.77,4.52,1.84,6.18,3.78,2.21,2.51,1.51,3.51-1.68,3.25-.77-.06-1.55,0-2.33,0-.34-2.59-2.37-2.89-4.37-3.21-1.69-.27-3.38-.65-5.08-.79-2.07-.17-1.6-1.23-1-2.43Z"/><path class="cls-157" d="M285.51,46.14a2,2,0,0,0-.07-.72c.06-.53.11-1.06.17-1.59l1.54-2.51c.17,2.08.78,3.82.33,5.21C286.77,48.67,286.09,46.84,285.51,46.14Z"/><path class="cls-158" d="M171.85,32.45c-3.37-.87-5.43.25-5.27,4.13.11,2.87-1.07,1.45-2.07,1.42-.13-.23-.2-.58-.4-.68-2.89-1.39-2.85-3.39-1.26-5.74a2,2,0,0,0,0-.59l1-.93c.46-.23,1.15-.34,1.35-.71,1.61-3,3.34-.92,5-.18l.91.85a22.54,22.54,0,0,1,1.82,1.55c.33.34.77,1.15.68,1.23C172.93,33.39,172.45,32.55,171.85,32.45Z"/><path class="cls-151" d="M162.85,31.58c.39,1.42-2.26,4.08,1.84,4.08,1,0,.21,1.54-.18,2.34-2.16.39-3.38,4.3-6.34,1.71.38-1.11,1.27-2.23-.1-3.28C158.86,34,161.19,33.14,162.85,31.58Z"/><path class="cls-151" d="M157.41,36.66c.18,2.89-1.81,2.24-3.47,2.14-.22-1-.43-2-.66-3.08C155,35,156,36.89,157.41,36.66Z"/><path class="cls-148" d="M138.7,47l-1.65.76c-1.13-2.7,3-2.31,2.66-4.56,2.56.33,3.55-1.65,4.79-3.25l2.37.71a8.71,8.71,0,0,1-5.57,4.59C140.35,45.43,139.56,46.35,138.7,47Z"/><path class="cls-159" d="M334,23.64c-1.13,2.64-4.87,2.64-5.68,5.61a59.9,59.9,0,0,1-6.62,1c-1.16.06-1.28.59-1.46,1.37L313.64,34c-.63-1.36.4-1.93,1.24-2.57,2.27-1.7,5.24-2.51,6.08-5.91.32-1.34,2-.92,3,.08,1.86,1.89,2.44.92,2.52-1.12.05-1.28,1-2.15,1.42-3.26.47-1.65-1.23-1.83-1.91-2.81.39,1.1,2.11,1.9.55,3.23-1.87.53-3.72,1.7-5.63.1A4.16,4.16,0,0,1,322.53,18c.42-6.22.48-6.32,4.35-7.73l-3.38-2c2.57,1.25,1.11-2.49,2.62-2.18,1.8.39,1.17,3.33,3.34,3.57.39,0,.77.16,1.16.24-1.7,1.29-2.27,3.24-2.74,5.14-.35,1.4.61.56,1.1.38l.5.08a8.79,8.79,0,0,1,2.35,1.94A4.14,4.14,0,0,1,333,19.66C332.18,21.27,335.33,21.89,334,23.64Z"/><path class="cls-160" d="M333,19.66,331.46,18c.48-1.48.55-3.24,2.59-3.58,1,.42,1.9,2.44,3.22.37l2.37.11,2.44,1.34-4.84,4.2C335.65,21.1,334.86,17.66,333,19.66Z"/><path class="cls-159" d="M337.27,14.83c.6,2.62-2.18,1.54-2.58,3-1.33-1,.81-2.33-.79-3-1.5.38-2.9,1.31-4.55.86l-.37-.26c0-2.76,2.76-3.59,4.22-4.19C335.05,10.48,336.05,13.36,337.27,14.83Z"/><path class="cls-161" d="M356.46,17.36c-2-1.31-4.34-.05-6.36-1-1-.67-3,.74-3.26-1.52a3,3,0,0,0,2.5-1.62c2.07.25,3.26,2.62,5.57,2.3C356.06,15.6,356.61,16.19,356.46,17.36Z"/><path class="cls-162" d="M346.84,14.84c.79,1.16,2.55.22,3.26,1.52-2.11,2.62-4.26,3.06-6.46.11,1.64-1-.4-2,0-3.1Z"/><path class="cls-163" d="M310.53,33.38c-1,1-2.36,1.87-2.93,3.09-.65,1.38-1.85,2.83-2.71,2-1.57-1.46-5.36,0-5-3.81.88-1.87,1.8-1,2.72,0,2,1.66,2.43-.12,3.09-1.4.32-1.33.63-2.66,1-4,1.53-.64,2.95-.84,3.86,1C310.84,31.29,311.2,32.33,310.53,33.38Z"/><path class="cls-164" d="M309.78,30.91c-.22-2.11-1.86-1.52-3.12-1.64,3.88-1.45,7.83-2.77,10.44-6.31a1.1,1.1,0,0,1,1.61-.32c.88,2.83-1.46,4.08-3,5.42A10.82,10.82,0,0,1,309.78,30.91Z"/><path class="cls-165" d="M318.57,22.69,317.1,23c1.42-2.08,2.58-4.36,4.69-5.89l.74.88A3.26,3.26,0,0,1,321,21.3,2.88,2.88,0,0,1,318.57,22.69Z"/><path class="cls-166" d="M305.71,33.25c-.23,1,1.6,2.34-.09,3.1-1.39.61-2.57-.12-3-1.7Z"/><path class="cls-167" d="M292.78,44.67l-.45-1.84c.87,0,2-.43,2.54,0,.88.74-.19,1.66-.45,2.49A1.4,1.4,0,0,1,292.78,44.67Z"/><path class="cls-168" d="M318.57,22.69A2.14,2.14,0,0,1,321,21.3c1.94.92,3.81-.8,5.73-.14a.94.94,0,0,1,1.49.15c.38,1.76-2,3.28-.47,5.15-.93.71-1.64,1.76-2.94,1.9-1.52.17-1.23-1-1.42-1.85s-.57-1.24-1.37-1c-.3.09-.77.59-.72.77,1,3.54-2.49,3.17-3.91,4.62-1.15,1.18-3.33,1.07-3.74,3.09l-1.43,1-1.68-1.56-.75-2.47c2.33-2.6,6.32-3.13,8.08-6.48A3.68,3.68,0,0,0,318.57,22.69Z"/><path class="cls-169" d="M328.21,21.31l-1.49-.15a1.58,1.58,0,0,0-1.08-1.47c-.58-.2-1.59,1-1.76-.51,2.18,0,.06-2.25,1.4-2.61,1-.27,1.86.93,1.67,1.2C325.58,19.68,332.53,18.55,328.21,21.31Z"/><path class="cls-170" d="M329.35,15.68a5,5,0,0,1,4.55-.86c-1.58.5-.19,3.23-2.44,3.22A4.81,4.81,0,0,1,329.35,15.68Z"/></g></g></svg>